<?xml version="1.0" encoding="UTF-8" standalone="no"?>
<svg
   xmlns:dc="http://purl.org/dc/elements/1.1/"
   xmlns:cc="http://creativecommons.org/ns#"
   xmlns:rdf="http://www.w3.org/1999/02/22-rdf-syntax-ns#"
   xmlns:svg="http://www.w3.org/2000/svg"
   xmlns="http://www.w3.org/2000/svg"
   xmlns:sodipodi="http://sodipodi.sourceforge.net/DTD/sodipodi-0.dtd"
   xmlns:inkscape="http://www.inkscape.org/namespaces/inkscape"
   sodipodi:docname="04.svg"
   inkscape:version="1.0 (4035a4fb49, 2020-05-01)"
   id="svg3882"
   version="1.1"
   viewBox="0 0 135.46666 135.46667"
   height="512"
   width="512">
  <defs
     id="defs3876" />
  <sodipodi:namedview
     inkscape:window-maximized="1"
     inkscape:window-y="-9"
     inkscape:window-x="-9"
     inkscape:window-height="1001"
     inkscape:window-width="1920"
     units="px"
     showgrid="false"
     inkscape:document-rotation="0"
     inkscape:current-layer="layer1"
     inkscape:document-units="mm"
     inkscape:cy="301.40095"
     inkscape:cx="400"
     inkscape:zoom="0.98994949"
     inkscape:pageshadow="2"
     inkscape:pageopacity="0.0"
     borderopacity="1.0"
     bordercolor="#666666"
     pagecolor="#ffffff"
     id="base" />
  <metadata
     id="metadata3879">
    <rdf:RDF>
      <cc:Work
         rdf:about="">
        <dc:format>image/svg+xml</dc:format>
        <dc:type
           rdf:resource="http://purl.org/dc/dcmitype/StillImage" />
        <dc:title></dc:title>
      </cc:Work>
    </rdf:RDF>
  </metadata>
  <g
     id="layer1"
     inkscape:groupmode="layer"
     inkscape:label="Layer 1">
    <g
       transform="matrix(0.13495461,0,0,0.13495461,34.363655,-1.5404074)"
       id="g4614">
      <g
         id="g4518">
	<polygon
   style="fill:#3b4c5b"
   points="7.973,490.658 7.973,184.827 127.294,21.342 469.817,490.658 "
   id="polygon4514" />

	<polygon
   style="fill:#3b4c5b"
   points="245.419,353.848 242.317,347.258 404.991,124.37 504.399,260.573 504.399,490.658 309.738,490.658 "
   id="polygon4516" />

</g>
      <polygon
         style="fill:#2a3944"
         points="322.919,455.092 245.419,353.848 242.317,347.258 404.991,124.37 "
         id="polygon4520" />
      <polyline
         style="fill:#3b4c5b"
         points="405.046,490.657 206.326,218.381 7.605,490.657 "
         id="polyline4522" />
      <polygon
         style="fill:#2a3944"
         points="206.326,218.381 127.244,490.657 7.605,490.657 "
         id="polygon4524" />
      <polygon
         style="fill:#eaeaea"
         points="274.71,404.277 243.645,463.779 179.802,405.695 146.071,425.842 109.004,447.984 87.44,381.283 206.325,218.385 354.247,421.067 "
         id="polygon4526" />
      <polygon
         style="fill:#cccccc"
         points="146.071,425.842 109.004,447.984 87.44,381.283 206.325,218.385 "
         id="polygon4528" />
      <polygon
         style="fill:#eaeaea"
         points="404.991,238.633 371.33,260.025 341.168,279.187 329.002,228.494 404.991,124.37 480.979,228.494 468.813,279.187 "
         id="polygon4530" />
      <polygon
         style="fill:#cccccc"
         points="371.33,260.025 341.168,279.187 329.002,228.494 404.991,124.37 "
         id="polygon4532" />
      <polygon
         style="fill:#eaeaea"
         points="174.895,147.385 154.618,191.995 112.036,149.413 90.329,166.294 57.288,191.995 53.384,122.616 127.294,21.342 243.006,179.89 "
         id="polygon4534" />
      <polygon
         style="fill:#2a3944"
         points="127.294,21.342 7.973,489.228 7.973,184.827 "
         id="polygon4536" />
      <polygon
         style="fill:#cccccc"
         points="90.329,166.294 57.288,191.995 53.384,122.616 127.294,21.342 "
         id="polygon4538" />
      <path
         d="m 212.459,213.885 c -1.433,-1.954 -3.71,-3.108 -6.133,-3.108 -0.002,0 -0.005,0 -0.008,0 -2.426,0.002 -4.704,1.162 -6.134,3.122 l -74.845,102.548 c -2.476,3.392 -1.733,8.149 1.66,10.624 3.393,2.477 8.149,1.733 10.624,-1.66 l 68.715,-94.151 130.797,178.421 -60.856,-12.845 c -3.339,-0.708 -6.733,0.898 -8.311,3.922 l -26.501,50.761 -56.548,-51.448 c -2.479,-2.254 -6.14,-2.622 -9.016,-0.903 l -62.601,37.392 -17.437,-53.934 27.521,-37.708 c 2.476,-3.392 1.733,-8.149 -1.66,-10.624 -3.392,-2.477 -8.149,-1.732 -10.624,1.66 L 1.462,486.175 c -2.476,3.392 -1.733,8.149 1.66,10.624 1.352,0.987 2.921,1.462 4.477,1.462 2.345,0 4.66,-1.082 6.148,-3.122 l 71.042,-97.338 16.98,52.521 c 0.713,2.203 2.39,3.962 4.558,4.777 2.168,0.816 4.589,0.599 6.576,-0.589 l 65.955,-39.395 59.67,54.287 c 1.412,1.285 3.24,1.98 5.117,1.98 0.442,0 0.887,-0.039 1.329,-0.118 2.322,-0.412 4.32,-1.878 5.411,-3.968 l 28.395,-54.392 71.834,15.162 48.805,66.576 c 1.49,2.032 3.799,3.108 6.139,3.108 1.56,0 3.135,-0.479 4.489,-1.472 3.387,-2.483 4.119,-7.242 1.637,-10.628 z"
         id="path4540" />
      <path
         d="m 510.538,256.089 -51.962,-71.196 c -2.477,-3.393 -7.234,-4.136 -10.624,-1.66 -3.392,2.476 -4.136,7.233 -1.66,10.624 l 26.477,36.277 -8.863,36.925 -54.836,-34.844 c -2.489,-1.582 -5.667,-1.582 -8.156,0 l -54.836,34.844 -8.863,-36.924 67.778,-92.865 25.785,35.329 c 2.477,3.392 7.234,4.135 10.624,1.66 3.392,-2.476 4.136,-7.233 1.66,-10.624 L 411.135,119.89 c -1.432,-1.962 -3.714,-3.122 -6.142,-3.122 -2.428,0 -4.71,1.16 -6.142,3.122 L 279.534,283.37 c -2.476,3.392 -1.733,8.149 1.66,10.624 1.353,0.987 2.921,1.462 4.476,1.462 2.346,0 4.66,-1.082 6.148,-3.122 l 33.626,-46.073 8.33,34.701 c 0.573,2.388 2.265,4.353 4.541,5.274 0.919,0.372 1.887,0.556 2.852,0.556 1.426,0 2.843,-0.4 4.079,-1.186 l 59.744,-37.963 59.745,37.963 c 2.072,1.317 4.654,1.552 6.931,0.631 2.276,-0.922 3.968,-2.885 4.541,-5.274 l 8.33,-34.703 13.717,18.794 c 1.489,2.04 3.802,3.122 6.148,3.122 1.555,0 3.125,-0.475 4.476,-1.462 3.393,-2.476 4.135,-7.233 1.66,-10.625 z"
         id="path4542" />
      <path
         d="m 3.493,190.966 c 3.393,2.476 8.149,1.733 10.624,-1.66 l 32.865,-45.031 2.711,48.148 c 0.159,2.823 1.872,5.324 4.445,6.494 2.573,1.171 5.584,0.816 7.816,-0.92 l 49.45,-38.461 37.835,37.835 c 1.439,1.439 3.378,2.227 5.376,2.227 0.451,0 0.905,-0.041 1.357,-0.122 2.454,-0.445 4.534,-2.065 5.565,-4.335 l 17.071,-37.557 59.385,28.338 44.565,61.061 c 1.489,2.04 3.802,3.122 6.148,3.122 1.555,0 3.125,-0.475 4.477,-1.462 3.392,-2.476 4.136,-7.233 1.66,-10.624 L 133.433,16.861 c -1.432,-1.962 -3.714,-3.122 -6.142,-3.122 -2.428,0 -4.71,1.16 -6.142,3.122 L 47.25,118.114 v 0 L 1.834,180.341 c -2.475,3.392 -1.732,8.149 1.659,10.625 z M 127.291,34.243 219.125,160.069 178.169,140.525 c -1.842,-0.88 -3.96,-0.98 -5.878,-0.282 -1.918,0.699 -3.475,2.139 -4.319,3.998 l -15.736,34.62 -34.824,-34.823 c -2.711,-2.711 -7.018,-2.98 -10.045,-0.626 L 64.064,177.092 61.125,124.9 Z"
         id="path4544" />
      <g
         id="g4546">
</g>
      <g
         id="g4548">
</g>
      <g
         id="g4550">
</g>
      <g
         id="g4552">
</g>
      <g
         id="g4554">
</g>
      <g
         id="g4556">
</g>
      <g
         id="g4558">
</g>
      <g
         id="g4560">
</g>
      <g
         id="g4562">
</g>
      <g
         id="g4564">
</g>
      <g
         id="g4566">
</g>
      <g
         id="g4568">
</g>
      <g
         id="g4570">
</g>
      <g
         id="g4572">
</g>
      <g
         id="g4574">
</g>
    </g>
    <g
       id="g4678"
       transform="matrix(0.13495461,0,0,0.13495461,34.3633,67.899227)">
      <g
         id="g4620">
	<polygon
   id="polygon4616"
   points="127.294,21.342 469.817,490.658 7.973,490.658 7.973,184.827 "
   style="fill:#3b4c5b" />

	<polygon
   id="polygon4618"
   points="404.991,124.37 504.399,260.573 504.399,490.658 309.738,490.658 245.419,353.848 242.317,347.258 "
   style="fill:#3b4c5b" />

</g>
      <polygon
         id="polygon4622"
         points="242.317,347.258 404.991,124.37 322.919,455.092 245.419,353.848 "
         style="fill:#2a3944" />
      <polyline
         id="polyline4624"
         points="405.046,490.657 206.326,218.381 7.605,490.657 "
         style="fill:#3b4c5b" />
      <polygon
         id="polygon4626"
         points="7.605,490.657 206.326,218.381 127.244,490.657 "
         style="fill:#2a3944" />
      <polygon
         id="polygon4628"
         points="179.802,405.695 146.071,425.842 109.004,447.984 87.44,381.283 206.325,218.385 354.247,421.067 274.71,404.277 243.645,463.779 "
         style="fill:#eaeaea" />
      <polygon
         id="polygon4630"
         points="87.44,381.283 206.325,218.385 146.071,425.842 109.004,447.984 "
         style="fill:#cccccc" />
      <polygon
         id="polygon4632"
         points="341.168,279.187 329.002,228.494 404.991,124.37 480.979,228.494 468.813,279.187 404.991,238.633 371.33,260.025 "
         style="fill:#eaeaea" />
      <polygon
         id="polygon4634"
         points="329.002,228.494 404.991,124.37 371.33,260.025 341.168,279.187 "
         style="fill:#cccccc" />
      <polygon
         id="polygon4636"
         points="112.036,149.413 90.329,166.294 57.288,191.995 53.384,122.616 127.294,21.342 243.006,179.89 174.895,147.385 154.618,191.995 "
         style="fill:#eaeaea" />
      <polygon
         id="polygon4638"
         points="7.973,184.827 127.294,21.342 7.973,489.228 "
         style="fill:#2a3944" />
      <polygon
         id="polygon4640"
         points="53.384,122.616 127.294,21.342 90.329,166.294 57.288,191.995 "
         style="fill:#cccccc" />
      <path
         id="path4642"
         d="m 212.459,213.885 c -1.433,-1.954 -3.71,-3.108 -6.133,-3.108 -0.002,0 -0.005,0 -0.008,0 -2.426,0.002 -4.704,1.162 -6.134,3.122 l -74.845,102.548 c -2.476,3.392 -1.733,8.149 1.66,10.624 3.393,2.477 8.149,1.733 10.624,-1.66 l 68.715,-94.151 130.797,178.421 -60.856,-12.845 c -3.339,-0.708 -6.733,0.898 -8.311,3.922 l -26.501,50.761 -56.548,-51.448 c -2.479,-2.254 -6.14,-2.622 -9.016,-0.903 l -62.601,37.392 -17.437,-53.934 27.521,-37.708 c 2.476,-3.392 1.733,-8.149 -1.66,-10.624 -3.392,-2.477 -8.149,-1.732 -10.624,1.66 L 1.462,486.175 c -2.476,3.392 -1.733,8.149 1.66,10.624 1.352,0.987 2.921,1.462 4.477,1.462 2.345,0 4.66,-1.082 6.148,-3.122 l 71.042,-97.338 16.98,52.521 c 0.713,2.203 2.39,3.962 4.558,4.777 2.168,0.816 4.589,0.599 6.576,-0.589 l 65.955,-39.395 59.67,54.287 c 1.412,1.285 3.24,1.98 5.117,1.98 0.442,0 0.887,-0.039 1.329,-0.118 2.322,-0.412 4.32,-1.878 5.411,-3.968 l 28.395,-54.392 71.834,15.162 48.805,66.576 c 1.49,2.032 3.799,3.108 6.139,3.108 1.56,0 3.135,-0.479 4.489,-1.472 3.387,-2.483 4.119,-7.242 1.637,-10.628 z" />
      <path
         id="path4644"
         d="m 510.538,256.089 -51.962,-71.196 c -2.477,-3.393 -7.234,-4.136 -10.624,-1.66 -3.392,2.476 -4.136,7.233 -1.66,10.624 l 26.477,36.277 -8.863,36.925 -54.836,-34.844 c -2.489,-1.582 -5.667,-1.582 -8.156,0 l -54.836,34.844 -8.863,-36.924 67.778,-92.865 25.785,35.329 c 2.477,3.392 7.234,4.135 10.624,1.66 3.392,-2.476 4.136,-7.233 1.66,-10.624 L 411.135,119.89 c -1.432,-1.962 -3.714,-3.122 -6.142,-3.122 -2.428,0 -4.71,1.16 -6.142,3.122 L 279.534,283.37 c -2.476,3.392 -1.733,8.149 1.66,10.624 1.353,0.987 2.921,1.462 4.476,1.462 2.346,0 4.66,-1.082 6.148,-3.122 l 33.626,-46.073 8.33,34.701 c 0.573,2.388 2.265,4.353 4.541,5.274 0.919,0.372 1.887,0.556 2.852,0.556 1.426,0 2.843,-0.4 4.079,-1.186 l 59.744,-37.963 59.745,37.963 c 2.072,1.317 4.654,1.552 6.931,0.631 2.276,-0.922 3.968,-2.885 4.541,-5.274 l 8.33,-34.703 13.717,18.794 c 1.489,2.04 3.802,3.122 6.148,3.122 1.555,0 3.125,-0.475 4.476,-1.462 3.393,-2.476 4.135,-7.233 1.66,-10.625 z" />
      <path
         id="path4646"
         d="m 3.493,190.966 c 3.393,2.476 8.149,1.733 10.624,-1.66 l 32.865,-45.031 2.711,48.148 c 0.159,2.823 1.872,5.324 4.445,6.494 2.573,1.171 5.584,0.816 7.816,-0.92 l 49.45,-38.461 37.835,37.835 c 1.439,1.439 3.378,2.227 5.376,2.227 0.451,0 0.905,-0.041 1.357,-0.122 2.454,-0.445 4.534,-2.065 5.565,-4.335 l 17.071,-37.557 59.385,28.338 44.565,61.061 c 1.489,2.04 3.802,3.122 6.148,3.122 1.555,0 3.125,-0.475 4.477,-1.462 3.392,-2.476 4.136,-7.233 1.66,-10.624 L 133.433,16.861 c -1.432,-1.962 -3.714,-3.122 -6.142,-3.122 -2.428,0 -4.71,1.16 -6.142,3.122 L 47.25,118.114 v 0 L 1.834,180.341 c -2.475,3.392 -1.732,8.149 1.659,10.625 z M 127.291,34.243 219.125,160.069 178.169,140.525 c -1.842,-0.88 -3.96,-0.98 -5.878,-0.282 -1.918,0.699 -3.475,2.139 -4.319,3.998 l -15.736,34.62 -34.824,-34.823 c -2.711,-2.711 -7.018,-2.98 -10.045,-0.626 L 64.064,177.092 61.125,124.9 Z" />
      <g
         id="g4648">
</g>
      <g
         id="g4650">
</g>
      <g
         id="g4652">
</g>
      <g
         id="g4654">
</g>
      <g
         id="g4656">
</g>
      <g
         id="g4658">
</g>
      <g
         id="g4660">
</g>
      <g
         id="g4662">
</g>
      <g
         id="g4664">
</g>
      <g
         id="g4666">
</g>
      <g
         id="g4668">
</g>
      <g
         id="g4670">
</g>
      <g
         id="g4672">
</g>
      <g
         id="g4674">
</g>
      <g
         id="g4676">
</g>
    </g>
  </g>
</svg>
