<?xml version="1.0" encoding="UTF-8" standalone="no"?>
<svg
   xmlns:dc="http://purl.org/dc/elements/1.1/"
   xmlns:cc="http://creativecommons.org/ns#"
   xmlns:rdf="http://www.w3.org/1999/02/22-rdf-syntax-ns#"
   xmlns:svg="http://www.w3.org/2000/svg"
   xmlns="http://www.w3.org/2000/svg"
   xmlns:sodipodi="http://sodipodi.sourceforge.net/DTD/sodipodi-0.dtd"
   xmlns:inkscape="http://www.inkscape.org/namespaces/inkscape"
   sodipodi:docname="06.svg"
   inkscape:version="1.0 (4035a4fb49, 2020-05-01)"
   id="svg6026"
   version="1.1"
   viewBox="0 0 135.46666 135.46667"
   height="512"
   width="512">
  <defs
     id="defs6020" />
  <sodipodi:namedview
     inkscape:window-maximized="1"
     inkscape:window-y="-9"
     inkscape:window-x="-9"
     inkscape:window-height="1001"
     inkscape:window-width="1920"
     units="px"
     showgrid="false"
     inkscape:document-rotation="0"
     inkscape:current-layer="layer1"
     inkscape:document-units="mm"
     inkscape:cy="338.57143"
     inkscape:cx="400"
     inkscape:zoom="0.7"
     inkscape:pageshadow="2"
     inkscape:pageopacity="0.0"
     borderopacity="1.0"
     bordercolor="#666666"
     pagecolor="#ffffff"
     id="base" />
  <metadata
     id="metadata6023">
    <rdf:RDF>
      <cc:Work
         rdf:about="">
        <dc:format>image/svg+xml</dc:format>
        <dc:type
           rdf:resource="http://purl.org/dc/dcmitype/StillImage" />
        <dc:title></dc:title>
      </cc:Work>
    </rdf:RDF>
  </metadata>
  <g
     id="layer1"
     inkscape:groupmode="layer"
     inkscape:label="Layer 1">
    <g
       transform="matrix(0.13707343,0,0,0.13707343,0.62675304,42.719182)"
       id="g6660">
      <path
         d="M 446.51562,116.98438 420.85547,41.140625 C 414.05078,21.03125 395.18359,7.5 373.95312,7.5 h -191.8125 v 170.10937 h 220.88672 c 31.42578,0 53.5625,-30.85937 43.48828,-60.62499 z m 0,0"
         fill="#acabb1"
         id="path6619" />
      <path
         d="M 446.51562,116.98438 420.85547,41.140625 C 414.05078,21.03125 395.18359,7.5 373.95312,7.5 h -76.59765 c 21.22656,0 40.09375,13.53125 46.89844,33.640625 l 21.50781,80.003905 c 10.07031,29.76172 -5.36719,56.46484 -36.78906,56.46484 h 74.05859 c 31.42187,0 53.55859,-30.85937 43.48437,-60.62499 z m 0,0"
         fill="#97979e"
         id="path6621" />
      <path
         d="M 213.55469,7.5 H 124.76172 C 107.29297,7.5 91.765625,21.03125 86.167969,41.140625 L 65.050781,116.98438 c -8.289062,29.76562 9.925781,60.62499 35.785159,60.62499 h 136.64453 c 25.85547,0 44.07031,-30.85937 35.78515,-60.62499 L 252.14844,41.140625 C 246.54687,21.03125 231.02344,7.5 213.55469,7.5 Z m 0,0"
         fill="#c6c5ca"
         id="path6623" />
      <path
         d="M 502.01953,283.26562 476.35547,207.42187 C 469.55078,187.3125 450.68359,173.78125 429.45703,173.78125 H 99.894531 V 343.89062 H 458.53125 c 31.42578,0 53.55859,-30.85937 43.48828,-60.625 z m 0,0"
         fill="#d8d7da"
         id="path6625" />
      <path
         d="m 502.01953,283.26562 -25.66406,-75.84375 c -6.80469,-20.10937 -25.67188,-33.64062 -46.89844,-33.64062 h -76.59766 c 21.22657,0 40.09375,13.53125 46.89844,33.64062 l 25.66406,75.84375 c 10.07032,29.76563 -12.0664,60.625 -43.48828,60.625 h 76.60157 c 31.42187,0 53.55468,-30.85937 43.48437,-60.625 z m 0,0"
         fill="#c6c5ca"
         id="path6627" />
      <path
         d="M 190.45312,173.78125 H 82.546875 c -21.230469,0 -40.097656,13.53125 -46.902344,33.64062 L 9.980469,283.26562 c -10.0703128,29.76563 12.066406,60.625 43.488281,60.625 h 166.05859 c 31.42188,0 53.5586,-30.85937 43.48828,-60.625 l -25.66406,-75.84375 c -6.80469,-20.10937 -25.66797,-33.64062 -46.89844,-33.64062 z m 0,0"
         fill="#eaeaea"
         id="path6629" />
      <path
         d="m 482.6875,226.12891 -47.39844,-6.1875 c -9.07812,-1.1836 -18.14062,2.28906 -24.09765,9.24218 l -11.87891,13.85938 c -4.27734,4.98828 -10.38672,8.03906 -16.94141,8.46094 l -25.53906,1.64843 c -7.87891,0.50782 -14.96875,4.96094 -18.84766,11.83594 l -14.63671,25.9375 c -2.76172,4.90234 1.93359,10.64453 7.28515,8.90234 l 34.19922,-11.1289 c 3.88672,-1.26563 8.03125,-1.53125 12.04688,-0.76953 l 34.42578,6.51172 c 10.97656,2.07812 22.3164,-0.60938 31.19531,-7.39063 l 17.58203,-13.42187 c 7.30078,-5.57813 16.55469,-7.94922 25.64063,-6.57813 l 11.39453,1.72266 z m 0,0"
         fill="#c6c5ca"
         id="path6631" />
      <path
         d="m 482.6875,226.12891 -47.39844,-6.1875 c -9.07812,-1.1836 -18.14062,2.28906 -24.09765,9.24218 l -2.91797,3.40625 17.14453,50.67578 c 1.21875,3.60547 1.96875,7.21875 2.28516,10.80079 5.3164,-1.26172 10.35937,-3.625 14.79687,-7.01563 l 17.57813,-13.42187 c 7.30468,-5.57813 16.55859,-7.94922 25.64062,-6.57813 l 11.39453,1.72266 z m 0,0"
         fill="#acabb1"
         id="path6633" />
      <path
         d="m 67.203125,109.25 59.460935,-9.777344 c 8.92969,-1.433594 18.0625,-0.941406 26.79297,1.437504 l 9.53516,2.59765 c 8.01172,2.17969 13.9414,-7.406248 8.41406,-13.597654 L 150.14844,66.101562 c -6.19922,-6.941406 -15.48047,-10.28125 -24.67969,-8.886718 l -45.75,7.09375 z m 0,0"
         fill="#acabb1"
         id="path6635" />
      <path
         d="m 396.98047,101.54688 45.55859,3.6875 -15.15625,-44.789068 -34.98437,17.585938 c -11.23828,5.648438 -7.95313,22.5 4.58203,23.51563 z m 0,0"
         fill="#898890"
         id="path6637" />
      <path
         d="m 509.12109,280.85937 -25.66015,-75.83984 c -6.42188,-18.96875 -22.12891,-32.83594 -41.03516,-37.24609 3.72656,-4.08203 6.84375,-8.75782 9.19922,-13.89453 5.67578,-12.3711 6.38281,-26.32813 1.99609,-39.29688 L 427.95703,38.738281 C 420.11719,15.566406 398.41406,0 373.95312,0 H 124.76172 C 103.87109,0 85.457031,15.726562 78.941406,39.128906 L 57.824219,114.97266 c -5.289063,18.99609 -1.113281,39.32031 9.925781,53.26171 -18.085938,4.85547 -33,18.42969 -39.207031,36.78516 L 2.878906,280.86328 c -5.585937,16.50391 -2.9648435,34.08984 7.191406,48.24609 10.15625,14.16016 25.972657,22.27735 43.398438,22.27735 h 405.0625 c 17.42187,0 33.24219,-8.11719 43.39844,-22.27735 10.15625,-14.15625 12.77734,-31.74218 7.1914,-48.25 z M 431.78125,96.839844 397.58594,94.070312 c -3.36719,-0.273437 -4.23438,-2.875 -4.44922,-3.980468 -0.21485,-1.105469 -0.39063,-3.839844 2.6289,-5.359375 L 423.04687,71.019531 Z M 124.76172,15 h 88.79297 c 14.07422,0 26.67969,11.3125 31.36719,28.152344 l 4.07031,14.625 c 1.11328,3.988281 5.24609,6.320312 9.23828,5.214844 3.98828,-1.113282 6.32422,-5.246094 5.21094,-9.238282 L 259.37109,39.132812 C 256.73047,29.648438 252.13672,21.425781 246.21484,15 h 127.73828 c 18.02735,0 34.01954,11.472656 39.79688,28.546875 l 4.44141,13.125 -29.16016,14.660156 c -8.07813,4.058594 -12.34766,12.753907 -10.61719,21.628907 1.73047,8.875002 8.94922,15.328122 17.96094,16.062502 l 40.64453,3.28906 c 0,0 17.11328,34.99219 -17.19922,53.96875 h -147.7539 c 9.88671,-13.77344 13.50781,-33.04297 8.42578,-51.30859 l -8.875,-31.863285 c -1.10938,-3.988281 -5.2461,-6.316406 -9.23438,-5.214844 -3.99218,1.113281 -6.32422,5.246094 -5.21484,9.238281 l 8.87109,31.863278 c 5.14063,18.45313 -1.59765,38.79297 -15.375,47.28516 H 87.59375 C 58.210938,142.25 73.144531,115.87109 73.144531,115.87109 L 127.84766,106.875 c 7.93359,-1.26953 15.88672,-0.84375 23.63672,1.26953 l 9.53906,2.59766 c 6.82812,1.85937 13.91015,-0.9336 17.6289,-6.94922 C 182.375,97.777344 181.71094,90.191406 177,84.914062 L 155.74219,61.105469 C 147.82813,52.242188 136.09375,48.019531 124.32031,49.804688 l -34.25781,5.3125 3.328125,-11.964844 C 98.082031,26.3125 110.6875,15 124.76172,15 Z m -39.117189,55.976562 40.949219,-6.34375 c 6.72266,-1.023437 13.43359,1.394532 17.96094,6.464844 0,0 21.67187,24.273438 21.34375,24.804688 -0.32813,0.535156 -10.47266,-2.226563 -10.47266,-2.226563 -9.82031,-2.679687 -19.89844,-3.21875 -29.98047,-1.601562 L 77.578125,99.945312 Z M 53.46875,336.39062 c -12.53125,0 -23.90625,-5.83984 -31.210938,-16.02343 -7.304687,-10.17969 -9.1875,-22.82813 -5.171874,-34.69922 L 42.75,209.82812 c 5.773438,-17.07421 21.769531,-28.55078 39.796875,-28.55078 H 190.45313 c 18.02343,0 34.01953,11.47657 39.79687,28.55078 l 25.66016,75.84375 c 4.01953,11.86719 2.13281,24.51563 -5.17188,34.69532 -7.30469,10.18359 -18.67969,16.02343 -31.21094,16.02343 z m 436.27344,-16.02343 c -7.30469,10.18359 -18.67969,16.02343 -31.21094,16.02343 H 256.67578 c 2.26172,-2.20703 22.84766,-22.67578 13.44531,-55.53125 l -25.66406,-75.83984 c -3.15234,-9.31641 -8.55078,-17.40234 -15.46484,-23.74219 h 200.46093 c 18.02735,0 34.01954,11.47266 39.79688,28.55078 l 16.82422,49.71094 c -10.79688,-1.41797 -21.88281,1.51563 -30.54688,8.12891 l -17.57812,13.42187 c -7.17578,5.48047 -16.37891,7.66407 -25.25391,5.98438 l -34.42578,-6.51563 c -5.23828,-0.99218 -10.6875,-0.64453 -15.76172,1.00782 l -30.95312,10.07421 12.95703,-22.96484 c 2.64453,-4.6875 7.42969,-7.6914 12.80078,-8.03906 l 25.53906,-1.64844 c 8.51953,-0.55078 16.59375,-4.58203 22.15235,-11.0664 l 11.8789,-13.85938 c 4.32813,-5.04687 10.84375,-7.53516 17.4336,-6.68359 l 16.42968,2.14453 c 4.10547,0.53125 7.8711,-2.35547 8.40625,-6.46485 0.53907,-4.10546 -2.35937,-7.87109 -6.46484,-8.40625 l -16.42969,-2.14453 c -11.6289,-1.51953 -23.1289,2.89063 -30.76172,11.79688 l -11.88281,13.85547 c -2.9414,3.43359 -7.21875,5.57031 -11.73047,5.85937 l -25.53515,1.64844 c -10.44922,0.67578 -19.75391,6.51953 -24.89844,15.63672 l -14.63281,25.93359 c -2.79297,4.94922 -2.27344,10.98438 1.32422,15.37891 2.65625,3.24609 8.17968,6.02734 14.8125,4.33984 l 34.19531,-11.12891 c 2.67969,-0.87109 5.55859,-1.05468 8.33203,-0.53125 l 34.42578,6.51563 c 13.05078,2.46875 26.58594,-0.73828 37.14063,-8.80078 l 17.58203,-13.42578 c 13.85937,-10.69532 26.84375,-4.07813 26.84375,-4.07813 l 3.4375,10.16016 c 4.02343,11.87109 2.13672,24.51953 -5.16797,34.69922 z m 0,0"
         id="path6639" />
    </g>
    <g
       transform="matrix(0.11177815,0,0,0.11177815,78.54354,38.110076)"
       id="XMLID_407_">
      <g
         id="XMLID_1090_">
        <g
           id="XMLID_1270_">
          <path
             id="XMLID_372_"
             d="m 316.151,155.043 57.703,-49.924 C 386.694,94.01 402.673,87.296 419.47,85.833 l 10.394,-27.64 h -30.23 c -34.346,0 -67.797,10.951 -95.494,31.261 -22.257,16.321 -39.959,38.075 -51.417,63.184 l -12.555,27.512 h 13.094 c 23.138,-1.077 45.301,-9.89 62.889,-25.107 z"
             fill="#c68a65" />
        </g>
        <g
           id="XMLID_410_">
          <path
             id="XMLID_325_"
             d="m 69.171,359.524 -4.073,-42.509 c -3.134,-12.577 -7.993,-24.734 -14.346,-36.176 -5.322,-9.586 -8.386,-20.598 -8.472,-32.32 -0.107,-14.667 4.553,-28.224 12.486,-39.335 l -0.002,-0.026 C 30.041,209.157 10,229.198 10,253.919 v 106.883 c 0,25.307 11.969,49.122 32.278,64.222 l 0.325,-0.332 c 17.031,-17.416 26.568,-40.807 26.569,-65.166 v -0.002 z"
             fill="#c68a65" />
        </g>
        <g
           id="XMLID_1842_">
          <path
             id="XMLID_278_"
             d="M 177.611,315.764 H 131.88 l -22.376,59.726 v 71.107 l 5.011,10.247 c 2.129,4.353 -0.544,9.348 -5.039,10.26 v 0.161 h 38.841 c 5.354,0 8.856,-5.611 6.504,-10.42 l -5.011,-10.247 v -71.107 z"
             fill="#c68a65" />
        </g>
        <g
           id="XMLID_1235_">
          <path
             id="XMLID_277_"
             d="m 231.028,315.765 -32.145,140.144 c -1.333,5.812 3.083,11.356 9.046,11.356 h 30.151 c 6.864,0 11.353,-7.192 8.337,-13.358 l -3.574,-7.308 33.935,-126.083 z"
             fill="#c68a65" />
        </g>
        <g
           id="XMLID_1234_">
          <path
             id="XMLID_267_"
             d="m 494.899,144.04 -37.3,-44.273 c -7.824,-9.045 -19.193,-14.243 -31.152,-14.243 -19.316,0 -37.985,6.956 -52.593,19.594 l -57.703,49.925 c -18.803,16.268 -42.835,25.222 -67.699,25.222 H 111.005 c -37.772,0 -69.001,30.483 -68.725,68.254 0.086,11.722 3.149,22.734 8.471,32.32 11.729,21.126 18.42,44.673 18.42,68.837 v 110.35 c 0,3.998 3.241,7.24 7.24,7.24 h 31.601 c 5.354,0 8.856,-5.611 6.504,-10.42 l -5.011,-10.247 v -71.107 l 22.376,-59.726 H 265.45 c 13.344,0 24.162,10.818 24.162,24.162 v 120.098 c 0,3.998 3.241,7.24 7.24,7.24 h 31.601 c 5.354,0 8.856,-5.611 6.504,-10.42 l -5.011,-10.247 V 371.69 c 0,-27.332 14.412,-52.336 37.458,-67.03 19.766,-12.602 32.875,-34.714 32.875,-59.895 v -24.5 l 25.709,-45.537 35.324,15.128 c 13.904,6.003 30.089,0.354 37.238,-12.998 5.696,-10.64 4.244,-23.69 -3.651,-32.818 z"
             fill="#d1a184" />
        </g>
      </g>
      <g
         id="XMLID_373_">
        <path
           id="XMLID_374_"
           d="m 438.57,139.298 c 1.86,-1.86 2.93,-4.44 2.93,-7.07 0,-2.63 -1.07,-5.21 -2.93,-7.07 -1.86,-1.86 -4.44,-2.93 -7.07,-2.93 -2.63,0 -5.21,1.07 -7.07,2.93 -1.86,1.86 -2.93,4.44 -2.93,7.07 0,2.63 1.07,5.21 2.93,7.07 1.86,1.86 4.44,2.93 7.07,2.93 2.63,0 5.21,-1.07 7.07,-2.93 z" />
        <path
           id="XMLID_377_"
           d="M 502.508,137.552 465.246,93.324 c -0.028,-0.033 -0.056,-0.066 -0.085,-0.099 -4.61,-5.329 -10.21,-9.566 -16.402,-12.566 V 44.691 c 0,-4.417 -2.898,-8.31 -7.128,-9.579 -4.231,-1.267 -8.792,0.388 -11.222,4.077 l -5.932,9.003 h -24.845 c -36.726,0 -71.792,11.479 -101.407,33.197 -23.581,17.291 -42.461,40.493 -54.602,67.097 l -9.938,21.778 h -32.681 c -5.523,0 -10,4.477 -10,10 0,5.523 4.477,10 10,10 h 47.448 c 27.26,0 53.626,-9.823 74.241,-27.659 l 57.703,-49.924 c 12.787,-11.064 29.141,-17.157 46.05,-17.157 9.043,0 17.623,3.915 23.55,10.741 l 37.255,44.219 c 0.028,0.033 0.056,0.066 0.084,0.099 5.15,5.953 6.113,14.615 2.398,21.555 -4.657,8.698 -15.4,12.446 -24.486,8.525 l -35.324,-15.127 c -4.688,-2.008 -10.137,-0.166 -12.645,4.276 l -25.709,45.537 c -0.847,1.5 -1.292,3.194 -1.292,4.916 v 24.5 c 0,20.946 -10.561,40.184 -28.251,51.462 -26.351,16.8 -42.083,45.01 -42.083,75.462 v 74.909 c 0,1.522 0.348,3.025 1.017,4.393 l 3.068,6.274 H 299.61 V 339.927 c 0,-18.837 -15.325,-34.162 -34.162,-34.162 H 146.305 l 5.337,-14.246 c 1.938,-5.172 -0.684,-10.935 -5.856,-12.872 -5.172,-1.939 -10.935,0.684 -12.873,5.856 l -32.774,87.48 c -0.42,1.122 -0.636,2.31 -0.636,3.508 v 71.107 c 0,1.523 0.348,3.025 1.017,4.394 l 3.068,6.273 H 79.171 V 349.676 c 0,-25.054 -6.798,-50.526 -19.661,-73.662 -4.66,-8.381 -7.16,-17.914 -7.231,-27.567 -0.111,-15.274 5.825,-29.728 16.715,-40.697 11.193,-11.274 26.113,-17.484 42.011,-17.484 5.523,0 10,-4.477 10,-10 0,-5.523 -4.477,-10 -10,-10 -21.268,0 -41.229,8.308 -56.205,23.394 -1.831,1.845 -3.558,3.763 -5.179,5.748 C 21.828,202.007 0,225.458 0,253.919 v 106.883 c 0,28.333 13.574,55.342 36.311,72.247 1.783,1.325 3.878,1.975 5.963,1.975 2.612,0 5.208,-1.02 7.153,-3.008 l 0.324,-0.332 c 3.422,-3.499 6.563,-7.204 9.419,-11.082 v 39.422 c 0,9.506 7.734,17.24 17.24,17.24 h 71.905 c 5.987,0 11.455,-3.032 14.625,-8.111 3.17,-5.079 3.493,-11.323 0.862,-16.702 l -3.994,-8.167 v -66.579 l 24.177,-51.94 h 34.488 l -29.339,127.909 c -1.32,5.756 0.033,11.706 3.712,16.324 3.679,4.618 9.176,7.267 15.081,7.267 h 30.151 c 6.696,0 12.811,-3.391 16.356,-9.072 3.545,-5.681 3.906,-12.663 0.964,-18.68 l -1.926,-3.938 26.137,-97.11 v 111.56 c 0,9.506 7.734,17.24 17.24,17.24 h 31.601 c 5.987,0 11.454,-3.032 14.625,-8.111 3.17,-5.079 3.493,-11.323 0.862,-16.702 l -3.994,-8.168 V 371.69 c 0,-23.584 12.274,-45.49 32.834,-58.598 23.48,-14.97 37.499,-40.513 37.499,-68.327 v -21.872 l 20.011,-35.444 27.059,11.587 c 18.522,7.997 40.494,0.329 50.018,-17.458 7.589,-14.17 5.634,-31.854 -4.856,-44.026 z M 367.31,97.556 309.607,147.48 c -15.118,13.081 -33.993,20.912 -53.797,22.477 l 6.009,-13.168 c 10.724,-23.5 27.403,-43.996 48.233,-59.271 26.162,-19.184 57.138,-29.325 89.58,-29.325 h 11.666 l -6.595,10.009 c -13.716,3.402 -26.555,9.977 -37.393,19.354 z M 41.289,411.075 C 27.827,397.986 20,379.776 20,360.802 V 253.919 c 0,-12.213 6.337,-22.967 15.889,-29.169 -2.421,7.62 -3.669,15.638 -3.609,23.842 0.095,12.996 3.467,25.838 9.75,37.14 11.213,20.171 17.141,42.282 17.141,63.944 v 9.871 c -0.005,18.902 -6.299,36.897 -17.882,51.528 z m 99.454,-39.804 c -0.615,1.322 -0.934,2.762 -0.934,4.22 v 71.107 c 0,1.523 0.348,3.025 1.017,4.393 l 3.068,6.273 h -18.863 c -0.27,-1.644 -0.775,-3.265 -1.532,-4.814 l -3.995,-8.167 v -66.98 l 19.308,-51.538 h 23.114 z m 92.443,72.728 c -0.629,2.335 -0.39,4.82 0.673,6.993 l 3.068,6.273 H 208.83 l 30.163,-131.5 h 26.015 z" />
        <path
           id="XMLID_501_"
           d="m 156.01,190.268 c 2.63,0 5.2,-1.07 7.07,-2.93 1.86,-1.86 2.93,-4.44 2.93,-7.07 0,-2.64 -1.07,-5.21 -2.93,-7.07 -1.87,-1.87 -4.44,-2.93 -7.07,-2.93 -2.64,0 -5.21,1.06 -7.08,2.93 -1.86,1.86 -2.92,4.43 -2.92,7.07 0,2.63 1.06,5.21 2.92,7.07 1.86,1.86 4.44,2.93 7.08,2.93 z" />
      </g>
    </g>
  </g>
</svg>
