<?xml version="1.0" encoding="UTF-8" standalone="no"?>
<svg
   xmlns:dc="http://purl.org/dc/elements/1.1/"
   xmlns:cc="http://creativecommons.org/ns#"
   xmlns:rdf="http://www.w3.org/1999/02/22-rdf-syntax-ns#"
   xmlns:svg="http://www.w3.org/2000/svg"
   xmlns="http://www.w3.org/2000/svg"
   xmlns:sodipodi="http://sodipodi.sourceforge.net/DTD/sodipodi-0.dtd"
   xmlns:inkscape="http://www.inkscape.org/namespaces/inkscape"
   width="512"
   height="512"
   viewBox="0 0 135.46666 135.46667"
   version="1.1"
   id="svg6026"
   inkscape:version="1.0 (4035a4fb49, 2020-05-01)"
   sodipodi:docname="09.svg">
  <defs
     id="defs6020" />
  <sodipodi:namedview
     id="base"
     pagecolor="#ffffff"
     bordercolor="#666666"
     borderopacity="1.0"
     inkscape:pageopacity="0.0"
     inkscape:pageshadow="2"
     inkscape:zoom="0.98994949"
     inkscape:cx="400"
     inkscape:cy="303.08454"
     inkscape:document-units="mm"
     inkscape:current-layer="layer1"
     inkscape:document-rotation="0"
     showgrid="false"
     units="px"
     inkscape:window-width="1920"
     inkscape:window-height="1001"
     inkscape:window-x="-9"
     inkscape:window-y="-9"
     inkscape:window-maximized="1" />
  <metadata
     id="metadata6023">
    <rdf:RDF>
      <cc:Work
         rdf:about="">
        <dc:format>image/svg+xml</dc:format>
        <dc:type
           rdf:resource="http://purl.org/dc/dcmitype/StillImage" />
        <dc:title />
      </cc:Work>
    </rdf:RDF>
  </metadata>
  <g
     inkscape:label="Layer 1"
     inkscape:groupmode="layer"
     id="layer1">
    <g
       transform="matrix(0.18402101,0,0,0.18402101,0.42039739,17.042533)"
       id="g1676">
      <path
         id="path1037"
         fill="#62dbfb"
         d="m 312.098,28.815 c -1.447,-0.207 -41.965,7.235 -41.965,7.235 v 49.407 h 105.842 l 0.884,-42.968 z" />
      <g
         id="g1041">
        <path
           id="path1039"
           fill="#fccd7f"
           d="M 82.506,63.111 H 440.603 V 489.837 H 82.506 Z" />
      </g>
      <g
         id="g1047">
        <path
           id="path1043"
           fill="#fbc56d"
           d="M 136.363,63.111 H 82.506 v 57.231 369.495 h 53.857 V 120.462 h 304.24 V 63.111 Z" />
        <path
           id="path1045"
           fill="#fdd79b"
           d="m 440.603,95.463 c 9.128,0 16.528,-7.4 16.528,-16.528 V 59.683 c 0,-9.128 -7.4,-16.528 -16.528,-16.528 L 82.618,43.406 c -7.751,1.366 -13.64,8.134 -13.64,16.277 v 19.251 c 0,9.128 7.4,16.528 16.528,16.528 h 355.097 z" />
      </g>
      <g
         id="g1658">
        <path
           style="fill:#ffffff;fill-opacity:1"
           d="M 453.084,442.299 H 200.991 c -20.268,0 -36.699,-16.431 -36.699,-36.699 V 154.486 c 0,-9.928 7.72,-18.384 17.642,-18.737 10.416,-0.37 18.977,7.964 18.977,18.298 v 138.811 c 0,10.154 7.896,18.802 18.043,19.163 10.653,0.379 19.408,-8.145 19.408,-18.713 v -28.87 c 0,-8.992 7.29,-16.282 16.282,-16.282 33.115,0 59.961,-26.845 59.961,-59.961 v -4.489 c 0,-27.773 -22.514,-50.287 -50.287,-50.287 -14.335,0 -25.956,-11.621 -25.956,-25.955 V 87.288 c 0,-8.91 2.689,-17.612 7.715,-24.969 8.198,-12.001 21.766,-19.213 36.3,-19.295 L 376.86,42.489 C 376.86,23.517 361.48,8.136 342.507,8.136 H 119.201 c -19.703,0 -35.675,15.972 -35.675,35.675 0,10.121 4.021,19.827 11.177,26.984 l 8.465,8.465 c 9.926,9.926 15.503,23.389 15.503,37.427 v 295.835 c 0,13.364 -5.309,26.18 -14.758,35.629 -9.449,9.449 -22.266,14.758 -35.629,14.758 H 29.642 c -12.229,0 -22.142,9.914 -22.142,22.142 v 17.842 h 496.029 v -10.149 c -10e-4,-27.86 -22.585,-50.445 -50.445,-50.445 z"
           fill="#fee45a"
           id="path1049" />
        <path
           style="fill:#e3e3e3;fill-opacity:1"
           id="path1051"
           fill="#fed402"
           d="m 60.836,483.868 h 38.641 c 13.364,0 26.18,-5.309 35.629,-14.758 9.449,-9.449 14.758,-22.266 14.758,-35.629 V 78.646 c 0,-14.038 -5.576,-27.501 -15.503,-37.427 l -8.465,-8.465 C 119.365,26.223 115.457,17.567 114.822,8.412 97.187,10.572 83.526,25.591 83.526,43.81 c 0,10.121 4.021,19.827 11.177,26.984 l 8.465,8.465 c 9.926,9.926 15.503,23.389 15.503,37.427 v 295.835 c 0,13.364 -5.309,26.18 -14.758,35.629 -9.449,9.449 -22.266,14.758 -35.629,14.758 H 29.642 c -12.229,0 -22.142,9.914 -22.142,22.143 v 17.842 h 31.416 c 1.516,-10.752 10.75,-19.025 21.92,-19.025 z" />
      </g>
      <path
         id="path1055"
         fill="#fedf30"
         d="m 328.634,389.182 c -10.349,0 -18.738,-8.389 -18.738,-18.738 V 337.91 c 0,-10.349 8.389,-18.738 18.738,-18.738 10.349,0 18.738,8.389 18.738,18.738 v 32.534 c 0,10.348 -8.389,18.738 -18.738,18.738 z"
         style="fill:#ffffff;fill-opacity:1" />
      <circle
         id="circle1057"
         r="32.932999"
         fill="#e9b665"
         cy="189.403"
         cx="263.55499" />
      <g
         id="g1061">
        <path
           id="path1059"
           fill="#fddeb0"
           d="M 449.111,312.507 269.153,209.865 c -7.196,-4.104 -9.702,-13.265 -5.598,-20.461 4.104,-7.196 13.265,-9.703 20.461,-5.598 l 179.958,102.642 c 7.196,4.104 9.702,13.265 5.598,20.461 -4.104,7.196 -13.265,9.702 -20.461,5.598 z" />
      </g>
      <g
         id="g1067">
        <path
           id="path1063"
           d="m 453.084,434.799 h -4.981 v -36.288 c 0,-4.142 -3.358,-7.5 -7.5,-7.5 -4.142,0 -7.5,3.358 -7.5,7.5 v 36.288 H 200.991 c -16.1,0 -29.199,-13.099 -29.199,-29.199 V 154.486 c 0,-5.995 4.669,-11.037 10.408,-11.241 2.968,-0.104 5.777,0.968 7.907,3.023 2.131,2.057 3.304,4.819 3.304,7.78 V 292.86 c 0,14.444 11.103,26.153 25.276,26.657 7.183,0.264 13.993,-2.35 19.159,-7.336 5.169,-4.988 8.016,-11.69 8.016,-18.873 v -46.25 c 0,-4.142 -3.358,-7.5 -7.5,-7.5 -4.142,0 -7.5,3.358 -7.5,7.5 v 46.25 c 0,3.074 -1.219,5.943 -3.432,8.079 -2.211,2.134 -5.12,3.246 -8.21,3.139 -5.96,-0.212 -10.81,-5.446 -10.81,-11.667 V 154.047 c 0,-7.068 -2.801,-13.664 -7.888,-18.573 -5.085,-4.907 -11.785,-7.472 -18.855,-7.22 -13.949,0.496 -24.876,12.018 -24.876,26.231 V 405.6 c 0,24.371 19.828,44.199 44.199,44.199 h 252.093 c 23.68,0 42.944,19.265 42.944,42.944 v 2.649 H 15 V 485.05 c 0,-8.074 6.568,-14.643 14.642,-14.643 h 38.641 c 15.462,0 29.999,-6.021 40.932,-16.955 10.933,-10.933 16.955,-25.47 16.955,-40.932 V 205.385 c 0,-4.142 -3.358,-7.5 -7.5,-7.5 -4.142,0 -7.5,3.358 -7.5,7.5 v 207.136 c 0,11.456 -4.461,22.226 -12.561,30.326 -2.611,2.611 -5.503,4.838 -8.603,6.666 v -346.55 h 19.054 c 1.383,4.383 2.109,8.997 2.109,13.724 v 56.736 c 0,4.142 3.358,7.5 7.5,7.5 4.142,0 7.5,-3.358 7.5,-7.5 v -56.736 c 0,-16.142 -6.286,-31.316 -17.699,-42.73 l -8.464,-8.465 c -5.791,-5.792 -8.98,-13.491 -8.98,-21.681 0,-15.536 12.639,-28.175 28.175,-28.175 h 223.306 c 12.222,0 22.563,8.208 25.801,19.401 l -85.974,0.486 c -16.994,0.097 -32.863,8.532 -42.45,22.565 -5.902,8.64 -9.022,18.737 -9.022,29.2 v 44.461 c 0,4.142 3.358,7.5 7.5,7.5 4.142,0 7.5,-3.358 7.5,-7.5 V 102.962 H 433.103 V 260.205 L 303.871,186.496 c -1.497,-20.941 -19.001,-37.525 -40.317,-37.525 -22.294,0 -40.433,18.138 -40.433,40.433 0,22.295 18.138,40.433 40.433,40.433 6.297,0 12.433,-1.477 18.008,-4.259 l 26.734,15.248 c 3.597,2.052 8.178,0.799 10.23,-2.799 2.052,-3.598 0.799,-8.178 -2.799,-10.23 l -42.86,-24.446 c -3.592,-2.049 -4.848,-6.639 -2.799,-10.231 2.05,-3.592 6.638,-4.847 10.231,-2.799 l 179.958,102.642 c 1.74,0.993 2.99,2.604 3.519,4.536 0.529,1.932 0.273,3.955 -0.719,5.695 -2.049,3.593 -6.639,4.847 -10.231,2.799 L 343.492,243.632 c -3.599,-2.053 -8.178,-0.8 -10.23,2.799 -2.052,3.598 -0.799,8.178 2.799,10.23 l 97.042,55.35 v 54.538 c 0,4.142 3.358,7.5 7.5,7.5 4.142,0 7.5,-3.358 7.5,-7.5 v -46.213 c 2.726,1.105 5.577,1.637 8.401,1.637 7.823,0 15.438,-4.08 19.583,-11.348 2.978,-5.221 3.744,-11.288 2.158,-17.085 -1.586,-5.797 -5.334,-10.629 -10.555,-13.607 L 448.103,268.761 V 101.757 c 9.587,-3.158 16.528,-12.193 16.528,-22.823 V 59.683 c 0,-13.249 -10.779,-24.028 -24.028,-24.028 h -56.81 C 380.52,15.818 363.257,0.636 342.507,0.636 H 119.201 C 97.567,0.636 79.602,16.631 76.502,37.417 67.57,41.013 61.478,49.708 61.478,59.684 v 19.251 c 0,9.486 5.527,17.704 13.528,21.608 V 454.88 c -2.204,0.345 -4.449,0.528 -6.723,0.528 H 29.642 C 13.297,455.408 0,468.706 0,485.051 v 17.842 c 0,4.142 3.358,7.5 7.5,7.5 h 496.028 c 4.142,0 7.5,-3.358 7.5,-7.5 v -10.149 c 0,-31.951 -25.993,-57.945 -57.944,-57.945 z M 257.04,185.688 c -2.978,5.221 -3.744,11.288 -2.158,17.085 1.336,4.885 4.223,9.07 8.218,12.052 -13.814,-0.245 -24.978,-11.55 -24.978,-25.422 0,-14.023 11.409,-25.433 25.433,-25.433 9.128,0 17.146,4.837 21.633,12.08 -10.313,-4.278 -22.475,-0.307 -28.148,9.638 z M 449.631,59.683 v 19.251 c 0,4.978 -4.05,9.028 -9.028,9.028 H 245.862 v -0.674 c 0,-7.431 2.216,-14.603 6.408,-20.738 6.809,-9.967 18.08,-15.958 30.149,-16.026 l 78.12,-0.442 c 0.886,0.368 1.857,0.573 2.876,0.573 h 77.188 c 4.978,0 9.028,4.05 9.028,9.028 z M 97.864,84.563 c 1.089,1.089 2.114,2.224 3.077,3.399 H 85.506 c -4.978,0 -9.028,-4.05 -9.028,-9.028 V 59.683 c 0,-1.519 0.381,-2.955 1.049,-4.221 2.027,7.736 6.067,14.832 11.872,20.636 z" />
        <path
           id="path1065"
           d="m 302.396,337.91 v 32.534 c 0,14.468 11.771,26.238 26.238,26.238 14.467,0 26.238,-11.77 26.238,-26.238 V 337.91 c 0,-14.468 -11.77,-26.238 -26.238,-26.238 -14.468,0 -26.238,11.77 -26.238,26.238 z m 37.476,0 v 32.534 c 0,6.197 -5.041,11.238 -11.238,11.238 -6.197,0 -11.238,-5.041 -11.238,-11.238 V 337.91 c 0,-6.197 5.042,-11.238 11.238,-11.238 6.196,0 11.238,5.041 11.238,11.238 z" />
      </g>
    </g>
    <g
       transform="matrix(0.2643835,0,0,0.2643835,88.405874,0.63663846)"
       id="g1708">
      <g
         id="g1698">
        <path
           id="path1044"
           fill="#c5d3dd"
           d="m 126.254,355.19 c -1.942,-35.404 -3.297,-70.838 -4.038,-106.287 V 149.022 H 76.608 v 99.881 c -0.742,35.449 -2.097,70.883 -4.038,106.287 z" />
        <path
           id="path1046"
           fill="#596c76"
           d="m 64.963,467.702 c -1.432,19.994 14.403,37.004 34.448,37.004 20.045,0 35.88,-17.01 34.448,-37.004 -4.56,-63.666 -6.814,-92.151 -9.043,-140.839 h -50.81 c -2.23,48.724 -4.49,77.278 -9.043,140.839 z" />
        <path
           id="path1048"
           fill="#465a61"
           d="m 133.86,467.702 c -4.56,-63.666 -6.814,-92.151 -9.043,-140.839 H 96.492 c 2.236,48.838 4.508,77.528 9.043,140.839 1.071,14.948 -7.511,28.224 -20.286,33.975 4.313,1.942 9.103,3.028 14.163,3.028 20.045,0.001 35.88,-17.008 34.448,-37.003 z" />
        <ellipse
           id="ellipse1058"
           ry="92.182999"
           rx="72.216003"
           fill="#c5d3dd"
           cy="100.25"
           cx="99.412003" />
        <ellipse
           id="ellipse1060"
           ry="67.200996"
           rx="47.234001"
           fill="#b6c4cf"
           cy="100.25"
           cx="99.412003" />
        <path
           id="path1062"
           fill="#9facba"
           d="m 99.412,33.049 c -4.909,0 -9.67,1.14 -14.163,3.226 18.938,8.792 33.071,34.533 33.071,63.975 0,29.442 -14.133,55.183 -33.071,63.975 4.493,2.086 9.254,3.226 14.163,3.226 25.603,0 47.234,-30.775 47.234,-67.201 0,-36.426 -21.631,-67.201 -47.234,-67.201 z" />
      </g>
      <path
         d="m 99.298,0.387 c -23.137,0 -45.087,12.485 -60.225,34.255 -2.364,3.401 -1.524,8.075 1.877,10.439 3.398,2.365 8.073,1.524 10.439,-1.876 12.292,-17.679 29.754,-27.818 47.908,-27.818 35.714,0 64.769,38.019 64.769,84.75 0,36.844 -18.036,69.253 -44.881,80.648 -2.946,1.25 -4.7,4.182 -4.563,7.239 l 2.458,131.391 H 81.515 l 2.462,-131.587 c 0.057,-3.06 -1.751,-5.848 -4.568,-7.044 C 52.565,169.389 34.53,136.98 34.53,100.137 c 10e-4,-9.458 1.188,-18.745 3.53,-27.602 1.059,-4.004 -1.329,-8.109 -5.334,-9.168 -4.004,-1.06 -8.109,1.33 -9.168,5.334 -2.672,10.106 -4.027,20.683 -4.028,31.435 0,40.689 19.64,77.018 49.358,92.273 -3.12,166.773 -1.454,134.053 -11.544,274.911 -1.742,24.325 17.565,45.066 41.954,45.066 24.386,0 43.696,-20.741 41.954,-45.066 -10.154,-141.76 -8.464,-110.256 -11.544,-274.911 29.72,-15.255 49.358,-51.583 49.358,-92.273 C 179.067,45.135 143.282,0.387 99.298,0.387 Z m 0,497 c -15.736,0 -28.115,-13.314 -26.993,-28.995 l 4.329,-60.436 c 1.739,-24.276 3.216,-48.982 4.396,-73.541 h 36.536 c 1.182,24.57 2.658,49.274 4.396,73.541 l 4.329,60.436 c 1.123,15.696 -11.273,28.995 -26.993,28.995 z"
         id="path1076" />
    </g>
  </g>
</svg>
