<?xml version="1.0" encoding="UTF-8" standalone="no"?>
<svg
   xmlns:dc="http://purl.org/dc/elements/1.1/"
   xmlns:cc="http://creativecommons.org/ns#"
   xmlns:rdf="http://www.w3.org/1999/02/22-rdf-syntax-ns#"
   xmlns:svg="http://www.w3.org/2000/svg"
   xmlns="http://www.w3.org/2000/svg"
   xmlns:sodipodi="http://sodipodi.sourceforge.net/DTD/sodipodi-0.dtd"
   xmlns:inkscape="http://www.inkscape.org/namespaces/inkscape"
   width="512"
   height="512"
   viewBox="0 0 135.46666 135.46667"
   version="1.1"
   id="svg6026"
   inkscape:version="1.0 (4035a4fb49, 2020-05-01)"
   sodipodi:docname="10.svg">
  <defs
     id="defs6020" />
  <sodipodi:namedview
     id="base"
     pagecolor="#ffffff"
     bordercolor="#666666"
     borderopacity="1.0"
     inkscape:pageopacity="0.0"
     inkscape:pageshadow="2"
     inkscape:zoom="0.7"
     inkscape:cx="400"
     inkscape:cy="348.09524"
     inkscape:document-units="mm"
     inkscape:current-layer="layer1"
     inkscape:document-rotation="0"
     showgrid="false"
     units="px"
     inkscape:window-width="1920"
     inkscape:window-height="1001"
     inkscape:window-x="-9"
     inkscape:window-y="-9"
     inkscape:window-maximized="1" />
  <metadata
     id="metadata6023">
    <rdf:RDF>
      <cc:Work
         rdf:about="">
        <dc:format>image/svg+xml</dc:format>
        <dc:type
           rdf:resource="http://purl.org/dc/dcmitype/StillImage" />
        <dc:title />
      </cc:Work>
    </rdf:RDF>
  </metadata>
  <g
     inkscape:label="Layer 1"
     inkscape:groupmode="layer"
     id="layer1">
    <g
       transform="matrix(0.14471101,0,0,0.14471101,-7.7762745,27.89104)"
       id="g9841">
      <path
         style="fill:#cf4737"
         d="m 79.475,187.73 h 18.773 v 0 68.266 0 H 79.475 c -8.482,0 -15.36,-6.878 -15.36,-15.36 V 203.09 c 0,-8.482 6.878,-15.36 15.36,-15.36 z"
         id="path9732" />
      <path
         style="fill:#3e8cc7"
         d="M 243.312,110.931 H 209.18 c -18.85,0 -34.133,15.283 -34.133,34.133 V 298.661 H 277.445 V 145.064 c 0,-18.85 -15.283,-34.133 -34.133,-34.133 z"
         id="path9734" />
      <path
         style="fill:#fec9a3"
         d="m 268.912,25.6 -67.19,8.533 c -0.717,2.79 -1.075,5.658 -1.075,8.533 v 34.133 c 0,18.85 15.283,34.133 34.133,34.133 18.85,0 34.133,-15.283 34.133,-34.133 V 42.666 c 0.349,-5.683 0.349,-11.383 -0.001,-17.066 z"
         id="path9736" />
      <g
         id="g9742">
	<path
   style="fill:#75462e"
   d="m 200.646,34.133 v 34.133 l 34.133,-34.133 h 25.6 c 14.139,0 25.6,-11.46 25.6,-25.6 h -59.732 c -14.141,0 -25.601,11.46 -25.601,25.6 v 0"
   id="path9738" />

	<path
   style="fill:#75462e"
   d="M 277.445,298.662 H 175.047 v 85.332 l -76.799,34.133 17.066,34.133 81.39,-33.911 c 12.723,-5.299 21.009,-17.732 21.009,-31.513 v -37.887 c 0,-8.917 7.228,-16.153 16.153,-16.153 5.837,0 11.221,3.149 14.08,8.235 l 72.165,128.297 34.133,-17.066 z"
   id="path9740" />

</g>
      <g
         id="g9748">
	<path
   style="fill:#3e8cc7"
   d="m 93.529,494.021 -29.414,-58.828 34.133,-17.066 30.318,60.637 c 2.398,4.804 2.398,10.453 0,15.257 v 0 c -2.893,5.786 -8.806,9.438 -15.266,9.438 h -4.506 c -6.467,-10e-4 -12.381,-3.653 -15.265,-9.438 z"
   id="path9744" />

	<path
   style="fill:#3e8cc7"
   d="m 388.377,477.859 -51.199,25.6 -17.066,-34.133 51.199,-25.6 c 9.429,-4.71 20.889,-0.896 25.6,8.533 v 0 0 c 4.709,9.429 0.886,20.889 -8.534,25.6 z"
   id="path9746" />

</g>
      <path
         style="fill:#fec9a3"
         d="m 394.452,164.546 c -6.997,-9.327 -20.241,-11.221 -29.568,-4.224 -0.802,0.597 -1.553,1.254 -2.261,1.963 l -42.512,42.512 -42.666,-51.199 v 68.266 l 3.729,5.589 c 13.773,20.642 41.668,26.222 62.318,12.45 2.466,-1.647 4.762,-3.524 6.852,-5.623 l 42.145,-42.145 c 7.424,-7.434 8.261,-19.184 1.963,-27.589 z"
         id="path9750" />
      <g
         id="g9756">
	<path
   style="fill:#75462e"
   d="m 204.495,102.398 h -63.581 v 17.066 h 63.581 c 12.339,0.009 22.331,10.018 22.323,22.357 0,3.371 -0.768,6.699 -2.236,9.728 l -53.631,110.42 -21.504,2.56 v 17.066 l 24.32,-3.507 c 5.606,-0.811 10.436,-4.343 12.911,-9.438 l 53.221,-109.634 c 9.506,-19.575 1.34,-43.152 -18.235,-52.658 -5.351,-2.603 -11.221,-3.951 -17.169,-3.96 z"
   id="path9752" />

	<path
   style="fill:#75462e"
   d="m 98.248,264.529 c 0,14.14 11.46,25.6 25.6,25.6 h 25.6 c 14.139,0 25.6,-11.46 25.6,-25.6 v -8.533 h -76.8 z"
   id="path9754" />

</g>
      <path
         style="fill:#de4c3c"
         d="m 173.596,127.998 c -3.618,-10.231 -13.295,-17.075 -24.149,-17.066 h -25.6 c -14.139,0 -25.6,11.46 -25.6,25.6 v 119.465 h 76.799 V 136.531 Z"
         id="path9758" />
      <rect
         x="396.896"
         y="131.629"
         transform="matrix(-0.974,0.2265,-0.2265,-0.974,872.8021,539.8472)"
         style="fill:#75462e"
         width="17.066"
         height="376.73599"
         id="rect9760" />
      <path
         style="fill:#3e8cc7"
         d="m 136.647,34.133 c -21.205,0 -38.399,17.194 -38.399,38.399 0,21.205 17.194,38.399 38.399,38.399 21.205,0 38.399,-17.194 38.399,-38.399 0,-21.205 -17.194,-38.399 -38.399,-38.399 z m 0,51.199 c -7.065,0 -12.8,-5.734 -12.8,-12.8 0,-7.066 5.734,-12.8 12.8,-12.8 7.065,0 12.8,5.734 12.8,12.8 0,7.066 -5.734,12.8 -12.8,12.8 z"
         id="path9762" />
      <path
         style="fill:#fec9a3"
         d="m 233.073,149.954 -49.493,30.173 58.026,41.736 c 9.796,6.553 12.424,19.797 5.871,29.593 -0.205,0.307 -0.418,0.606 -0.64,0.905 v 0 c -6.792,9.037 -19.447,11.204 -28.859,4.949 l -71.431,-50.644 c -8.857,-5.922 -14.174,-15.88 -14.165,-26.538 v 0 c 0,-10.658 5.325,-20.616 14.199,-26.53 l 62.898,-39.091 c 9.412,-6.255 22.067,-4.087 28.859,4.949 v 0 c 7.04,9.446 5.094,22.809 -4.352,29.858 -0.299,0.222 -0.606,0.435 -0.913,0.64 z"
         id="path9764" />
      <path
         d="m 136.647,85.332 c 7.065,0 12.8,-5.734 12.8,-12.8 0,-7.066 -5.734,-12.8 -12.8,-12.8 -7.065,0 -12.8,5.734 -12.8,12.8 0,7.066 5.726,12.8 12.8,12.8 z m 0,-17.066 c 2.355,0 4.267,1.911 4.267,4.267 0,2.355 -1.911,4.267 -4.267,4.267 -2.356,0 -4.267,-1.911 -4.267,-4.267 0.001,-2.356 1.912,-4.267 4.267,-4.267 z"
         id="path9766" />
      <path
         d="m 318.558,255.996 c 14.191,0.034 27.81,-5.598 37.819,-15.658 l 17.664,-17.672 65.757,282.73 16.623,-3.874 -68.155,-293.082 10.24,-10.24 c 11.58,-11.58 11.58,-30.361 -0.009,-41.932 -5.043,-5.043 -11.742,-8.098 -18.85,-8.61 -1.835,-0.102 -3.678,-0.034 -5.495,0.205 l -3.08,-13.252 -16.623,3.874 3.814,16.418 c -0.546,0.478 -1.169,0.853 -1.707,1.365 l -35.908,35.908 -34.67,-41.668 v -5.444 c -0.06,-15.513 -8.559,-29.764 -22.186,-37.188 8.678,-8.004 13.628,-19.268 13.653,-31.078 V 42.666 c -0.017,-1.536 -0.111,-3.063 -0.29,-4.591 10.684,-6.007 17.314,-17.288 17.357,-29.542 0,-4.71 -3.823,-8.533 -8.533,-8.533 h -59.732 c -18.85,0 -34.133,15.283 -34.133,34.133 v 42.666 c 0.034,9.259 3.106,18.261 8.755,25.6 H 172.82 C 189.349,82.44 186.567,52.847 166.608,36.318 146.649,19.789 117.056,22.571 100.527,42.53 c -16.196,19.55 -13.901,48.434 5.171,65.194 -9.933,6.212 -15.966,17.092 -15.983,28.808 v 42.666 h -10.24 c -13.192,0 -23.893,10.701 -23.893,23.893 v 37.546 c 0,13.192 10.701,23.893 23.893,23.893 v 0 h 10.24 c 0,18.85 15.283,34.133 34.133,34.133 h 25.6 c 6.007,-0.034 11.904,-1.664 17.066,-4.736 v 84.521 l -71.73,31.88 c -0.06,0 -0.094,0.085 -0.154,0.111 -0.06,0.026 -0.137,0 -0.196,0.051 l -34.133,17.066 c -4.215,2.108 -5.931,7.228 -3.823,11.443 0,0 0,0 0,0.009 L 85.9,497.844 c 4.309,8.695 13.192,14.182 22.895,14.148 h 4.506 c 14.139,0 25.6,-11.46 25.6,-25.6 0,-3.976 -0.93,-7.893 -2.705,-11.452 l -9.156,-18.321 72.95,-30.395 c 15.923,-6.605 26.282,-22.152 26.257,-39.389 v -37.887 c 0,-4.207 3.413,-7.62 7.62,-7.62 2.748,0 5.282,1.485 6.639,3.883 l 72.054,128.1 16.981,33.962 c 2.108,4.215 7.228,5.931 11.443,3.823 0,0 0,0 0.009,0 l 51.199,-25.6 c 13.645,-6.818 19.174,-23.407 12.356,-37.051 -6.818,-13.644 -23.407,-19.174 -37.051,-12.356 l -9.438,4.719 -72.08,-144.16 v -51.831 c 9.318,7.236 20.778,11.162 32.579,11.179 z m 59.895,-91.305 c 3.644,0.239 6.997,2.074 9.173,5.009 3.738,5.018 3.243,12.015 -1.169,16.452 l -2.748,2.748 -5.623,-24.209 c 0.119,0 0.238,0 0.367,0 z m -64.895,45.567 c 1.536,1.843 3.772,2.952 6.169,3.063 2.389,0.085 4.71,-0.811 6.417,-2.492 l 36.633,-36.633 6.716,28.885 -25.19,25.181 c -14.208,14.216 -37.256,14.225 -51.472,0.017 -1.698,-1.698 -3.226,-3.558 -4.557,-5.564 l -2.295,-3.413 V 177.165 Z M 149.447,119.465 c 6.989,0 13.261,4.267 15.846,10.752 l 0.256,1.536 -23.731,14.745 c -18.577,12.39 -23.586,37.495 -11.196,56.072 2.91,4.369 6.647,8.124 10.991,11.059 l 24.9,17.621 v 16.213 H 106.781 V 136.531 c 0,-9.429 7.637,-17.066 17.066,-17.066 z m 1.843,80.101 c -10.735,-7.159 -13.636,-21.666 -6.477,-32.401 1.655,-2.492 3.78,-4.634 6.246,-6.323 l 63.146,-39.253 c 6.118,-3.541 13.952,-1.442 17.485,4.676 3.191,5.521 1.826,12.552 -3.191,16.486 l -49.356,30.088 c -4.028,2.449 -5.299,7.705 -2.842,11.725 0.597,0.973 1.382,1.826 2.304,2.492 l 58.307,41.906 c 5.64,4.267 6.75,12.296 2.483,17.928 -3.848,5.086 -10.863,6.562 -16.443,3.456 z m 47.701,-18.85 13.602,-8.26 -7.117,12.894 z M 180.44,122.494 c -0.469,-1.033 -0.947,-2.057 -1.51,-3.029 h 6.391 z m 3.14,152.582 11.708,-23.424 17.988,12.757 c 14.054,8.627 32.452,4.232 41.079,-9.822 8.115,-13.226 4.762,-30.463 -7.731,-39.671 l -27.204,-19.507 23.543,-42.666 h -0.06 c 8.397,-8.738 10.59,-21.717 5.538,-32.725 11.895,2.449 20.437,12.902 20.471,25.045 V 290.127 H 183.58 Z M 260.379,76.799 c 0,14.139 -11.46,25.6 -25.6,25.6 -14.139,0 -25.6,-11.46 -25.6,-25.6 v -5 l 29.132,-29.132 h 22.067 V 76.799 Z M 226.246,17.066 h 48.904 c -3.046,5.274 -8.678,8.533 -14.771,8.533 h -25.6 c -2.261,0 -4.437,0.896 -6.033,2.5 L 209.18,47.666 v -5 c 0,-2.159 0.273,-4.318 0.811,-6.408 l -0.811,-0.213 v -1.911 c 0,-9.43 7.637,-17.068 17.066,-17.068 z m -89.599,25.6 c 16.495,0 29.866,13.372 29.866,29.866 0,16.494 -13.372,29.866 -29.866,29.866 -16.494,0 -29.866,-13.372 -29.866,-29.866 0,-16.494 13.372,-29.866 29.866,-29.866 z M 79.475,247.463 c -3.772,0 -6.827,-3.055 -6.827,-6.827 V 203.09 c 0,-3.772 3.055,-6.827 6.827,-6.827 h 10.24 v 51.199 z m 69.972,34.132 h -25.6 c -9.429,0 -17.066,-7.637 -17.066,-17.066 h 59.732 c 0.001,9.429 -7.645,17.066 -17.066,17.066 z m -28.543,208.637 c -1.434,2.901 -4.395,4.727 -7.629,4.719 h -4.506 c -3.234,0.009 -6.195,-1.818 -7.629,-4.719 l -25.6,-51.199 18.867,-9.429 13.244,26.496 v 0 l 13.252,26.453 c 1.203,2.406 1.22,5.239 0.026,7.654 z m 254.221,-38.826 c 5.205,-2.603 11.537,-0.495 14.148,4.71 2.603,5.205 0.495,11.537 -4.71,14.148 l -43.57,21.785 -9.429,-18.867 26.496,-13.244 z m -51.558,6.698 -68.18,-121.171 c -6.681,-11.887 -21.725,-16.102 -33.612,-9.429 -7.757,4.36 -12.561,12.544 -12.595,21.444 v 37.887 c 0.017,10.342 -6.204,19.669 -15.752,23.637 l -74.042,30.848 -9.515,-19.02 68.641,-30.506 c 3.08,-1.365 5.069,-4.429 5.069,-7.799 v -76.799 h 88.592 l 70.621,141.25 z"
         id="path9768" />
      <g
         id="g9770">
</g>
      <g
         id="g9772">
</g>
      <g
         id="g9774">
</g>
      <g
         id="g9776">
</g>
      <g
         id="g9778">
</g>
      <g
         id="g9780">
</g>
      <g
         id="g9782">
</g>
      <g
         id="g9784">
</g>
      <g
         id="g9786">
</g>
      <g
         id="g9788">
</g>
      <g
         id="g9790">
</g>
      <g
         id="g9792">
</g>
      <g
         id="g9794">
</g>
      <g
         id="g9796">
</g>
      <g
         id="g9798">
</g>
    </g>
    <g
       transform="matrix(0.14471073,0,0,0.14471073,63.826496,27.856711)"
       id="g10004">
      <g
         id="g9962">
        <g
           clip-rule="evenodd"
           fill-rule="evenodd"
           id="g9948">
          <path
             d="M 395.412,504.501 V 67.85 h -60.35 V 7.501 L 29.476,7.5 v 372.397 65.217 21.033 38.353 z M 270.08,408.3 v -37.5 h 75 v 37.5 z"
             fill="#a7eed4"
             id="path9928" />
          <path
             d="m 270.08,370.8 h 75 v 37.5 h -75 z"
             fill="#f7ec91"
             id="path9930" />
          <g
             fill="#d0dbef"
             id="g9938">
            <path
               d="M 395.412,67.85 335.061,7.501 V 67.85 Z"
               id="path9932" />
            <path
               d="m 437.624,61.9 h 29.999 v 29.999 h -29.999 z"
               id="path9934" />
            <path
               d="m 467.623,419.875 v -29.999 h -29.999 v 29.999 l 15,29.999 z"
               id="path9936" />
          </g>
          <path
             d="m 474.949,389.876 7.5,-281.404 -14.826,-16.573 h -29.999 l -14.826,16.573 7.5,281.404 h 7.326 29.999 z"
             fill="#ed9b88"
             id="path9940" />
          <path
             d="m 59.475,7.5 h -30 v 497 h 30 c 0,-165.667 0,-331.333 0,-497 z"
             fill="#71e4bf"
             id="path9942" />
          <path
             d="m 270.08,370.8 h 30 v 37.5 h -30 z"
             fill="#edd52e"
             id="path9944" />
          <path
             d="m 467.623,91.9 v -0.001 h -29.999 l -14.826,16.573 7.5,281.404 h 7.326 29.999 -7.325 l -7.5,-281.404 z"
             fill="#e76c4c"
             id="path9946" />
        </g>
        <g
           id="g9952">
          <path
             d="m 66.975,82.5 h -15 V 30 h 30 v 15 h -15 z M 141.976,45 h -15 V 30 h 15 z m -30,0 h -15 V 30 h 15 z"
             fill="#ffffff"
             id="path9950" />
        </g>
        <g
           id="g9956">
          <path
             d="m 372.912,482.001 h -52.5 v -15 h 37.5 v -15 h 15 z m -67.5,0 h -15 v -15 h 15 z"
             fill="#ffffff"
             id="path9954" />
        </g>
        <g
           id="g9960">
          <path
             d="m 460.124,217.127 h -15 v -15 h 15 z m 0,-30 h -15 v -65.228 h 15 z"
             fill="#ffffff"
             id="path9958" />
        </g>
      </g>
      <g
         id="g10002">
        <path
           d="m 21.976,0 v 430.114 h 15 V 15 h 290.585 v 60.35 h 60.351 V 497.001 H 36.976 v -51.886 h -15 v 66.886 H 402.912 V 64.743 L 338.168,0 Z m 320.585,25.606 34.745,34.744 h -34.745 z"
           id="path9964" />
        <path
           d="M 490.025,105.693 475.123,89.035 V 54.4 h -44.999 v 34.635 l -14.902,16.658 7.774,291.683 h 7.129 v 24.27 l 22.5,44.999 22.499,-44.999 v -24.27 h 7.129 z m -52.424,276.683 -2.858,-107.25 h 35.762 l -2.858,107.25 z m -3.258,-122.251 -3.968,-148.874 10.603,-11.852 h 23.292 l 10.603,11.852 -3.968,148.874 z M 445.124,69.4 h 14.999 v 14.999 h -14.999 z m 14.999,348.704 -7.499,14.999 -7.5,-14.999 v -20.729 h 14.999 z"
           id="path9966" />
        <path
           d="m 102.305,325.033 h 106.968 v 15 H 102.305 Z"
           id="path9968" />
        <path
           d="m 72.306,325.033 h 15 v 15 h -15 z"
           id="path9970" />
        <path
           d="m 261.913,248.5 h 90.667 v 15 h -90.667 z"
           id="path9972" />
        <path
           d="m 72.306,248.5 h 174.606 v 15 H 72.306 Z"
           id="path9974" />
        <path
           d="M 142.682,286.767 H 352.58 v 15 H 142.682 Z"
           id="path9976" />
        <path
           d="m 72.306,286.767 h 55.376 v 15 H 72.306 Z"
           id="path9978" />
        <path
           d="m 72.306,210.233 h 55.376 v 15 H 72.306 Z"
           id="path9980" />
        <path
           d="M 142.682,210.233 H 352.58 v 15 H 142.682 Z"
           id="path9982" />
        <path
           d="m 72.306,133.7 h 174.606 v 15 H 72.306 Z"
           id="path9984" />
        <path
           d="m 261.913,133.7 h 90.667 v 15 h -90.667 z"
           id="path9986" />
        <path
           d="m 72.306,186.967 h 55.376 15 104.23 15.001 90.667 v -15 h -90.667 -15.001 -104.23 -15 -55.376 z"
           id="path9988" />
        <path
           d="m 102.305,363.3 h 106.968 v 15 H 102.305 Z"
           id="path9990" />
        <path
           d="m 72.306,363.3 h 15 v 15 h -15 z"
           id="path9992" />
        <path
           d="m 275.613,95.434 h 76.967 v 15 h -76.967 z"
           id="path9994" />
        <path
           d="m 215.613,95.434 h 15.001 v 15 h -15.001 z"
           id="path9996" />
        <path
           d="m 245.613,95.434 h 15 v 15 h -15 z"
           id="path9998" />
        <path
           d="m 352.58,415.8 v -52.5 h -90 v 52.5 z m -75,-37.5 h 60 v 22.5 h -60 z"
           id="path10000" />
      </g>
    </g>
  </g>
</svg>
