<?xml version="1.0" encoding="UTF-8" standalone="no"?>
<svg
   xmlns:dc="http://purl.org/dc/elements/1.1/"
   xmlns:cc="http://creativecommons.org/ns#"
   xmlns:rdf="http://www.w3.org/1999/02/22-rdf-syntax-ns#"
   xmlns:svg="http://www.w3.org/2000/svg"
   xmlns="http://www.w3.org/2000/svg"
   xmlns:sodipodi="http://sodipodi.sourceforge.net/DTD/sodipodi-0.dtd"
   xmlns:inkscape="http://www.inkscape.org/namespaces/inkscape"
   width="512"
   height="512"
   viewBox="0 0 135.46666 135.46667"
   version="1.1"
   id="svg6026"
   inkscape:version="1.0 (4035a4fb49, 2020-05-01)"
   sodipodi:docname="08.svg">
  <defs
     id="defs6020" />
  <sodipodi:namedview
     id="base"
     pagecolor="#ffffff"
     bordercolor="#666666"
     borderopacity="1.0"
     inkscape:pageopacity="0.0"
     inkscape:pageshadow="2"
     inkscape:zoom="0.7"
     inkscape:cx="400"
     inkscape:cy="273.66055"
     inkscape:document-units="mm"
     inkscape:current-layer="layer1"
     inkscape:document-rotation="0"
     showgrid="false"
     units="px"
     inkscape:window-width="1920"
     inkscape:window-height="1001"
     inkscape:window-x="-9"
     inkscape:window-y="-9"
     inkscape:window-maximized="1" />
  <metadata
     id="metadata6023">
    <rdf:RDF>
      <cc:Work
         rdf:about="">
        <dc:format>image/svg+xml</dc:format>
        <dc:type
           rdf:resource="http://purl.org/dc/dcmitype/StillImage" />
        <dc:title />
      </cc:Work>
    </rdf:RDF>
  </metadata>
  <g
     inkscape:label="Layer 1"
     inkscape:groupmode="layer"
     id="layer1">
    <g
       transform="matrix(0.13022461,0,0,0.13022461,36.254396,0.60150823)"
       id="g8279">
      <circle
         style="fill:#ffd347"
         cx="255.99699"
         cy="255.99699"
         r="144.82401"
         id="circle8182" />
      <path
         style="fill:#ffbe31"
         d="m 256,111.18 c -5.242,0 -10.418,0.286 -15.516,0.828 72.685,7.743 129.303,69.252 129.303,143.991 0,74.739 -56.619,136.249 -129.303,143.992 5.098,0.544 10.273,0.828 15.516,0.828 79.982,0 144.82,-64.838 144.82,-144.82 C 400.82,176.017 335.983,111.18 256,111.18 Z"
         id="path8184" />
      <path
         d="m 256,408.557 c -84.12,0 -152.557,-68.437 -152.557,-152.557 0,-34.564 11.881,-68.423 33.454,-95.34 2.672,-3.335 7.542,-3.872 10.875,-1.199 3.334,2.673 3.872,7.542 1.199,10.876 -19.662,24.533 -30.055,54.153 -30.055,85.663 0,75.588 61.496,137.084 137.084,137.084 75.588,0 137.084,-61.495 137.084,-137.084 0,-75.589 -61.496,-137.084 -137.084,-137.084 -31.09,0 -60.4,10.146 -84.762,29.339 -3.357,2.642 -8.222,2.066 -10.866,-1.289 -2.644,-3.357 -2.067,-8.222 1.288,-10.866 27.119,-21.365 59.741,-32.658 94.339,-32.658 84.12,0 152.557,68.437 152.557,152.557 0,84.12 -68.436,152.558 -152.556,152.558 z"
         id="path8186" />
      <path
         d="m 256,56.848 c -4.273,0 -7.737,-3.463 -7.737,-7.737 V 7.737 C 248.263,3.463 251.727,0 256,0 c 4.273,0 7.737,3.463 7.737,7.737 v 41.375 c 0,4.273 -3.464,7.736 -7.737,7.736 z"
         id="path8188" />
      <path
         d="m 152.563,84.568 c -2.674,0 -5.274,-1.387 -6.707,-3.869 L 125.169,44.868 c -2.136,-3.7 -0.869,-8.432 2.832,-10.569 3.701,-2.134 8.432,-0.87 10.569,2.832 l 20.687,35.831 c 2.136,3.7 0.869,8.432 -2.832,10.569 -1.219,0.702 -2.549,1.037 -3.862,1.037 z"
         id="path8190" />
      <path
         d="m 76.823,160.294 c -1.312,0 -2.643,-0.334 -3.861,-1.038 L 37.13,138.569 c -3.7,-2.136 -4.968,-6.868 -2.832,-10.569 2.136,-3.701 6.868,-4.967 10.569,-2.832 l 35.832,20.687 c 3.7,2.136 4.968,6.868 2.832,10.569 -1.434,2.483 -4.034,3.87 -6.708,3.87 z"
         id="path8192" />
      <path
         d="M 49.112,263.737 H 7.737 C 3.464,263.737 0,260.274 0,256 c 0,-4.274 3.464,-7.737 7.737,-7.737 h 41.376 c 4.273,0 7.737,3.463 7.737,7.737 0,4.274 -3.465,7.737 -7.738,7.737 z"
         id="path8194" />
      <path
         d="m 41.005,387.869 c -2.674,0 -5.274,-1.387 -6.707,-3.869 -2.136,-3.7 -0.869,-8.432 2.832,-10.569 l 35.832,-20.687 c 3.7,-2.134 8.432,-0.87 10.569,2.832 2.136,3.7 0.869,8.432 -2.832,10.569 l -35.832,20.687 c -1.219,0.703 -2.55,1.037 -3.862,1.037 z"
         id="path8196" />
      <path
         d="m 131.862,478.74 c -1.312,0 -2.643,-0.334 -3.861,-1.038 -3.7,-2.136 -4.968,-6.868 -2.832,-10.569 l 20.687,-35.832 c 2.136,-3.701 6.868,-4.967 10.569,-2.832 3.7,2.136 4.968,6.868 2.832,10.569 L 138.57,474.87 c -1.434,2.482 -4.034,3.87 -6.708,3.87 z"
         id="path8198" />
      <path
         d="m 256,512 c -4.273,0 -7.737,-3.463 -7.737,-7.737 v -41.375 c 0,-4.274 3.464,-7.737 7.737,-7.737 4.273,0 7.737,3.463 7.737,7.737 v 41.375 c 0,4.274 -3.464,7.737 -7.737,7.737 z"
         id="path8200" />
      <path
         d="m 380.138,478.74 c -2.674,0 -5.274,-1.387 -6.707,-3.869 l -20.687,-35.832 c -2.136,-3.7 -0.869,-8.432 2.832,-10.569 3.7,-2.134 8.432,-0.87 10.569,2.832 l 20.687,35.832 c 2.136,3.7 0.869,8.432 -2.832,10.569 -1.219,0.703 -2.549,1.037 -3.862,1.037 z"
         id="path8202" />
      <path
         d="m 470.995,387.869 c -1.312,0 -2.643,-0.334 -3.861,-1.038 l -35.832,-20.687 c -3.7,-2.136 -4.968,-6.868 -2.832,-10.569 2.136,-3.701 6.868,-4.967 10.569,-2.832 l 35.832,20.687 c 3.7,2.136 4.968,6.868 2.832,10.569 -1.434,2.482 -4.034,3.87 -6.708,3.87 z"
         id="path8204" />
      <path
         d="m 504.263,263.737 h -41.376 c -4.273,0 -7.737,-3.463 -7.737,-7.737 0,-4.274 3.464,-7.737 7.737,-7.737 h 41.376 c 4.273,0 7.737,3.463 7.737,7.737 0,4.274 -3.464,7.737 -7.737,7.737 z"
         id="path8206" />
      <path
         d="m 435.177,160.294 c -2.674,0 -5.274,-1.387 -6.707,-3.869 -2.136,-3.7 -0.869,-8.432 2.832,-10.569 l 35.832,-20.687 c 3.7,-2.134 8.432,-0.87 10.569,2.832 2.136,3.7 0.869,8.432 -2.832,10.569 l -35.832,20.687 c -1.219,0.703 -2.55,1.037 -3.862,1.037 z"
         id="path8208" />
      <path
         d="m 359.437,84.568 c -1.312,0 -2.643,-0.334 -3.861,-1.038 -3.7,-2.136 -4.968,-6.868 -2.832,-10.569 L 373.431,37.13 c 2.136,-3.701 6.868,-4.967 10.569,-2.832 3.7,2.136 4.968,6.868 2.832,10.569 l -20.687,35.831 c -1.434,2.482 -4.035,3.87 -6.708,3.87 z"
         id="path8210" />
      <g
         id="g8212">
</g>
      <g
         id="g8214">
</g>
      <g
         id="g8216">
</g>
      <g
         id="g8218">
</g>
      <g
         id="g8220">
</g>
      <g
         id="g8222">
</g>
      <g
         id="g8224">
</g>
      <g
         id="g8226">
</g>
      <g
         id="g8228">
</g>
      <g
         id="g8230">
</g>
      <g
         id="g8232">
</g>
      <g
         id="g8234">
</g>
      <g
         id="g8236">
</g>
      <g
         id="g8238">
</g>
      <g
         id="g8240">
</g>
    </g>
    <g
       transform="matrix(0.13052761,0,0,0.13052761,6.4667503,72.873809)"
       id="g8345">
      <path
         d="m 394.032,424.803 v 39.26 c 0,4.42 -3.58,8 -8,8 h -292 c -4.42,0 -8,-3.58 -8,-8 v -39.26 c 0,-41.19 33.39,-74.56 74.59,-74.57 14.56,-0.01 27.38,-7.5 34.76,-18.86 7.414,-11.394 6.65,-21.302 6.65,-29.31 l 0.15,-0.37 c -35.9,-14.86 -61.15,-50.23 -61.15,-91.5 v -3.13 c -14.255,0 -25,-11.265 -25,-24.54 v -41.56 c -0.32,-14.47 0.34,-65.5 37.2,-101.03 42.86,-41.31 110.78,-37.93 159.98,-15.83 1.6,0.72 1.55,3.01 -0.07,3.68 l -12.83,5.28 c -1.92,0.79 -1.51,3.62 0.55,3.84 l 6.23,0.67 c 29.83,3.19 57.54,19.39 74.72,46.35 0.46,0.73 0.33,1.84 -0.26,2.47 -10.6,11.21 -16.52,26.09 -16.52,41.56 v 54.57 c 0,13.55 -10.99,24.54 -24.54,24.54 h -1.46 v 3.13 c 0,41.27 -25.25,76.64 -61.15,91.5 l 0.15,0.37 c 0,7.777 -0.827,17.82 6.65,29.31 7.38,11.36 20.2,18.85 34.76,18.86 41.2,0.01 74.59,33.38 74.59,74.57 z"
         fill="#ffdfba"
         id="path8308" />
      <path
         d="m 394.032,424.803 v 39.26 c 0,4.418 -3.582,8 -8,8 h -292 c -4.418,0 -8,-3.582 -8,-8 v -39.26 c 0,-41.19 33.395,-74.555 74.585,-74.57 14.564,-0.005 27.387,-7.504 34.765,-18.86 25.754,22.002 63.531,22.015 89.3,0 7.377,11.356 20.201,18.855 34.765,18.86 41.19,0.015 74.585,33.38 74.585,74.57 z"
         fill="#fe4f60"
         id="path8310" />
      <path
         d="m 381.807,83.928 c 0.464,0.729 0.334,1.833 -0.259,2.461 -10.597,11.218 -16.517,26.093 -16.517,41.564 v 54.57 c 0,12.388 -9.333,24.54 -26,24.54 v -61.77 c 0,-26.51 -21.49,-48 -48,-48 h -102 c -26.51,0 -48,21.49 -48,48 v 61.77 c -14.255,0 -25,-11.265 -25,-24.54 v -41.56 c -0.32,-14.47 0.34,-65.5 37.2,-101.03 42.858,-41.311 110.784,-37.929 159.977,-15.827 1.601,0.719 1.558,3.01 -0.065,3.678 l -12.831,5.282 c -1.918,0.79 -1.514,3.617 0.548,3.838 l 6.232,0.669 c 29.834,3.187 57.537,19.387 74.715,46.355 z"
         fill="#42434d"
         id="path8312" />
      <path
         d="m 339.032,210.193 c 0,54.696 -44.348,99 -99,99 -51.492,0 -99,-40.031 -99,-102.13 v -61.77 c 0,-26.51 21.49,-48 48,-48 h 102 c 26.51,0 48,21.49 48,48 z"
         fill="#ffebd2"
         id="path8314" />
      <path
         d="m 217.616,274.121 c 16.277,10.183 3.442,35.156 -14.376,28.004 -36.634,-14.704 -62.208,-50.404 -62.208,-91.932 v -64.9 c 0,-10.084 3.11,-19.442 8.423,-27.168 6.514,-9.473 21.577,-5.288 21.577,7.168 v 64.9 c 0,36.51 19.192,66.79 46.584,83.928 z"
         fill="#fff3e4"
         id="path8316" />
      <path
         d="m 279.162,318.483 c -24.637,10.313 -51.712,11.113 -78.26,0 1.356,-5.626 1.13,-9.27 1.13,-16.42 l 0.15,-0.37 c 24.082,9.996 51.571,10.016 75.7,0 l 0.15,0.37 c 0,7.153 -0.226,10.796 1.13,16.42 z"
         fill="#ffd6a6"
         id="path8318" />
      <path
         d="m 200.913,374.39 c -3.698,1.163 -7.664,1.804 -11.916,1.841 -41.296,0.364 -74.966,33.017 -74.966,74.315 v 7.517 c 0,7.732 -6.268,14 -14,14 h -6 c -4.418,0 -8,-3.582 -8,-8 v -39.26 c 0,-41.191 33.395,-74.555 74.585,-74.57 14.564,-0.005 27.387,-7.504 34.765,-18.86 2.974,2.54 6.158,4.823 9.512,6.822 14.753,8.791 12.402,31.044 -3.98,36.195 z"
         fill="#ff6d7a"
         id="path8320" />
      <path
         d="m 279.15,374.39 c 3.698,1.163 7.664,1.804 11.916,1.841 41.296,0.364 74.966,33.017 74.966,74.315 v 7.517 c 0,7.732 6.268,14 14,14 h 6 c 4.418,0 8,-3.582 8,-8 v -39.26 c 0,-41.191 -33.395,-74.555 -74.585,-74.57 -14.564,-0.005 -27.387,-7.504 -34.765,-18.86 -2.974,2.54 -6.158,4.823 -9.512,6.822 -14.753,8.791 -12.402,31.044 3.98,36.195 z"
         fill="#e84857"
         id="path8322" />
      <path
         d="m 313.142,27.783 c -11.758,4.839 -13.434,5.906 -17.508,5.274 C 229.96,22.877 172.34,50.05 152.772,113.843 v 0.01 c -7.32,8.42 -11.74,19.42 -11.74,31.44 v 37.523 c 0,16.188 -25,17.315 -25,-0.293 v -41.56 c -0.32,-14.47 0.34,-65.5 37.2,-101.03 42.86,-41.31 110.78,-37.93 159.98,-15.83 1.6,0.72 1.55,3.01 -0.07,3.68 z"
         fill="#4d4e59"
         id="path8324" />
      <path
         d="m 402.032,424.806 v 47.257 c 0,4.418 -3.582,8 -8,8 -4.418,0 -8,-3.582 -8,-8 v -47.257 c 0,-36.795 -29.775,-66.572 -66.573,-66.571 -17.411,0 -33.208,-8.87 -42.259,-23.728 -2.298,-3.773 -1.103,-8.696 2.671,-10.994 3.773,-2.299 8.695,-1.103 10.994,2.671 6.122,10.051 16.811,16.051 28.594,16.051 45.637,-0.002 82.573,36.93 82.573,82.571 z M 262.426,344.613 c 0.941,4.317 -1.796,8.579 -6.113,9.52 -21.054,4.587 -42.467,-0.005 -59.516,-11.642 -16.878,18.087 -39.176,15.744 -36.191,15.744 -36.795,-0.001 -66.573,29.773 -66.573,66.571 v 47.257 c 0,4.418 -3.582,8 -8,8 -4.418,0 -8,-3.582 -8,-8 v -47.257 c 0,-45.636 36.929,-82.571 82.571,-82.571 18.462,0 33.429,-14.875 33.429,-33.342 v -2.107 c -34.919,-16.697 -59.429,-51.784 -60.923,-92.643 -14.37,-3.455 -25.077,-16.317 -25.077,-31.62 V 141.05 c -0.437,-20.3 2.577,-71.143 39.648,-106.877 45.775,-44.126 119.183,-41.323 173.161,-15.338 5.261,2.535 6.06,9.643 1.691,13.324 27.345,6.67 50.925,23.48 66.074,47.538 0.782,1.239 2.214,3.184 1.84,6.287 -0.232,1.931 -0.807,3.565 -2.295,5.075 -9.75,9.888 -15.119,22.991 -15.119,36.896 v 54.57 c 0,4.418 -3.582,8 -8,8 -4.418,0 -8,-3.582 -8,-8 v -54.57 c 0,-16.037 5.479,-31.259 15.542,-43.487 C 357.237,62.532 333.307,48.424 306.243,45.526 L 292.182,44.02 c -8.222,-0.88 -9.835,-12.207 -2.194,-15.352 l 6.395,-2.633 C 213.097,-3 124.032,29.261 124.032,140.963 v 41.56 c 0,6.348 3.656,11.865 9,14.636 v -51.863 c 0,-30.878 25.122,-56 56,-56 h 102 c 30.878,0 56,25.12 56,55.997 v 65.503 c 0,69.574 -67.988,122.42 -137.17,102.053 -0.45,5.708 -1.871,11.216 -4.186,16.336 13.458,9.242 30.453,12.97 47.23,9.314 4.317,-0.94 8.579,1.797 9.52,6.114 z m -22.394,-43.425 c 50.178,0 91,-40.822 91,-91 v -64.895 c 0,-22.054 -17.944,-39.997 -40,-39.997 h -102 c -22.056,0 -40,17.944 -40,40 v 64.892 c 0,50.178 40.822,91 91,91 z m 81,137.875 h -24 c -4.418,0 -8,3.582 -8,8 0,4.418 3.582,8 8,8 h 24 c 4.418,0 8,-3.582 8,-8 0,-4.418 -3.582,-8 -8,-8 z"
         id="path8326" />
    </g>
    <g
       transform="matrix(0.0726423,0,0,0.0726423,79.299405,89.504763)"
       id="g8400">
      <path
         d="m 296,288 60,-60 c 7.73,-7.73 17.86,-11.6 28,-11.6 10.055,0 20.101,3.806 27.806,11.407 15.612,15.402 15.207,41.18 -0.3,56.687 L 277.213,418.787 c -11.716,11.716 -30.711,11.716 -42.426,0 L 100,284 c -7.73,-7.73 -11.6,-17.86 -11.6,-28 0,-10.055 3.806,-20.101 11.407,-27.806 15.402,-15.612 41.18,-15.207 56.687,0.3 L 216,288 V 56 c 0,-22.091 17.909,-40 40,-40 22.091,0 40,17.909 40,40 z"
         fill="#f79caf"
         id="path8378" />
      <path
         d="m 411.51,284.49 -134.3,134.3 c -11.71,11.71 -30.71,11.71 -42.42,0 l -12.74,-12.74 c 10.69,4.06 23.23,1.77 31.84,-6.84 L 388.18,264.92 c 12.51,-12.51 15.19,-31.7 7.57,-46.74 5.86,1.81 11.39,5.03 16.06,9.63 15.61,15.4 15.2,41.18 -0.3,56.68 z"
         fill="#e3889b"
         id="path8380" />
      <path
         d="m 251.88,27.72 c -3.46,-3.46 -7.55,-6.29 -12.08,-8.3 4.95,-2.2 10.43,-3.42 16.2,-3.42 11.04,0 21.04,4.48 28.28,11.72 C 291.52,34.96 296,44.96 296,56 v 232 l -15.329,15.329 c -6.3,6.3 -17.071,1.838 -17.071,-7.071 V 56 c 0,-11.04 -4.48,-21.04 -11.72,-28.28 z"
         fill="#e3889b"
         id="path8382" />
      <g
         id="g8386">
        <path
           d="m 496,512 h -24 c -8.836,0 -16,-7.164 -16,-16 0,-8.836 7.164,-16 16,-16 h 24 c 8.836,0 16,7.164 16,16 0,8.836 -7.164,16 -16,16 z"
           id="path8384" />
      </g>
      <g
         id="g8390">
        <path
           d="M 40,512 H 16 C 7.164,512 0,504.836 0,496 0,487.164 7.164,480 16,480 h 24 c 8.836,0 16,7.164 16,16 0,8.836 -7.164,16 -16,16 z"
           id="path8388" />
      </g>
      <g
         id="g8394">
        <path
           d="M 416,512 H 96 c -8.836,0 -16,-7.164 -16,-16 0,-8.836 7.164,-16 16,-16 h 320 c 8.836,0 16,7.164 16,16 0,8.836 -7.164,16 -16,16 z"
           id="path8392" />
      </g>
      <g
         id="g8398">
        <path
           d="m 256,443.552 c -11.78,0 -23.56,-4.484 -32.527,-13.452 L 88.687,295.313 C 78.184,284.811 72.4,270.85 72.4,256 c 0,-14.708 5.688,-28.573 16.017,-39.042 10.31,-10.451 24.214,-16.233 39.151,-16.284 h 0.189 c 14.966,0 29.552,6.009 40.05,16.507 L 200,249.373 V 56 c 0,-30.878 25.122,-56 56,-56 30.878,0 56,25.122 56,56 v 193.373 l 32.687,-32.687 C 355.188,206.184 369.15,200.4 384,200.4 c 14.708,0 28.573,5.688 39.042,16.017 10.45,10.31 16.233,24.214 16.284,39.151 0.051,15.032 -5.966,29.698 -16.507,40.24 L 288.527,430.1 C 279.56,439.068 267.78,443.552 256,443.552 Z M 127.761,232.673 c -0.028,0 -0.056,0 -0.084,0 -6.349,0.021 -12.202,2.421 -16.479,6.758 -4.383,4.443 -6.797,10.327 -6.797,16.569 0,6.302 2.456,12.228 6.914,16.686 L 246.1,407.473 c 5.459,5.459 14.341,5.459 19.8,0 L 400.192,273.181 c 4.556,-4.557 7.157,-10.937 7.134,-17.504 -0.021,-6.349 -2.421,-12.202 -6.758,-16.479 -4.443,-4.383 -10.327,-6.797 -16.569,-6.797 -6.302,0 -12.228,2.456 -16.687,6.914 l -60,60 c -4.575,4.577 -11.456,5.945 -17.437,3.469 C 283.898,300.306 280,294.471 280,288 V 56 c 0,-13.234 -10.767,-24 -24,-24 -13.234,0 -24,10.766 -24,24 v 232 c 0,6.471 -3.898,12.306 -9.877,14.782 -5.978,2.476 -12.861,1.108 -17.437,-3.469 L 145.18,239.808 c -4.536,-4.537 -10.882,-7.135 -17.419,-7.135 z"
           id="path8396" />
      </g>
    </g>
  </g>
</svg>
