<?xml version="1.0" encoding="UTF-8" standalone="no"?>
<svg
   xmlns:dc="http://purl.org/dc/elements/1.1/"
   xmlns:cc="http://creativecommons.org/ns#"
   xmlns:rdf="http://www.w3.org/1999/02/22-rdf-syntax-ns#"
   xmlns:svg="http://www.w3.org/2000/svg"
   xmlns="http://www.w3.org/2000/svg"
   xmlns:sodipodi="http://sodipodi.sourceforge.net/DTD/sodipodi-0.dtd"
   xmlns:inkscape="http://www.inkscape.org/namespaces/inkscape"
   width="512"
   height="512"
   viewBox="0 0 135.46666 135.46667"
   version="1.1"
   id="svg6026"
   inkscape:version="1.0 (4035a4fb49, 2020-05-01)"
   sodipodi:docname="14.svg">
  <defs
     id="defs6020" />
  <sodipodi:namedview
     id="base"
     pagecolor="#ffffff"
     bordercolor="#666666"
     borderopacity="1.0"
     inkscape:pageopacity="0.0"
     inkscape:pageshadow="2"
     inkscape:zoom="0.98994949"
     inkscape:cx="400"
     inkscape:cy="319.8332"
     inkscape:document-units="mm"
     inkscape:current-layer="layer1"
     inkscape:document-rotation="0"
     showgrid="false"
     units="px"
     inkscape:window-width="1920"
     inkscape:window-height="1001"
     inkscape:window-x="-9"
     inkscape:window-y="-9"
     inkscape:window-maximized="1" />
  <metadata
     id="metadata6023">
    <rdf:RDF>
      <cc:Work
         rdf:about="">
        <dc:format>image/svg+xml</dc:format>
        <dc:type
           rdf:resource="http://purl.org/dc/dcmitype/StillImage" />
        <dc:title />
      </cc:Work>
    </rdf:RDF>
  </metadata>
  <g
     inkscape:label="Layer 1"
     inkscape:groupmode="layer"
     id="layer1">
    <g
       transform="matrix(0.2655475,0,0,0.2655475,0.42052832,0.42052875)"
       id="g12353">
      <g
         id="g12337">
        <g
           id="XMLID_32_">
          <g
             id="g12309">
            <circle
               cx="255.07001"
               cy="255.07001"
               fill="#fef0ae"
               r="247.57001"
               id="circle12307" />
          </g>
        </g>
        <path
           d="M 155.87,255.07 C 155.87,144.186 228.784,50.332 329.269,18.811 305.848,11.464 280.916,7.5 255.07,7.5 118.34,7.5 7.5,118.34 7.5,255.07 c 0,136.73 110.84,247.57 247.57,247.57 25.846,0 50.785,-3.966 74.207,-11.314 C 228.792,459.806 155.87,365.955 155.87,255.07 Z"
           fill="#fee97d"
           id="path12312" />
        <g
           id="XMLID_222_">
          <g
             id="g12334">
            <path
               d="m 502.59,259.21 h 0.01 c -0.58,35.83 -8.78,69.81 -23.04,100.39 l -0.02,-0.01 c -19.11,-7.74 -32.59,-26.46 -32.59,-48.35 0,-28.8 23.35,-52.15 52.15,-52.15 1.17,0 2.33,0.05 3.49,0.12 z"
               fill="#fee97d"
               id="path12314" />
            <path
               d="m 255.07,463.83 c 21.57,0 39.7,14.77 44.8,34.76 -14.53,2.66 -29.5,4.05 -44.8,4.05 -15.3,0 -30.27,-1.39 -44.8,-4.05 5.1,-19.99 23.23,-34.76 44.8,-34.76 z"
               fill="#fedf30"
               id="path12316" />
            <g
               fill="#fee97d"
               id="g12324">
              <path
                 d="m 314.82,353.39 c 16.67,0 30.19,13.52 30.19,30.19 0,16.68 -13.52,30.19 -30.19,30.19 -16.68,0 -30.2,-13.51 -30.2,-30.19 0,-16.67 13.52,-30.19 30.2,-30.19 z"
                 id="path12318" />
              <circle
                 cx="369.56"
                 cy="304.23001"
                 r="21.35"
                 id="circle12320" />
              <circle
                 cx="323.57999"
                 cy="189.96001"
                 r="57.450001"
                 id="circle12322" />
            </g>
            <circle
               cx="155.87"
               cy="303.76999"
               fill="#fee45a"
               r="33.07"
               id="circle12326" />
            <path
               d="m 155.87,336.84 c 4.585,0 8.953,-0.935 12.923,-2.623 -6.789,-20.134 -11.059,-41.427 -12.435,-63.505 -0.163,-0.002 -0.324,-0.012 -0.488,-0.012 -18.27,0 -33.07,14.81 -33.07,33.07 0,18.26 14.8,33.07 33.07,33.07 z"
               fill="#fedf30"
               id="path12328" />
            <path
               d="m 94.49,199.07 c 11.15,0 20.19,9.04 20.19,20.18 0,11.15 -9.04,20.19 -20.19,20.19 -11.15,0 -20.18,-9.04 -20.18,-20.19 0,-11.14 9.03,-20.18 20.18,-20.18 z"
               fill="#fedf30"
               id="path12330" />
            <path
               d="m 180.82,18.84 c 2.24,8.27 3.45,16.97 3.45,25.95 0,54.63 -44.29,98.92 -98.93,98.92 -16.4,0 -31.87,-4 -45.49,-11.06 H 39.84 C 70.49,78.87 120.72,37.7 180.82,18.83 Z"
               fill="#fedf30"
               id="path12332" />
          </g>
        </g>
      </g>
      <g
         id="g12351">
        <path
           d="m 436.052,75.342 c -2.919,-2.938 -7.667,-2.955 -10.607,-0.037 -2.939,2.919 -2.955,7.668 -0.037,10.607 44.182,44.488 68.843,103.263 69.691,165.823 -31.034,2.068 -55.654,27.959 -55.654,59.507 0,21.751 11.616,41.339 30.155,51.844 -11.377,22.54 -26.403,43.367 -44.775,61.739 -33.353,33.353 -74.797,55.667 -119.901,65.144 -8.085,-20.116 -27.678,-33.643 -49.855,-33.643 -22.175,0 -41.76,13.53 -49.844,33.645 C 160.117,480.494 118.67,458.18 85.314,424.825 39.972,379.482 15,319.195 15,255.07 c 0,-39.937 9.69,-78.383 27.951,-112.659 13.303,5.769 27.816,8.802 42.394,8.802 12.585,0 24.907,-2.177 36.623,-6.471 3.889,-1.425 5.886,-5.734 4.461,-9.623 -1.425,-3.889 -5.734,-5.887 -9.623,-4.461 -10.057,3.686 -20.642,5.555 -31.46,5.555 -12.152,0 -23.845,-2.315 -34.867,-6.884 9.745,-15.79 21.387,-30.564 34.837,-44.014 25.829,-25.829 56.513,-45.037 89.987,-56.795 0.967,5.355 1.463,10.801 1.463,16.272 0,27.729 -12.385,53.651 -33.979,71.116 -3.221,2.605 -3.72,7.328 -1.115,10.548 1.482,1.833 3.65,2.784 5.836,2.784 1.657,0 3.324,-0.546 4.712,-1.669 25.132,-20.328 39.546,-50.5 39.546,-82.779 0,-7.009 -0.69,-13.987 -2.05,-20.827 C 210.717,18.061 232.657,15 255.07,15 c 53.826,0 104.7,17.416 147.122,50.364 3.272,2.541 7.984,1.949 10.524,-1.323 2.541,-3.271 1.949,-7.983 -1.323,-10.524 C 366.315,18.506 312.259,0 255.07,0 186.938,0 122.885,26.532 74.708,74.708 26.532,122.885 0,186.938 0,255.07 c 0,68.132 26.532,132.186 74.708,180.362 48.176,48.177 112.23,74.708 180.362,74.708 68.132,0 132.186,-26.532 180.362,-74.708 C 483.609,387.256 510.14,323.202 510.14,255.07 510.141,187.279 483.829,123.451 436.052,75.342 Z M 220.444,492.668 c 6.458,-12.878 19.732,-21.341 34.626,-21.341 14.895,0 28.173,8.461 34.632,21.34 -11.372,1.633 -22.937,2.474 -34.632,2.474 -11.693,0 -23.256,-0.84 -34.626,-2.473 z M 454.446,311.242 c 0,-23.192 17.773,-42.304 40.412,-44.449 -1.376,28.818 -7.833,56.702 -18.915,82.633 -13.251,-8.002 -21.497,-22.327 -21.497,-38.184 z"
           id="path12339" />
        <path
           d="m 323.68,239.906 c -0.106,-0.003 -0.213,-0.007 -0.32,-0.006 -4.119,0 -7.472,3.326 -7.499,7.451 -0.026,4.108 3.255,7.466 7.35,7.547 0.125,0.004 0.249,0.007 0.375,0.007 35.813,0 64.95,-29.136 64.95,-64.95 0,-35.814 -29.136,-64.95 -64.95,-64.95 -35.814,0 -64.95,29.136 -64.95,64.95 0,22.245 11.207,42.7 29.979,54.72 3.485,2.232 8.125,1.217 10.36,-2.272 2.233,-3.489 1.216,-8.127 -2.272,-10.361 -14.444,-9.248 -23.067,-24.981 -23.067,-42.087 0,-27.542 22.407,-49.95 49.95,-49.95 27.543,0 49.95,22.407 49.95,49.95 -0.002,27.511 -22.358,49.899 -49.856,49.951 z"
           id="path12341" />
        <path
           d="m 155.868,344.338 c 22.37,0 40.568,-18.199 40.568,-40.568 0,-22.369 -18.199,-40.568 -40.568,-40.568 -22.369,0 -40.568,18.199 -40.568,40.568 0,22.369 18.198,40.568 40.568,40.568 z m 0,-66.136 c 14.099,0 25.568,11.47 25.568,25.568 0,14.098 -11.47,25.568 -25.568,25.568 -14.098,0 -25.568,-11.47 -25.568,-25.568 0,-14.098 11.469,-25.568 25.568,-25.568 z"
           id="path12343" />
        <path
           d="m 94.491,191.57 c -15.265,0 -27.685,12.419 -27.685,27.685 0,15.266 12.419,27.685 27.685,27.685 15.266,0 27.685,-12.419 27.685,-27.685 0,-15.266 -12.42,-27.685 -27.685,-27.685 z m 0,40.369 c -6.994,0 -12.685,-5.69 -12.685,-12.685 0,-6.995 5.69,-12.685 12.685,-12.685 6.995,0 12.685,5.69 12.685,12.685 0,6.995 -5.691,12.685 -12.685,12.685 z"
           id="path12345" />
        <path
           d="m 314.815,421.274 c 20.783,0 37.691,-16.908 37.691,-37.691 0,-20.783 -16.908,-37.691 -37.691,-37.691 -20.783,0 -37.691,16.908 -37.691,37.691 0,20.783 16.908,37.691 37.691,37.691 z m 0,-60.382 c 12.512,0 22.691,10.179 22.691,22.691 0,12.512 -10.179,22.691 -22.691,22.691 -12.512,0 -22.691,-10.179 -22.691,-22.691 0,-12.512 10.179,-22.691 22.691,-22.691 z"
           id="path12347" />
        <path
           d="m 398.412,304.231 c 0,-15.907 -12.941,-28.849 -28.848,-28.849 -15.907,0 -28.849,12.941 -28.849,28.849 0,15.908 12.941,28.849 28.849,28.849 15.907,0 28.848,-12.942 28.848,-28.849 z m -42.697,0 c 0,-7.636 6.212,-13.849 13.849,-13.849 7.636,0 13.848,6.212 13.848,13.849 0,7.637 -6.212,13.849 -13.848,13.849 -7.636,0 -13.849,-6.213 -13.849,-13.849 z"
           id="path12349" />
      </g>
    </g>
  </g>
</svg>
