<?xml version="1.0" encoding="UTF-8" standalone="no"?>
<svg
   xmlns:dc="http://purl.org/dc/elements/1.1/"
   xmlns:cc="http://creativecommons.org/ns#"
   xmlns:rdf="http://www.w3.org/1999/02/22-rdf-syntax-ns#"
   xmlns:svg="http://www.w3.org/2000/svg"
   xmlns="http://www.w3.org/2000/svg"
   xmlns:sodipodi="http://sodipodi.sourceforge.net/DTD/sodipodi-0.dtd"
   xmlns:inkscape="http://www.inkscape.org/namespaces/inkscape"
   sodipodi:docname="01.svg"
   inkscape:version="1.0 (4035a4fb49, 2020-05-01)"
   id="svg8"
   version="1.1"
   viewBox="0 0 135.46667 135.46667"
   height="512"
   width="512">
  <defs
     id="defs2" />
  <sodipodi:namedview
     inkscape:window-maximized="1"
     inkscape:window-y="-9"
     inkscape:window-x="-9"
     inkscape:window-height="1001"
     inkscape:window-width="1920"
     units="px"
     showgrid="false"
     inkscape:document-rotation="0"
     inkscape:current-layer="layer1"
     inkscape:document-units="mm"
     inkscape:cy="261.67127"
     inkscape:cx="247.85714"
     inkscape:zoom="0.98994949"
     inkscape:pageshadow="2"
     inkscape:pageopacity="0.0"
     borderopacity="1.0"
     bordercolor="#666666"
     pagecolor="#ffffff"
     id="base" />
  <metadata
     id="metadata5">
    <rdf:RDF>
      <cc:Work
         rdf:about="">
        <dc:format>image/svg+xml</dc:format>
        <dc:type
           rdf:resource="http://purl.org/dc/dcmitype/StillImage" />
        <dc:title></dc:title>
      </cc:Work>
    </rdf:RDF>
  </metadata>
  <g
     id="layer1"
     inkscape:groupmode="layer"
     inkscape:label="Layer 1">
    <g
       transform="matrix(0.16844086,0,0,0.16844086,-4.8693607,0.39125847)"
       id="g897">
      <path
         d="m 394.032,424.803 v 39.26 c 0,4.42 -3.58,8 -8,8 h -292 c -4.42,0 -8,-3.58 -8,-8 v -39.26 c 0,-41.19 33.39,-74.56 74.59,-74.57 14.56,-0.01 27.38,-7.5 34.76,-18.86 7.414,-11.394 6.65,-21.302 6.65,-29.31 l 0.15,-0.37 c -35.9,-14.86 -61.15,-50.23 -61.15,-91.5 v -3.13 c -14.255,0 -25,-11.265 -25,-24.54 v -41.56 c -0.32,-14.47 0.34,-65.5 37.2,-101.03 42.86,-41.31 110.78,-37.93 159.98,-15.83 1.6,0.72 1.55,3.01 -0.07,3.68 l -12.83,5.28 c -1.92,0.79 -1.51,3.62 0.55,3.84 l 6.23,0.67 c 29.83,3.19 57.54,19.39 74.72,46.35 0.46,0.73 0.33,1.84 -0.26,2.47 -10.6,11.21 -16.52,26.09 -16.52,41.56 v 54.57 c 0,13.55 -10.99,24.54 -24.54,24.54 h -1.46 v 3.13 c 0,41.27 -25.25,76.64 -61.15,91.5 l 0.15,0.37 c 0,7.777 -0.827,17.82 6.65,29.31 7.38,11.36 20.2,18.85 34.76,18.86 41.2,0.01 74.59,33.38 74.59,74.57 z"
         fill="#ffdfba"
         id="path860" />
      <path
         d="m 394.032,424.803 v 39.26 c 0,4.418 -3.582,8 -8,8 h -292 c -4.418,0 -8,-3.582 -8,-8 v -39.26 c 0,-41.19 33.395,-74.555 74.585,-74.57 14.564,-0.005 27.387,-7.504 34.765,-18.86 25.754,22.002 63.531,22.015 89.3,0 7.377,11.356 20.201,18.855 34.765,18.86 41.19,0.015 74.585,33.38 74.585,74.57 z"
         fill="#fe4f60"
         id="path862" />
      <path
         d="m 381.807,83.928 c 0.464,0.729 0.334,1.833 -0.259,2.461 -10.597,11.218 -16.517,26.093 -16.517,41.564 v 54.57 c 0,12.388 -9.333,24.54 -26,24.54 v -61.77 c 0,-26.51 -21.49,-48 -48,-48 h -102 c -26.51,0 -48,21.49 -48,48 v 61.77 c -14.255,0 -25,-11.265 -25,-24.54 v -41.56 c -0.32,-14.47 0.34,-65.5 37.2,-101.03 42.858,-41.311 110.784,-37.929 159.977,-15.827 1.601,0.719 1.558,3.01 -0.065,3.678 l -12.831,5.282 c -1.918,0.79 -1.514,3.617 0.548,3.838 l 6.232,0.669 c 29.834,3.187 57.537,19.387 74.715,46.355 z"
         fill="#42434d"
         id="path864" />
      <path
         d="m 339.032,210.193 c 0,54.696 -44.348,99 -99,99 -51.492,0 -99,-40.031 -99,-102.13 v -61.77 c 0,-26.51 21.49,-48 48,-48 h 102 c 26.51,0 48,21.49 48,48 z"
         fill="#ffebd2"
         id="path866" />
      <path
         d="m 217.616,274.121 c 16.277,10.183 3.442,35.156 -14.376,28.004 -36.634,-14.704 -62.208,-50.404 -62.208,-91.932 v -64.9 c 0,-10.084 3.11,-19.442 8.423,-27.168 6.514,-9.473 21.577,-5.288 21.577,7.168 v 64.9 c 0,36.51 19.192,66.79 46.584,83.928 z"
         fill="#fff3e4"
         id="path868" />
      <path
         d="m 279.162,318.483 c -24.637,10.313 -51.712,11.113 -78.26,0 1.356,-5.626 1.13,-9.27 1.13,-16.42 l 0.15,-0.37 c 24.082,9.996 51.571,10.016 75.7,0 l 0.15,0.37 c 0,7.153 -0.226,10.796 1.13,16.42 z"
         fill="#ffd6a6"
         id="path870" />
      <path
         d="m 200.913,374.39 c -3.698,1.163 -7.664,1.804 -11.916,1.841 -41.296,0.364 -74.966,33.017 -74.966,74.315 v 7.517 c 0,7.732 -6.268,14 -14,14 h -6 c -4.418,0 -8,-3.582 -8,-8 v -39.26 c 0,-41.191 33.395,-74.555 74.585,-74.57 14.564,-0.005 27.387,-7.504 34.765,-18.86 2.974,2.54 6.158,4.823 9.512,6.822 14.753,8.791 12.402,31.044 -3.98,36.195 z"
         fill="#ff6d7a"
         id="path872" />
      <path
         d="m 279.15,374.39 c 3.698,1.163 7.664,1.804 11.916,1.841 41.296,0.364 74.966,33.017 74.966,74.315 v 7.517 c 0,7.732 6.268,14 14,14 h 6 c 4.418,0 8,-3.582 8,-8 v -39.26 c 0,-41.191 -33.395,-74.555 -74.585,-74.57 -14.564,-0.005 -27.387,-7.504 -34.765,-18.86 -2.974,2.54 -6.158,4.823 -9.512,6.822 -14.753,8.791 -12.402,31.044 3.98,36.195 z"
         fill="#e84857"
         id="path874" />
      <path
         d="m 313.142,27.783 c -11.758,4.839 -13.434,5.906 -17.508,5.274 C 229.96,22.877 172.34,50.05 152.772,113.843 v 0.01 c -7.32,8.42 -11.74,19.42 -11.74,31.44 v 37.523 c 0,16.188 -25,17.315 -25,-0.293 v -41.56 c -0.32,-14.47 0.34,-65.5 37.2,-101.03 42.86,-41.31 110.78,-37.93 159.98,-15.83 1.6,0.72 1.55,3.01 -0.07,3.68 z"
         fill="#4d4e59"
         id="path876" />
      <path
         d="m 402.032,424.806 v 47.257 c 0,4.418 -3.582,8 -8,8 -4.418,0 -8,-3.582 -8,-8 v -47.257 c 0,-36.795 -29.775,-66.572 -66.573,-66.571 -17.411,0 -33.208,-8.87 -42.259,-23.728 -2.298,-3.773 -1.103,-8.696 2.671,-10.994 3.773,-2.299 8.695,-1.103 10.994,2.671 6.122,10.051 16.811,16.051 28.594,16.051 45.637,-0.002 82.573,36.93 82.573,82.571 z M 262.426,344.613 c 0.941,4.317 -1.796,8.579 -6.113,9.52 -21.054,4.587 -42.467,-0.005 -59.516,-11.642 -16.878,18.087 -39.176,15.744 -36.191,15.744 -36.795,-0.001 -66.573,29.773 -66.573,66.571 v 47.257 c 0,4.418 -3.582,8 -8,8 -4.418,0 -8,-3.582 -8,-8 v -47.257 c 0,-45.636 36.929,-82.571 82.571,-82.571 18.462,0 33.429,-14.875 33.429,-33.342 v -2.107 c -34.919,-16.697 -59.429,-51.784 -60.923,-92.643 -14.37,-3.455 -25.077,-16.317 -25.077,-31.62 V 141.05 c -0.437,-20.3 2.577,-71.143 39.648,-106.877 45.775,-44.126 119.183,-41.323 173.161,-15.338 5.261,2.535 6.06,9.643 1.691,13.324 27.345,6.67 50.925,23.48 66.074,47.538 0.782,1.239 2.214,3.184 1.84,6.287 -0.232,1.931 -0.807,3.565 -2.295,5.075 -9.75,9.888 -15.119,22.991 -15.119,36.896 v 54.57 c 0,4.418 -3.582,8 -8,8 -4.418,0 -8,-3.582 -8,-8 v -54.57 c 0,-16.037 5.479,-31.259 15.542,-43.487 C 357.237,62.532 333.307,48.424 306.243,45.526 L 292.182,44.02 c -8.222,-0.88 -9.835,-12.207 -2.194,-15.352 l 6.395,-2.633 C 213.097,-3 124.032,29.261 124.032,140.963 v 41.56 c 0,6.348 3.656,11.865 9,14.636 v -51.863 c 0,-30.878 25.122,-56 56,-56 h 102 c 30.878,0 56,25.12 56,55.997 v 65.503 c 0,69.574 -67.988,122.42 -137.17,102.053 -0.45,5.708 -1.871,11.216 -4.186,16.336 13.458,9.242 30.453,12.97 47.23,9.314 4.317,-0.94 8.579,1.797 9.52,6.114 z m -22.394,-43.425 c 50.178,0 91,-40.822 91,-91 v -64.895 c 0,-22.054 -17.944,-39.997 -40,-39.997 h -102 c -22.056,0 -40,17.944 -40,40 v 64.892 c 0,50.178 40.822,91 91,91 z m 81,137.875 h -24 c -4.418,0 -8,3.582 -8,8 0,4.418 3.582,8 8,8 h 24 c 4.418,0 8,-3.582 8,-8 0,-4.418 -3.582,-8 -8,-8 z"
         id="path878" />
    </g>
    <g
       transform="matrix(0.15496151,0,0,0.15496151,58.017022,0.43413357)"
       id="g985">
      <g
         id="g1005">
        <g
           id="g993">
          <path
             style="fill:#ffe100"
             d="m 409.598,392.533 v -15.334 c 0,-21.632 -11.819,-41.532 -30.805,-51.891 l -57.216,-35.866 c -8.627,-4.702 -14.379,-13.747 -14.379,-23.569 v -26.94 c 0,0 25.114,-23.074 32.478,-55.151 6.101,-3.942 10.189,-10.778 10.189,-18.543 v -29.483 c 0,-6.485 -4.045,-12.279 -8.533,-16.333 V 76.8 c 0,0 -3.738,-68.267 -85.333,-68.267 -81.595,0 -85.335,68.267 -85.335,68.267 v 42.624 c -4.489,4.053 -8.533,9.847 -8.533,16.333 v 29.483 c 0,7.765 4.087,14.601 10.189,18.543 7.364,32.077 32.478,55.151 32.478,55.151 v 26.94 c 0,9.822 -5.751,18.867 -14.379,23.569 l -57.216,35.866 c -18.987,10.359 -30.805,30.259 -30.805,51.891 v 15.334 h 307.2 z"
             id="path896" />
          <path
             style="fill:#ffa800"
             d="M 378.792,325.306 321.576,289.44 c -8.627,-4.702 -14.379,-13.747 -14.379,-23.569 v -26.94 c 0,0 25.114,-23.074 32.478,-55.151 6.101,-3.942 10.189,-10.778 10.189,-18.543 v -29.483 c 0,-6.485 -4.045,-12.279 -8.533,-16.333 V 76.798 c 0,0 -3.729,-68.267 -85.333,-68.267 -4.531,0 -8.738,0.282 -12.8,0.683 69.12,6.767 72.533,67.584 72.533,67.584 v 42.624 c 4.489,4.053 8.533,9.847 8.533,16.333 v 29.483 c 0,7.765 -4.087,14.601 -10.189,18.543 -7.364,32.077 -32.478,55.151 -32.478,55.151 v 26.94 c 0,9.822 2.432,26.359 11.051,31.07 l 57.216,35.857 c 18.987,10.359 34.133,22.767 34.133,44.399 v 15.334 h 25.6 v -15.334 c 0.001,-21.633 -11.818,-41.532 -30.805,-51.892"
             id="path898" />
          <path
             style="fill:#ffffff"
             d="m 133.203,325.306 57.216,-35.866 c 8.627,-4.702 14.379,-13.747 14.379,-23.569 v -26.94 c 0,0 -25.114,-23.074 -32.478,-55.151 -6.101,-3.942 -10.189,-10.778 -10.189,-18.543 v -29.483 c 0,-6.485 4.045,-12.279 8.533,-16.333 V 76.798 c 0,0 3.729,-68.267 85.333,-68.267 4.531,0 8.738,0.282 12.8,0.683 -69.12,6.767 -72.533,67.584 -72.533,67.584 v 42.624 c -4.489,4.053 -8.533,9.847 -8.533,16.333 v 29.483 c 0,7.765 4.087,14.601 10.189,18.543 7.364,32.077 32.478,55.151 32.478,55.151 v 26.94 c 0,9.822 -2.432,26.359 -11.051,31.07 l -57.216,35.857 c -18.987,10.359 -34.133,22.767 -34.133,44.399 v 15.334 h -25.6 v -15.334 c -10e-4,-21.633 11.818,-41.532 30.805,-51.892"
             id="path900" />
          <path
             id="path910"
             d="m 110.931,384 h 290.133 v -6.801 c 0,-18.517 -10.103,-35.533 -26.359,-44.399 l -57.66,-36.13 c -11.17,-6.067 -18.381,-17.971 -18.381,-30.797 v -26.94 c 0,-2.381 1.007,-4.659 2.748,-6.272 0.239,-0.213 23.287,-21.803 29.943,-50.79 0.495,-2.159 1.818,-4.053 3.695,-5.257 3.934,-2.543 6.281,-6.793 6.281,-11.375 v -29.483 c 0,-3.072 -2.082,-6.716 -5.717,-10.001 -1.792,-1.621 -2.816,-3.925 -2.816,-6.332 V 76.8 c -0.137,-1.963 -4.582,-59.733 -76.8,-59.733 -72.218,0 -76.663,57.771 -76.817,60.237 l 0.017,42.121 c 0,2.406 -1.024,4.71 -2.816,6.332 -3.635,3.285 -5.717,6.929 -5.717,10.001 v 29.483 c 0,4.582 2.347,8.832 6.281,11.375 1.877,1.203 3.2,3.098 3.695,5.257 6.656,28.988 29.705,50.577 29.943,50.79 1.741,1.613 2.748,3.891 2.748,6.272 v 26.94 c 0,12.826 -7.211,24.73 -18.825,31.061 l -56.772,35.601 c -16.7,9.131 -26.803,26.146 -26.803,44.663 v 6.8 z m 298.667,17.067 h -307.2 c -4.71,0 -8.533,-3.823 -8.533,-8.533 V 377.2 c 0,-24.764 13.508,-47.522 35.251,-59.383 l 56.772,-35.601 c 6.477,-3.558 10.377,-9.865 10.377,-16.341 V 242.5 c -6.852,-7.057 -24.422,-27.11 -31.479,-53.675 -7.066,-5.803 -11.187,-14.387 -11.187,-23.586 v -29.483 c 0,-6.912 3.004,-13.858 8.533,-19.883 V 76.8 C 162.183,75.571 167.346,0 255.999,0 c 88.653,0 93.815,75.571 93.858,76.331 l 0.009,39.543 c 5.53,6.025 8.533,12.971 8.533,19.883 v 29.483 c 0,9.199 -4.122,17.783 -11.187,23.586 -7.057,26.564 -24.627,46.618 -31.479,53.675 v 23.373 c 0,6.477 3.9,12.783 9.933,16.077 l 57.66,36.13 c 21.299,11.597 34.807,34.355 34.807,59.119 v 15.334 c -0.002,4.71 -3.825,8.533 -8.535,8.533 z" />
        </g>
        <g
           id="g982"
           transform="translate(62.642187)">
          <polygon
             id="polygon902"
             points="149.722,450.679 179.204,455.185 157.871,477.056 162.129,503.467 136.538,486.4 110.929,503.467 115.204,477.056 93.871,455.185 123.354,450.679 136.538,426.667 "
             style="fill:#63d3fd" />
          <polygon
             id="polygon904"
             points="269.181,450.679 298.664,455.185 277.331,477.056 281.589,503.467 255.997,486.4 230.389,503.467 234.664,477.056 213.331,455.185 242.813,450.679 255.997,426.667 "
             style="fill:#63d3fd" />
          <path
             id="path912"
             d="m 136.539,477.867 c 1.647,0 3.302,0.478 4.736,1.434 l 9.318,6.212 -1.143,-7.108 c -0.435,-2.671 0.427,-5.376 2.313,-7.313 l 9.737,-9.975 -13.065,-1.997 c -2.628,-0.401 -4.915,-2.005 -6.195,-4.335 l -5.7,-10.385 -5.709,10.394 c -1.28,2.321 -3.567,3.925 -6.195,4.326 l -13.056,1.997 9.737,9.975 c 1.886,1.937 2.748,4.651 2.313,7.322 l -1.143,7.1 9.318,-6.212 c 1.432,-0.957 3.087,-1.435 4.734,-1.435 M 162.131,512 c -1.647,0 -3.302,-0.478 -4.736,-1.434 l -20.855,-13.909 -20.873,13.909 c -2.825,1.886 -6.494,1.92 -9.353,0.077 -2.85,-1.835 -4.352,-5.188 -3.806,-8.542 l 3.584,-22.17 -18.33,-18.782 c -2.236,-2.295 -2.995,-5.641 -1.98,-8.67 1.015,-3.038 3.644,-5.248 6.801,-5.726 l 25.31,-3.874 11.17,-20.318 c 1.493,-2.731 4.361,-4.429 7.475,-4.429 3.115,0 5.982,1.698 7.475,4.429 l 11.162,20.318 25.318,3.874 c 3.157,0.478 5.786,2.688 6.801,5.726 1.015,3.029 0.256,6.374 -1.98,8.67 l -18.338,18.782 3.575,22.178 c 0.538,3.345 -0.956,6.699 -3.806,8.533 -1.406,0.906 -3.01,1.358 -4.614,1.358" />
          <path
             id="path914"
             d="m 255.997,477.867 c 1.647,0 3.302,0.478 4.736,1.434 l 9.318,6.212 -1.143,-7.108 c -0.435,-2.671 0.427,-5.376 2.313,-7.313 l 9.737,-9.975 -13.065,-1.997 c -2.628,-0.401 -4.915,-2.005 -6.195,-4.335 l -5.7,-10.385 -5.7,10.385 c -1.28,2.33 -3.567,3.934 -6.195,4.335 l -13.065,1.997 9.737,9.975 c 1.886,1.937 2.748,4.651 2.313,7.322 l -1.143,7.1 9.318,-6.212 c 1.432,-0.957 3.088,-1.435 4.734,-1.435 M 281.589,512 c -1.647,0 -3.302,-0.478 -4.736,-1.434 l -20.855,-13.909 -20.873,13.909 c -2.825,1.886 -6.494,1.92 -9.353,0.077 -2.85,-1.835 -4.352,-5.188 -3.806,-8.542 l 3.584,-22.17 -18.33,-18.782 c -2.236,-2.295 -2.995,-5.641 -1.98,-8.67 1.015,-3.038 3.644,-5.248 6.801,-5.726 l 25.318,-3.874 11.162,-20.318 c 2.987,-5.47 11.964,-5.47 14.95,0 l 11.162,20.318 25.318,3.874 c 3.157,0.478 5.786,2.688 6.801,5.726 1.015,3.029 0.256,6.374 -1.98,8.67 l -18.338,18.782 3.575,22.178 c 0.538,3.345 -0.956,6.699 -3.806,8.533 -1.406,0.906 -3.01,1.358 -4.614,1.358" />
        </g>
      </g>
      <g
         id="g922">
</g>
      <g
         id="g924">
</g>
      <g
         id="g926">
</g>
      <g
         id="g928">
</g>
      <g
         id="g930">
</g>
      <g
         id="g932">
</g>
      <g
         id="g934">
</g>
      <g
         id="g936">
</g>
      <g
         id="g938">
</g>
      <g
         id="g940">
</g>
      <g
         id="g942">
</g>
      <g
         id="g944">
</g>
      <g
         id="g946">
</g>
      <g
         id="g948">
</g>
      <g
         id="g950">
</g>
    </g>
    <g
       transform="matrix(0.15385028,0,0,0.15385028,28.914051,56.032823)"
       id="g994">
      <g
         id="g898">
        <g
           id="g896">
          <g
             id="g888">
            <g
               id="g886">
              <path
                 id="path884"
                 fill="#fb4a59"
                 d="m 394.702,367.871 c 38.413,-38.51 38.386,-100.867 -0.087,-139.34 -38.474,-38.474 -100.832,-38.5 -139.342,-0.085 -38.51,-38.416 -100.868,-38.389 -139.342,0.085 -38.473,38.473 -38.5,100.83 -0.087,139.34 l 134.642,134.646 c 2.644,2.644 6.93,2.644 9.573,0 z" />
            </g>
          </g>
          <g
             id="g894">
            <g
               id="g892">
              <path
                 id="path890"
                 fill="#f82f40"
                 d="m 394.705,367.868 -134.642,134.65 c -2.643,2.643 -6.935,2.643 -9.579,0 l -16.83,-16.838 128.61,-128.61 c 38.412,-38.51 38.382,-100.868 -0.09,-139.341 -6.905,-6.905 -14.586,-12.576 -22.757,-17.003 20.204,2.99 39.655,12.259 55.197,27.802 38.473,38.479 38.503,100.83 0.091,139.34 z" />
            </g>
          </g>
        </g>
      </g>
      <path
         id="path912-0"
         d="M 320.34,431.628 255.274,496.697 121.154,362.574 C 108.3,349.689 99.682,333.471 96.231,315.675 c -0.789,-4.066 -4.722,-6.724 -8.791,-5.935 -4.066,0.789 -6.724,4.725 -5.936,8.791 4.022,20.737 14.061,39.63 29.036,54.643 l 134.643,134.647 c 2.782,2.781 6.436,4.171 10.09,4.171 3.653,0 7.309,-1.391 10.091,-4.172 l 65.583,-65.585 c 2.929,-2.929 2.929,-7.678 -10e-4,-10.606 -2.929,-2.931 -7.678,-2.929 -10.606,-0.001 z" />
      <path
         id="path914-4"
         d="m 399.919,223.228 c -39.596,-39.595 -103.022,-41.281 -144.645,-5.03 -41.623,-36.25 -105.052,-34.563 -144.646,5.03 -15.496,15.497 -25.681,35.088 -29.453,56.656 -0.714,4.08 2.016,7.966 6.096,8.68 4.088,0.716 7.967,-2.016 8.68,-6.096 3.238,-18.513 11.981,-35.33 25.285,-48.634 35.472,-35.473 93.225,-35.508 128.741,-0.078 2.928,2.92 7.666,2.92 10.594,0 35.516,-35.431 93.269,-35.395 128.741,0.078 35.472,35.471 35.508,93.224 0.087,128.733 l -43.655,43.657 c -2.929,2.929 -2.929,7.678 10e-4,10.606 1.464,1.465 3.384,2.197 5.303,2.197 1.919,0 3.839,-0.732 5.304,-2.197 l 43.661,-43.663 c 41.26,-41.365 41.219,-108.627 -0.094,-149.939 z" />
    </g>
  </g>
</svg>
