<?xml version="1.0" encoding="UTF-8" standalone="no"?>
<svg
   xmlns:dc="http://purl.org/dc/elements/1.1/"
   xmlns:cc="http://creativecommons.org/ns#"
   xmlns:rdf="http://www.w3.org/1999/02/22-rdf-syntax-ns#"
   xmlns:svg="http://www.w3.org/2000/svg"
   xmlns="http://www.w3.org/2000/svg"
   xmlns:sodipodi="http://sodipodi.sourceforge.net/DTD/sodipodi-0.dtd"
   xmlns:inkscape="http://www.inkscape.org/namespaces/inkscape"
   sodipodi:docname="02.svg"
   inkscape:version="1.0 (4035a4fb49, 2020-05-01)"
   id="svg1034"
   version="1.1"
   viewBox="0 0 135.46666 135.46667"
   height="512"
   width="512">
  <defs
     id="defs1028" />
  <sodipodi:namedview
     inkscape:window-maximized="1"
     inkscape:window-y="-9"
     inkscape:window-x="-9"
     inkscape:window-height="1001"
     inkscape:window-width="1920"
     units="px"
     showgrid="false"
     inkscape:document-rotation="0"
     inkscape:current-layer="layer1"
     inkscape:document-units="mm"
     inkscape:cy="271.76981"
     inkscape:cx="400"
     inkscape:zoom="0.98994949"
     inkscape:pageshadow="2"
     inkscape:pageopacity="0.0"
     borderopacity="1.0"
     bordercolor="#666666"
     pagecolor="#ffffff"
     id="base" />
  <metadata
     id="metadata1031">
    <rdf:RDF>
      <cc:Work
         rdf:about="">
        <dc:format>image/svg+xml</dc:format>
        <dc:type
           rdf:resource="http://purl.org/dc/dcmitype/StillImage" />
        <dc:title></dc:title>
      </cc:Work>
    </rdf:RDF>
  </metadata>
  <g
     id="layer1"
     inkscape:groupmode="layer"
     inkscape:label="Layer 1">
    <g
       transform="matrix(0.12948952,0,0,0.12948952,0.4202652,-0.86504469)"
       id="g1726">
      <g
         id="g1668">
        <path
           d="M 494.47,406.997 H 17.53 c -5.532,0 -10.017,-4.485 -10.017,-10.017 V 162.454 l 5.009,-14.368 h 486.957 l 5.009,14.368 V 396.98 c -10e-4,5.532 -4.486,10.017 -10.018,10.017 z"
           fill="#d3effb"
           id="path1666" />
      </g>
      <g
         id="g1672">
        <path
           d="M 499.479,148.086 H 466.82 v 211.227 c 0,5.532 -4.485,10.017 -10.017,10.017 H 7.513 v 27.65 c 0,5.532 4.485,10.017 10.017,10.017 h 476.94 c 5.532,0 10.017,-4.485 10.017,-10.017 V 162.454 Z"
           fill="#b1e4f9"
           id="path1670" />
      </g>
      <g
         id="g1676">
        <path
           d="M 504.487,162.454 H 7.513 V 73.285 c 0,-5.523 4.477,-10 10,-10 h 476.974 c 5.523,0 10,4.477 10,10 z"
           fill="#5766cb"
           id="path1674" />
      </g>
      <g
         id="g1680">
        <path
           d="m 494.47,63.285 h -27.65 v 99.169 h 37.667 V 73.302 c 0,-5.532 -4.485,-10.017 -10.017,-10.017 z"
           fill="#3d4fc3"
           id="path1678" />
      </g>
      <g
         id="g1686">
        <g
           id="g1684">
          <path
             d="m 448.73,324.227 h -30.051 v -65.022 c 0,-14.598 -11.231,-26.474 -25.037,-26.474 h -32.738 c -12.674,0 -23.179,10.009 -24.816,22.944 -0.255,2.011 -1.943,3.53 -3.971,3.53 h -22.143 c -2.343,0 -4.173,-2.002 -3.999,-4.339 2.166,-29.149 25.975,-52.187 54.929,-52.187 h 32.738 c 30.376,0 55.088,25.357 55.088,56.525 z"
             fill="#524798"
             id="path1682" />
        </g>
      </g>
      <g
         id="g1692">
        <g
           id="g1690">
          <path
             d="m 393.641,202.679 h -13.877 c 30.376,0 55.088,25.357 55.088,56.525 v 65.022 h 13.877 v -65.022 c 0.001,-31.168 -24.712,-56.525 -55.088,-56.525 z"
             fill="#453d81"
             id="path1688" />
        </g>
      </g>
      <g
         id="g1696">
        <path
           d="M 454.498,448.715 H 305.832 c -8.284,0 -15,-6.716 -15,-15 V 311.542 c 0,-8.284 6.716,-15 15,-15 h 148.666 c 8.284,0 15,6.716 15,15 v 122.173 c 0,8.284 -6.716,15 -15,15 z"
           fill="#5e54ac"
           id="path1694" />
      </g>
      <g
         id="g1700">
        <path
           d="M 454.472,296.542 H 446.5 v 114.149 c 0,8.298 -6.727,15.026 -15.026,15.026 H 290.832 v 7.972 c 0,8.298 6.727,15.026 15.026,15.026 h 148.615 c 8.299,0 15.026,-6.727 15.026,-15.026 V 311.568 c -0.001,-8.299 -6.728,-15.026 -15.027,-15.026 z"
           fill="#524798"
           id="path1698" />
      </g>
      <g
         id="g1704">
        <path
           d="m 406.287,358.192 c 0,-15.209 -12.801,-27.428 -28.217,-26.47 -13.211,0.821 -23.961,11.576 -24.777,24.788 -0.581,9.407 3.748,17.833 10.665,22.975 1.024,0.761 1.641,1.95 1.641,3.226 v 19.361 c 0,2.766 2.242,5.009 5.009,5.009 h 18.312 c 2.766,0 5.009,-2.242 5.009,-5.009 v -19.363 c 0,-1.268 0.605,-2.455 1.624,-3.211 6.511,-4.833 10.734,-12.574 10.734,-21.306 z"
           fill="#524798"
           id="path1702" />
      </g>
      <g
         id="g1708">
        <path
           d="m 378.071,331.721 c -1.637,0.102 -3.235,0.357 -4.782,0.749 11.513,2.893 20.039,13.31 20.039,25.721 0,8.732 -4.223,16.473 -10.735,21.305 -1.018,0.756 -1.624,1.943 -1.624,3.211 v 19.363 c 0,2.766 -2.242,5.009 -5.009,5.009 h 12.96 c 2.766,0 5.009,-2.242 5.009,-5.009 v -19.363 c 0,-1.268 0.605,-2.455 1.624,-3.211 6.512,-4.832 10.735,-12.573 10.735,-21.305 -0.001,-15.208 -12.802,-27.427 -28.217,-26.47 z"
           fill="#453d81"
           id="path1706" />
      </g>
      <g
         id="g1724">
        <path
           d="M 494.47,55.772 H 17.53 C 7.864,55.772 0,63.636 0,73.302 V 396.98 c 0,9.666 7.864,17.53 17.53,17.53 h 75.473 c 4.149,0 7.513,-3.363 7.513,-7.513 0,-4.15 -3.364,-7.513 -7.513,-7.513 H 17.53 c -1.381,0 -2.504,-1.123 -2.504,-2.504 V 169.967 H 276.41 c 4.15,0 7.513,-3.363 7.513,-7.513 0,-4.15 -3.363,-7.513 -7.513,-7.513 H 15.026 v -81.64 c 0,-1.381 1.124,-2.504 2.504,-2.504 h 476.94 c 1.381,0 2.504,1.123 2.504,2.504 v 81.64 H 314.381 c -4.15,0 -7.513,3.363 -7.513,7.513 0,4.15 3.363,7.513 7.513,7.513 H 496.974 V 396.98 c 0,1.381 -1.123,2.504 -2.504,2.504 h -17.46 v -87.917 c 0,-11.831 -9.166,-21.556 -20.768,-22.462 v -29.901 c 0,-35.31 -28.083,-64.038 -62.601,-64.038 h -32.738 c -32.537,0 -59.956,25.979 -62.421,59.145 -0.237,3.199 0.877,6.38 3.057,8.728 2.171,2.337 5.245,3.678 8.434,3.678 h 22.142 c 5.784,0 10.696,-4.342 11.424,-10.099 1.182,-9.335 8.647,-16.375 17.364,-16.375 h 32.738 c 9.663,0 17.524,8.506 17.524,18.961 v 29.824 H 305.858 c -12.427,0 -22.539,10.111 -22.539,22.539 v 87.917 H 130.442 c -4.149,0 -7.513,3.363 -7.513,7.513 0,4.15 3.364,7.513 7.513,7.513 h 152.877 v 19.179 c 0,12.427 10.111,22.539 22.539,22.539 h 148.614 c 12.427,0 22.539,-10.111 22.539,-22.539 V 414.51 h 17.46 c 9.666,0 17.53,-7.864 17.53,-17.53 V 73.302 C 512,63.636 504.136,55.772 494.47,55.772 Z M 393.641,225.218 h -32.738 c -15.271,0 -28.433,11.183 -31.75,26.474 h -15.268 c 3.544,-23.553 23.529,-41.5 47.018,-41.5 h 32.738 c 26.233,0 47.575,21.987 47.575,49.012 v 29.824 H 426.19 v -29.824 c 10e-4,-18.739 -14.601,-33.986 -32.549,-33.986 z m 68.344,208.471 c 0,4.143 -3.37,7.513 -7.513,7.513 H 305.858 c -4.143,0 -7.513,-3.37 -7.513,-7.513 V 311.568 c 0,-4.143 3.37,-7.513 7.513,-7.513 h 148.614 c 4.143,0 7.513,3.37 7.513,7.513 z"
           id="path1710" />
        <circle
           cx="55.532001"
           cy="112.588"
           r="14.65"
           id="circle1712" />
        <circle
           cx="100.084"
           cy="112.588"
           r="14.65"
           id="circle1714" />
        <circle
           cx="144.636"
           cy="112.588"
           r="14.65"
           id="circle1716" />
        <path
           d="m 138.748,302.959 c 3.53,2.055 8.176,0.877 10.263,-2.75 2.075,-3.593 0.844,-8.188 -2.75,-10.263 l -30.779,-17.771 30.779,-17.771 c 3.594,-2.075 4.825,-6.67 2.75,-10.263 -2.075,-3.594 -6.67,-4.823 -10.263,-2.75 l -30.779,17.77 V 223.62 c 0,-4.15 -3.364,-7.513 -7.513,-7.513 -4.149,0 -7.513,3.363 -7.513,7.513 v 35.541 l -30.779,-17.77 c -3.594,-2.074 -8.189,-0.845 -10.263,2.75 -2.075,3.593 -0.844,8.188 2.75,10.263 l 30.779,17.771 -30.779,17.771 c -3.594,2.075 -4.825,6.67 -2.75,10.263 2.087,3.627 6.733,4.805 10.263,2.75 l 30.779,-17.77 v 35.541 c 0,4.15 3.364,7.513 7.513,7.513 4.149,0 7.513,-3.363 7.513,-7.513 v -35.541 z"
           id="path1718" />
        <path
           d="m 170.881,300.209 c 2.087,3.627 6.733,4.805 10.263,2.75 l 30.78,-17.771 v 35.541 c 0,4.15 3.364,7.513 7.513,7.513 4.149,0 7.513,-3.363 7.513,-7.513 v -35.541 l 30.779,17.77 c 3.53,2.055 8.176,0.877 10.263,-2.75 2.075,-3.593 0.843,-8.188 -2.75,-10.263 l -30.779,-17.771 30.779,-17.771 c 3.593,-2.075 4.825,-6.67 2.75,-10.263 -2.076,-3.594 -6.671,-4.823 -10.263,-2.75 l -30.779,17.77 v -35.541 c 0,-4.15 -3.364,-7.513 -7.513,-7.513 -4.149,0 -7.513,3.363 -7.513,7.513 v 35.541 l -30.78,-17.771 c -3.594,-2.074 -8.188,-0.845 -10.263,2.75 -2.075,3.593 -0.844,8.188 2.75,10.263 l 30.779,17.771 -30.779,17.771 c -3.594,2.078 -4.825,6.672 -2.75,10.265 z"
           id="path1720" />
        <path
           d="m 403.07,333.386 c -6.916,-6.499 -15.965,-9.758 -25.464,-9.163 -17.08,1.06 -30.755,14.742 -31.809,31.823 -0.678,10.964 3.894,21.444 12.292,28.379 v 17.646 c 0,6.904 5.617,12.521 12.521,12.521 h 18.312 c 6.904,0 12.521,-5.617 12.521,-12.521 v -17.648 c 7.769,-6.435 12.358,-16.111 12.358,-26.231 -10e-4,-9.356 -3.912,-18.397 -10.731,-24.806 z m -11.99,40.075 c -2.921,2.164 -4.664,5.621 -4.664,9.247 v 16.859 H 373.113 V 382.71 c 0,-3.618 -1.746,-7.079 -4.672,-9.256 -5.189,-3.856 -8.048,-10.017 -7.649,-16.481 0.579,-9.372 8.374,-17.171 17.744,-17.753 5.324,-0.328 10.381,1.486 14.243,5.116 3.866,3.633 5.995,8.554 5.995,13.856 0,6.074 -2.806,11.641 -7.694,15.269 z"
           id="path1722" />
      </g>
    </g>
    <g
       transform="matrix(0.12513852,0,0,0.12513852,0.6877984,67.77245)"
       id="g1867">
      <g
         id="g1851">
        <g
           id="XMLID_32_">
          <g
             id="g1823">
            <circle
               cx="255.07001"
               cy="255.07001"
               fill="#fef0ae"
               r="247.57001"
               id="circle1821" />
          </g>
        </g>
        <path
           d="M 155.87,255.07 C 155.87,144.186 228.784,50.332 329.269,18.811 305.848,11.464 280.916,7.5 255.07,7.5 118.34,7.5 7.5,118.34 7.5,255.07 c 0,136.73 110.84,247.57 247.57,247.57 25.846,0 50.785,-3.966 74.207,-11.314 C 228.792,459.806 155.87,365.955 155.87,255.07 Z"
           fill="#fee97d"
           id="path1826" />
        <g
           id="XMLID_222_">
          <g
             id="g1848">
            <path
               d="m 502.59,259.21 h 0.01 c -0.58,35.83 -8.78,69.81 -23.04,100.39 l -0.02,-0.01 c -19.11,-7.74 -32.59,-26.46 -32.59,-48.35 0,-28.8 23.35,-52.15 52.15,-52.15 1.17,0 2.33,0.05 3.49,0.12 z"
               fill="#fee97d"
               id="path1828" />
            <path
               d="m 255.07,463.83 c 21.57,0 39.7,14.77 44.8,34.76 -14.53,2.66 -29.5,4.05 -44.8,4.05 -15.3,0 -30.27,-1.39 -44.8,-4.05 5.1,-19.99 23.23,-34.76 44.8,-34.76 z"
               fill="#fedf30"
               id="path1830" />
            <g
               fill="#fee97d"
               id="g1838">
              <path
                 d="m 314.82,353.39 c 16.67,0 30.19,13.52 30.19,30.19 0,16.68 -13.52,30.19 -30.19,30.19 -16.68,0 -30.2,-13.51 -30.2,-30.19 0,-16.67 13.52,-30.19 30.2,-30.19 z"
                 id="path1832" />
              <circle
                 cx="369.56"
                 cy="304.23001"
                 r="21.35"
                 id="circle1834" />
              <circle
                 cx="323.57999"
                 cy="189.96001"
                 r="57.450001"
                 id="circle1836" />
            </g>
            <circle
               cx="155.87"
               cy="303.76999"
               fill="#fee45a"
               r="33.07"
               id="circle1840" />
            <path
               d="m 155.87,336.84 c 4.585,0 8.953,-0.935 12.923,-2.623 -6.789,-20.134 -11.059,-41.427 -12.435,-63.505 -0.163,-0.002 -0.324,-0.012 -0.488,-0.012 -18.27,0 -33.07,14.81 -33.07,33.07 0,18.26 14.8,33.07 33.07,33.07 z"
               fill="#fedf30"
               id="path1842" />
            <path
               d="m 94.49,199.07 c 11.15,0 20.19,9.04 20.19,20.18 0,11.15 -9.04,20.19 -20.19,20.19 -11.15,0 -20.18,-9.04 -20.18,-20.19 0,-11.14 9.03,-20.18 20.18,-20.18 z"
               fill="#fedf30"
               id="path1844" />
            <path
               d="m 180.82,18.84 c 2.24,8.27 3.45,16.97 3.45,25.95 0,54.63 -44.29,98.92 -98.93,98.92 -16.4,0 -31.87,-4 -45.49,-11.06 H 39.84 C 70.49,78.87 120.72,37.7 180.82,18.83 Z"
               fill="#fedf30"
               id="path1846" />
          </g>
        </g>
      </g>
      <g
         id="g1865">
        <path
           d="m 436.052,75.342 c -2.919,-2.938 -7.667,-2.955 -10.607,-0.037 -2.939,2.919 -2.955,7.668 -0.037,10.607 44.182,44.488 68.843,103.263 69.691,165.823 -31.034,2.068 -55.654,27.959 -55.654,59.507 0,21.751 11.616,41.339 30.155,51.844 -11.377,22.54 -26.403,43.367 -44.775,61.739 -33.353,33.353 -74.797,55.667 -119.901,65.144 -8.085,-20.116 -27.678,-33.643 -49.855,-33.643 -22.175,0 -41.76,13.53 -49.844,33.645 C 160.117,480.494 118.67,458.18 85.314,424.825 39.972,379.482 15,319.195 15,255.07 c 0,-39.937 9.69,-78.383 27.951,-112.659 13.303,5.769 27.816,8.802 42.394,8.802 12.585,0 24.907,-2.177 36.623,-6.471 3.889,-1.425 5.886,-5.734 4.461,-9.623 -1.425,-3.889 -5.734,-5.887 -9.623,-4.461 -10.057,3.686 -20.642,5.555 -31.46,5.555 -12.152,0 -23.845,-2.315 -34.867,-6.884 9.745,-15.79 21.387,-30.564 34.837,-44.014 25.829,-25.829 56.513,-45.037 89.987,-56.795 0.967,5.355 1.463,10.801 1.463,16.272 0,27.729 -12.385,53.651 -33.979,71.116 -3.221,2.605 -3.72,7.328 -1.115,10.548 1.482,1.833 3.65,2.784 5.836,2.784 1.657,0 3.324,-0.546 4.712,-1.669 25.132,-20.328 39.546,-50.5 39.546,-82.779 0,-7.009 -0.69,-13.987 -2.05,-20.827 C 210.717,18.061 232.657,15 255.07,15 c 53.826,0 104.7,17.416 147.122,50.364 3.272,2.541 7.984,1.949 10.524,-1.323 2.541,-3.271 1.949,-7.983 -1.323,-10.524 C 366.315,18.506 312.259,0 255.07,0 186.938,0 122.885,26.532 74.708,74.708 26.532,122.885 0,186.938 0,255.07 c 0,68.132 26.532,132.186 74.708,180.362 48.176,48.177 112.23,74.708 180.362,74.708 68.132,0 132.186,-26.532 180.362,-74.708 C 483.609,387.256 510.14,323.202 510.14,255.07 510.141,187.279 483.829,123.451 436.052,75.342 Z M 220.444,492.668 c 6.458,-12.878 19.732,-21.341 34.626,-21.341 14.895,0 28.173,8.461 34.632,21.34 -11.372,1.633 -22.937,2.474 -34.632,2.474 -11.693,0 -23.256,-0.84 -34.626,-2.473 z M 454.446,311.242 c 0,-23.192 17.773,-42.304 40.412,-44.449 -1.376,28.818 -7.833,56.702 -18.915,82.633 -13.251,-8.002 -21.497,-22.327 -21.497,-38.184 z"
           id="path1853" />
        <path
           d="m 323.68,239.906 c -0.106,-0.003 -0.213,-0.007 -0.32,-0.006 -4.119,0 -7.472,3.326 -7.499,7.451 -0.026,4.108 3.255,7.466 7.35,7.547 0.125,0.004 0.249,0.007 0.375,0.007 35.813,0 64.95,-29.136 64.95,-64.95 0,-35.814 -29.136,-64.95 -64.95,-64.95 -35.814,0 -64.95,29.136 -64.95,64.95 0,22.245 11.207,42.7 29.979,54.72 3.485,2.232 8.125,1.217 10.36,-2.272 2.233,-3.489 1.216,-8.127 -2.272,-10.361 -14.444,-9.248 -23.067,-24.981 -23.067,-42.087 0,-27.542 22.407,-49.95 49.95,-49.95 27.543,0 49.95,22.407 49.95,49.95 -0.002,27.511 -22.358,49.899 -49.856,49.951 z"
           id="path1855" />
        <path
           d="m 155.868,344.338 c 22.37,0 40.568,-18.199 40.568,-40.568 0,-22.369 -18.199,-40.568 -40.568,-40.568 -22.369,0 -40.568,18.199 -40.568,40.568 0,22.369 18.198,40.568 40.568,40.568 z m 0,-66.136 c 14.099,0 25.568,11.47 25.568,25.568 0,14.098 -11.47,25.568 -25.568,25.568 -14.098,0 -25.568,-11.47 -25.568,-25.568 0,-14.098 11.469,-25.568 25.568,-25.568 z"
           id="path1857" />
        <path
           d="m 94.491,191.57 c -15.265,0 -27.685,12.419 -27.685,27.685 0,15.266 12.419,27.685 27.685,27.685 15.266,0 27.685,-12.419 27.685,-27.685 0,-15.266 -12.42,-27.685 -27.685,-27.685 z m 0,40.369 c -6.994,0 -12.685,-5.69 -12.685,-12.685 0,-6.995 5.69,-12.685 12.685,-12.685 6.995,0 12.685,5.69 12.685,12.685 0,6.995 -5.691,12.685 -12.685,12.685 z"
           id="path1859" />
        <path
           d="m 314.815,421.274 c 20.783,0 37.691,-16.908 37.691,-37.691 0,-20.783 -16.908,-37.691 -37.691,-37.691 -20.783,0 -37.691,16.908 -37.691,37.691 0,20.783 16.908,37.691 37.691,37.691 z m 0,-60.382 c 12.512,0 22.691,10.179 22.691,22.691 0,12.512 -10.179,22.691 -22.691,22.691 -12.512,0 -22.691,-10.179 -22.691,-22.691 0,-12.512 10.179,-22.691 22.691,-22.691 z"
           id="path1861" />
        <path
           d="m 398.412,304.231 c 0,-15.907 -12.941,-28.849 -28.848,-28.849 -15.907,0 -28.849,12.941 -28.849,28.849 0,15.908 12.941,28.849 28.849,28.849 15.907,0 28.848,-12.942 28.848,-28.849 z m -42.697,0 c 0,-7.636 6.212,-13.849 13.849,-13.849 7.636,0 13.848,6.212 13.848,13.849 0,7.637 -6.212,13.849 -13.848,13.849 -7.636,0 -13.849,-6.213 -13.849,-13.849 z"
           id="path1863" />
      </g>
    </g>
    <g
       transform="matrix(0.11685424,0,0,0.11685424,75.965375,3.2451052)"
       id="g1962">
      <g
         id="g1954">
        <path
           d="M 202.558,354.617 157.383,309.442 407.013,59.812 C 423.327,43.498 442.786,30.667 464.207,22.098 L 500.111,7.737 c 2.608,-1.043 5.195,1.545 4.152,4.152 l -14.361,35.903 c -8.569,21.422 -21.399,40.88 -37.714,57.194 z"
           fill="#faf2f3"
           id="path1936" />
        <path
           d="M 452.187,104.983 202.557,354.613 181.343,333.4 430.973,83.77 C 447.286,67.457 460.12,48.005 468.69,26.579 l 2.991,-7.474 28.426,-11.37 c 2.609,-1.039 5.197,1.549 4.158,4.158 l -14.361,35.9 c -8.571,21.425 -21.405,40.877 -37.717,57.19 z"
           fill="#f0e5e0"
           id="path1938" />
        <path
           d="m 73.38,314.156 h 69.211 V 493.874 H 73.38 Z"
           fill="#c3aff0"
           transform="matrix(0.707,0.707,-0.707,0.707,317.31,41.976)"
           id="path1940" />
        <path
           d="m 17.636,494.364 c -13.514,-13.514 -13.514,-35.425 0,-48.94 l 9.411,-9.411 48.94,48.94 -9.411,9.411 c -13.515,13.515 -35.426,13.515 -48.94,0 z"
           fill="#bde4ff"
           id="path1942" />
        <path
           d="m 75.992,484.954 -9.412,9.412 c -13.513,13.513 -35.433,13.513 -48.946,0 -3.797,-3.797 -6.527,-8.266 -8.188,-13.025 12.148,4.257 26.205,1.527 35.921,-8.188 l 9.412,-9.412 z"
           fill="#99dbff"
           id="path1944" />
        <path
           d="m 173.83,285.26 h 41.94 v 63.88 h -41.94 z"
           fill="#e2d6d1"
           transform="matrix(0.707,-0.707,0.707,0.707,-167.239,230.65)"
           id="path1946" />
        <path
           d="m 185.808,314.179 h 41.94 v 30 h -41.94 z"
           fill="#cfc6c3"
           transform="matrix(0.707,-0.707,0.707,0.707,-172.201,242.628)"
           id="path1948" />
        <path
           d="m 211.511,394.603 -94.115,-94.115 c -4.158,-4.158 -4.158,-10.9 0,-15.058 l 7.529,-7.529 c 4.158,-4.158 10.9,-4.158 15.058,0 l 94.115,94.115 c 4.158,4.158 4.158,10.9 0,15.058 l -7.529,7.529 c -4.157,4.158 -10.899,4.158 -15.058,0 z"
           fill="#ffe07d"
           id="path1950" />
        <path
           d="m 234.101,387.076 -7.531,7.531 c -4.158,4.158 -10.896,4.151 -15.054,-0.007 l -21.213,-21.213 c 4.158,4.158 10.896,4.165 15.054,0.007 l 7.531,-7.531 c 4.158,-4.158 4.158,-10.904 0,-15.061 l 21.213,21.213 c 4.157,4.158 4.157,10.904 0,15.061 z"
           fill="#ffd064"
           id="path1952" />
      </g>
      <g
         id="g1960">
        <path
           d="m 241.231,305.372 -8.785,8.785 L 197.843,279.554 384.76,92.637 c 2.932,-2.932 2.932,-7.685 0,-10.617 -2.933,-2.932 -7.685,-2.932 -10.618,0 L 164.617,291.546 145.432,272.361 c -7.083,-7.082 -18.608,-7.081 -25.69,0 l -7.537,7.537 c -7.083,7.083 -7.083,18.607 0,25.69 L 129.506,322.889 12.345,440.05 C 4.384,448.011 0,458.595 0,469.853 c 0,11.258 4.384,21.842 12.345,29.802 7.96,7.96 18.544,12.345 29.802,12.345 11.258,0 21.842,-4.384 29.802,-12.345 l 117.161,-117.161 17.301,17.301 c 3.541,3.542 8.193,5.312 12.845,5.312 4.652,0 9.304,-1.771 12.845,-5.312 l 7.537,-7.537 c 7.083,-7.082 7.083,-18.607 0,-25.69 l -19.185,-19.185 31.394,-31.394 c 2.932,-2.932 2.932,-7.685 0,-10.617 -2.931,-2.932 -7.684,-2.932 -10.616,0 z m -97.34,101.108 -38.371,-38.371 11.993,-11.993 38.371,38.371 z m -22.61,22.609 -38.371,-38.371 11.993,-11.993 38.371,38.371 z m -22.609,22.61 -38.371,-38.371 11.993,-11.993 38.371,38.371 z M 49.684,423.945 88.055,462.316 76.062,474.309 37.691,435.938 Z m -26.722,65.093 c -10.579,-10.579 -10.579,-27.792 0,-38.371 l 4.112,-4.112 38.371,38.371 -4.112,4.112 c -10.579,10.579 -27.793,10.579 -38.371,0 z M 166.501,383.87 128.13,345.499 l 11.993,-11.993 38.371,38.371 z m 62.521,-2.228 -7.537,7.537 c -1.229,1.229 -3.228,1.228 -4.456,0 l -94.208,-94.208 c -1.228,-1.229 -1.228,-3.227 0,-4.456 l 7.537,-7.537 c 1.486,-1.228 2.971,-1.228 4.457,0 l 94.207,94.207 c 1.228,1.229 1.228,3.228 0,4.457 z m -53.788,-79.479 11.993,-11.993 34.603,34.603 -11.993,11.993 z"
           id="path1956" />
        <path
           d="m 497.817,0.268 -35.94,14.376 C 439.362,23.65 419.252,36.91 402.105,54.057 l -3.191,3.191 c -2.932,2.932 -2.932,7.685 0,10.617 2.933,2.932 7.685,2.932 10.618,0 l 3.191,-3.191 c 15.7,-15.701 34.114,-27.843 54.73,-36.089 l 26.602,-10.64 -10.641,26.602 c -8.245,20.615 -20.387,39.028 -36.088,54.73 L 266.004,280.598 c -2.932,2.932 -2.932,7.685 0,10.617 3.539,2.932 7.079,2.932 10.618,0 L 457.944,109.893 C 475.091,92.745 488.351,72.635 497.356,50.122 L 511.732,14.183 C 513.21,3.428 508.572,-1.21 497.817,0.268 Z"
           id="path1958" />
      </g>
    </g>
    <g
       id="g2011"
       transform="matrix(0.11685424,0,0,0.11685424,75.965375,71.933374)">
      <g
         id="g2003">
        <path
           id="path1985"
           fill="#faf2f3"
           d="M 202.558,354.617 157.383,309.442 407.013,59.812 C 423.327,43.498 442.786,30.667 464.207,22.098 L 500.111,7.737 c 2.608,-1.043 5.195,1.545 4.152,4.152 l -14.361,35.903 c -8.569,21.422 -21.399,40.88 -37.714,57.194 z" />
        <path
           id="path1987"
           fill="#f0e5e0"
           d="M 452.187,104.983 202.557,354.613 181.343,333.4 430.973,83.77 C 447.286,67.457 460.12,48.005 468.69,26.579 l 2.991,-7.474 28.426,-11.37 c 2.609,-1.039 5.197,1.549 4.158,4.158 l -14.361,35.9 c -8.571,21.425 -21.405,40.877 -37.717,57.19 z" />
        <path
           id="path1989"
           transform="matrix(0.707,0.707,-0.707,0.707,317.31,41.976)"
           fill="#c3aff0"
           d="m 73.38,314.156 h 69.211 V 493.874 H 73.38 Z" />
        <path
           id="path1991"
           fill="#bde4ff"
           d="m 17.636,494.364 c -13.514,-13.514 -13.514,-35.425 0,-48.94 l 9.411,-9.411 48.94,48.94 -9.411,9.411 c -13.515,13.515 -35.426,13.515 -48.94,0 z" />
        <path
           id="path1993"
           fill="#99dbff"
           d="m 75.992,484.954 -9.412,9.412 c -13.513,13.513 -35.433,13.513 -48.946,0 -3.797,-3.797 -6.527,-8.266 -8.188,-13.025 12.148,4.257 26.205,1.527 35.921,-8.188 l 9.412,-9.412 z" />
        <path
           id="path1995"
           transform="matrix(0.707,-0.707,0.707,0.707,-167.239,230.65)"
           fill="#e2d6d1"
           d="m 173.83,285.26 h 41.94 v 63.88 h -41.94 z" />
        <path
           id="path1997"
           transform="matrix(0.707,-0.707,0.707,0.707,-172.201,242.628)"
           fill="#cfc6c3"
           d="m 185.808,314.179 h 41.94 v 30 h -41.94 z" />
        <path
           id="path1999"
           fill="#ffe07d"
           d="m 211.511,394.603 -94.115,-94.115 c -4.158,-4.158 -4.158,-10.9 0,-15.058 l 7.529,-7.529 c 4.158,-4.158 10.9,-4.158 15.058,0 l 94.115,94.115 c 4.158,4.158 4.158,10.9 0,15.058 l -7.529,7.529 c -4.157,4.158 -10.899,4.158 -15.058,0 z" />
        <path
           id="path2001"
           fill="#ffd064"
           d="m 234.101,387.076 -7.531,7.531 c -4.158,4.158 -10.896,4.151 -15.054,-0.007 l -21.213,-21.213 c 4.158,4.158 10.896,4.165 15.054,0.007 l 7.531,-7.531 c 4.158,-4.158 4.158,-10.904 0,-15.061 l 21.213,21.213 c 4.157,4.158 4.157,10.904 0,15.061 z" />
      </g>
      <g
         id="g2009">
        <path
           id="path2005"
           d="m 241.231,305.372 -8.785,8.785 L 197.843,279.554 384.76,92.637 c 2.932,-2.932 2.932,-7.685 0,-10.617 -2.933,-2.932 -7.685,-2.932 -10.618,0 L 164.617,291.546 145.432,272.361 c -7.083,-7.082 -18.608,-7.081 -25.69,0 l -7.537,7.537 c -7.083,7.083 -7.083,18.607 0,25.69 L 129.506,322.889 12.345,440.05 C 4.384,448.011 0,458.595 0,469.853 c 0,11.258 4.384,21.842 12.345,29.802 7.96,7.96 18.544,12.345 29.802,12.345 11.258,0 21.842,-4.384 29.802,-12.345 l 117.161,-117.161 17.301,17.301 c 3.541,3.542 8.193,5.312 12.845,5.312 4.652,0 9.304,-1.771 12.845,-5.312 l 7.537,-7.537 c 7.083,-7.082 7.083,-18.607 0,-25.69 l -19.185,-19.185 31.394,-31.394 c 2.932,-2.932 2.932,-7.685 0,-10.617 -2.931,-2.932 -7.684,-2.932 -10.616,0 z m -97.34,101.108 -38.371,-38.371 11.993,-11.993 38.371,38.371 z m -22.61,22.609 -38.371,-38.371 11.993,-11.993 38.371,38.371 z m -22.609,22.61 -38.371,-38.371 11.993,-11.993 38.371,38.371 z M 49.684,423.945 88.055,462.316 76.062,474.309 37.691,435.938 Z m -26.722,65.093 c -10.579,-10.579 -10.579,-27.792 0,-38.371 l 4.112,-4.112 38.371,38.371 -4.112,4.112 c -10.579,10.579 -27.793,10.579 -38.371,0 z M 166.501,383.87 128.13,345.499 l 11.993,-11.993 38.371,38.371 z m 62.521,-2.228 -7.537,7.537 c -1.229,1.229 -3.228,1.228 -4.456,0 l -94.208,-94.208 c -1.228,-1.229 -1.228,-3.227 0,-4.456 l 7.537,-7.537 c 1.486,-1.228 2.971,-1.228 4.457,0 l 94.207,94.207 c 1.228,1.229 1.228,3.228 0,4.457 z m -53.788,-79.479 11.993,-11.993 34.603,34.603 -11.993,11.993 z" />
        <path
           id="path2007"
           d="m 497.817,0.268 -35.94,14.376 C 439.362,23.65 419.252,36.91 402.105,54.057 l -3.191,3.191 c -2.932,2.932 -2.932,7.685 0,10.617 2.933,2.932 7.685,2.932 10.618,0 l 3.191,-3.191 c 15.7,-15.701 34.114,-27.843 54.73,-36.089 l 26.602,-10.64 -10.641,26.602 c -8.245,20.615 -20.387,39.028 -36.088,54.73 L 266.004,280.598 c -2.932,2.932 -2.932,7.685 0,10.617 3.539,2.932 7.079,2.932 10.618,0 L 457.944,109.893 C 475.091,92.745 488.351,72.635 497.356,50.122 L 511.732,14.183 C 513.21,3.428 508.572,-1.21 497.817,0.268 Z" />
      </g>
    </g>
  </g>
</svg>
