<?xml version="1.0" encoding="UTF-8" standalone="no"?>
<svg
   xmlns:dc="http://purl.org/dc/elements/1.1/"
   xmlns:cc="http://creativecommons.org/ns#"
   xmlns:rdf="http://www.w3.org/1999/02/22-rdf-syntax-ns#"
   xmlns:svg="http://www.w3.org/2000/svg"
   xmlns="http://www.w3.org/2000/svg"
   xmlns:sodipodi="http://sodipodi.sourceforge.net/DTD/sodipodi-0.dtd"
   xmlns:inkscape="http://www.inkscape.org/namespaces/inkscape"
   sodipodi:docname="05.svg"
   inkscape:version="1.0 (4035a4fb49, 2020-05-01)"
   id="svg4686"
   version="1.1"
   viewBox="0 0 135.46666 135.46667"
   height="512"
   width="512">
  <defs
     id="defs4680" />
  <sodipodi:namedview
     inkscape:window-maximized="1"
     inkscape:window-y="-9"
     inkscape:window-x="-9"
     inkscape:window-height="1001"
     inkscape:window-width="1920"
     units="px"
     showgrid="false"
     inkscape:document-rotation="0"
     inkscape:current-layer="layer1"
     inkscape:document-units="mm"
     inkscape:cy="298.03377"
     inkscape:cx="400"
     inkscape:zoom="0.98994949"
     inkscape:pageshadow="2"
     inkscape:pageopacity="0.0"
     borderopacity="1.0"
     bordercolor="#666666"
     pagecolor="#ffffff"
     id="base" />
  <metadata
     id="metadata4683">
    <rdf:RDF>
      <cc:Work
         rdf:about="">
        <dc:format>image/svg+xml</dc:format>
        <dc:type
           rdf:resource="http://purl.org/dc/dcmitype/StillImage" />
        <dc:title></dc:title>
      </cc:Work>
    </rdf:RDF>
  </metadata>
  <g
     id="layer1"
     inkscape:groupmode="layer"
     inkscape:label="Layer 1">
    <g
       transform="matrix(0.13947753,0,0,0.13947753,31.777716,-15.748857)"
       id="g5743">
      <path
         style="fill:#da4453"
         d="m 443.432,133.799 63.918,239.692 c -23.572,0 -22.768,-20.614 -39.31,-15.02 l -14.388,-63.036 -12.616,-54.891 -10.791,-47.221 -8.942,-39.309 -7.193,-31.397 c 12.304,-4.236 11.742,11.182 29.322,11.182 z"
         id="path5448" />
      <g
         style="opacity:0.3"
         id="g5454">
	<path
   d="m 461.643,295.436 -12.617,-54.891 -10.791,-47.221 -8.941,-39.309 -7.107,-31.023 c -2.131,-1.17 -4.58,-1.584 -8.076,-0.375 l 7.193,31.397 8.942,39.309 10.791,47.221 12.616,54.891 14.388,63.036 c 3.145,-1.062 5.665,-1.171 7.834,-0.663 z"
   id="path5450" />

	<path
   d="m 477.068,358.199 c 8.371,2.996 12.047,15.292 30.281,15.292 l -0.273,-1.021 c -14.98,-3.964 -16.697,-18.017 -30.008,-14.271 z"
   id="path5452" />

</g>
      <path
         style="fill:#ed5565"
         d="M 365.531,253.646 349.552,133.799 c 17.579,0 46.9,-5.274 64.558,-11.181 l 7.193,31.397 8.942,39.309 10.791,47.221 12.616,54.891 14.388,63.036 c -23.649,7.989 -62.958,15.02 -86.529,15.02 z"
         id="path5456" />
      <g
         style="opacity:0.3"
         id="g5460">
	<path
   style="fill:#ffffff"
   d="m 453.652,295.436 -12.616,-54.891 -10.791,-47.221 -8.942,-39.309 -7.193,-31.397 c -2.302,0.772 -4.822,1.529 -7.475,2.263 l 6.679,29.134 8.941,39.309 10.791,47.221 12.616,54.891 14.389,63.036 c -21.176,7.155 -54.828,13.498 -78.571,14.755 l 0.031,0.265 c 23.571,0 62.88,-7.03 86.529,-15.02 z"
   id="path5458" />

</g>
      <path
         style="fill:#da4453"
         d="m 349.552,133.799 15.979,119.847 15.979,119.846 c -23.571,0 -22.768,-20.614 -39.31,-15.02 l -11.024,-117.927 -4.315,-47.143 -3.675,-39.31 -2.957,-31.475 c 12.305,-4.236 11.744,11.182 29.323,11.182 z"
         id="path5462" />
      <g
         style="opacity:0.3"
         id="g5468">
	<path
   d="m 339.166,240.545 -4.314,-47.143 -3.675,-39.31 -2.926,-31.132 c -2.122,-1.146 -4.557,-1.537 -8.021,-0.343 l 2.957,31.475 3.675,39.31 4.315,47.143 11.024,117.927 c 3.191,-1.077 5.728,-1.171 7.928,-0.632 z"
   id="path5464" />

	<path
   d="m 351.229,358.199 c 8.373,2.996 12.048,15.292 30.282,15.292 l -0.133,-0.982 c -15.121,-3.901 -16.799,-18.071 -30.149,-14.31 z"
   id="path5466" />

</g>
      <path
         style="fill:#ed5565"
         d="m 331.177,240.545 11.024,117.927 c -23.571,7.989 -62.958,15.02 -86.529,15.02 v -63.918 -55.928 -47.939 -39.949 -31.959 c 17.579,0 46.979,-5.274 64.558,-11.181 l 2.957,31.475 3.675,39.31 z"
         id="path5470" />
      <g
         style="opacity:0.3"
         id="g5474">
	<path
   style="fill:#ffffff"
   d="m 331.177,240.545 -4.315,-47.143 -3.675,-39.31 -2.957,-31.475 c -2.388,0.796 -5.009,1.584 -7.771,2.349 l 2.738,29.126 3.675,39.31 4.314,47.143 11.026,117.927 c -21.099,7.155 -54.781,13.49 -78.54,14.755 v 0.265 c 23.571,0 62.958,-7.03 86.529,-15.02 z"
   id="path5472" />

</g>
      <path
         style="fill:#da4453"
         d="m 255.672,309.573 v 63.918 c -23.571,0 -22.771,-20.614 -39.309,-15.02 l 2.637,-62.88 2.317,-55.047 1.998,-47.143 1.677,-39.31 1.358,-31.475 c 12.382,-4.237 11.742,11.181 29.321,11.181 v 31.959 39.949 47.939 z"
         id="path5476" />
      <g
         style="opacity:0.3"
         id="g5482">
	<path
   d="m 226.99,295.592 2.317,-55.047 1.997,-47.143 1.678,-39.31 1.346,-31.171 c -2.103,-1.115 -4.529,-1.482 -7.978,-0.304 l -1.358,31.475 -1.677,39.31 -1.998,47.143 -2.317,55.047 -2.637,62.88 c 3.233,-1.093 5.793,-1.163 8.013,-0.601 z"
   id="path5478" />

	<path
   d="m 225.391,358.199 c 8.376,2.996 12.047,15.292 30.281,15.292 v -0.944 c -15.25,-3.854 -16.889,-18.117 -30.281,-14.348 z"
   id="path5480" />

</g>
      <path
         style="fill:#ed5565"
         d="m 224.992,154.093 -1.677,39.31 -1.998,47.143 -2.317,55.047 -2.637,62.88 c -23.649,7.989 -62.959,15.02 -86.53,15.02 l 8.548,-63.918 7.432,-55.928 6.391,-47.939 5.356,-39.949 4.232,-31.959 c 17.579,0 46.901,-5.274 64.559,-11.181 z"
         id="path5484" />
      <g
         style="opacity:0.3"
         id="g5488">
	<path
   style="fill:#ffffff"
   d="m 218.255,125.045 -1.252,29.048 -1.678,39.31 -1.997,47.143 -2.317,55.047 -2.638,62.88 c -21.156,7.147 -54.762,13.482 -78.505,14.755 l -0.035,0.265 c 23.571,0 62.881,-7.03 86.53,-15.02 l 2.637,-62.88 2.317,-55.047 1.998,-47.143 1.677,-39.31 1.358,-31.475 c -2.477,0.827 -5.224,1.638 -8.095,2.427 z"
   id="path5486" />

</g>
      <path
         style="fill:#da4453"
         d="m 119.846,193.402 7.03,-39.31 5.595,-31.475 c 12.383,-4.237 11.742,11.181 29.321,11.181 l -4.232,31.959 -5.356,39.949 -6.391,47.939 -7.432,55.928 -8.548,63.918 c -23.571,0 -22.771,-20.614 -39.309,-15.02 l 11.185,-62.88 9.749,-55.047 z"
         id="path5490" />
      <g
         style="opacity:0.3"
         id="g5496">
	<path
   d="m 109.699,295.592 9.749,-55.047 8.388,-47.143 7.03,-39.31 5.543,-31.194 c -2.095,-1.092 -4.514,-1.459 -7.938,-0.281 l -5.595,31.475 -7.03,39.31 -8.388,47.143 -9.749,55.047 -11.184,62.88 c 3.273,-1.108 5.855,-1.163 8.091,-0.577 z"
   id="path5492" />

	<path
   d="m 99.552,358.199 c 8.376,2.996 12.047,15.292 30.281,15.292 l 0.121,-0.905 c -15.367,-3.807 -16.97,-18.164 -30.402,-14.387 z"
   id="path5494" />

</g>
      <path
         style="fill:#ed5565"
         d="m 126.876,154.093 -7.03,39.31 -8.388,47.143 -9.749,55.047 -11.184,62.879 c -23.571,7.989 -62.959,15.02 -86.53,15.02 L 67.914,133.8 c 17.578,0 46.979,-5.274 64.558,-11.181 z"
         id="path5498" />
      <g
         style="opacity:0.3"
         id="g5502">
	<path
   style="fill:#ffffff"
   d="m 124.032,125.138 -5.146,28.955 -7.03,39.31 -8.388,47.143 -9.749,55.047 -11.185,62.879 c -21.074,7.147 -54.715,13.482 -78.47,14.755 l -0.07,0.265 c 23.571,0 62.959,-7.03 86.53,-15.02 l 11.185,-62.88 9.749,-55.047 8.388,-47.143 7.03,-39.31 5.595,-31.475 c -2.568,0.859 -5.439,1.701 -8.439,2.521 z"
   id="path5500" />

</g>
      <path
         style="fill:#ccd1d9"
         d="m 255.672,373.491 c 23.571,0 62.958,-7.03 86.529,-15.02 16.542,-5.595 15.738,15.02 39.31,15.02 23.572,0 62.88,-7.03 86.529,-15.02 16.542,-5.595 15.737,15.02 39.31,15.02 v 15.979 c -23.572,0 -22.768,-20.613 -39.31,-15.02 -23.649,7.99 -62.958,15.02 -86.529,15.02 -23.571,0 -22.768,-20.613 -39.31,-15.02 -23.571,7.99 -62.958,15.02 -86.529,15.02 -23.571,0 -22.771,-20.613 -39.309,-15.02 -23.649,7.99 -62.959,15.02 -86.53,15.02 -23.571,0 -22.771,-20.613 -39.309,-15.02 -23.571,7.99 -62.959,15.02 -86.53,15.02 v -15.979 c 23.571,0 62.959,-7.03 86.53,-15.02 16.537,-5.595 15.737,15.02 39.309,15.02 23.572,0 62.881,-7.03 86.53,-15.02 16.538,-5.594 15.738,15.02 39.309,15.02 z"
         id="path5504" />
      <g
         id="g5608">
	<path
   style="fill:#3a3847"
   d="m 138.623,313.568 c -12.684,-0.086 -18.925,-5.859 -23.481,-10.081 l -0.866,-0.796 c -1.631,-1.49 -1.74,-4.018 -0.25,-5.648 1.494,-1.623 4.022,-1.74 5.642,-0.25 l 0.9,0.835 c 4.386,4.058 8.528,7.888 17.841,7.95 2.2,0.016 4.097,1.811 4.089,4.011 -0.008,2.2 -1.675,3.979 -3.875,3.979 z"
   id="path5506" />

	<path
   style="fill:#3a3847"
   d="m 37.23,312.773 c -2.037,0 -3.776,-1.553 -3.972,-3.62 -0.211,-2.192 1.404,-4.144 3.601,-4.354 20.755,-1.959 46.305,-7.179 63.575,-12.992 2.106,-0.686 4.365,0.422 5.06,2.513 0.706,2.091 -0.417,4.354 -2.509,5.056 -17.797,5.993 -44.072,11.369 -65.377,13.382 -0.125,0.007 -0.253,0.015 -0.378,0.015 z"
   id="path5508" />

	<path
   style="fill:#3a3847"
   d="m 255.672,313.568 c -12.808,0 -19.042,-5.891 -23.595,-10.198 -1.604,-1.514 -1.678,-4.041 -0.16,-5.648 1.514,-1.6 4.038,-1.678 5.646,-0.156 4.17,3.94 8.481,8.013 18.109,8.013 2.208,0 3.995,1.787 3.995,3.995 0,2.208 -1.787,3.994 -3.995,3.994 z"
   id="path5510" />

	<path
   style="fill:#3a3847"
   d="m 154.439,312.687 c -2.036,0 -3.776,-1.553 -3.972,-3.62 -0.211,-2.192 1.4,-4.144 3.597,-4.354 21.173,-2.006 46.753,-7.187 63.657,-12.906 2.103,-0.678 4.357,0.414 5.063,2.505 0.706,2.091 -0.413,4.354 -2.504,5.063 -17.432,5.892 -43.737,11.236 -65.46,13.296 -0.127,0.008 -0.256,0.016 -0.381,0.016 z"
   id="path5512" />

	<path
   style="fill:#3a3847"
   d="m 372.725,313.568 c -11.126,0 -17.399,-4.385 -22.533,-9.129 -1.615,-1.498 -1.717,-4.026 -0.219,-5.648 1.498,-1.623 4.026,-1.717 5.649,-0.219 3.831,3.542 8.31,7.006 17.103,7.006 2.201,0 3.995,1.787 3.995,3.995 0,2.208 -1.794,3.995 -3.995,3.995 z"
   id="path5514" />

	<path
   style="fill:#3a3847"
   d="m 271.651,312.687 c -2.044,0 -3.776,-1.553 -3.979,-3.62 -0.203,-2.192 1.404,-4.144 3.605,-4.354 21.012,-1.99 47.221,-7.296 63.73,-12.906 2.106,-0.678 4.354,0.414 5.063,2.497 0.71,2.091 -0.413,4.362 -2.505,5.071 -17.29,5.876 -43.631,11.221 -65.541,13.296 -0.123,0.008 -0.248,0.016 -0.373,0.016 z"
   id="path5516" />

	<path
   style="fill:#3a3847"
   d="m 388.86,312.687 c -2.044,0 -3.776,-1.553 -3.979,-3.62 -0.202,-2.192 1.404,-4.144 3.605,-4.354 21.113,-2.006 46.596,-7.194 63.41,-12.906 10.081,-3.128 15.191,1.6 19.686,5.798 1.093,1.015 2.232,2.083 3.512,3.098 1.717,1.381 1.997,3.894 0.616,5.618 -1.381,1.716 -3.886,2.005 -5.61,0.624 -1.436,-1.155 -2.73,-2.349 -3.963,-3.496 -4.416,-4.119 -6.414,-5.734 -11.299,-4.197 -17.719,6.016 -43.928,11.36 -65.603,13.42 -0.125,0.007 -0.25,0.015 -0.375,0.015 z"
   id="path5518" />

	<path
   style="fill:#3a3847"
   d="m 145.813,257.641 c -11.984,0 -17.891,-5.462 -22.206,-9.449 -1.618,-1.498 -1.72,-4.026 -0.222,-5.642 1.498,-1.623 4.021,-1.724 5.645,-0.226 3.897,3.605 7.928,7.327 16.783,7.327 2.208,0 3.995,1.787 3.995,3.995 0,2.208 -1.787,3.995 -3.995,3.995 z"
   id="path5520" />

	<path
   style="fill:#3a3847"
   d="m 52.167,256.681 c -2.032,0 -3.769,-1.537 -3.972,-3.605 -0.214,-2.193 1.39,-4.151 3.586,-4.362 19.412,-1.904 42.882,-6.702 58.397,-11.953 2.095,-0.71 4.357,0.413 5.063,2.504 0.706,2.091 -0.413,4.354 -2.504,5.064 -16.034,5.423 -40.219,10.385 -60.177,12.336 -0.131,0.008 -0.264,0.016 -0.393,0.016 z"
   id="path5522" />

	<path
   style="fill:#3a3847"
   d="m 255.672,257.641 c -11.84,0 -17.953,-5.626 -21.238,-8.646 -1.623,-1.49 -1.732,-4.019 -0.238,-5.642 1.494,-1.631 4.034,-1.732 5.646,-0.242 3.745,3.449 7.775,6.539 15.831,6.539 2.208,0 3.995,1.787 3.995,3.995 -0.001,2.209 -1.788,3.996 -3.996,3.996 z"
   id="path5524" />

	<path
   style="fill:#3a3847"
   d="m 161.866,256.681 c -2.032,0 -3.772,-1.545 -3.972,-3.605 -0.214,-2.201 1.394,-4.151 3.59,-4.362 19.51,-1.904 43.042,-6.71 58.554,-11.953 2.106,-0.71 4.361,0.413 5.063,2.504 0.706,2.091 -0.413,4.354 -2.504,5.064 -16.03,5.423 -40.281,10.377 -60.341,12.336 -0.128,0.008 -0.261,0.016 -0.39,0.016 z"
   id="path5526" />

	<path
   style="fill:#3a3847"
   d="m 365.531,257.641 c -10.214,0 -16.042,-3.988 -20.404,-7.889 -1.646,-1.467 -1.786,-3.995 -0.312,-5.642 1.475,-1.639 4.011,-1.779 5.642,-0.312 3.168,2.833 7.193,5.852 15.074,5.852 2.208,0 3.994,1.787 3.994,3.995 0.001,2.209 -1.786,3.996 -3.994,3.996 z"
   id="path5528" />

	<path
   style="fill:#3a3847"
   d="m 271.651,256.766 c -2.028,0 -3.761,-1.537 -3.979,-3.589 -0.219,-2.2 1.381,-4.158 3.574,-4.385 19.725,-2.005 43.304,-6.843 58.65,-12.031 2.1,-0.71 4.362,0.413 5.064,2.504 0.702,2.091 -0.414,4.354 -2.505,5.064 -15.862,5.368 -40.136,10.354 -60.399,12.413 -0.139,0.016 -0.28,0.024 -0.405,0.024 z"
   id="path5530" />

	<path
   style="fill:#3a3847"
   d="m 381.433,256.766 c -2.028,0 -3.761,-1.537 -3.979,-3.589 -0.219,-2.2 1.373,-4.158 3.574,-4.385 19.717,-2.005 43.318,-6.851 58.736,-12.039 9.363,-3.191 14.295,1.342 18.664,5.337 l 1.771,1.6 c 1.661,1.443 1.833,3.971 0.382,5.633 -1.436,1.662 -3.979,1.842 -5.634,0.383 l -1.919,-1.725 c -3.995,-3.659 -5.806,-5.337 -10.697,-3.659 -15.94,5.368 -40.245,10.354 -60.493,12.421 -0.141,0.015 -0.272,0.023 -0.405,0.023 z"
   id="path5532" />

	<path
   style="fill:#3a3847"
   d="m 152.523,209.701 c -10.447,-0.085 -15.929,-4.338 -20.274,-8.317 -1.627,-1.49 -1.736,-4.018 -0.246,-5.648 1.494,-1.623 4.011,-1.732 5.646,-0.242 3.675,3.363 7.311,6.156 14.591,6.219 2.2,0.023 4.127,1.818 4.119,4.018 -0.009,2.192 -1.635,3.97 -3.836,3.97 z"
   id="path5534" />

	<path
   style="fill:#3a3847"
   d="m 64.951,208.828 c -2.021,0 -3.753,-1.529 -3.967,-3.582 -0.23,-2.192 1.361,-4.159 3.554,-4.385 17.965,-1.888 39.68,-6.406 54.032,-11.243 2.091,-0.703 4.357,0.421 5.06,2.512 0.706,2.091 -0.417,4.354 -2.508,5.057 -14.856,5.009 -37.261,9.675 -55.749,11.618 -0.14,0.015 -0.285,0.023 -0.422,0.023 z"
   id="path5536" />

	<path
   style="fill:#3a3847"
   d="m 255.75,209.701 c -9.827,0 -15.309,-3.8 -19.39,-7.514 -1.63,-1.482 -1.747,-4.01 -0.261,-5.641 1.486,-1.623 4.011,-1.748 5.645,-0.265 2.884,2.629 6.574,5.431 13.928,5.431 2.208,0 4.034,1.787 4.034,3.995 0,2.208 -1.748,3.994 -3.956,3.994 z"
   id="path5538" />

	<path
   style="fill:#3a3847"
   d="m 168.339,208.742 c -2.029,0 -3.765,-1.529 -3.972,-3.589 -0.223,-2.2 1.381,-4.158 3.573,-4.377 17.919,-1.81 39.66,-6.289 54.099,-11.157 2.091,-0.703 4.358,0.421 5.061,2.512 0.706,2.091 -0.418,4.354 -2.509,5.057 -14.949,5.04 -37.394,9.675 -55.847,11.54 -0.136,0.006 -0.272,0.014 -0.405,0.014 z"
   id="path5540" />

	<path
   style="fill:#3a3847"
   d="m 358.977,209.701 c -9.191,0 -14.504,-3.386 -18.109,-6.335 -1.709,-1.396 -1.958,-3.917 -0.554,-5.625 1.389,-1.701 3.901,-1.958 5.618,-0.554 2.871,2.349 6.444,4.525 13.045,4.525 2.217,0 3.995,1.787 3.995,3.995 0,2.208 -1.779,3.994 -3.995,3.994 z"
   id="path5542" />

	<path
   style="fill:#3a3847"
   d="m 271.651,208.742 c -2.028,0 -3.769,-1.537 -3.979,-3.597 -0.219,-2.192 1.389,-4.15 3.582,-4.369 18.086,-1.818 39.925,-6.305 54.328,-11.157 2.092,-0.703 4.361,0.421 5.064,2.512 0.71,2.091 -0.414,4.354 -2.505,5.057 -14.927,5.032 -37.468,9.667 -56.093,11.54 -0.131,0.006 -0.272,0.014 -0.397,0.014 z"
   id="path5544" />

	<path
   style="fill:#3a3847"
   d="m 374.957,208.742 c -2.021,0 -3.754,-1.521 -3.965,-3.574 -0.233,-2.2 1.358,-4.166 3.551,-4.393 18.227,-1.904 39.973,-6.39 54.11,-11.157 0.141,-0.047 0.288,-0.086 0.437,-0.117 0.016,-0.008 0.031,-0.008 0.047,-0.016 8.536,-2.747 13.343,1.623 17.213,5.134 l 1.092,0.991 c 1.654,1.467 1.795,3.995 0.328,5.641 -1.467,1.646 -3.995,1.794 -5.634,0.328 l -1.162,-1.046 c -3.925,-3.565 -5.478,-4.72 -9.473,-3.409 -0.14,0.039 -0.28,0.078 -0.429,0.109 0,0 -0.008,0 -0.016,0.008 -14.638,4.915 -36.992,9.526 -55.679,11.477 -0.14,0.016 -0.28,0.024 -0.42,0.024 z"
   id="path5546" />

	<path
   style="fill:#3a3847"
   d="m 157.798,169.753 c -9.328,-0.086 -14.446,-3.527 -18.629,-7.233 -1.65,-1.459 -1.807,-3.987 -0.344,-5.641 1.472,-1.646 3.999,-1.795 5.642,-0.344 2.945,2.614 6.383,5.165 13.132,5.228 2.2,0.023 4.084,1.818 4.072,4.019 -0.008,2.2 -1.673,3.971 -3.873,3.971 z"
   id="path5548" />

	<path
   style="fill:#3a3847"
   d="m 75.578,168.793 c -2.017,0 -3.749,-1.521 -3.967,-3.573 -0.234,-2.193 1.354,-4.159 3.55,-4.393 16.975,-1.81 36.777,-5.938 50.443,-10.518 2.087,-0.702 4.354,0.422 5.06,2.513 0.702,2.099 -0.425,4.361 -2.517,5.063 -14.173,4.752 -34.639,9.028 -52.144,10.885 -0.14,0.015 -0.284,0.023 -0.425,0.023 z"
   id="path5550" />

	<path
   style="fill:#3a3847"
   d="m 255.672,169.753 c -8.836,0 -13.994,-3.355 -17.501,-6.273 -1.693,-1.42 -1.923,-3.933 -0.511,-5.634 1.412,-1.693 3.933,-1.919 5.629,-0.507 2.755,2.302 6.164,4.424 12.383,4.424 2.208,0 3.995,1.787 3.995,3.995 0,2.208 -1.787,3.995 -3.995,3.995 z"
   id="path5552" />

	<path
   style="fill:#3a3847"
   d="m 173.453,168.793 c -2.017,0 -3.749,-1.521 -3.968,-3.573 -0.233,-2.193 1.354,-4.159 3.551,-4.393 17.036,-1.81 37.4,-6.039 50.681,-10.518 2.099,-0.702 4.357,0.422 5.06,2.513 0.706,2.091 -0.417,4.354 -2.508,5.056 -13.99,4.721 -34.554,8.997 -52.391,10.893 -0.14,0.014 -0.284,0.022 -0.425,0.022 z"
   id="path5554" />

	<path
   style="fill:#3a3847"
   d="m 353.547,169.753 c -8.256,0 -13.163,-2.958 -16.136,-5.189 -1.764,-1.319 -2.13,-3.823 -0.812,-5.594 1.326,-1.756 3.823,-2.13 5.602,-0.804 2.372,1.779 5.571,3.597 11.346,3.597 2.207,0 3.994,1.787 3.994,3.995 0,2.208 -1.787,3.995 -3.994,3.995 z"
   id="path5556" />

	<path
   style="fill:#3a3847"
   d="m 271.651,168.793 c -2.021,0 -3.753,-1.521 -3.972,-3.565 -0.234,-2.193 1.35,-4.167 3.551,-4.401 17.188,-1.841 37.553,-6.062 50.669,-10.518 2.106,-0.702 4.369,0.414 5.071,2.505 0.703,2.091 -0.405,4.354 -2.496,5.063 -13.623,4.619 -34.683,8.997 -52.402,10.893 -0.139,0.015 -0.28,0.023 -0.421,0.023 z"
   id="path5558" />

	<path
   style="fill:#3a3847"
   d="m 369.682,168.715 c -2.013,0 -3.745,-1.514 -3.963,-3.565 -0.242,-2.192 1.342,-4.167 3.542,-4.401 16.729,-1.794 36.944,-5.992 50.295,-10.44 0.194,-0.07 0.499,-0.14 0.812,-0.187 8.153,-2.458 12.655,1.74 16.275,5.126 1.623,1.506 1.709,4.034 0.203,5.641 -1.498,1.623 -4.025,1.709 -5.648,0.203 -3.652,-3.41 -4.986,-4.439 -8.692,-3.269 -0.296,0.093 -0.601,0.148 -0.905,0.171 -14.356,4.705 -34.658,8.887 -51.488,10.697 -0.15,0.016 -0.291,0.024 -0.431,0.024 z"
   id="path5560" />

	<path
   style="fill:#3a3847"
   d="m 129.833,377.486 c -13.479,0 -20.228,-6.25 -25.159,-10.814 -4.623,-4.283 -6.937,-6.413 -12.87,-4.416 -24.772,8.396 -64.168,15.23 -87.81,15.23 -2.208,0 -3.994,-1.787 -3.994,-3.995 0,-2.208 1.786,-3.995 3.994,-3.995 22.526,0 61.566,-6.779 85.247,-14.809 10.459,-3.512 15.976,1.6 20.859,6.125 4.615,4.268 9.387,8.684 19.732,8.684 2.208,0 3.995,1.787 3.995,3.995 0,2.208 -1.786,3.995 -3.994,3.995 z"
   id="path5562" />

	<path
   style="fill:#3a3847"
   d="m 255.672,377.486 c -13.479,0 -20.228,-6.25 -25.159,-10.814 -4.619,-4.283 -6.933,-6.413 -12.87,-4.416 -24.858,8.396 -64.25,15.23 -87.81,15.23 -2.208,0 -3.995,-1.787 -3.995,-3.995 0,-2.208 1.787,-3.995 3.995,-3.995 22.448,0 61.488,-6.779 85.25,-14.809 10.456,-3.512 15.972,1.6 20.856,6.125 4.615,4.268 9.387,8.684 19.732,8.684 2.208,0 3.995,1.787 3.995,3.995 0,2.208 -1.786,3.995 -3.994,3.995 z"
   id="path5564" />

	<path
   style="fill:#3a3847"
   d="m 381.511,377.486 c -13.483,0 -20.225,-6.25 -25.155,-10.814 -4.619,-4.283 -6.944,-6.413 -12.874,-4.416 -24.773,8.396 -64.168,15.23 -87.81,15.23 -2.208,0 -3.995,-1.787 -3.995,-3.995 0,-2.208 1.787,-3.995 3.995,-3.995 22.525,0 61.562,-6.779 85.25,-14.809 10.439,-3.512 15.972,1.6 20.856,6.125 4.611,4.268 9.386,8.684 19.732,8.684 2.208,0 3.995,1.787 3.995,3.995 0,2.208 -1.786,3.995 -3.994,3.995 z"
   id="path5566" />

	<path
   style="fill:#3a3847"
   d="m 507.35,377.486 c -13.483,0 -20.225,-6.25 -25.155,-10.814 -4.627,-4.283 -6.944,-6.413 -12.874,-4.416 -24.859,8.396 -64.246,15.23 -87.81,15.23 -2.208,0 -3.995,-1.787 -3.995,-3.995 0,-2.208 1.787,-3.995 3.995,-3.995 22.447,0 61.483,-6.779 85.25,-14.809 10.439,-3.512 15.972,1.6 20.856,6.125 4.611,4.268 9.386,8.684 19.732,8.684 2.208,0 3.994,1.787 3.994,3.995 0,2.208 -1.785,3.995 -3.993,3.995 z"
   id="path5568" />

	<path
   style="fill:#3a3847"
   d="m 129.833,393.466 c -13.479,0 -20.228,-6.25 -25.159,-10.814 -4.623,-4.275 -6.937,-6.413 -12.87,-4.416 -24.772,8.396 -64.168,15.23 -87.81,15.23 -2.208,0 -3.994,-1.786 -3.994,-3.995 0,-2.208 1.786,-3.994 3.994,-3.994 22.526,0 61.566,-6.781 85.247,-14.81 10.459,-3.511 15.976,1.6 20.859,6.125 4.615,4.269 9.387,8.685 19.732,8.685 2.208,0 3.995,1.786 3.995,3.994 0.001,2.209 -1.786,3.995 -3.994,3.995 z"
   id="path5570" />

	<path
   style="fill:#3a3847"
   d="m 255.672,393.466 c -13.479,0 -20.228,-6.25 -25.159,-10.814 -4.619,-4.275 -6.933,-6.413 -12.87,-4.416 -24.858,8.396 -64.25,15.23 -87.81,15.23 -2.208,0 -3.995,-1.786 -3.995,-3.995 0,-2.208 1.787,-3.994 3.995,-3.994 22.448,0 61.488,-6.781 85.25,-14.81 10.456,-3.511 15.972,1.6 20.856,6.125 4.615,4.269 9.387,8.685 19.732,8.685 2.208,0 3.995,1.786 3.995,3.994 10e-4,2.209 -1.786,3.995 -3.994,3.995 z"
   id="path5572" />

	<path
   style="fill:#3a3847"
   d="m 381.511,393.466 c -13.483,0 -20.225,-6.25 -25.155,-10.814 -4.619,-4.275 -6.944,-6.413 -12.874,-4.416 -24.773,8.396 -64.168,15.23 -87.81,15.23 -2.208,0 -3.995,-1.786 -3.995,-3.995 0,-2.208 1.787,-3.994 3.995,-3.994 22.525,0 61.562,-6.781 85.25,-14.81 10.439,-3.511 15.972,1.6 20.856,6.125 4.611,4.269 9.386,8.685 19.732,8.685 2.208,0 3.995,1.786 3.995,3.994 10e-4,2.209 -1.786,3.995 -3.994,3.995 z"
   id="path5574" />

	<path
   style="fill:#3a3847"
   d="m 507.35,393.466 c -13.483,0 -20.225,-6.25 -25.155,-10.814 -4.627,-4.275 -6.944,-6.413 -12.874,-4.416 -24.859,8.396 -64.246,15.23 -87.81,15.23 -2.208,0 -3.995,-1.786 -3.995,-3.995 0,-2.208 1.787,-3.994 3.995,-3.994 22.447,0 61.483,-6.781 85.25,-14.81 10.439,-3.511 15.972,1.6 20.856,6.125 4.611,4.269 9.386,8.685 19.732,8.685 2.208,0 3.994,1.786 3.994,3.994 10e-4,2.209 -1.785,3.995 -3.993,3.995 z"
   id="path5576" />

	<path
   style="fill:#3a3847"
   d="m 161.792,137.794 c -10.436,0 -15.632,-4.814 -19.424,-8.333 -3.597,-3.339 -4.916,-4.338 -8.606,-3.066 -18.702,6.289 -48.235,11.399 -65.849,11.399 -2.209,0 -3.995,-1.787 -3.995,-3.995 0,-2.208 1.786,-3.995 3.995,-3.995 16.607,0 45.59,-5.024 63.285,-10.978 8.38,-2.848 12.937,1.374 16.604,4.775 3.44,3.191 6.687,6.203 13.989,6.203 2.208,0 3.995,1.787 3.995,3.995 0,2.208 -1.786,3.995 -3.994,3.995 z"
   id="path5578" />

	<path
   style="fill:#3a3847"
   d="m 255.672,137.794 c -10.436,0 -15.632,-4.814 -19.424,-8.333 -3.598,-3.339 -4.92,-4.338 -8.606,-3.066 -18.788,6.289 -48.317,11.399 -65.85,11.399 -2.208,0 -3.994,-1.787 -3.994,-3.995 0,-2.208 1.786,-3.995 3.994,-3.995 16.53,0 45.513,-5.024 63.29,-10.978 8.372,-2.856 12.937,1.374 16.6,4.775 3.441,3.191 6.688,6.203 13.99,6.203 2.208,0 3.995,1.787 3.995,3.995 0,2.208 -1.787,3.995 -3.995,3.995 z"
   id="path5580" />

	<path
   style="fill:#3a3847"
   d="m 349.552,137.794 c -10.44,0 -15.652,-4.822 -19.46,-8.341 -3.589,-3.324 -4.915,-4.315 -8.566,-3.059 -18.711,6.289 -48.235,11.399 -65.854,11.399 -2.208,0 -3.995,-1.787 -3.995,-3.995 0,-2.208 1.787,-3.995 3.995,-3.995 16.604,0 45.59,-5.024 63.286,-10.978 8.31,-2.864 12.882,1.358 16.564,4.759 3.449,3.199 6.71,6.219 14.029,6.219 2.208,0 3.995,1.787 3.995,3.995 0,2.208 -1.786,3.996 -3.994,3.996 z"
   id="path5582" />

	<path
   style="fill:#3a3847"
   d="m 443.432,137.794 c -10.44,0 -15.652,-4.822 -19.46,-8.341 -3.597,-3.324 -4.899,-4.315 -8.567,-3.059 -18.788,6.289 -48.32,11.399 -65.853,11.399 -2.208,0 -3.995,-1.787 -3.995,-3.995 0,-2.208 1.787,-3.995 3.995,-3.995 16.525,0 45.512,-5.024 63.294,-10.978 8.325,-2.864 12.882,1.366 16.557,4.759 3.449,3.199 6.71,6.219 14.029,6.219 2.208,0 3.994,1.787 3.994,3.995 0,2.208 -1.786,3.996 -3.994,3.996 z"
   id="path5584" />

	<path
   style="fill:#3a3847"
   d="m 3.998,377.486 c -0.343,0 -0.687,-0.039 -1.033,-0.133 -2.13,-0.569 -3.398,-2.762 -2.829,-4.892 L 64.055,132.768 c 0.569,-2.13 2.777,-3.386 4.888,-2.824 2.13,0.562 3.398,2.754 2.828,4.884 L 7.853,374.522 c -0.476,1.787 -2.091,2.964 -3.855,2.964 z"
   id="path5586" />

	<path
   style="fill:#3a3847"
   d="m 507.35,377.486 c -1.764,0 -3.387,-1.178 -3.854,-2.965 L 439.577,134.828 c -0.577,-2.13 0.695,-4.323 2.825,-4.884 2.138,-0.562 4.322,0.694 4.884,2.824 l 63.918,239.693 c 0.578,2.13 -0.693,4.322 -2.824,4.892 -0.344,0.087 -0.687,0.133 -1.03,0.133 z"
   id="path5588" />

	<path
   style="fill:#3a3847"
   d="m 468.04,362.467 c -1.825,0 -3.472,-1.256 -3.894,-3.105 L 410.215,123.508 c -0.491,-2.154 0.851,-4.292 3.004,-4.783 2.122,-0.515 4.292,0.842 4.783,2.996 l 53.931,235.861 c 0.492,2.154 -0.851,4.291 -3.004,4.783 -0.296,0.071 -0.592,0.102 -0.889,0.102 z"
   id="path5590" />

	<path
   style="fill:#3a3847"
   d="m 342.201,362.467 c -2.044,0 -3.784,-1.553 -3.979,-3.621 L 316.25,122.992 c -0.202,-2.2 1.404,-4.151 3.605,-4.354 2.216,-0.18 4.15,1.404 4.354,3.604 l 21.972,235.854 c 0.203,2.2 -1.404,4.143 -3.604,4.354 -0.126,0.009 -0.251,0.017 -0.376,0.017 z"
   id="path5592" />

	<path
   style="fill:#3a3847"
   d="m 216.367,362.467 c -0.059,0 -0.113,0 -0.172,0 -2.204,-0.094 -3.917,-1.959 -3.823,-4.159 l 9.987,-235.861 c 0.098,-2.2 2.095,-3.839 4.162,-3.823 2.204,0.094 3.913,1.958 3.819,4.167 l -9.987,235.846 c -0.088,2.152 -1.856,3.83 -3.986,3.83 z"
   id="path5594" />

	<path
   style="fill:#3a3847"
   d="m 90.528,362.467 c -0.23,0 -0.469,-0.023 -0.702,-0.062 -2.173,-0.383 -3.62,-2.458 -3.234,-4.635 l 41.946,-235.854 c 0.382,-2.169 2.462,-3.644 4.631,-3.23 2.173,0.382 3.62,2.458 3.234,4.627 L 94.457,359.174 c -0.344,1.936 -2.029,3.293 -3.929,3.293 z"
   id="path5596" />

	<path
   style="fill:#3a3847"
   d="m 129.837,377.486 c -0.176,0 -0.354,-0.008 -0.534,-0.039 -2.185,-0.289 -3.722,-2.302 -3.43,-4.486 l 31.96,-239.685 c 0.288,-2.185 2.336,-3.698 4.482,-3.433 2.188,0.289 3.726,2.294 3.437,4.479 l -31.959,239.701 c -0.269,2.004 -1.985,3.463 -3.956,3.463 z"
   id="path5598" />

	<path
   style="fill:#3a3847"
   d="m 255.672,377.486 c -2.208,0 -3.995,-1.787 -3.995,-3.995 V 133.799 c 0,-2.208 1.787,-3.995 3.995,-3.995 2.208,0 3.995,1.787 3.995,3.995 v 239.692 c 0,2.208 -1.787,3.995 -3.995,3.995 z"
   id="path5600" />

	<path
   style="fill:#3a3847"
   d="m 381.511,377.486 c -1.981,0 -3.69,-1.459 -3.964,-3.464 L 345.588,134.329 c -0.289,-2.185 1.248,-4.197 3.434,-4.486 2.215,-0.265 4.197,1.249 4.494,3.433 l 31.959,239.685 c 0.288,2.192 -1.249,4.197 -3.434,4.494 -0.187,0.024 -0.359,0.031 -0.53,0.031 z"
   id="path5602" />

	<path
   style="fill:#3a3847"
   d="m 507.35,393.466 c -2.209,0 -3.995,-1.786 -3.995,-3.995 v -15.979 c 0,-2.208 1.786,-3.995 3.995,-3.995 2.208,0 3.994,1.787 3.994,3.995 v 15.979 c 0,2.209 -1.786,3.995 -3.994,3.995 z"
   id="path5604" />

	<path
   style="fill:#3a3847"
   d="M 3.994,393.466 C 1.786,393.466 0,391.68 0,389.471 v -15.979 c 0,-2.208 1.786,-3.995 3.994,-3.995 2.209,0 3.995,1.787 3.995,3.995 v 15.979 c 0,2.209 -1.786,3.995 -3.995,3.995 z"
   id="path5606" />

</g>
      <g
         id="g5610">
</g>
      <g
         id="g5612">
</g>
      <g
         id="g5614">
</g>
      <g
         id="g5616">
</g>
      <g
         id="g5618">
</g>
      <g
         id="g5620">
</g>
      <g
         id="g5622">
</g>
      <g
         id="g5624">
</g>
      <g
         id="g5626">
</g>
      <g
         id="g5628">
</g>
      <g
         id="g5630">
</g>
      <g
         id="g5632">
</g>
      <g
         id="g5634">
</g>
      <g
         id="g5636">
</g>
      <g
         id="g5638">
</g>
    </g>
    <g
       transform="matrix(0.08294788,0,0,0.08294788,47.1863,48.796182)"
       id="g5822">
      <g
         id="g5790">
        <path
           d="M 363.806,7.5 H 148.194 c -51.716,0 -93.64,41.924 -93.64,93.64 v 228.989 c 0,51.716 41.924,93.64 93.64,93.64 h 55.379 c 5.036,0 9.599,2.966 11.643,7.568 l 29.14,65.595 c 4.483,10.091 18.804,10.091 23.287,0 l 29.14,-65.595 c 2.044,-4.602 6.608,-7.568 11.643,-7.568 h 55.379 c 51.716,0 93.64,-41.924 93.64,-93.64 V 101.14 C 457.446,49.424 415.522,7.5 363.806,7.5 Z"
           fill="#f5f5f5"
           id="path5788" />
      </g>
      <g
         id="g5794">
        <path
           d="m 267.961,249.63 h -23.922 c -4.888,0 -8.933,-3.801 -9.237,-8.679 l -9.64,-154.788 c -0.332,-5.327 3.899,-9.83 9.237,-9.83 h 43.203 c 5.337,0 9.568,4.503 9.237,9.83 l -9.641,154.788 c -0.304,4.878 -4.349,8.679 -9.237,8.679 z M 256,298.607 c -15.061,0 -27.27,12.209 -27.27,27.27 0,15.061 12.209,27.27 27.27,27.27 15.061,0 27.27,-12.209 27.27,-27.27 0,-15.061 -12.209,-27.27 -27.27,-27.27 z"
           fill="#75cff9"
           id="path5792" />
      </g>
      <g
         id="g5798">
        <path
           d="m 363.806,7.5 h -30 c 51.716,0 93.64,41.924 93.64,93.64 v 228.989 c 0,51.716 -41.924,93.64 -93.64,93.64 h 30 c 51.716,0 93.64,-41.924 93.64,-93.64 V 101.14 c 0,-51.716 -41.924,-93.64 -93.64,-93.64 z"
           fill="#ebe5ed"
           id="path5796" />
      </g>
      <g
         id="g5802">
        <path
           d="m 256,298.607 c -5.543,0 -10.696,1.658 -15,4.499 7.391,4.878 12.27,13.253 12.27,22.771 0,9.518 -4.88,17.893 -12.27,22.771 4.304,2.841 9.457,4.499 15,4.499 15.061,0 27.27,-12.21 27.27,-27.27 0,-15.061 -12.209,-27.27 -27.27,-27.27 z"
           fill="#6cbff8"
           id="path5800" />
      </g>
      <g
         id="g5806">
        <path
           d="m 277.601,76.333 h -30 c 5.337,0 9.568,4.503 9.237,9.83 l -9.641,154.788 c -0.238,3.816 -2.769,6.963 -6.197,8.157 0.954,0.333 1.975,0.522 3.039,0.522 h 23.922 c 4.888,0 8.933,-3.801 9.237,-8.679 l 9.641,-154.788 c 0.331,-5.327 -3.9,-9.83 -9.238,-9.83 z"
           fill="#6cbff8"
           id="path5804" />
      </g>
      <g
         id="g5810">
        <path
           d="M 267.961,257.13 H 244.04 c -8.829,0 -16.174,-6.902 -16.722,-15.713 L 217.677,86.63 c -0.286,-4.597 1.358,-9.159 4.513,-12.515 3.154,-3.356 7.604,-5.281 12.209,-5.281 h 43.203 c 4.605,0 9.056,1.925 12.209,5.281 3.154,3.356 4.799,7.918 4.513,12.514 l -9.641,154.788 c -0.549,8.811 -7.894,15.713 -16.722,15.713 z M 234.399,83.833 c -0.627,0 -1.041,0.301 -1.279,0.553 -0.237,0.252 -0.511,0.685 -0.473,1.311 l 9.641,154.787 c 0.058,0.923 0.827,1.646 1.751,1.646 h 23.921 c 0.925,0 1.694,-0.723 1.751,-1.645 l 9.641,-154.788 c 0.039,-0.626 -0.236,-1.058 -0.473,-1.311 -0.237,-0.252 -0.651,-0.553 -1.279,-0.553 z"
           id="path5808" />
      </g>
      <g
         id="g5814">
        <path
           d="m 256,360.647 c -19.172,0 -34.77,-15.598 -34.77,-34.771 0,-19.172 15.598,-34.77 34.77,-34.77 19.172,0 34.77,15.598 34.77,34.77 0,19.173 -15.597,34.771 -34.77,34.771 z m 0,-54.54 c -10.901,0 -19.77,8.869 -19.77,19.77 0,10.901 8.869,19.771 19.77,19.771 10.901,0 19.77,-8.869 19.77,-19.771 0,-10.902 -8.868,-19.77 -19.77,-19.77 z"
           id="path5812" />
      </g>
      <g
         id="g5820">
        <path
           d="M 363.806,0 H 148.194 C 92.425,0 47.054,45.371 47.054,101.14 v 50.546 c 0,4.142 3.358,7.5 7.5,7.5 4.142,0 7.5,-3.358 7.5,-7.5 V 101.14 C 62.054,53.642 100.697,15 148.194,15 h 215.611 c 47.497,0 86.14,38.642 86.14,86.14 v 137.108 c 0,4.142 3.358,7.5 7.5,7.5 4.142,0 7.5,-3.358 7.5,-7.5 V 101.14 C 464.946,45.371 419.575,0 363.806,0 Z"
           id="path5816" />
        <path
           d="m 457.446,260.748 c -4.142,0 -7.5,3.358 -7.5,7.5 v 61.881 c 0,47.498 -38.643,86.14 -86.141,86.14 h -55.379 c -7.993,0 -15.254,4.72 -18.497,12.023 l -29.14,65.595 c -1.249,2.81 -3.765,3.113 -4.79,3.113 -1.024,0 -3.541,-0.304 -4.789,-3.113 l -29.14,-65.595 c -3.245,-7.304 -10.505,-12.023 -18.498,-12.023 h -55.379 c -47.498,0 -86.14,-38.642 -86.14,-86.14 V 181.686 c 0,-4.142 -3.358,-7.5 -7.5,-7.5 -4.142,0 -7.5,3.358 -7.5,7.5 v 148.443 c 0,55.769 45.371,101.14 101.14,101.14 h 55.379 c 2.069,0 3.949,1.222 4.79,3.113 l 29.14,65.595 C 240.797,507.393 247.885,512 256,512 c 8.115,0 15.203,-4.607 18.498,-12.023 l 29.141,-65.595 c 0.839,-1.891 2.719,-3.112 4.789,-3.112 h 55.379 c 55.769,0 101.141,-45.371 101.141,-101.14 v -61.881 c -0.002,-4.143 -3.36,-7.501 -7.502,-7.501 z"
           id="path5818" />
      </g>
    </g>
    <g
       transform="matrix(0.08430616,0,0,0.08430616,46.390719,92.699787)"
       id="g6018">
      <g
         id="g5922">
	<polygon
   style="fill:#3b4c5b"
   points="127.294,21.342 469.817,490.658 7.973,490.658 7.973,184.827 "
   id="polygon5918" />

	<polygon
   style="fill:#3b4c5b"
   points="404.991,124.37 504.399,260.573 504.399,490.658 309.738,490.658 245.419,353.848 242.317,347.258 "
   id="polygon5920" />

</g>
      <polygon
         style="fill:#2a3944"
         points="242.317,347.258 404.991,124.37 322.919,455.092 245.419,353.848 "
         id="polygon5924" />
      <polyline
         style="fill:#3b4c5b"
         points="405.046,490.657 206.326,218.381 7.605,490.657 "
         id="polyline5926" />
      <polygon
         style="fill:#2a3944"
         points="7.605,490.657 206.326,218.381 127.244,490.657 "
         id="polygon5928" />
      <polygon
         style="fill:#eaeaea"
         points="179.802,405.695 146.071,425.842 109.004,447.984 87.44,381.283 206.325,218.385 354.247,421.067 274.71,404.277 243.645,463.779 "
         id="polygon5930" />
      <polygon
         style="fill:#cccccc"
         points="87.44,381.283 206.325,218.385 146.071,425.842 109.004,447.984 "
         id="polygon5932" />
      <polygon
         style="fill:#eaeaea"
         points="341.168,279.187 329.002,228.494 404.991,124.37 480.979,228.494 468.813,279.187 404.991,238.633 371.33,260.025 "
         id="polygon5934" />
      <polygon
         style="fill:#cccccc"
         points="329.002,228.494 404.991,124.37 371.33,260.025 341.168,279.187 "
         id="polygon5936" />
      <polygon
         style="fill:#eaeaea"
         points="112.036,149.413 90.329,166.294 57.288,191.995 53.384,122.616 127.294,21.342 243.006,179.89 174.895,147.385 154.618,191.995 "
         id="polygon5938" />
      <polygon
         style="fill:#2a3944"
         points="7.973,184.827 127.294,21.342 7.973,489.228 "
         id="polygon5940" />
      <polygon
         style="fill:#cccccc"
         points="53.384,122.616 127.294,21.342 90.329,166.294 57.288,191.995 "
         id="polygon5942" />
      <path
         d="m 212.459,213.885 c -1.433,-1.954 -3.71,-3.108 -6.133,-3.108 -0.002,0 -0.005,0 -0.008,0 -2.426,0.002 -4.704,1.162 -6.134,3.122 l -74.845,102.548 c -2.476,3.392 -1.733,8.149 1.66,10.624 3.393,2.477 8.149,1.733 10.624,-1.66 l 68.715,-94.151 130.797,178.421 -60.856,-12.845 c -3.339,-0.708 -6.733,0.898 -8.311,3.922 l -26.501,50.761 -56.548,-51.448 c -2.479,-2.254 -6.14,-2.622 -9.016,-0.903 l -62.601,37.392 -17.437,-53.934 27.521,-37.708 c 2.476,-3.392 1.733,-8.149 -1.66,-10.624 -3.392,-2.477 -8.149,-1.732 -10.624,1.66 L 1.462,486.175 c -2.476,3.392 -1.733,8.149 1.66,10.624 1.352,0.987 2.921,1.462 4.477,1.462 2.345,0 4.66,-1.082 6.148,-3.122 l 71.042,-97.338 16.98,52.521 c 0.713,2.203 2.39,3.962 4.558,4.777 2.168,0.816 4.589,0.599 6.576,-0.589 l 65.955,-39.395 59.67,54.287 c 1.412,1.285 3.24,1.98 5.117,1.98 0.442,0 0.887,-0.039 1.329,-0.118 2.322,-0.412 4.32,-1.878 5.411,-3.968 l 28.395,-54.392 71.834,15.162 48.805,66.576 c 1.49,2.032 3.799,3.108 6.139,3.108 1.56,0 3.135,-0.479 4.489,-1.472 3.387,-2.483 4.119,-7.242 1.637,-10.628 z"
         id="path5944" />
      <path
         d="m 510.538,256.089 -51.962,-71.196 c -2.477,-3.393 -7.234,-4.136 -10.624,-1.66 -3.392,2.476 -4.136,7.233 -1.66,10.624 l 26.477,36.277 -8.863,36.925 -54.836,-34.844 c -2.489,-1.582 -5.667,-1.582 -8.156,0 l -54.836,34.844 -8.863,-36.924 67.778,-92.865 25.785,35.329 c 2.477,3.392 7.234,4.135 10.624,1.66 3.392,-2.476 4.136,-7.233 1.66,-10.624 L 411.135,119.89 c -1.432,-1.962 -3.714,-3.122 -6.142,-3.122 -2.428,0 -4.71,1.16 -6.142,3.122 L 279.534,283.37 c -2.476,3.392 -1.733,8.149 1.66,10.624 1.353,0.987 2.921,1.462 4.476,1.462 2.346,0 4.66,-1.082 6.148,-3.122 l 33.626,-46.073 8.33,34.701 c 0.573,2.388 2.265,4.353 4.541,5.274 0.919,0.372 1.887,0.556 2.852,0.556 1.426,0 2.843,-0.4 4.079,-1.186 l 59.744,-37.963 59.745,37.963 c 2.072,1.317 4.654,1.552 6.931,0.631 2.276,-0.922 3.968,-2.885 4.541,-5.274 l 8.33,-34.703 13.717,18.794 c 1.489,2.04 3.802,3.122 6.148,3.122 1.555,0 3.125,-0.475 4.476,-1.462 3.393,-2.476 4.135,-7.233 1.66,-10.625 z"
         id="path5946" />
      <path
         d="m 3.493,190.966 c 3.393,2.476 8.149,1.733 10.624,-1.66 l 32.865,-45.031 2.711,48.148 c 0.159,2.823 1.872,5.324 4.445,6.494 2.573,1.171 5.584,0.816 7.816,-0.92 l 49.45,-38.461 37.835,37.835 c 1.439,1.439 3.378,2.227 5.376,2.227 0.451,0 0.905,-0.041 1.357,-0.122 2.454,-0.445 4.534,-2.065 5.565,-4.335 l 17.071,-37.557 59.385,28.338 44.565,61.061 c 1.489,2.04 3.802,3.122 6.148,3.122 1.555,0 3.125,-0.475 4.477,-1.462 3.392,-2.476 4.136,-7.233 1.66,-10.624 L 133.433,16.861 c -1.432,-1.962 -3.714,-3.122 -6.142,-3.122 -2.428,0 -4.71,1.16 -6.142,3.122 L 47.25,118.114 v 0 L 1.834,180.341 c -2.475,3.392 -1.732,8.149 1.659,10.625 z M 127.291,34.243 219.125,160.069 178.169,140.525 c -1.842,-0.88 -3.96,-0.98 -5.878,-0.282 -1.918,0.699 -3.475,2.139 -4.319,3.998 l -15.736,34.62 -34.824,-34.823 c -2.711,-2.711 -7.018,-2.98 -10.045,-0.626 L 64.064,177.092 61.125,124.9 Z"
         id="path5948" />
      <g
         id="g5950">
</g>
      <g
         id="g5952">
</g>
      <g
         id="g5954">
</g>
      <g
         id="g5956">
</g>
      <g
         id="g5958">
</g>
      <g
         id="g5960">
</g>
      <g
         id="g5962">
</g>
      <g
         id="g5964">
</g>
      <g
         id="g5966">
</g>
      <g
         id="g5968">
</g>
      <g
         id="g5970">
</g>
      <g
         id="g5972">
</g>
      <g
         id="g5974">
</g>
      <g
         id="g5976">
</g>
      <g
         id="g5978">
</g>
    </g>
  </g>
</svg>
