<?xml version="1.0" encoding="UTF-8" standalone="no"?>
<svg
   xmlns:dc="http://purl.org/dc/elements/1.1/"
   xmlns:cc="http://creativecommons.org/ns#"
   xmlns:rdf="http://www.w3.org/1999/02/22-rdf-syntax-ns#"
   xmlns:svg="http://www.w3.org/2000/svg"
   xmlns="http://www.w3.org/2000/svg"
   xmlns:sodipodi="http://sodipodi.sourceforge.net/DTD/sodipodi-0.dtd"
   xmlns:inkscape="http://www.inkscape.org/namespaces/inkscape"
   width="512"
   height="512"
   viewBox="0 0 135.46666 135.46667"
   version="1.1"
   id="svg6026"
   inkscape:version="1.0 (4035a4fb49, 2020-05-01)"
   sodipodi:docname="12.svg">
  <defs
     id="defs6020" />
  <sodipodi:namedview
     id="base"
     pagecolor="#ffffff"
     bordercolor="#666666"
     borderopacity="1.0"
     inkscape:pageopacity="0.0"
     inkscape:pageshadow="2"
     inkscape:zoom="0.98994949"
     inkscape:cx="400"
     inkscape:cy="300.72751"
     inkscape:document-units="mm"
     inkscape:current-layer="layer1"
     inkscape:document-rotation="0"
     showgrid="false"
     units="px"
     inkscape:window-width="1920"
     inkscape:window-height="1001"
     inkscape:window-x="-9"
     inkscape:window-y="-9"
     inkscape:window-maximized="1" />
  <metadata
     id="metadata6023">
    <rdf:RDF>
      <cc:Work
         rdf:about="">
        <dc:format>image/svg+xml</dc:format>
        <dc:type
           rdf:resource="http://purl.org/dc/dcmitype/StillImage" />
        <dc:title />
      </cc:Work>
    </rdf:RDF>
  </metadata>
  <g
     inkscape:label="Layer 1"
     inkscape:groupmode="layer"
     id="layer1">
    <g
       transform="matrix(0.1429546,0,0,0.1429546,34.630981,-6.3768088)"
       id="g11456">
      <path
         style="fill:#8dce55"
         d="m 390.472,57.312 c -68.642,61.344 -111.807,154.222 -136.129,235.023 27.048,89.853 33.266,164.769 33.266,164.769 h 45.117 c 0,-199.012 45.941,-330.532 72.138,-389.351 3.991,-8.958 -7.078,-16.976 -14.392,-10.441 z"
         id="path11365" />
      <path
         style="fill:#6dc82a"
         d="m 264.907,260.023 c -3.852,10.912 -7.375,21.717 -10.564,32.312 27.048,89.853 33.266,164.769 33.266,164.769 h 21.025 c 10e-4,0 -7.772,-93.63 -43.727,-197.081 z"
         id="path11367" />
      <path
         style="fill:#8dce55"
         d="m 330.142,457.104 c 0,0 16.664,-200.839 124.409,-297.128 5.435,-4.857 13.662,1.102 10.696,7.76 -19.47,43.714 -53.613,141.461 -53.613,289.368 z"
         id="path11369" />
      <path
         style="fill:#6dc82a"
         d="m 465.247,167.736 c 2.965,-6.659 -5.262,-12.617 -10.696,-7.76 -107.746,96.289 -124.409,297.128 -124.409,297.128 h 23.498 c 0,0 14.936,-179.985 107.938,-280.873 1.268,-3.025 2.496,-5.861 3.669,-8.495 z"
         id="path11371" />
      <path
         style="fill:#8dce55"
         d="m 414.722,457.104 c 0,0 11.065,-133.364 82.612,-197.303 3.609,-3.225 9.072,0.732 7.103,5.154 -12.928,29.028 -35.6,93.934 -35.6,192.15 h -54.115 z"
         id="path11373" />
      <path
         style="fill:#6dc82a"
         d="m 504.436,264.955 c 1.969,-4.421 -3.494,-8.378 -7.103,-5.153 -71.547,63.939 -82.612,197.303 -82.612,197.303 h 20.002 c 0,0 9.026,-108.696 63.427,-176.874 2.239,-5.867 4.371,-10.976 6.286,-15.276 z"
         id="path11375" />
      <path
         style="fill:#8dce55"
         d="m 289.61,457.104 c 0,0 -22.421,-270.232 -167.395,-399.792 -7.313,-6.536 -18.383,1.482 -14.392,10.442 26.197,58.818 72.138,190.338 72.138,389.351 h 109.65 v -0.001 z"
         id="path11377" />
      <path
         style="fill:#6dc82a"
         d="m 128.295,62.902 c -2.003,-1.889 -4.027,-3.755 -6.08,-5.59 -7.313,-6.536 -18.383,1.482 -14.392,10.441 26.197,58.819 72.138,190.338 72.138,389.351 h 21.252 c 0,-199.012 -45.941,-330.532 -72.138,-389.351 -0.749,-1.68 -0.967,-3.327 -0.78,-4.851 z"
         id="path11379" />
      <path
         style="fill:#8dce55"
         d="m 182.546,457.104 c 0,0 -16.664,-200.839 -124.409,-297.128 -5.435,-4.857 -13.662,1.102 -10.696,7.76 19.47,43.714 53.613,141.461 53.613,289.368 z"
         id="path11381" />
      <path
         style="fill:#6dc82a"
         d="m 58.137,159.976 c -5.435,-4.857 -13.662,1.102 -10.696,7.76 19.47,43.714 53.613,141.461 53.613,289.368 h 21.002 c 0,-143.888 -32.311,-240.296 -51.992,-285.677 -3.847,-3.956 -7.82,-7.78 -11.927,-11.451 z"
         id="path11383" />
      <path
         style="fill:#8dce55"
         d="m 97.966,457.104 c 0,0 -11.065,-133.364 -82.612,-197.303 -3.609,-3.225 -9.072,0.732 -7.103,5.154 12.928,29.028 35.6,93.934 35.6,192.15 h 54.115 z"
         id="path11385" />
      <path
         style="fill:#6dc82a"
         d="m 15.355,259.801 c -3.609,-3.225 -9.072,0.732 -7.103,5.154 12.928,29.028 35.6,93.934 35.6,192.15 h 20.252 c 0,-83.144 -16.247,-142.409 -29.077,-176.253 -5.99,-7.573 -12.525,-14.662 -19.672,-21.051 z"
         id="path11387" />
      <path
         d="m 507.065,253.46 c -4.613,-3.366 -10.813,-3.059 -15.073,0.749 -30.433,27.197 -53.926,69.067 -69.854,124.45 8.911,-102.265 33.636,-171.99 49.617,-207.87 2.757,-6.191 0.861,-13.304 -4.611,-17.297 -5.491,-4.006 -12.866,-3.639 -17.936,0.893 -25.26,22.574 -47.655,52.586 -66.561,89.199 -14.434,27.956 -26.883,59.829 -37.042,94.783 5.299,-53.628 14.26,-105.014 26.839,-153.645 1.037,-4.01 -1.373,-8.103 -5.384,-9.14 -4.01,-1.042 -8.103,1.372 -9.14,5.384 -33.333,128.871 -30.445,228.487 -34.907,268.638 h -26.964 c -4.985,-45.742 -16.226,-103.615 -32.217,-157.257 31.03,-102.122 75.197,-179.309 131.294,-229.441 0.293,-0.263 0.98,-0.88 2.04,-0.105 1.02,0.743 0.671,1.526 0.503,1.902 -10.88,24.427 -20.915,51.664 -29.828,80.954 -1.206,3.963 1.029,8.154 4.992,9.359 3.964,1.206 8.154,-1.029 9.36,-4.991 8.733,-28.701 18.551,-55.354 29.18,-79.219 3.259,-7.318 1.102,-15.407 -5.367,-20.126 -6.492,-4.733 -14.881,-4.317 -20.877,1.041 -32.122,28.706 -60.821,66.48 -85.3,112.271 -16.536,30.932 -31.231,65.674 -43.823,103.516 -11.647,-35.005 -25.098,-67.351 -40.155,-96.51 -25.292,-48.983 -55.23,-89.113 -88.983,-119.277 -5.996,-5.36 -14.385,-5.777 -20.877,-1.04 -6.469,4.719 -8.626,12.807 -5.366,20.126 20.892,46.908 52.859,136.651 65.777,267.597 -10.16,-34.968 -22.612,-66.854 -37.052,-94.819 -18.906,-36.613 -41.3,-66.624 -66.561,-89.2 -5.07,-4.529 -12.445,-4.896 -17.936,-0.892 -5.473,3.992 -7.369,11.105 -4.611,17.297 15.981,35.88 40.706,105.604 49.617,207.87 C 73.934,323.276 50.44,281.406 20.008,254.21 15.748,250.403 9.55,250.094 4.936,253.459 c -4.604,3.357 -6.2,9.34 -3.88,14.548 12.71,28.538 33.8,89.547 34.899,181.597 H 22.012 c -4.142,0 -7.501,3.357 -7.501,7.501 0,4.144 3.358,7.501 7.501,7.501 4.455,0 442,0 446.479,0 h 22.322 c 4.142,0 7.501,-3.357 7.501,-7.501 0,-4.144 -3.358,-7.501 -7.501,-7.501 h -14.77 c 0.175,-14.334 0.846,-28.583 2.011,-42.456 0.347,-4.128 -2.718,-7.756 -6.847,-8.103 -4.142,-0.336 -7.756,2.719 -8.103,6.847 -1.2,14.287 -1.894,28.959 -2.07,43.712 h -38.272 c 3.516,-27.652 18.607,-119.346 68.708,-173.822 -8.465,21.804 -18.077,53.31 -24.244,94.626 -0.611,4.097 2.214,7.915 6.312,8.526 4.1,0.613 7.915,-2.214 8.526,-6.312 7.38,-49.445 19.779,-84.183 28.88,-104.616 2.319,-5.206 0.724,-11.189 -3.879,-14.546 z M 114.833,62.799 c 1.057,-0.772 1.745,-0.158 2.039,0.105 97.504,87.138 149.508,256.629 164.086,386.699 h -91.972 c -0.439,-3.952 -1.114,-9.493 -2.093,-16.341 -3.437,-185.964 -46.478,-309.993 -72.562,-368.561 -0.169,-0.375 -0.517,-1.158 0.502,-1.902 z M 50.965,449.604 C 50.008,367.592 33.504,309.231 20.525,275.782 70.578,330.216 85.7,421.945 89.231,449.604 Z m 4.402,-281.699 c 52.633,48.578 82.172,123.653 97.738,178.505 10.18,35.872 15.854,67.933 18.807,88.331 0.086,4.911 0.147,9.863 0.176,14.862 H 108.181 C 107.088,308.748 75.412,213.946 55.367,167.905 Z M 339.91,449.604 c 0.029,-4.968 0.09,-9.92 0.176,-14.858 13.25,-91.512 48.577,-204.101 116.545,-266.838 -20.037,46.02 -51.719,140.832 -52.814,281.697 H 339.91 Z"
         id="path11389" />
      <g
         id="g11391">
</g>
      <g
         id="g11393">
</g>
      <g
         id="g11395">
</g>
      <g
         id="g11397">
</g>
      <g
         id="g11399">
</g>
      <g
         id="g11401">
</g>
      <g
         id="g11403">
</g>
      <g
         id="g11405">
</g>
      <g
         id="g11407">
</g>
      <g
         id="g11409">
</g>
      <g
         id="g11411">
</g>
      <g
         id="g11413">
</g>
      <g
         id="g11415">
</g>
      <g
         id="g11417">
</g>
      <g
         id="g11419">
</g>
    </g>
    <g
       transform="matrix(0.15411442,0,0,0.15411442,-11.234972,61.328468)"
       id="g11522">
      <path
         d="m 394.032,424.803 v 39.26 c 0,4.42 -3.58,8 -8,8 h -292 c -4.42,0 -8,-3.58 -8,-8 v -39.26 c 0,-41.19 33.39,-74.56 74.59,-74.57 14.56,-0.01 27.38,-7.5 34.76,-18.86 7.414,-11.394 6.65,-21.302 6.65,-29.31 l 0.15,-0.37 c -35.9,-14.86 -61.15,-50.23 -61.15,-91.5 v -3.13 c -14.255,0 -25,-11.265 -25,-24.54 v -41.56 c -0.32,-14.47 0.34,-65.5 37.2,-101.03 42.86,-41.31 110.78,-37.93 159.98,-15.83 1.6,0.72 1.55,3.01 -0.07,3.68 l -12.83,5.28 c -1.92,0.79 -1.51,3.62 0.55,3.84 l 6.23,0.67 c 29.83,3.19 57.54,19.39 74.72,46.35 0.46,0.73 0.33,1.84 -0.26,2.47 -10.6,11.21 -16.52,26.09 -16.52,41.56 v 54.57 c 0,13.55 -10.99,24.54 -24.54,24.54 h -1.46 v 3.13 c 0,41.27 -25.25,76.64 -61.15,91.5 l 0.15,0.37 c 0,7.777 -0.827,17.82 6.65,29.31 7.38,11.36 20.2,18.85 34.76,18.86 41.2,0.01 74.59,33.38 74.59,74.57 z"
         fill="#ffdfba"
         id="path11485" />
      <path
         d="m 394.032,424.803 v 39.26 c 0,4.418 -3.582,8 -8,8 h -292 c -4.418,0 -8,-3.582 -8,-8 v -39.26 c 0,-41.19 33.395,-74.555 74.585,-74.57 14.564,-0.005 27.387,-7.504 34.765,-18.86 25.754,22.002 63.531,22.015 89.3,0 7.377,11.356 20.201,18.855 34.765,18.86 41.19,0.015 74.585,33.38 74.585,74.57 z"
         fill="#fe4f60"
         id="path11487" />
      <path
         d="m 381.807,83.928 c 0.464,0.729 0.334,1.833 -0.259,2.461 -10.597,11.218 -16.517,26.093 -16.517,41.564 v 54.57 c 0,12.388 -9.333,24.54 -26,24.54 v -61.77 c 0,-26.51 -21.49,-48 -48,-48 h -102 c -26.51,0 -48,21.49 -48,48 v 61.77 c -14.255,0 -25,-11.265 -25,-24.54 v -41.56 c -0.32,-14.47 0.34,-65.5 37.2,-101.03 42.858,-41.311 110.784,-37.929 159.977,-15.827 1.601,0.719 1.558,3.01 -0.065,3.678 l -12.831,5.282 c -1.918,0.79 -1.514,3.617 0.548,3.838 l 6.232,0.669 c 29.834,3.187 57.537,19.387 74.715,46.355 z"
         fill="#42434d"
         id="path11489" />
      <path
         d="m 339.032,210.193 c 0,54.696 -44.348,99 -99,99 -51.492,0 -99,-40.031 -99,-102.13 v -61.77 c 0,-26.51 21.49,-48 48,-48 h 102 c 26.51,0 48,21.49 48,48 z"
         fill="#ffebd2"
         id="path11491" />
      <path
         d="m 217.616,274.121 c 16.277,10.183 3.442,35.156 -14.376,28.004 -36.634,-14.704 -62.208,-50.404 -62.208,-91.932 v -64.9 c 0,-10.084 3.11,-19.442 8.423,-27.168 6.514,-9.473 21.577,-5.288 21.577,7.168 v 64.9 c 0,36.51 19.192,66.79 46.584,83.928 z"
         fill="#fff3e4"
         id="path11493" />
      <path
         d="m 279.162,318.483 c -24.637,10.313 -51.712,11.113 -78.26,0 1.356,-5.626 1.13,-9.27 1.13,-16.42 l 0.15,-0.37 c 24.082,9.996 51.571,10.016 75.7,0 l 0.15,0.37 c 0,7.153 -0.226,10.796 1.13,16.42 z"
         fill="#ffd6a6"
         id="path11495" />
      <path
         d="m 200.913,374.39 c -3.698,1.163 -7.664,1.804 -11.916,1.841 -41.296,0.364 -74.966,33.017 -74.966,74.315 v 7.517 c 0,7.732 -6.268,14 -14,14 h -6 c -4.418,0 -8,-3.582 -8,-8 v -39.26 c 0,-41.191 33.395,-74.555 74.585,-74.57 14.564,-0.005 27.387,-7.504 34.765,-18.86 2.974,2.54 6.158,4.823 9.512,6.822 14.753,8.791 12.402,31.044 -3.98,36.195 z"
         fill="#ff6d7a"
         id="path11497" />
      <path
         d="m 279.15,374.39 c 3.698,1.163 7.664,1.804 11.916,1.841 41.296,0.364 74.966,33.017 74.966,74.315 v 7.517 c 0,7.732 6.268,14 14,14 h 6 c 4.418,0 8,-3.582 8,-8 v -39.26 c 0,-41.191 -33.395,-74.555 -74.585,-74.57 -14.564,-0.005 -27.387,-7.504 -34.765,-18.86 -2.974,2.54 -6.158,4.823 -9.512,6.822 -14.753,8.791 -12.402,31.044 3.98,36.195 z"
         fill="#e84857"
         id="path11499" />
      <path
         d="m 313.142,27.783 c -11.758,4.839 -13.434,5.906 -17.508,5.274 C 229.96,22.877 172.34,50.05 152.772,113.843 v 0.01 c -7.32,8.42 -11.74,19.42 -11.74,31.44 v 37.523 c 0,16.188 -25,17.315 -25,-0.293 v -41.56 c -0.32,-14.47 0.34,-65.5 37.2,-101.03 42.86,-41.31 110.78,-37.93 159.98,-15.83 1.6,0.72 1.55,3.01 -0.07,3.68 z"
         fill="#4d4e59"
         id="path11501" />
      <path
         d="m 402.032,424.806 v 47.257 c 0,4.418 -3.582,8 -8,8 -4.418,0 -8,-3.582 -8,-8 v -47.257 c 0,-36.795 -29.775,-66.572 -66.573,-66.571 -17.411,0 -33.208,-8.87 -42.259,-23.728 -2.298,-3.773 -1.103,-8.696 2.671,-10.994 3.773,-2.299 8.695,-1.103 10.994,2.671 6.122,10.051 16.811,16.051 28.594,16.051 45.637,-0.002 82.573,36.93 82.573,82.571 z M 262.426,344.613 c 0.941,4.317 -1.796,8.579 -6.113,9.52 -21.054,4.587 -42.467,-0.005 -59.516,-11.642 -16.878,18.087 -39.176,15.744 -36.191,15.744 -36.795,-0.001 -66.573,29.773 -66.573,66.571 v 47.257 c 0,4.418 -3.582,8 -8,8 -4.418,0 -8,-3.582 -8,-8 v -47.257 c 0,-45.636 36.929,-82.571 82.571,-82.571 18.462,0 33.429,-14.875 33.429,-33.342 v -2.107 c -34.919,-16.697 -59.429,-51.784 -60.923,-92.643 -14.37,-3.455 -25.077,-16.317 -25.077,-31.62 V 141.05 c -0.437,-20.3 2.577,-71.143 39.648,-106.877 45.775,-44.126 119.183,-41.323 173.161,-15.338 5.261,2.535 6.06,9.643 1.691,13.324 27.345,6.67 50.925,23.48 66.074,47.538 0.782,1.239 2.214,3.184 1.84,6.287 -0.232,1.931 -0.807,3.565 -2.295,5.075 -9.75,9.888 -15.119,22.991 -15.119,36.896 v 54.57 c 0,4.418 -3.582,8 -8,8 -4.418,0 -8,-3.582 -8,-8 v -54.57 c 0,-16.037 5.479,-31.259 15.542,-43.487 C 357.237,62.532 333.307,48.424 306.243,45.526 L 292.182,44.02 c -8.222,-0.88 -9.835,-12.207 -2.194,-15.352 l 6.395,-2.633 C 213.097,-3 124.032,29.261 124.032,140.963 v 41.56 c 0,6.348 3.656,11.865 9,14.636 v -51.863 c 0,-30.878 25.122,-56 56,-56 h 102 c 30.878,0 56,25.12 56,55.997 v 65.503 c 0,69.574 -67.988,122.42 -137.17,102.053 -0.45,5.708 -1.871,11.216 -4.186,16.336 13.458,9.242 30.453,12.97 47.23,9.314 4.317,-0.94 8.579,1.797 9.52,6.114 z m -22.394,-43.425 c 50.178,0 91,-40.822 91,-91 v -64.895 c 0,-22.054 -17.944,-39.997 -40,-39.997 h -102 c -22.056,0 -40,17.944 -40,40 v 64.892 c 0,50.178 40.822,91 91,91 z m 81,137.875 h -24 c -4.418,0 -8,3.582 -8,8 0,4.418 3.582,8 8,8 h 24 c 4.418,0 8,-3.582 8,-8 0,-4.418 -3.582,-8 -8,-8 z"
         id="path11503" />
    </g>
    <g
       transform="matrix(0.12737294,0,0,0.12737294,72.954876,72.954426)"
       id="g11679">
      <g
         id="g986">
</g>
      <g
         id="g988">
</g>
      <g
         id="g990">
</g>
      <g
         id="g992">
</g>
      <g
         id="g994">
</g>
      <g
         id="g996">
</g>
      <g
         id="g998">
</g>
      <g
         id="g1000">
</g>
      <g
         id="g1002">
</g>
      <g
         id="g1004">
</g>
      <g
         id="g1006">
</g>
      <g
         id="g1008">
</g>
      <g
         id="g1010">
</g>
      <g
         id="g1012">
</g>
      <g
         id="g1014">
</g>
      <g
         id="g2514">
        <path
           style="fill:#ffa800"
           d="M 444.986,478.569 H 293.859 c -18.547,0 -33.584,-15.037 -33.584,-33.584 V 41.983 c 0,-18.547 15.037,-33.584 33.584,-33.584 h 151.126 c 18.547,0 33.584,15.037 33.584,33.584 v 403.003 c 0,18.546 -15.037,33.583 -33.583,33.583"
           id="path928" />
        <path
           style="fill:#ffffff"
           d="M 193.109,478.569 H 41.983 c -18.547,0 -33.584,-15.037 -33.584,-33.584 V 41.983 C 8.399,23.436 23.436,8.399 41.983,8.399 h 151.126 c 18.547,0 33.584,15.037 33.584,33.584 v 403.003 c -0.001,18.546 -15.038,33.583 -33.584,33.583"
           id="path930" />
        <path
           style="fill:#ffe100"
           d="M 419.798,478.569 H 67.17 c -18.547,0 -33.584,-15.037 -33.584,-33.584 V 41.983 C 33.586,23.436 48.623,8.399 67.17,8.399 h 352.628 c 18.547,0 33.584,15.037 33.584,33.584 v 403.003 c -0.001,18.546 -15.038,33.583 -33.584,33.583"
           id="path932" />
        <path
           style="fill:#ff8800"
           d="m 176.317,142.734 c 0,18.547 -15.037,33.584 -33.584,33.584 -18.547,0 -33.584,-15.037 -33.584,-33.584 0,-18.547 15.037,-33.584 33.584,-33.584 18.547,0 33.584,15.037 33.584,33.584"
           id="path934" />
        <path
           style="fill:#ffa800"
           d="m 151.129,142.734 c 0,18.547 -9.395,33.584 -20.99,33.584 -11.595,0 -20.99,-15.037 -20.99,-33.584 0,-18.547 9.395,-33.584 20.99,-33.584 11.595,0 20.99,15.037 20.99,33.584"
           id="path936" />
        <path
           style="fill:#ff8800"
           d="m 377.818,243.484 c 0,18.547 -15.037,33.584 -33.584,33.584 -18.547,0 -33.584,-15.037 -33.584,-33.584 0,-18.547 15.037,-33.584 33.584,-33.584 18.547,0.001 33.584,15.038 33.584,33.584"
           id="path942" />
        <path
           style="fill:#ffa800"
           d="m 352.631,243.484 c 0,18.547 -9.395,33.584 -20.99,33.584 -11.595,0 -20.99,-15.037 -20.99,-33.584 0,-18.547 9.395,-33.584 20.99,-33.584 11.595,0.001 20.99,15.038 20.99,33.584"
           id="path944" />
        <path
           style="fill:#ff8800"
           d="m 377.818,344.235 c 0,18.547 -15.037,33.584 -33.584,33.584 -18.547,0 -33.584,-15.037 -33.584,-33.584 0,-18.547 15.037,-33.584 33.584,-33.584 18.547,0 33.584,15.038 33.584,33.584"
           id="path946" />
        <path
           style="fill:#ffa800"
           d="m 352.631,344.235 c 0,18.547 -9.395,33.584 -20.99,33.584 -11.595,0 -20.99,-15.037 -20.99,-33.584 0,-18.547 9.395,-33.584 20.99,-33.584 11.595,0 20.99,15.038 20.99,33.584"
           id="path948" />
        <path
           style="fill:#ff8800"
           d="m 176.317,344.235 c 0,18.547 -15.037,33.584 -33.584,33.584 -18.547,0 -33.584,-15.037 -33.584,-33.584 0,-18.547 15.037,-33.584 33.584,-33.584 18.547,0 33.584,15.038 33.584,33.584"
           id="path950" />
        <path
           style="fill:#ffa800"
           d="m 151.129,344.235 c 0,18.547 -9.395,33.584 -20.99,33.584 -11.595,0 -20.99,-15.037 -20.99,-33.584 0,-18.547 9.395,-33.584 20.99,-33.584 11.595,0 20.99,15.038 20.99,33.584"
           id="path952" />
        <path
           style="fill:#ff8800"
           d="m 176.317,243.484 c 0,18.547 -15.037,33.584 -33.584,33.584 -18.547,0 -33.584,-15.037 -33.584,-33.584 0,-18.547 15.037,-33.584 33.584,-33.584 18.547,0 33.584,15.038 33.584,33.584"
           id="path954" />
        <path
           style="fill:#ffa800"
           d="m 151.129,243.484 c 0,18.547 -9.395,33.584 -20.99,33.584 -11.595,0 -20.99,-15.037 -20.99,-33.584 0,-18.547 9.395,-33.584 20.99,-33.584 11.595,0 20.99,15.038 20.99,33.584"
           id="path956" />
        <path
           d="M 444.986,486.97 H 41.983 C 18.837,486.97 0.004,468.137 0.004,444.991 V 142.738 c 0,-4.637 3.759,-8.396 8.396,-8.396 4.637,0 8.396,3.759 8.396,8.396 V 444.99 c 0,13.889 11.298,25.188 25.188,25.188 h 403.003 c 13.889,0 25.188,-11.298 25.188,-25.188 v -33.584 c 0,-4.641 3.755,-8.396 8.396,-8.396 4.641,0 8.396,3.755 8.396,8.396 v 33.584 c -0.002,23.147 -18.835,41.98 -41.981,41.98 z"
           id="path958" />
        <path
           d="m 478.569,352.628 c -4.641,0 -8.396,-3.755 -8.396,-8.396 V 41.979 c 0,-13.889 -11.298,-25.188 -25.188,-25.188 H 41.983 c -13.889,0 -25.188,11.298 -25.188,25.188 v 33.584 c 0,4.637 -3.759,8.396 -8.396,8.396 -4.637,0 -8.396,-3.759 -8.396,-8.396 V 41.979 C 0.003,18.833 18.836,0 41.983,0 h 403.003 c 23.146,0 41.979,18.833 41.979,41.979 v 302.252 c 0,4.641 -3.755,8.397 -8.396,8.397 z"
           id="path960" />
        <path
           d="m 16.795,109.15 c 0,4.635 -3.761,8.396 -8.396,8.396 -4.635,0 -8.396,-3.761 -8.396,-8.396 0,-4.635 3.761,-8.396 8.396,-8.396 4.635,0 8.396,3.761 8.396,8.396"
           id="path962" />
        <path
           d="m 486.965,377.819 c 0,4.635 -3.761,8.396 -8.396,8.396 -4.635,0 -8.396,-3.761 -8.396,-8.396 0,-4.635 3.761,-8.396 8.396,-8.396 4.635,0 8.396,3.761 8.396,8.396"
           id="path964" />
        <path
           d="m 344.235,285.46 c -23.146,0 -41.979,-18.833 -41.979,-41.975 0,-23.146 18.833,-41.979 41.979,-41.979 23.146,0 41.979,18.833 41.979,41.979 0,23.142 -18.833,41.975 -41.979,41.975 z m 0,-67.163 c -13.889,0 -25.188,11.298 -25.188,25.188 0,13.885 11.298,25.184 25.188,25.184 13.889,0 25.188,-11.298 25.188,-25.184 0,-13.889 -11.299,-25.188 -25.188,-25.188 z"
           id="path966" />
        <path
           d="m 142.733,285.46 c -23.146,0 -41.979,-18.833 -41.979,-41.975 0,-23.146 18.833,-41.979 41.979,-41.979 23.146,0 41.979,18.833 41.979,41.979 0.001,23.142 -18.833,41.975 -41.979,41.975 z m 0,-67.163 c -13.889,0 -25.188,11.298 -25.188,25.188 0,13.885 11.298,25.184 25.188,25.184 13.889,0 25.188,-11.298 25.188,-25.184 0,-13.889 -11.298,-25.188 -25.188,-25.188 z"
           id="path968" />
        <path
           d="m 142.733,386.211 c -23.146,0 -41.979,-18.833 -41.979,-41.979 0,-23.146 18.833,-41.979 41.979,-41.979 23.146,0 41.979,18.833 41.979,41.979 0.001,23.146 -18.833,41.979 -41.979,41.979 z m 0,-67.167 c -13.889,0 -25.188,11.298 -25.188,25.188 0,13.89 11.298,25.188 25.188,25.188 13.889,0 25.188,-11.298 25.188,-25.188 0,-13.89 -11.298,-25.188 -25.188,-25.188 z"
           id="path970" />
        <path
           d="m 142.733,184.714 c -23.146,0 -41.979,-18.833 -41.979,-41.979 0,-23.146 18.833,-41.979 41.979,-41.979 23.146,0 41.979,18.833 41.979,41.979 0,23.146 -18.833,41.979 -41.979,41.979 z m 0,-67.167 c -13.889,0 -25.188,11.298 -25.188,25.188 0,13.89 11.298,25.188 25.188,25.188 13.889,0 25.188,-11.298 25.188,-25.188 0,-13.89 -11.298,-25.188 -25.188,-25.188 z"
           id="path972" />
        <path
           d="m 344.235,386.211 c -23.146,0 -41.979,-18.833 -41.979,-41.979 0,-23.146 18.833,-41.979 41.979,-41.979 23.146,0 41.979,18.833 41.979,41.979 0,23.146 -18.833,41.979 -41.979,41.979 z m 0,-67.167 c -13.889,0 -25.188,11.298 -25.188,25.188 0,13.89 11.298,25.188 25.188,25.188 13.889,0 25.188,-11.298 25.188,-25.188 0,-13.89 -11.299,-25.188 -25.188,-25.188 z"
           id="path974" />
        <g
           id="g1054">
          <path
             id="path938"
             d="m 377.818,142.734 c 0,18.547 -15.037,33.584 -33.584,33.584 -18.547,0 -33.584,-15.037 -33.584,-33.584 0,-18.547 15.037,-33.584 33.584,-33.584 18.547,0 33.584,15.037 33.584,33.584"
             style="fill:#ff8800" />
          <path
             id="path940"
             d="m 352.631,142.734 c 0,18.547 -9.395,33.584 -20.99,33.584 -11.595,0 -20.99,-15.037 -20.99,-33.584 0,-18.547 9.395,-33.584 20.99,-33.584 11.595,0 20.99,15.037 20.99,33.584"
             style="fill:#ffa800" />
          <path
             id="path976"
             d="m 344.235,184.714 c -23.146,0 -41.979,-18.833 -41.979,-41.979 0,-23.146 18.833,-41.979 41.979,-41.979 23.146,0 41.979,18.833 41.979,41.979 0,23.146 -18.833,41.979 -41.979,41.979 z m 0,-67.167 c -13.889,0 -25.188,11.298 -25.188,25.188 0,13.89 11.298,25.188 25.188,25.188 13.889,0 25.188,-11.298 25.188,-25.188 0,-13.89 -11.299,-25.188 -25.188,-25.188 z" />
        </g>
        <path
           d="M 361.027,444.982 H 62.968 c -11.573,0 -20.99,-9.413 -20.99,-20.99 v -256.07 c 0,-4.637 3.759,-8.396 8.396,-8.396 4.637,0 8.396,3.759 8.396,8.396 v 256.071 c 0,2.312 1.882,4.198 4.198,4.198 h 298.058 c 4.641,0 8.396,3.755 8.396,8.396 0,4.641 -3.755,8.395 -8.395,8.395 z"
           id="path978" />
        <path
           d="M 423.996,444.991 H 394.61 c -4.641,0 -8.396,-3.755 -8.396,-8.396 0,-4.641 3.755,-8.396 8.396,-8.396 h 29.386 c 2.312,0 4.198,-1.886 4.198,-4.198 V 62.973 c 0,-2.316 -1.886,-4.198 -4.198,-4.198 H 62.972 c -2.316,0 -4.198,1.882 -4.198,4.198 v 37.782 c 0,4.637 -3.759,8.396 -8.396,8.396 -4.637,0 -8.396,-3.759 -8.396,-8.396 V 62.973 c 0,-11.573 9.417,-20.99 20.99,-20.99 h 361.023 c 11.577,0 20.99,9.417 20.99,20.99 v 361.028 c 10e-4,11.577 -9.412,20.99 -20.989,20.99 z"
           id="path980" />
        <path
           d="m 58.774,134.338 c 0,-4.635 -3.761,-8.396 -8.396,-8.396 -4.635,0 -8.396,3.761 -8.396,8.396 0,4.635 3.761,8.396 8.396,8.396 4.635,0 8.396,-3.762 8.396,-8.396"
           id="path982" />
        <g
           id="g1070"
           transform="translate(-101.67559,100.75)">
          <path
             id="path1064"
             d="m 377.818,142.734 c 0,18.547 -15.037,33.584 -33.584,33.584 -18.547,0 -33.584,-15.037 -33.584,-33.584 0,-18.547 15.037,-33.584 33.584,-33.584 18.547,0 33.584,15.037 33.584,33.584"
             style="fill:#ff8800" />
          <path
             id="path1066"
             d="m 352.631,142.734 c 0,18.547 -9.395,33.584 -20.99,33.584 -11.595,0 -20.99,-15.037 -20.99,-33.584 0,-18.547 9.395,-33.584 20.99,-33.584 11.595,0 20.99,15.037 20.99,33.584"
             style="fill:#ffa800" />
          <path
             id="path1068"
             d="m 344.235,184.714 c -23.146,0 -41.979,-18.833 -41.979,-41.979 0,-23.146 18.833,-41.979 41.979,-41.979 23.146,0 41.979,18.833 41.979,41.979 0,23.146 -18.833,41.979 -41.979,41.979 z m 0,-67.167 c -13.889,0 -25.188,11.298 -25.188,25.188 0,13.89 11.298,25.188 25.188,25.188 13.889,0 25.188,-11.298 25.188,-25.188 0,-13.89 -11.299,-25.188 -25.188,-25.188 z" />
        </g>
      </g>
    </g>
  </g>
</svg>
