<?xml version="1.0" encoding="UTF-8" standalone="no"?>
<svg
   xmlns:dc="http://purl.org/dc/elements/1.1/"
   xmlns:cc="http://creativecommons.org/ns#"
   xmlns:rdf="http://www.w3.org/1999/02/22-rdf-syntax-ns#"
   xmlns:svg="http://www.w3.org/2000/svg"
   xmlns="http://www.w3.org/2000/svg"
   xmlns:sodipodi="http://sodipodi.sourceforge.net/DTD/sodipodi-0.dtd"
   xmlns:inkscape="http://www.inkscape.org/namespaces/inkscape"
   width="512"
   height="512"
   viewBox="0 0 135.46666 135.46667"
   version="1.1"
   id="svg6026"
   inkscape:version="1.0 (4035a4fb49, 2020-05-01)"
   sodipodi:docname="07.svg">
  <defs
     id="defs6020" />
  <sodipodi:namedview
     id="base"
     pagecolor="#ffffff"
     bordercolor="#666666"
     borderopacity="1.0"
     inkscape:pageopacity="0.0"
     inkscape:pageshadow="2"
     inkscape:zoom="0.7"
     inkscape:cx="400"
     inkscape:cy="420.95238"
     inkscape:document-units="mm"
     inkscape:current-layer="layer1"
     inkscape:document-rotation="0"
     showgrid="false"
     units="px"
     inkscape:window-width="1920"
     inkscape:window-height="1001"
     inkscape:window-x="-9"
     inkscape:window-y="-9"
     inkscape:window-maximized="1" />
  <metadata
     id="metadata6023">
    <rdf:RDF>
      <cc:Work
         rdf:about="">
        <dc:format>image/svg+xml</dc:format>
        <dc:type
           rdf:resource="http://purl.org/dc/dcmitype/StillImage" />
        <dc:title />
      </cc:Work>
    </rdf:RDF>
  </metadata>
  <g
     inkscape:label="Layer 1"
     inkscape:groupmode="layer"
     id="layer1">
    <g
       transform="matrix(0.12211433,0,0,0.12211433,72.495922,32.837818)"
       id="XMLID_407_">
      <g
         id="XMLID_1090_">
        <g
           id="XMLID_1270_">
          <path
             id="XMLID_372_"
             d="m 316.151,155.043 57.703,-49.924 C 386.694,94.01 402.673,87.296 419.47,85.833 l 10.394,-27.64 h -30.23 c -34.346,0 -67.797,10.951 -95.494,31.261 -22.257,16.321 -39.959,38.075 -51.417,63.184 l -12.555,27.512 h 13.094 c 23.138,-1.077 45.301,-9.89 62.889,-25.107 z"
             fill="#c68a65" />
        </g>
        <g
           id="XMLID_410_">
          <path
             id="XMLID_325_"
             d="m 69.171,359.524 -4.073,-42.509 c -3.134,-12.577 -7.993,-24.734 -14.346,-36.176 -5.322,-9.586 -8.386,-20.598 -8.472,-32.32 -0.107,-14.667 4.553,-28.224 12.486,-39.335 l -0.002,-0.026 C 30.041,209.157 10,229.198 10,253.919 v 106.883 c 0,25.307 11.969,49.122 32.278,64.222 l 0.325,-0.332 c 17.031,-17.416 26.568,-40.807 26.569,-65.166 v -0.002 z"
             fill="#c68a65" />
        </g>
        <g
           id="XMLID_1842_">
          <path
             id="XMLID_278_"
             d="M 177.611,315.764 H 131.88 l -22.376,59.726 v 71.107 l 5.011,10.247 c 2.129,4.353 -0.544,9.348 -5.039,10.26 v 0.161 h 38.841 c 5.354,0 8.856,-5.611 6.504,-10.42 l -5.011,-10.247 v -71.107 z"
             fill="#c68a65" />
        </g>
        <g
           id="XMLID_1235_">
          <path
             id="XMLID_277_"
             d="m 231.028,315.765 -32.145,140.144 c -1.333,5.812 3.083,11.356 9.046,11.356 h 30.151 c 6.864,0 11.353,-7.192 8.337,-13.358 l -3.574,-7.308 33.935,-126.083 z"
             fill="#c68a65" />
        </g>
        <g
           id="XMLID_1234_">
          <path
             id="XMLID_267_"
             d="m 494.899,144.04 -37.3,-44.273 c -7.824,-9.045 -19.193,-14.243 -31.152,-14.243 -19.316,0 -37.985,6.956 -52.593,19.594 l -57.703,49.925 c -18.803,16.268 -42.835,25.222 -67.699,25.222 H 111.005 c -37.772,0 -69.001,30.483 -68.725,68.254 0.086,11.722 3.149,22.734 8.471,32.32 11.729,21.126 18.42,44.673 18.42,68.837 v 110.35 c 0,3.998 3.241,7.24 7.24,7.24 h 31.601 c 5.354,0 8.856,-5.611 6.504,-10.42 l -5.011,-10.247 v -71.107 l 22.376,-59.726 H 265.45 c 13.344,0 24.162,10.818 24.162,24.162 v 120.098 c 0,3.998 3.241,7.24 7.24,7.24 h 31.601 c 5.354,0 8.856,-5.611 6.504,-10.42 l -5.011,-10.247 V 371.69 c 0,-27.332 14.412,-52.336 37.458,-67.03 19.766,-12.602 32.875,-34.714 32.875,-59.895 v -24.5 l 25.709,-45.537 35.324,15.128 c 13.904,6.003 30.089,0.354 37.238,-12.998 5.696,-10.64 4.244,-23.69 -3.651,-32.818 z"
             fill="#d1a184" />
        </g>
      </g>
      <g
         id="XMLID_373_">
        <path
           id="XMLID_374_"
           d="m 438.57,139.298 c 1.86,-1.86 2.93,-4.44 2.93,-7.07 0,-2.63 -1.07,-5.21 -2.93,-7.07 -1.86,-1.86 -4.44,-2.93 -7.07,-2.93 -2.63,0 -5.21,1.07 -7.07,2.93 -1.86,1.86 -2.93,4.44 -2.93,7.07 0,2.63 1.07,5.21 2.93,7.07 1.86,1.86 4.44,2.93 7.07,2.93 2.63,0 5.21,-1.07 7.07,-2.93 z" />
        <path
           id="XMLID_377_"
           d="M 502.508,137.552 465.246,93.324 c -0.028,-0.033 -0.056,-0.066 -0.085,-0.099 -4.61,-5.329 -10.21,-9.566 -16.402,-12.566 V 44.691 c 0,-4.417 -2.898,-8.31 -7.128,-9.579 -4.231,-1.267 -8.792,0.388 -11.222,4.077 l -5.932,9.003 h -24.845 c -36.726,0 -71.792,11.479 -101.407,33.197 -23.581,17.291 -42.461,40.493 -54.602,67.097 l -9.938,21.778 h -32.681 c -5.523,0 -10,4.477 -10,10 0,5.523 4.477,10 10,10 h 47.448 c 27.26,0 53.626,-9.823 74.241,-27.659 l 57.703,-49.924 c 12.787,-11.064 29.141,-17.157 46.05,-17.157 9.043,0 17.623,3.915 23.55,10.741 l 37.255,44.219 c 0.028,0.033 0.056,0.066 0.084,0.099 5.15,5.953 6.113,14.615 2.398,21.555 -4.657,8.698 -15.4,12.446 -24.486,8.525 l -35.324,-15.127 c -4.688,-2.008 -10.137,-0.166 -12.645,4.276 l -25.709,45.537 c -0.847,1.5 -1.292,3.194 -1.292,4.916 v 24.5 c 0,20.946 -10.561,40.184 -28.251,51.462 -26.351,16.8 -42.083,45.01 -42.083,75.462 v 74.909 c 0,1.522 0.348,3.025 1.017,4.393 l 3.068,6.274 H 299.61 V 339.927 c 0,-18.837 -15.325,-34.162 -34.162,-34.162 H 146.305 l 5.337,-14.246 c 1.938,-5.172 -0.684,-10.935 -5.856,-12.872 -5.172,-1.939 -10.935,0.684 -12.873,5.856 l -32.774,87.48 c -0.42,1.122 -0.636,2.31 -0.636,3.508 v 71.107 c 0,1.523 0.348,3.025 1.017,4.394 l 3.068,6.273 H 79.171 V 349.676 c 0,-25.054 -6.798,-50.526 -19.661,-73.662 -4.66,-8.381 -7.16,-17.914 -7.231,-27.567 -0.111,-15.274 5.825,-29.728 16.715,-40.697 11.193,-11.274 26.113,-17.484 42.011,-17.484 5.523,0 10,-4.477 10,-10 0,-5.523 -4.477,-10 -10,-10 -21.268,0 -41.229,8.308 -56.205,23.394 -1.831,1.845 -3.558,3.763 -5.179,5.748 C 21.828,202.007 0,225.458 0,253.919 v 106.883 c 0,28.333 13.574,55.342 36.311,72.247 1.783,1.325 3.878,1.975 5.963,1.975 2.612,0 5.208,-1.02 7.153,-3.008 l 0.324,-0.332 c 3.422,-3.499 6.563,-7.204 9.419,-11.082 v 39.422 c 0,9.506 7.734,17.24 17.24,17.24 h 71.905 c 5.987,0 11.455,-3.032 14.625,-8.111 3.17,-5.079 3.493,-11.323 0.862,-16.702 l -3.994,-8.167 v -66.579 l 24.177,-51.94 h 34.488 l -29.339,127.909 c -1.32,5.756 0.033,11.706 3.712,16.324 3.679,4.618 9.176,7.267 15.081,7.267 h 30.151 c 6.696,0 12.811,-3.391 16.356,-9.072 3.545,-5.681 3.906,-12.663 0.964,-18.68 l -1.926,-3.938 26.137,-97.11 v 111.56 c 0,9.506 7.734,17.24 17.24,17.24 h 31.601 c 5.987,0 11.454,-3.032 14.625,-8.111 3.17,-5.079 3.493,-11.323 0.862,-16.702 l -3.994,-8.168 V 371.69 c 0,-23.584 12.274,-45.49 32.834,-58.598 23.48,-14.97 37.499,-40.513 37.499,-68.327 v -21.872 l 20.011,-35.444 27.059,11.587 c 18.522,7.997 40.494,0.329 50.018,-17.458 7.589,-14.17 5.634,-31.854 -4.856,-44.026 z M 367.31,97.556 309.607,147.48 c -15.118,13.081 -33.993,20.912 -53.797,22.477 l 6.009,-13.168 c 10.724,-23.5 27.403,-43.996 48.233,-59.271 26.162,-19.184 57.138,-29.325 89.58,-29.325 h 11.666 l -6.595,10.009 c -13.716,3.402 -26.555,9.977 -37.393,19.354 z M 41.289,411.075 C 27.827,397.986 20,379.776 20,360.802 V 253.919 c 0,-12.213 6.337,-22.967 15.889,-29.169 -2.421,7.62 -3.669,15.638 -3.609,23.842 0.095,12.996 3.467,25.838 9.75,37.14 11.213,20.171 17.141,42.282 17.141,63.944 v 9.871 c -0.005,18.902 -6.299,36.897 -17.882,51.528 z m 99.454,-39.804 c -0.615,1.322 -0.934,2.762 -0.934,4.22 v 71.107 c 0,1.523 0.348,3.025 1.017,4.393 l 3.068,6.273 h -18.863 c -0.27,-1.644 -0.775,-3.265 -1.532,-4.814 l -3.995,-8.167 v -66.98 l 19.308,-51.538 h 23.114 z m 92.443,72.728 c -0.629,2.335 -0.39,4.82 0.673,6.993 l 3.068,6.273 H 208.83 l 30.163,-131.5 h 26.015 z" />
        <path
           id="XMLID_501_"
           d="m 156.01,190.268 c 2.63,0 5.2,-1.07 7.07,-2.93 1.86,-1.86 2.93,-4.44 2.93,-7.07 0,-2.64 -1.07,-5.21 -2.93,-7.07 -1.87,-1.87 -4.44,-2.93 -7.07,-2.93 -2.64,0 -5.21,1.06 -7.08,2.93 -1.86,1.86 -2.92,4.43 -2.92,7.07 0,2.63 1.06,5.21 2.92,7.07 1.86,1.86 4.44,2.93 7.08,2.93 z" />
      </g>
    </g>
    <g
       transform="matrix(0.14550815,0,0,0.14550815,0.45652021,26.66001)"
       id="g7542">
      <path
         d="m 384.23047,289.9375 c -4.01172,22.875 -12.28906,44.78906 -24.40625,64.59766 -6.23047,-14.50782 -25.34375,59.98828 -41.72656,45.57031 H 109.03125 c -2.60937,2.47265 -6.69531,2.47265 -9.300781,0 C 85.988281,389.94922 72.335938,342.67578 67.300781,354.53516 55.183594,334.72656 46.90625,312.8125 42.898438,289.9375 33.082031,236.09375 40.167969,167.99609 60.816406,129.42578 c 1.109375,0 20.734375,-76.968749 23.125,-82.347655 0.03516,-0.121094 0.08984,-0.238281 0.171875,-0.339844 l 235.433589,2.132813 c 1.10938,0 45.65235,80.554686 46.76172,80.554686 20.65235,38.57031 27.73438,106.66797 17.92188,160.51172 z m 0,0"
         fill="#ad1457"
         id="path7357" />
      <path
         d="m 350.09766,289.9375 c -4.01172,22.875 -12.28907,44.78906 -24.40625,64.59766 -5.03516,-11.85938 -18.6875,35.41406 -32.42579,45.57031 -2.60937,2.47265 -6.69531,2.47265 -9.30078,0 H 99.730469 C 85.988281,389.94922 72.335938,342.67578 67.300781,354.53516 55.183594,334.72656 46.90625,312.8125 42.898438,289.9375 33.082031,236.09375 40.167969,167.99609 60.816406,129.42578 c 1.109375,0 20.734375,-76.968749 23.125,-82.347655 l 201.472654,1.792969 c 1.10938,0 45.65235,80.554686 46.76172,80.554686 20.65234,38.57031 27.73438,106.66797 17.92188,160.51172 z m 0,0"
         fill="#e91e63"
         id="path7359" />
      <path
         d="m 213.5625,306.91797 62.93359,155.82031 -62.93359,11.19531 C 163.13281,473.84766 107.92187,407.01562 75.835938,354.53516 83.285156,336.23047 94.609375,319.75 109.03125,306.23828 c 8.0625,-7.23047 17.49219,-12.77344 27.73047,-16.30078 49.49609,-16.46875 75.00781,14.84766 76.80078,16.98047 z m 0,0"
         fill="#ef314c"
         id="path7361" />
      <path
         d="m 351.29297,354.53516 c -23.04688,38.03906 -60.19141,65.42968 -103.33984,76.20312 -11.22266,2.79297 -22.73829,4.22656 -34.30469,4.26563 h -0.0859 V 306.91797 c 4.3125,-5.0586 9.44922,-9.35938 15.19141,-12.71094 18.85937,-10.58203 41.46875,-12.14453 61.60937,-4.26953 10.24219,3.52734 19.67188,9.07031 27.73438,16.30078 14.42187,13.51172 25.74609,29.99219 33.19531,48.29688 z m 0,0"
         fill="#bb193b"
         id="path7363" />
      <path
         d="m 332.66406,379.53906 c -19.45703,31.82813 -54.41797,38.21094 -84.71094,51.19922 -11.22265,2.79297 -22.73828,4.22656 -34.30468,4.26563 h -0.0859 V 306.91797 c 4.3125,-5.0586 9.44922,-9.35938 15.19141,-12.71094 12.17187,-1.26172 24.46875,0.19531 36.00781,4.26563 10.24219,3.52343 19.67187,9.0664 27.73437,16.29687 16.38282,14.42188 33.9375,50.26172 40.16797,64.76953 z m 0,0"
         fill="#ef314c"
         id="path7365" />
      <path
         d="m 200.76172,222.60937 c -0.33985,-1.77343 -0.33985,-3.59765 0,-5.375 0.34375,1.77735 0.34375,3.60157 0,5.375 z m 0,0"
         fill="#37474f"
         id="path7367" />
      <path
         d="m 318.09766,306.23828 c -7.16797,-6.39062 -15.39844,-11.47656 -24.32032,-15.01953 0.30469,-26.1875 -10.1914,-51.33984 -29.01562,-69.54688 -7.45313,-7.93359 -16.57422,-14.11328 -26.70703,-18.08984 11.77343,-5.375 30.97656,-3.24219 52.30859,18.08984 22.56641,21.92579 32.93359,53.53516 27.73438,84.56641 z m 0,0"
         fill="#37474f"
         id="path7369" />
      <path
         d="m 293.77734,291.21875 c -1.10937,-0.51172 -2.21875,-0.85547 -3.41406,-1.28125 -12.83984,-4.61328 -26.64453,-5.875 -40.10547,-3.66797 h -0.0859 c -14.19922,2.51563 -27.11329,9.80078 -36.60938,20.64844 -3.67187,-4.35156 -7.98828,-8.1211 -12.80078,-11.17578 -14.66016,-9.33594 -32.33203,-12.72657 -49.40625,-9.47266 h -0.0859 c -4.92578,0.83984 -9.77344,2.06641 -14.50781,3.66797 -10.23828,3.52734 -19.66797,9.07031 -27.73047,16.30078 -0.80469,-4.96875 -1.23437,-9.98828 -1.28125,-15.01953 -0.30469,-26.1875 10.1875,-51.33984 29.01172,-69.54688 7.45312,-7.93359 16.57812,-14.11328 26.71094,-18.08984 h 0.0859 c 20.3086,-7.25391 35.15625,2.55859 37.20313,13.65234 -0.33984,1.77735 -0.33984,3.60157 0,5.375 -0.66797,2.88672 -2.14844,5.52344 -4.26563,7.59766 -13.82421,13.82031 -10.83593,33.10547 4.26563,40.01953 3.98828,1.82031 8.33203,2.72266 12.71484,2.64453 h 0.17188 c 25.51562,-0.0859 34.04687,-25.59765 16.98047,-42.66406 -8.53125,-8.53516 -4.26563,-21.25 7.33984,-26.625 h 0.0859 c 10.13281,3.97656 19.2539,10.15625 26.70703,18.08984 18.82422,18.20704 29.32031,43.35938 29.01562,69.54688 z m 0,0"
         fill="#607d8b"
         id="path7371" />
      <path
         d="m 200.76172,222.60937 c -0.33985,-1.77343 -0.33985,-3.59765 0,-5.375 0.34375,1.77735 0.34375,3.60157 0,5.375 z m 0,0"
         fill="#37474f"
         id="path7373" />
      <path
         d="m 320.65625,102.88672 c -2.92969,2.99609 -4.60938,6.99219 -4.69141,11.17969 v 3.58593 c -1.45312,-6.3164 -7.67968,-13.39843 -22.53125,-13.39843 -2.60547,-0.0117 -5.20703,0.24609 -7.76172,0.76562 -4.49609,0.85547 -8.76562,2.62891 -12.54687,5.20703 -1.09766,0.78907 -2.12891,1.67578 -3.07031,2.64453 h -0.0859 c -3.21484,3.08985 -5.08594,7.32032 -5.20703,11.77735 v -4.09766 c 0,-2.58203 -0.61328,-5.125 -1.78906,-7.42187 -4.15235,-7.54297 -12.4336,-11.85157 -20.99219,-10.92188 -7.26172,-0.11719 -14.33984,2.26172 -20.05469,6.73828 -0.76953,0.58985 -1.48437,1.2461 -2.13281,1.96485 h -0.0859 c -3.85156,3.75 -6.05859,8.875 -6.14453,14.25 -0.0352,-4.98438 -1.95703,-9.76953 -5.375,-13.39844 h -0.0859 c -0.85937,-1.04297 -1.83203,-1.98828 -2.90234,-2.81641 -5.71484,-4.47656 -12.79297,-6.85547 -20.05078,-6.73828 -7.74219,-0.71875 -15.29297,2.6836 -19.88281,8.95703 -1.8711,2.77735 -2.88282,6.04297 -2.90235,9.38672 v 4.09766 c -0.20312,-5.41797 -2.91797,-10.4336 -7.33984,-13.57031 -0.32031,-0.3086 -0.66016,-0.59375 -1.02344,-0.85157 -6.00391,-4.00781 -13.08984,-6.09375 -20.30859,-5.97265 -7.96875,-0.91407 -15.82813,2.46484 -20.65235,8.875 -0.875,1.39062 -1.50781,2.91797 -1.875,4.52343 v -7.68359 c -0.0547,-2.99609 -1.07031,-5.89844 -2.90234,-8.27734 l 1.02344,-0.76563 h 0.17187 c 7.6836,-5.58203 15.85156,-10.468749 24.40625,-14.593749 0.0859,0 0.0859,-0.08594 0.16797,-0.08594 2.81641,-1.363282 5.63281,-2.644532 8.53516,-3.839844 48.40234,-20.371094 103.22656,-18.972656 150.52734,3.839844 0.0859,0 0.0859,0.08594 0.17187,0.08594 8.55469,4.125 16.72266,9.011719 24.40625,14.593749 h 0.16797 c 0.94141,0.6836 1.87891,1.36328 2.81641,1.96094 z m 0,0"
         fill="#bb193b"
         id="path7375" />
      <path
         d="m 285.67187,105.01953 c -4.49609,0.85547 -8.76562,2.62891 -12.54687,5.20703 -1.09766,0.78907 -2.12891,1.67578 -3.07031,2.64453 h -0.0859 c -0.70703,-0.0703 -1.42188,-0.10156 -2.13281,-0.0859 -1.62891,-0.0156 -3.25391,0.0977 -4.86328,0.34375 -4.15235,-7.54297 -12.4336,-11.85157 -20.99219,-10.92188 -7.26172,-0.11719 -14.33985,2.26172 -20.05469,6.73828 -0.76953,0.58985 -1.48437,1.2461 -2.13281,1.96485 h -0.0859 c -1.10937,-0.0859 -2.13281,-0.17188 -3.32812,-0.17188 -2.76172,-0.0117 -5.51563,0.33203 -8.19141,1.02344 h -0.0859 c -0.85937,-1.04297 -1.83203,-1.98828 -2.90234,-2.81641 -5.71485,-4.47656 -12.79297,-6.85547 -20.05078,-6.73828 -7.74219,-0.71875 -15.29297,2.6836 -19.88282,8.95703 -1.89453,-0.26953 -3.80468,-0.41406 -5.71875,-0.42578 -1.51562,-0.0234 -3.02734,0.0898 -4.52343,0.33985 -0.32032,-0.3086 -0.66016,-0.59375 -1.02344,-0.85157 -6.00391,-4.00781 -13.08984,-6.09375 -20.30859,-5.97265 -7.96875,-0.91407 -15.82813,2.46484 -20.65235,8.875 l -1.875,-0.25782 31.40235,-30.46484 c 14.8164,-3.890625 30.07812,-5.839844 45.39843,-5.800781 27.54297,-0.02344 54.73047,6.191406 79.52735,18.175781 0.0859,0 0.0859,0.08594 0.17187,0.08594 6.21485,2.992187 12.23047,6.38672 18.00781,10.15234 z m 0,0"
         fill="#ef314c"
         id="path7377" />
      <path
         d="m 213.5625,116.625 v 27.5625 c -0.64844,5.64844 -5.6875,9.74219 -11.34766,9.21875 h -28.5039 c -5.65625,0.52344 -10.69922,-3.57031 -11.34766,-9.21875 v -32.16797 c 0,-7.59765 5.71875,-18.347655 22.78516,-18.347655 7.25781,-0.113281 14.33593,2.265625 20.05078,6.742185 5.13281,3.83203 8.21484,9.8086 8.36328,16.21094 z m 0,0"
         fill="#fac176"
         id="path7379" />
      <path
         d="m 162.36328,116.11328 v 23.46875 c 0,5.11719 -5.80078,9.21484 -12.88672,9.21484 h -25.76953 c -7.16797,0 -12.88672,-4.09765 -12.88672,-9.21484 v -8.44922 c 0.23828,-0.65625 0.35547,-1.35156 0.34375,-2.04687 v -19.96875 c 1.44922,-6.31641 7.67969,-13.39844 22.52735,-13.39844 7.21875,-0.117188 14.30468,1.964844 20.30859,5.97266 4.96875,3.16406 8.08594,8.54297 8.36328,14.42187 z m 0,0"
         fill="#fac176"
         id="path7381" />
      <path
         d="m 264.76172,112.01953 v 32.16797 c -0.64844,5.64844 -5.6875,9.74219 -11.34766,9.21875 h -28.5 c -5.66015,0.52344 -10.70312,-3.57031 -11.35156,-9.21875 V 116.625 c 0.14844,-6.40234 3.23438,-12.37891 8.36328,-16.21094 5.71485,-4.47656 12.79297,-6.855466 20.05469,-6.742185 17.0664,0 22.78125,10.750005 22.78125,18.347655 z m 0,0"
         fill="#fac176"
         id="path7383" />
      <path
         d="m 316.30469,131.13281 v 8.44922 c 0,5.11719 -5.71875,9.21484 -12.88672,9.21484 h -25.76953 c -7.08203,0 -12.88672,-4.09765 -12.88672,-9.21484 v -23.46875 c 0.27734,-5.8789 3.39844,-11.25781 8.36328,-14.42187 6.00781,-4.007816 13.08984,-6.089848 20.30859,-5.97266 14.85157,0 21.07813,7.08203 22.53125,13.39844 v 19.96875 c -0.0117,0.69531 0.10157,1.39062 0.33985,2.04687 z m 0,0"
         fill="#fac176"
         id="path7385" />
      <path
         d="m 143.07812,9.105469 c 15.78516,1.820312 31.04688,6.78125 44.88672,14.59375 4.10547,-2.390625 8.38282,-4.472657 12.79688,-6.230469 -18.20703,-7.632812 -38.0586,-10.511719 -57.6836,-8.363281 z m 204.03125,32.34375 c -22.69921,-24.3125 -55.64062,-36.328125 -88.66015,-32.34375 24.07422,3.332031 46.30859,14.734375 63.0625,32.34375 80.55469,80.468751 89,230.910151 44.45703,346.367191 -36.01172,93.52343 -130.47656,111.27343 -165.03516,114.6875 7.9375,0.76953 12.62891,0.76953 12.62891,0.76953 0,0 133.54687,0 178.00781,-115.45703 44.45703,-115.45704 36.09375,-265.89844 -44.46094,-346.367191 z m 0,0"
         fill="#c81e1e"
         id="path7387" />
      <path
         d="m 200.76172,17.46875 c 4.41797,1.757812 8.69531,3.839844 12.80078,6.230469 13.83984,-7.8125 29.10156,-12.773438 44.88672,-14.59375 -19.62891,-2.148438 -39.47656,0.730469 -57.6875,8.363281 z m 0,0"
         fill="#c81e1e"
         id="path7389" />
      <path
         d="M 321.51172,41.449219 C 304.75781,23.839844 282.52344,12.4375 258.44922,9.105469 c -15.78516,1.820312 -31.04688,6.78125 -44.88672,14.59375 -4.10547,-2.390625 -8.38281,-4.472657 -12.80078,-6.230469 -4.41406,1.757812 -8.69141,3.839844 -12.79688,6.230469 -13.83984,-7.8125 -29.10156,-12.773438 -44.88671,-14.59375 -24.07422,3.332031 -46.308599,14.734375 -63.062505,32.34375 -80.554687,80.468751 -89,230.910151 -44.457031,346.367191 36.011718,93.52343 130.472656,111.27343 165.035156,114.6875 h 0.33984 c 34.5586,-3.41407 129.02344,-21.16407 165.03516,-114.6875 44.54297,-115.45704 36.09766,-265.89844 -44.45703,-346.367191 z m 29.78125,313.085941 c -29.07031,48.6289 -81.00781,78.99218 -137.64453,80.46875 h -0.17188 c -4.24609,0.0273 -8.49218,-0.19922 -12.71484,-0.67969 C 148.93359,428.73437 102.70313,399.21094 75.835938,354.53516 63.71875,334.72656 55.441406,312.8125 51.429688,289.9375 41.617188,236.09375 48.699219,185.0625 69.351562,146.49219 75.625,134.59766 83.554688,123.65234 92.902344,113.98047 L 93.5,113.38281 c 4.65625,-4.21875 9.58594,-8.125 14.76172,-11.6914 l 1.02344,-0.76563 h 0.17187 c 7.6836,-5.58203 15.85156,-10.468749 24.40625,-14.593749 0.0859,0 0.0859,-0.08594 0.16797,-0.08594 20.90625,-10.113282 43.5625,-16.113282 66.73047,-17.664063 4.18359,-0.339843 8.44922,-0.511719 12.80078,-0.511719 27.54297,-0.02344 54.73437,6.191407 79.53125,18.175782 0.0859,0 0.0859,0.08594 0.17187,0.08594 8.55469,4.125 16.72266,9.011719 24.40625,14.593749 h 0.16797 c 0.94141,0.6836 1.87891,1.36328 2.81641,1.96094 4.50391,3.26953 8.83594,6.77344 12.97266,10.49609 l 0.16797,0.17188 0.17187,0.17187 0.25781,0.25391 c 9.34766,9.67187 17.27735,20.61719 23.55078,32.51172 20.64844,38.57031 27.73438,89.60156 17.91797,143.44531 -4.00781,22.875 -12.28906,44.78906 -24.40234,64.59766 z m 0,0"
         fill="#f44335"
         id="path7391" />
      <path
         d="m 213.5625,125.16016 v 27.5625 c -0.64844,5.64453 -5.6875,9.73828 -11.34766,9.21484 h -28.5039 c -5.65625,0.52344 -10.69922,-3.57031 -11.34766,-9.21484 v -32.17188 c 0.21094,-8.35937 6.08594,-15.5039 14.25,-17.32031 h 0.0859 c 9.875,-2.49219 20.35156,-0.39063 28.5,5.71484 5.13281,3.83203 8.21484,9.8125 8.36328,16.21485 z m 0,0"
         fill="#cfd8dc"
         id="path7393" />
      <path
         d="m 162.36328,124.64844 v 23.46484 c 0,5.12109 -5.80078,9.21875 -12.88672,9.21875 h -25.76953 c -7.16797,0 -12.88672,-4.09766 -12.88672,-9.21875 v -8.44531 c 0.23828,-0.65625 0.35547,-1.35156 0.34375,-2.05078 v -19.96485 c 1.8086,-6.54687 7.28516,-11.42187 13.99219,-12.46093 2.80078,-0.64844 5.66406,-0.96485 8.53516,-0.9375 7.21875,-0.1211 14.30468,1.96484 20.30859,5.97265 4.96875,3.16016 8.08594,8.53907 8.36328,14.42188 z m 0,0"
         fill="#cfd8dc"
         id="path7395" />
      <path
         d="m 264.76172,120.55078 v 32.17188 c -0.64844,5.64453 -5.6875,9.73828 -11.34766,9.21484 h -28.5 c -5.66015,0.52344 -10.70312,-3.57031 -11.35156,-9.21484 v -27.5625 c 0.14844,-6.40235 3.23438,-12.38282 8.36328,-16.21485 3.37891,-2.67187 7.26953,-4.61718 11.4336,-5.71484 h 0.0859 c 2.79297,-0.69141 5.66016,-1.03516 8.53516,-1.02344 17.0664,0 22.78125,10.75 22.78125,18.34375 z m 0,0"
         fill="#cfd8dc"
         id="path7397" />
      <path
         d="m 316.30469,139.66797 v 8.44531 c 0,5.12109 -5.71875,9.21875 -12.88672,9.21875 h -25.76953 c -7.08203,0 -12.88672,-4.09766 -12.88672,-9.21875 v -23.46484 c 0.27734,-5.88281 3.39844,-11.26172 8.36328,-14.42188 3.53906,-2.46875 7.54687,-4.18359 11.77734,-5.03515 2.80078,-0.6211 5.66407,-0.9336 8.53125,-0.9375 14.85157,0 21.07813,7.08203 22.53125,13.39843 v 19.96485 c -0.0117,0.69922 0.10157,1.39453 0.33985,2.05078 z m 0,0"
         fill="#cfd8dc"
         id="path7399" />
      <g
         fill="#f5f5f5"
         id="g7413">
        <path
           d="m 196.49609,125.16016 v 27.5625 c -0.64843,5.64453 -5.6875,9.73828 -11.34765,9.21484 h -11.4375 c -5.65625,0.52344 -10.69922,-3.57031 -11.34766,-9.21484 v -32.17188 c 0.21094,-8.35937 6.08594,-15.5039 14.25,-17.32031 h 0.0859 c 4.16406,1.09766 8.05469,3.04297 11.43359,5.71484 5.13281,3.83203 8.21485,9.8125 8.36328,16.21485 z m 0,0"
           id="path7401" />
        <path
           d="m 145.29687,124.64844 v 23.46484 c 0,5.12109 -5.80468,9.21875 -12.88671,9.21875 h -8.70313 c -7.16797,0 -12.88672,-4.09766 -12.88672,-9.21875 v -8.44531 c 0.23828,-0.65625 0.35547,-1.35156 0.34375,-2.05078 v -19.96485 c 1.8086,-6.54687 7.28516,-11.42187 13.99219,-12.46093 4.23047,0.85156 8.24219,2.5664 11.77734,5.03515 4.96875,3.16016 8.08594,8.53907 8.36328,14.42188 z m 0,0"
           id="path7403" />
        <path
           d="m 247.69531,120.55078 v 32.17188 c -0.64844,5.64453 -5.6875,9.73828 -11.34765,9.21484 h -11.4336 c -5.66015,0.52344 -10.70312,-3.57031 -11.35156,-9.21484 v -27.5625 c 0.14844,-6.40235 3.23437,-12.38282 8.36328,-16.21485 3.37891,-2.67187 7.26953,-4.61718 11.43359,-5.71484 h 0.0859 c 8.16406,1.81641 14.03906,8.96094 14.25,17.32031 z m 0,0"
           id="path7405" />
        <path
           d="m 299.23828,139.66797 v 8.44531 c 0,5.12109 -5.71875,9.21875 -12.88672,9.21875 h -8.70312 c -7.08203,0 -12.88672,-4.09766 -12.88672,-9.21875 v -23.46484 c 0.27734,-5.88281 3.39844,-11.26172 8.36328,-14.42188 3.53906,-2.46875 7.54687,-4.18359 11.77734,-5.03515 6.71094,1.03906 12.1875,5.91406 13.9961,12.46093 v 19.96485 c -0.0117,0.69922 0.10156,1.39453 0.33984,2.05078 z m 0,0"
           id="path7407" />
        <path
           d="m 357.77734,146.49219 c -1.04297,0.17578 -2.10156,0.26172 -3.15625,0.25781 h -25.77343 c -5.24219,0.46094 -10.23047,-2.35547 -12.54297,-7.08203 v -19.11719 c 0.008,-0.97656 -0.10547,-1.95312 -0.33985,-2.89844 v -3.58593 c 0.082,-4.1875 1.76172,-8.1836 4.69141,-11.17969 4.50391,3.26953 8.83594,6.77344 12.97266,10.49609 l 0.16797,0.17188 0.17187,0.17187 0.25781,0.25391 c 9.34766,9.67187 17.27735,20.61719 23.55078,32.51172 z m 0,0"
           id="path7409" />
        <path
           d="m 111.16406,109.96875 v 7.68359 c -0.23437,0.94532 -0.35156,1.92188 -0.34375,2.89844 v 19.11719 c -2.3125,4.72656 -7.29687,7.54297 -12.542966,7.08203 H 72.507812 c -1.058593,0.004 -2.113281,-0.082 -3.15625,-0.25781 C 75.625,134.59766 83.554688,123.65234 92.902344,113.98047 L 93.5,113.38281 c 4.65625,-4.21875 9.58594,-8.125 14.76172,-11.6914 1.83203,2.3789 2.84766,5.28125 2.90234,8.27734 z m 0,0"
           id="path7411" />
      </g>
      <path
         d="m 109.45703,109.45703 c -3.70703,0.008 -6.99219,-2.375 -8.13281,-5.90234 -1.14453,-3.52344 0.11719,-7.382815 3.125,-9.550784 8.05859,-5.855468 16.625,-10.980468 25.59765,-15.308594 l 0.25782,-0.128906 C 156.27734,66.0625 184.73437,59.558594 213.5625,59.539062 c 4.71484,0 8.53516,3.820313 8.53516,8.53125 0,4.714844 -3.82032,8.535157 -8.53516,8.535157 -26.22266,0.01953 -52.10547,5.925781 -75.74219,17.289062 l -0.26172,0.136719 c -8.10156,3.90625 -15.83593,8.52734 -23.10937,13.8125 -1.45313,1.05469 -3.19922,1.61719 -4.99219,1.61328 z m 0,0"
         id="path7415" />
      <path
         d="M 213.5625,443.53906 C 142.49609,443.45312 61.167969,391.1875 43.035156,291.46484 29.738281,218.38672 46.097656,149.8125 86.792969,108 c 0.06641,-0.0781 0.570312,-0.57422 0.65625,-0.64844 3.421875,-3.27344 8.839843,-3.17969 12.152343,0.20313 1.558598,1.61328 2.410158,3.77734 2.371098,6.01953 -0.0391,2.23828 -0.96875,4.375 -2.585941,5.92969 L 93.5,113.32422 l 5.863281,6.20312 c -37.199219,38.1875 -51.839843,101.17188 -39.535156,168.82422 16.460937,90.59766 89.734375,138.04297 153.667965,138.1211 4.71094,-0.0195 8.54688,3.78515 8.56641,8.5 0.0195,4.71093 -3.78516,8.54687 -8.5,8.5664 z m 0,0"
         id="path7417" />
      <path
         d="m 75.828125,363.07031 c -2.882813,0.004 -5.570313,-1.44531 -7.148437,-3.85547 -1.582032,-2.41015 -1.839844,-5.45312 -0.6875,-8.09375 7.96875,-19.45703 20.042968,-36.96484 35.398442,-51.32812 8.91406,-7.98438 19.33984,-14.10156 30.66015,-17.98828 51.88281,-17.26172 80.73438,13.23828 85.98828,19.51562 1.31641,1.57422 2.04297,3.55078 2.0586,5.59766 0.0273,3.75 -2.39063,7.07812 -5.96485,8.20703 -3.57031,1.12891 -7.46484,-0.20703 -9.59375,-3.28906 -5.16015,-5.89063 -27.16015,-27.07813 -67.07812,-13.80078 -9.14063,3.17187 -17.55469,8.14062 -24.7461,14.60937 -13.45312,12.67969 -24.023434,28.10547 -30.99609,45.22656 -1.34375,3.16407 -4.453125,5.21485 -7.890625,5.19922 z m 0,0"
         id="path7419" />
      <path
         d="m 109.02344,314.76953 c -4.17969,-0.004 -7.73828,-3.02734 -8.41406,-7.14844 -5.507818,-33.73437 5.72656,-68.03906 30.12109,-91.98047 10.66797,-11.77343 24.88281,-19.74609 40.49219,-22.71875 11.0664,-1.89453 22.38281,1.50782 30.57421,9.19141 4.75391,4.35547 7.52344,10.46484 7.66407,16.91016 0.13672,6.44531 -2.36719,12.66797 -6.92969,17.22265 -5.49219,4.6875 -7.60547,12.22266 -5.35938,19.08203 3.03516,6.11329 9.54688,9.70704 16.33985,9.01172 4.71484,-0.0156 8.54687,3.79297 8.55859,8.50782 0.0156,4.71093 -3.79297,8.54296 -8.50781,8.55859 h -0.0859 c -13.73437,0.76953 -26.51172,-7.04688 -32.08203,-19.62891 -4.98047,-13.22265 -1.38672,-28.14453 9.07031,-37.64843 1.32032,-1.37891 1.9961,-3.25391 1.85547,-5.16016 -0.14062,-1.90625 -1.08203,-3.66016 -2.58984,-4.83203 -4.46875,-3.875 -10.47266,-5.47656 -16.27344,-4.33594 -11.91016,2.41016 -22.69141,8.6875 -30.66016,17.86328 -20.68359,19.94531 -30.17187,48.82813 -25.34374,77.15625 0.40234,2.47266 -0.30079,4.9961 -1.92579,6.90625 -1.62109,1.90625 -4,3.00391 -6.5039,3 z m 0,0"
         id="path7421" />
      <path
         d="m 109.45703,109.45703 c -4.73047,0.008 -8.57812,-3.80469 -8.61719,-8.53125 -0.0195,-2.253905 0.86329,-4.421874 2.44922,-6.023436 1.58203,-1.601563 3.74219,-2.507813 5.9961,-2.511719 h 0.0859 c 4.71485,-0.02344 8.55079,3.777344 8.57813,8.492185 0.0234,4.71094 -3.78125,8.55078 -8.49219,8.57422 z m 0,0"
         id="path7423" />
      <path
         d="m 213.5625,443.53906 h -0.0859 c -4.70312,-0.0234 -8.5,-3.85156 -8.48828,-8.55469 0.0117,-4.70312 3.82813,-8.51171 8.53125,-8.51171 4.70703,0 8.52344,3.80859 8.53516,8.51171 0.0117,4.70313 -3.78516,8.53125 -8.49219,8.55469 z m 0,0"
         id="path7425" />
      <path
         d="m 213.5625,137.3125 h -0.0859 c -4.70312,-0.0234 -8.5,-3.85156 -8.48828,-8.55469 0.0117,-4.70703 3.82813,-8.51172 8.53125,-8.51172 4.70703,0 8.52344,3.80469 8.53516,8.51172 0.0117,4.70313 -3.78516,8.53125 -8.49219,8.55469 z m 0,0"
         id="path7427" />
      <path
         d="m 213.5625,315.53906 c -4.05078,0.043 -7.57422,-2.76953 -8.42969,-6.73047 -0.85547,-3.96093 1.19141,-7.97656 4.89844,-9.61328 2.63281,-1.19531 5.69531,-0.97656 8.13281,0.58203 2.4375,1.5586 3.91797,4.25 3.9336,7.14063 v 0.0859 c 0,4.71484 -3.82032,8.53515 -8.53516,8.53515 z m 0,0"
         id="path7429" />
      <path
         d="m 213.5625,281.40625 h -0.0859 c -4.70312,-0.0234 -8.5,-3.85156 -8.48828,-8.55469 0.0117,-4.70703 3.82813,-8.51172 8.53125,-8.51172 4.70703,0 8.52344,3.80469 8.53516,8.51172 0.0117,4.70313 -3.78516,8.53125 -8.49219,8.55469 z m 0,0"
         id="path7431" />
      <path
         d="m 93.054688,122.0625 c -2.296876,0.0312 -4.507813,-0.89453 -6.09375,-2.55859 -1.566407,-1.53907 -2.449219,-3.64063 -2.449219,-5.83594 0,-2.19141 0.882812,-4.29297 2.449219,-5.83203 0.08594,-0.0937 0.597656,-0.59766 0.640624,-0.62891 5.289063,-4.77734 10.878907,-9.203124 16.734378,-13.261718 4.03125,-2.464843 9.29297,-1.191406 11.7539,2.835938 2.46485,4.03125 1.19532,9.29297 -2.83593,11.75391 -4.90235,3.43359 -9.58985,7.15625 -14.039066,11.15625 -1.691406,1.51953 -3.882813,2.36718 -6.160156,2.37109 z m 0,0"
         id="path7433" />
      <path
         d="m 213.5625,511.80469 c -1.39063,0 -139.902344,-1.38282 -185.972656,-120.91016 C -15.179688,279.96484 -12.960938,122.21484 74.019531,35.421875 131.11328,-21.527344 196.08594,5.15625 213.5625,14.003906 231.03125,5.15625 296.00391,-21.527344 353.10937,35.421875 440.08984,122.21484 442.30859,279.94531 399.53906,390.89453 353.51172,510.42187 214.95312,511.80469 213.5625,511.80469 Z M 156.22656,16.753906 C 129.625,16.941406 104.26172,28.046875 86.082031,47.472656 4.257812,129.10937 2.730469,278.92187 43.511719,384.71875 85.367188,493.33203 211.94922,494.73828 213.5625,494.73828 c 1.43359,0 128.26562,-1.58594 170.05469,-109.98437 C 424.39453,278.9375 422.86719,129.14453 341.04297,47.507812 284.21094,-9.214844 218.72656,30.523438 218.07812,30.941406 c -2.76171,1.722656 -6.26562,1.722656 -9.02734,0 -16.11328,-9.152344 -34.29297,-14.035156 -52.82422,-14.1875 z m 0,0"
         id="path7435" />
      <path
         d="m 213.65625,443.53906 -0.0937,-17.0664 h 0.0859 c 63.89062,-0.0781 137.1914,-47.52344 153.65234,-138.0625 12.30469,-67.65235 -2.33984,-130.63672 -39.1875,-168.47266 -3.32812,-3.36719 -3.4375,-8.75 -0.2539,-12.25391 1.47265,-1.625 3.53515,-2.58984 5.72265,-2.67968 2.19141,-0.0898 4.32422,0.70312 5.92578,2.20312 0.10156,0.0937 0.54688,0.52735 0.64063,0.63672 40.88281,41.96875 57.23828,110.54297 43.94531,183.62109 -18.13281,99.72266 -99.46484,151.98828 -170.4375,152.07422 z m 0,0"
         id="path7437" />
      <path
         d="m 351.30078,363.07031 c -3.41797,0 -6.50391,-2.03125 -7.85156,-5.17187 -6.96875,-17.125 -17.53906,-32.54688 -30.99219,-45.22657 -7.21094,-6.48046 -15.64453,-11.44921 -24.80859,-14.61718 -40.75391,-13.57032 -62.83985,8.83984 -67.29297,14.07812 -2.21094,2.91016 -6.03125,4.08985 -9.5,2.92969 -3.46875,-1.16016 -5.8086,-4.40234 -5.82422,-8.05859 v -0.0859 c 0,-2.00391 0.70703,-3.94922 1.99609,-5.48438 5.31641,-6.34765 34.1836,-36.84765 86.03125,-19.6289 11.32813,3.88672 21.75782,10.00781 30.67969,18 15.35156,14.36328 27.42578,31.87109 35.39453,51.32812 1.15235,2.63672 0.89453,5.6836 -0.68359,8.08985 -1.58203,2.41015 -4.26953,3.85937 -7.14844,3.85547 z m 0,0"
         id="path7439" />
      <path
         d="m 318.10547,314.76953 c -2.50391,0.004 -4.88281,-1.09375 -6.50781,-3.00391 -1.625,-1.90625 -2.32813,-4.42968 -1.92188,-6.90234 4.82422,-28.32812 -4.66015,-57.21094 -25.34375,-77.16016 -7.97265,-9.17187 -18.75,-15.45312 -30.66015,-17.85937 -5.80469,-1.14453 -11.8125,0.45703 -16.27344,4.33594 -1.51172,1.17187 -2.45313,2.92578 -2.59375,4.83203 -0.14063,1.90625 0.53515,3.78125 1.85937,5.16015 10.45313,9.50391 14.05078,24.42579 9.07032,37.64844 -5.57813,12.5586 -18.33985,20.35547 -32.0586,19.58594 l -0.11328,-17.06641 c 6.8125,0.70703 13.34766,-2.89062 16.39453,-9.01953 2.2461,-6.85937 0.12891,-14.39453 -5.35937,-19.08203 -4.56641,-4.55469 -7.07032,-10.77734 -6.92969,-17.22266 0.13672,-6.44921 2.90625,-12.55859 7.66406,-16.91015 8.1875,-7.6836 19.50391,-11.08594 30.57422,-9.19141 15.60547,2.97266 29.82031,10.94531 40.48828,22.71485 24.39453,23.9414 35.62891,58.25 30.125,91.98046 -0.67187,4.125 -4.23437,7.15625 -8.41406,7.16016 z m 0,0"
         id="path7441" />
      <path
         d="m 317.83984,109.45703 c -4.72656,0.008 -8.57422,-3.80469 -8.61718,-8.53125 -0.0195,-2.253905 0.86328,-4.421874 2.44922,-6.023436 1.58593,-1.601563 3.74609,-2.507813 6,-2.511719 h 0.082 c 4.71484,-0.02344 8.55468,3.777344 8.57812,8.492185 0.0234,4.71094 -3.77734,8.55078 -8.49219,8.57422 z m 0,0"
         id="path7443" />
      <path
         d="m 213.64844,443.53906 h -0.0859 c -4.70313,-0.0234 -8.5,-3.85156 -8.48828,-8.55469 0.0117,-4.70312 3.82812,-8.51171 8.53125,-8.51171 4.70703,0 8.52344,3.80859 8.53515,8.51171 0.0117,4.70313 -3.78906,8.53125 -8.49218,8.55469 z m 0,0"
         id="path7445" />
      <path
         d="m 213.64844,137.3125 h -0.0859 c -4.70313,-0.0234 -8.5,-3.85156 -8.48828,-8.55469 0.0117,-4.70703 3.82812,-8.51172 8.53125,-8.51172 4.70703,0 8.52344,3.80469 8.53515,8.51172 0.0117,4.70313 -3.78906,8.53125 -8.49218,8.55469 z m 0,0"
         id="path7447" />
      <path
         d="m 213.64844,315.53906 h -0.0859 c -4.23828,-0.0195 -7.82031,-3.15234 -8.41016,-7.35156 -0.58593,-4.19922 1.9961,-8.19141 6.07032,-9.375 4.07031,-1.18359 8.39453,0.80078 10.14843,4.66016 1.19922,2.63281 0.98047,5.69531 -0.57812,8.13281 -1.5625,2.4375 -4.25,3.91797 -7.14453,3.93359 z m 0,0"
         id="path7449" />
      <path
         d="m 213.64844,281.40625 h -0.0859 c -4.70313,-0.0234 -8.5,-3.85156 -8.48828,-8.55469 0.0117,-4.70703 3.82812,-8.51172 8.53125,-8.51172 4.70703,0 8.52344,3.80469 8.53515,8.51172 0.0117,4.70313 -3.78906,8.53125 -8.49218,8.55469 z m 0,0"
         id="path7451" />
      <path
         d="m 317.67187,109.45703 c -1.79296,0.004 -3.53515,-0.5625 -4.98437,-1.61328 -7.27734,-5.28516 -15.00781,-9.90625 -23.10938,-13.8125 l -0.27343,-0.136719 C 265.67187,82.53125 239.78516,76.621094 213.5625,76.605469 c -4.71094,0 -8.53125,-3.820313 -8.53125,-8.535157 0,-4.710937 3.82031,-8.53125 8.53125,-8.53125 28.82422,0.01953 57.27344,6.519532 83.24219,19.019532 l 0.25781,0.128906 c 8.96875,4.332031 17.53906,9.457031 25.59766,15.308594 3.01172,2.164062 4.28125,6.023436 3.14062,9.550786 -1.13672,3.52734 -4.42187,5.91796 -8.12891,5.91015 z m 0,0"
         id="path7453" />
      <path
         d="m 334.03516,122.45313 c -2.1211,0.004 -4.16407,-0.81641 -5.69141,-2.29297 -0.10938,-0.0937 -0.62891,-0.61719 -0.72266,-0.71875 -4.53515,-4.03516 -9.30859,-7.79688 -14.29297,-11.26172 -3.21875,-1.9961 -4.74218,-5.8711 -3.73437,-9.519534 1.00391,-3.648437 4.29297,-6.203125 8.07812,-6.269531 h 0.082 c 1.78515,0.0039 3.52343,0.542969 4.99218,1.554687 5.81641,4.023438 11.3711,8.406248 16.63282,13.132818 0.14453,0.13671 0.63281,0.62109 0.76953,0.76562 2.41015,2.47266 3.10937,6.14453 1.77734,9.32813 -1.33203,3.18359 -4.4375,5.26562 -7.89062,5.28125 z m 0,0"
         id="path7455" />
      <path
         d="m 202.1875,170.47266 h -28.44922 c -10.375,0.55468 -19.25781,-7.35547 -19.91016,-17.72266 v -32.16406 c 0,-13.37891 10.7461,-26.914065 31.29297,-26.914065 20.38672,0 36.97657,14.132815 36.97657,31.503905 V 152.75 c -0.65235,10.36719 -9.53516,18.27734 -19.91016,17.72266 z m -31.28906,-17.73438 c 0.88281,0.41016 1.83984,0.63281 2.8125,0.66797 h 28.45312 c 1.08203,0.0898 2.14844,-0.29297 2.92578,-1.05078 l -0.0586,-27.17969 c 0,-7.82422 -9.125,-14.4375 -19.91016,-14.4375 -13.53125,0 -14.22265,8.19922 -14.22265,9.84766 V 152.75 Z m 0,0"
         id="path7457" />
      <path
         d="m 149.47656,165.87109 h -25.77734 c -5.19141,0.50391 -10.37109,-1.08593 -14.39063,-4.41015 -4.01953,-3.32032 -6.55468,-8.10938 -7.03515,-13.30469 v -27.57031 c 0,-11.94531 9.84375,-24.875002 31.45312,-24.875002 20.83594,0 37.17188,12.714842 37.17188,28.953122 v 23.49219 c -0.48438,5.19141 -3.01563,9.98047 -7.03516,13.30469 -4.01953,3.32422 -9.19531,4.91015 -14.38672,4.41015 z M 119.5,148.0625 c 1.36328,0.41797 2.77344,0.66797 4.19922,0.74219 h 25.77734 c 1.64453,0.13281 3.27344,-0.38672 4.54297,-1.44141 l -0.19141,-22.69922 c 0,-5.61328 -8.25781,-11.88672 -20.10156,-11.88672 -11.35937,0 -14.38672,4.90625 -14.38672,7.8086 v 27.57031 c 0.0156,-0.0664 0.0664,-0.0937 0.16016,-0.0937 z m 0,0"
         id="path7459" />
      <path
         d="M 253.38672,170.47266 H 224.9375 c -10.375,0.55468 -19.25781,-7.35547 -19.90625,-17.72266 v -27.57422 c 0,-17.37109 16.58594,-31.503905 36.97266,-31.503905 20.55078,0 31.29296,13.535155 31.29296,26.914065 V 152.75 c -0.64843,10.36719 -9.53515,18.27734 -19.91015,17.72266 z m -31.28906,-17.73438 c 0.88281,0.41016 1.83984,0.63281 2.8164,0.66797 h 28.44922 c 1.08203,0.0898 2.14844,-0.29297 2.92578,-1.05078 l -0.0586,-31.76953 c 0,-1.64844 -0.69141,-9.84766 -14.22656,-9.84766 -10.78516,0 -19.90625,6.61328 -19.90625,14.4375 V 152.75 Z m 0,0"
         id="path7461" />
      <path
         d="m 303.42969,165.87109 h -25.78125 c -5.19141,0.5 -10.36719,-1.08593 -14.38672,-4.41015 -4.01563,-3.32422 -6.54688,-8.11328 -7.03125,-13.30469 v -23.49219 c 0,-16.21093 16.33203,-28.953122 37.17187,-28.953122 21.60547,0 31.45313,12.894532 31.45313,24.875002 v 27.57031 c -0.48438,5.19531 -3.01563,9.98437 -7.03516,13.30469 -4.02344,3.32422 -9.19922,4.91406 -14.39062,4.41015 z M 273.44922,148.0625 c 1.36719,0.41797 2.77344,0.66406 4.19922,0.74219 h 25.78125 c 1.64453,0.1289 3.27343,-0.39063 4.54687,-1.44141 l -0.1875,-26.77734 c 0,-2.90235 -3.03125,-7.8086 -14.38672,-7.8086 -11.84375,0 -20.10547,6.27344 -20.10547,11.88672 v 23.49219 c 0,-0.0664 0.0664,-0.0937 0.15235,-0.0937 z m 0,0"
         id="path7463" />
      <path
         d="m 354.62109,155.28125 h -25.77343 c -8.96094,0.50781 -17.26172,-4.71875 -20.67579,-13.01953 -0.51953,-1.49219 -0.76953,-3.0625 -0.74218,-4.64453 v -23.55078 c 0.0664,-6.33203 2.55078,-12.39844 6.94531,-16.957035 3.19141,-3.46875 8.58984,-3.691406 12.05859,-0.503906 3.46875,3.191406 3.69532,8.589841 0.50391,12.058591 -1.47266,1.42188 -2.34766,3.35547 -2.44141,5.40235 v 22.83593 c 1.25,0.9375 2.79297,1.40235 4.35157,1.3125 h 25.77343 c 0.57032,0 1.14063,-0.043 1.70313,-0.13672 3.04687,-0.59375 6.17578,0.51563 8.17187,2.89063 1.9961,2.37891 2.54297,5.65234 1.42578,8.55078 -1.11328,2.89844 -3.71484,4.96094 -6.78906,5.38672 -1.49219,0.25 -3,0.37891 -4.51172,0.375 z m 0,0"
         id="path7465" />
      <path
         d="M 98.277344,155.28125 H 72.507812 c -1.527343,0.004 -3.050781,-0.12109 -4.558593,-0.375 -3.074219,-0.42578 -5.671875,-2.48828 -6.789063,-5.38672 -1.113281,-2.89844 -0.566406,-6.17187 1.425782,-8.55078 1.996093,-2.375 5.125,-3.48438 8.171874,-2.89063 0.578126,0.0937 1.164063,0.14063 1.75,0.13672 h 25.769532 c 1.546875,0.0703 3.074216,-0.36718 4.351566,-1.24609 v -27 c -0.0508,-1.15234 -0.46875,-2.25781 -1.19532,-3.15625 -2.824215,-3.76953 -2.062496,-9.117188 1.70704,-11.945312 3.77343,-2.828126 9.12109,-2.0625 11.94921,1.707031 2.9336,3.855471 4.55079,8.550781 4.60547,13.394531 v 27.64844 c 0.0273,1.73047 -0.26172,3.44531 -0.85156,5.07031 -3.52344,8.10547 -11.74609,13.13672 -20.566406,12.59375 z m 0,0"
         id="path7467" />
      <path
         d="m 213.5625,443.53906 c -4.71094,0 -8.53125,-3.82031 -8.53125,-8.53515 v -128 c 0,-4.71094 3.82031,-8.53125 8.53125,-8.53125 4.71484,0 8.53516,3.82031 8.53516,8.53125 v 128 c 0,4.71484 -3.82032,8.53515 -8.53516,8.53515 z m 0,0"
         id="path7469" />
      <path
         d="m 213.5625,409.40625 c -4.71094,0 -8.53125,-3.82031 -8.53125,-8.53516 0,-8.05468 -16.92188,-8.53125 -17.06641,-8.53125 -4.71484,0 -8.53515,-3.82031 -8.53515,-8.53515 0,-4.71094 3.82031,-8.53125 8.53515,-8.53125 11.80078,0 34.13282,5.34765 34.13282,25.59765 0,4.71485 -3.82032,8.53516 -8.53516,8.53516 z m 0,0"
         id="path7471" />
      <path
         d="m 213.5625,366.73828 c -4.71094,0 -8.53125,-3.82031 -8.53125,-8.53125 0,-20.25 22.33203,-25.60156 34.13281,-25.60156 4.71094,0 8.53125,3.82031 8.53125,8.53125 0,4.71484 -3.82031,8.53515 -8.53125,8.53515 -0.32422,0 -17.0664,0.51172 -17.0664,8.53516 0,4.71094 -3.82032,8.53125 -8.53516,8.53125 z m 0,0"
         id="path7473" />
    </g>
  </g>
</svg>
