<?xml version="1.0" encoding="UTF-8" standalone="no"?>
<svg
   xmlns:dc="http://purl.org/dc/elements/1.1/"
   xmlns:cc="http://creativecommons.org/ns#"
   xmlns:rdf="http://www.w3.org/1999/02/22-rdf-syntax-ns#"
   xmlns:svg="http://www.w3.org/2000/svg"
   xmlns="http://www.w3.org/2000/svg"
   xmlns:sodipodi="http://sodipodi.sourceforge.net/DTD/sodipodi-0.dtd"
   xmlns:inkscape="http://www.inkscape.org/namespaces/inkscape"
   width="512"
   height="512"
   viewBox="0 0 135.46666 135.46667"
   version="1.1"
   id="svg6026"
   inkscape:version="1.0 (4035a4fb49, 2020-05-01)"
   sodipodi:docname="15.svg">
  <defs
     id="defs6020" />
  <sodipodi:namedview
     id="base"
     pagecolor="#ffffff"
     bordercolor="#666666"
     borderopacity="1.0"
     inkscape:pageopacity="0.0"
     inkscape:pageshadow="2"
     inkscape:zoom="0.98994949"
     inkscape:cx="255.54819"
     inkscape:cy="202.06928"
     inkscape:document-units="mm"
     inkscape:current-layer="layer1"
     inkscape:document-rotation="0"
     showgrid="false"
     units="px"
     inkscape:window-width="1920"
     inkscape:window-height="1001"
     inkscape:window-x="-9"
     inkscape:window-y="-9"
     inkscape:window-maximized="1" />
  <metadata
     id="metadata6023">
    <rdf:RDF>
      <cc:Work
         rdf:about="">
        <dc:format>image/svg+xml</dc:format>
        <dc:type
           rdf:resource="http://purl.org/dc/dcmitype/StillImage" />
        <dc:title />
      </cc:Work>
    </rdf:RDF>
  </metadata>
  <g
     inkscape:label="Layer 1"
     inkscape:groupmode="layer"
     id="layer1">
    <g
       transform="matrix(0.21014346,0,0,0.21014346,-15.716467,17.578448)"
       id="g13022">
      <path
         d="m 394.032,424.803 v 39.26 c 0,4.42 -3.58,8 -8,8 h -292 c -4.42,0 -8,-3.58 -8,-8 v -39.26 c 0,-41.19 33.39,-74.56 74.59,-74.57 14.56,-0.01 27.38,-7.5 34.76,-18.86 7.414,-11.394 6.65,-21.302 6.65,-29.31 l 0.15,-0.37 c -35.9,-14.86 -61.15,-50.23 -61.15,-91.5 v -3.13 c -14.255,0 -25,-11.265 -25,-24.54 v -41.56 c -0.32,-14.47 0.34,-65.5 37.2,-101.03 42.86,-41.31 110.78,-37.93 159.98,-15.83 1.6,0.72 1.55,3.01 -0.07,3.68 l -12.83,5.28 c -1.92,0.79 -1.51,3.62 0.55,3.84 l 6.23,0.67 c 29.83,3.19 57.54,19.39 74.72,46.35 0.46,0.73 0.33,1.84 -0.26,2.47 -10.6,11.21 -16.52,26.09 -16.52,41.56 v 54.57 c 0,13.55 -10.99,24.54 -24.54,24.54 h -1.46 v 3.13 c 0,41.27 -25.25,76.64 -61.15,91.5 l 0.15,0.37 c 0,7.777 -0.827,17.82 6.65,29.31 7.38,11.36 20.2,18.85 34.76,18.86 41.2,0.01 74.59,33.38 74.59,74.57 z"
         fill="#ffdfba"
         id="path12985" />
      <path
         d="m 394.032,424.803 v 39.26 c 0,4.418 -3.582,8 -8,8 h -292 c -4.418,0 -8,-3.582 -8,-8 v -39.26 c 0,-41.19 33.395,-74.555 74.585,-74.57 14.564,-0.005 27.387,-7.504 34.765,-18.86 25.754,22.002 63.531,22.015 89.3,0 7.377,11.356 20.201,18.855 34.765,18.86 41.19,0.015 74.585,33.38 74.585,74.57 z"
         fill="#fe4f60"
         id="path12987" />
      <path
         d="m 381.807,83.928 c 0.464,0.729 0.334,1.833 -0.259,2.461 -10.597,11.218 -16.517,26.093 -16.517,41.564 v 54.57 c 0,12.388 -9.333,24.54 -26,24.54 v -61.77 c 0,-26.51 -21.49,-48 -48,-48 h -102 c -26.51,0 -48,21.49 -48,48 v 61.77 c -14.255,0 -25,-11.265 -25,-24.54 v -41.56 c -0.32,-14.47 0.34,-65.5 37.2,-101.03 42.858,-41.311 110.784,-37.929 159.977,-15.827 1.601,0.719 1.558,3.01 -0.065,3.678 l -12.831,5.282 c -1.918,0.79 -1.514,3.617 0.548,3.838 l 6.232,0.669 c 29.834,3.187 57.537,19.387 74.715,46.355 z"
         fill="#42434d"
         id="path12989" />
      <path
         d="m 339.032,210.193 c 0,54.696 -44.348,99 -99,99 -51.492,0 -99,-40.031 -99,-102.13 v -61.77 c 0,-26.51 21.49,-48 48,-48 h 102 c 26.51,0 48,21.49 48,48 z"
         fill="#ffebd2"
         id="path12991" />
      <path
         d="m 217.616,274.121 c 16.277,10.183 3.442,35.156 -14.376,28.004 -36.634,-14.704 -62.208,-50.404 -62.208,-91.932 v -64.9 c 0,-10.084 3.11,-19.442 8.423,-27.168 6.514,-9.473 21.577,-5.288 21.577,7.168 v 64.9 c 0,36.51 19.192,66.79 46.584,83.928 z"
         fill="#fff3e4"
         id="path12993" />
      <path
         d="m 279.162,318.483 c -24.637,10.313 -51.712,11.113 -78.26,0 1.356,-5.626 1.13,-9.27 1.13,-16.42 l 0.15,-0.37 c 24.082,9.996 51.571,10.016 75.7,0 l 0.15,0.37 c 0,7.153 -0.226,10.796 1.13,16.42 z"
         fill="#ffd6a6"
         id="path12995" />
      <path
         d="m 200.913,374.39 c -3.698,1.163 -7.664,1.804 -11.916,1.841 -41.296,0.364 -74.966,33.017 -74.966,74.315 v 7.517 c 0,7.732 -6.268,14 -14,14 h -6 c -4.418,0 -8,-3.582 -8,-8 v -39.26 c 0,-41.191 33.395,-74.555 74.585,-74.57 14.564,-0.005 27.387,-7.504 34.765,-18.86 2.974,2.54 6.158,4.823 9.512,6.822 14.753,8.791 12.402,31.044 -3.98,36.195 z"
         fill="#ff6d7a"
         id="path12997" />
      <path
         d="m 279.15,374.39 c 3.698,1.163 7.664,1.804 11.916,1.841 41.296,0.364 74.966,33.017 74.966,74.315 v 7.517 c 0,7.732 6.268,14 14,14 h 6 c 4.418,0 8,-3.582 8,-8 v -39.26 c 0,-41.191 -33.395,-74.555 -74.585,-74.57 -14.564,-0.005 -27.387,-7.504 -34.765,-18.86 -2.974,2.54 -6.158,4.823 -9.512,6.822 -14.753,8.791 -12.402,31.044 3.98,36.195 z"
         fill="#e84857"
         id="path12999" />
      <path
         d="m 313.142,27.783 c -11.758,4.839 -13.434,5.906 -17.508,5.274 C 229.96,22.877 172.34,50.05 152.772,113.843 v 0.01 c -7.32,8.42 -11.74,19.42 -11.74,31.44 v 37.523 c 0,16.188 -25,17.315 -25,-0.293 v -41.56 c -0.32,-14.47 0.34,-65.5 37.2,-101.03 42.86,-41.31 110.78,-37.93 159.98,-15.83 1.6,0.72 1.55,3.01 -0.07,3.68 z"
         fill="#4d4e59"
         id="path13001" />
      <path
         d="m 402.032,424.806 v 47.257 c 0,4.418 -3.582,8 -8,8 -4.418,0 -8,-3.582 -8,-8 v -47.257 c 0,-36.795 -29.775,-66.572 -66.573,-66.571 -17.411,0 -33.208,-8.87 -42.259,-23.728 -2.298,-3.773 -1.103,-8.696 2.671,-10.994 3.773,-2.299 8.695,-1.103 10.994,2.671 6.122,10.051 16.811,16.051 28.594,16.051 45.637,-0.002 82.573,36.93 82.573,82.571 z M 262.426,344.613 c 0.941,4.317 -1.796,8.579 -6.113,9.52 -21.054,4.587 -42.467,-0.005 -59.516,-11.642 -16.878,18.087 -39.176,15.744 -36.191,15.744 -36.795,-0.001 -66.573,29.773 -66.573,66.571 v 47.257 c 0,4.418 -3.582,8 -8,8 -4.418,0 -8,-3.582 -8,-8 v -47.257 c 0,-45.636 36.929,-82.571 82.571,-82.571 18.462,0 33.429,-14.875 33.429,-33.342 v -2.107 c -34.919,-16.697 -59.429,-51.784 -60.923,-92.643 -14.37,-3.455 -25.077,-16.317 -25.077,-31.62 V 141.05 c -0.437,-20.3 2.577,-71.143 39.648,-106.877 45.775,-44.126 119.183,-41.323 173.161,-15.338 5.261,2.535 6.06,9.643 1.691,13.324 27.345,6.67 50.925,23.48 66.074,47.538 0.782,1.239 2.214,3.184 1.84,6.287 -0.232,1.931 -0.807,3.565 -2.295,5.075 -9.75,9.888 -15.119,22.991 -15.119,36.896 v 54.57 c 0,4.418 -3.582,8 -8,8 -4.418,0 -8,-3.582 -8,-8 v -54.57 c 0,-16.037 5.479,-31.259 15.542,-43.487 C 357.237,62.532 333.307,48.424 306.243,45.526 L 292.182,44.02 c -8.222,-0.88 -9.835,-12.207 -2.194,-15.352 l 6.395,-2.633 C 213.097,-3 124.032,29.261 124.032,140.963 v 41.56 c 0,6.348 3.656,11.865 9,14.636 v -51.863 c 0,-30.878 25.122,-56 56,-56 h 102 c 30.878,0 56,25.12 56,55.997 v 65.503 c 0,69.574 -67.988,122.42 -137.17,102.053 -0.45,5.708 -1.871,11.216 -4.186,16.336 13.458,9.242 30.453,12.97 47.23,9.314 4.317,-0.94 8.579,1.797 9.52,6.114 z m -22.394,-43.425 c 50.178,0 91,-40.822 91,-91 v -64.895 c 0,-22.054 -17.944,-39.997 -40,-39.997 h -102 c -22.056,0 -40,17.944 -40,40 v 64.892 c 0,50.178 40.822,91 91,91 z m 81,137.875 h -24 c -4.418,0 -8,3.582 -8,8 0,4.418 3.582,8 8,8 h 24 c 4.418,0 8,-3.582 8,-8 0,-4.418 -3.582,-8 -8,-8 z"
         id="path13003" />
    </g>
    <g
       transform="matrix(0.12727109,0,0,0.12727109,73.516195,1.3099916)"
       id="g13191">
      <g
         id="g1798">
        <path
           style="fill:#ffa800"
           d="M 444.986,478.569 H 293.859 c -18.547,0 -33.584,-15.037 -33.584,-33.584 V 41.983 c 0,-18.547 15.037,-33.584 33.584,-33.584 h 151.126 c 18.547,0 33.584,15.037 33.584,33.584 v 403.003 c 0,18.546 -15.037,33.583 -33.583,33.583"
           id="path928" />
        <path
           style="fill:#ffffff"
           d="M 193.109,478.569 H 41.983 c -18.547,0 -33.584,-15.037 -33.584,-33.584 V 41.983 C 8.399,23.436 23.436,8.399 41.983,8.399 h 151.126 c 18.547,0 33.584,15.037 33.584,33.584 v 403.003 c -0.001,18.546 -15.038,33.583 -33.584,33.583"
           id="path930" />
        <path
           style="fill:#ffe100"
           d="M 419.798,478.569 H 67.17 c -18.547,0 -33.584,-15.037 -33.584,-33.584 V 41.983 C 33.586,23.436 48.623,8.399 67.17,8.399 h 352.628 c 18.547,0 33.584,15.037 33.584,33.584 v 403.003 c -0.001,18.546 -15.038,33.583 -33.584,33.583"
           id="path932" />
        <path
           style="fill:#ff8800"
           d="m 176.317,142.734 c 0,18.547 -15.037,33.584 -33.584,33.584 -18.547,0 -33.584,-15.037 -33.584,-33.584 0,-18.547 15.037,-33.584 33.584,-33.584 18.547,0 33.584,15.037 33.584,33.584"
           id="path934" />
        <path
           style="fill:#ffa800"
           d="m 151.129,142.734 c 0,18.547 -9.395,33.584 -20.99,33.584 -11.595,0 -20.99,-15.037 -20.99,-33.584 0,-18.547 9.395,-33.584 20.99,-33.584 11.595,0 20.99,15.037 20.99,33.584"
           id="path936" />
        <path
           style="fill:#ff8800"
           d="m 377.818,243.484 c 0,18.547 -15.037,33.584 -33.584,33.584 -18.547,0 -33.584,-15.037 -33.584,-33.584 0,-18.547 15.037,-33.584 33.584,-33.584 18.547,0.001 33.584,15.038 33.584,33.584"
           id="path942" />
        <path
           style="fill:#ffa800"
           d="m 352.631,243.484 c 0,18.547 -9.395,33.584 -20.99,33.584 -11.595,0 -20.99,-15.037 -20.99,-33.584 0,-18.547 9.395,-33.584 20.99,-33.584 11.595,0.001 20.99,15.038 20.99,33.584"
           id="path944" />
        <path
           style="fill:#ff8800"
           d="m 377.818,344.235 c 0,18.547 -15.037,33.584 -33.584,33.584 -18.547,0 -33.584,-15.037 -33.584,-33.584 0,-18.547 15.037,-33.584 33.584,-33.584 18.547,0 33.584,15.038 33.584,33.584"
           id="path946" />
        <path
           style="fill:#ffa800"
           d="m 352.631,344.235 c 0,18.547 -9.395,33.584 -20.99,33.584 -11.595,0 -20.99,-15.037 -20.99,-33.584 0,-18.547 9.395,-33.584 20.99,-33.584 11.595,0 20.99,15.038 20.99,33.584"
           id="path948" />
        <path
           style="fill:#ff8800"
           d="m 176.317,344.235 c 0,18.547 -15.037,33.584 -33.584,33.584 -18.547,0 -33.584,-15.037 -33.584,-33.584 0,-18.547 15.037,-33.584 33.584,-33.584 18.547,0 33.584,15.038 33.584,33.584"
           id="path950" />
        <path
           style="fill:#ffa800"
           d="m 151.129,344.235 c 0,18.547 -9.395,33.584 -20.99,33.584 -11.595,0 -20.99,-15.037 -20.99,-33.584 0,-18.547 9.395,-33.584 20.99,-33.584 11.595,0 20.99,15.038 20.99,33.584"
           id="path952" />
        <path
           style="fill:#ff8800"
           d="m 176.317,243.484 c 0,18.547 -15.037,33.584 -33.584,33.584 -18.547,0 -33.584,-15.037 -33.584,-33.584 0,-18.547 15.037,-33.584 33.584,-33.584 18.547,0 33.584,15.038 33.584,33.584"
           id="path954" />
        <path
           style="fill:#ffa800"
           d="m 151.129,243.484 c 0,18.547 -9.395,33.584 -20.99,33.584 -11.595,0 -20.99,-15.037 -20.99,-33.584 0,-18.547 9.395,-33.584 20.99,-33.584 11.595,0 20.99,15.038 20.99,33.584"
           id="path956" />
        <path
           d="M 444.986,486.97 H 41.983 C 18.837,486.97 0.004,468.137 0.004,444.991 V 142.738 c 0,-4.637 3.759,-8.396 8.396,-8.396 4.637,0 8.396,3.759 8.396,8.396 V 444.99 c 0,13.889 11.298,25.188 25.188,25.188 h 403.003 c 13.889,0 25.188,-11.298 25.188,-25.188 v -33.584 c 0,-4.641 3.755,-8.396 8.396,-8.396 4.641,0 8.396,3.755 8.396,8.396 v 33.584 c -0.002,23.147 -18.835,41.98 -41.981,41.98 z"
           id="path958" />
        <path
           d="m 478.569,352.628 c -4.641,0 -8.396,-3.755 -8.396,-8.396 V 41.979 c 0,-13.889 -11.298,-25.188 -25.188,-25.188 H 41.983 c -13.889,0 -25.188,11.298 -25.188,25.188 v 33.584 c 0,4.637 -3.759,8.396 -8.396,8.396 -4.637,0 -8.396,-3.759 -8.396,-8.396 V 41.979 C 0.003,18.833 18.836,0 41.983,0 h 403.003 c 23.146,0 41.979,18.833 41.979,41.979 v 302.252 c 0,4.641 -3.755,8.397 -8.396,8.397 z"
           id="path960" />
        <path
           d="m 16.795,109.15 c 0,4.635 -3.761,8.396 -8.396,8.396 -4.635,0 -8.396,-3.761 -8.396,-8.396 0,-4.635 3.761,-8.396 8.396,-8.396 4.635,0 8.396,3.761 8.396,8.396"
           id="path962" />
        <path
           d="m 486.965,377.819 c 0,4.635 -3.761,8.396 -8.396,8.396 -4.635,0 -8.396,-3.761 -8.396,-8.396 0,-4.635 3.761,-8.396 8.396,-8.396 4.635,0 8.396,3.761 8.396,8.396"
           id="path964" />
        <path
           d="m 344.235,285.46 c -23.146,0 -41.979,-18.833 -41.979,-41.975 0,-23.146 18.833,-41.979 41.979,-41.979 23.146,0 41.979,18.833 41.979,41.979 0,23.142 -18.833,41.975 -41.979,41.975 z m 0,-67.163 c -13.889,0 -25.188,11.298 -25.188,25.188 0,13.885 11.298,25.184 25.188,25.184 13.889,0 25.188,-11.298 25.188,-25.184 0,-13.889 -11.299,-25.188 -25.188,-25.188 z"
           id="path966" />
        <path
           d="m 142.733,285.46 c -23.146,0 -41.979,-18.833 -41.979,-41.975 0,-23.146 18.833,-41.979 41.979,-41.979 23.146,0 41.979,18.833 41.979,41.979 0.001,23.142 -18.833,41.975 -41.979,41.975 z m 0,-67.163 c -13.889,0 -25.188,11.298 -25.188,25.188 0,13.885 11.298,25.184 25.188,25.184 13.889,0 25.188,-11.298 25.188,-25.184 0,-13.889 -11.298,-25.188 -25.188,-25.188 z"
           id="path968" />
        <path
           d="m 142.733,386.211 c -23.146,0 -41.979,-18.833 -41.979,-41.979 0,-23.146 18.833,-41.979 41.979,-41.979 23.146,0 41.979,18.833 41.979,41.979 0.001,23.146 -18.833,41.979 -41.979,41.979 z m 0,-67.167 c -13.889,0 -25.188,11.298 -25.188,25.188 0,13.89 11.298,25.188 25.188,25.188 13.889,0 25.188,-11.298 25.188,-25.188 0,-13.89 -11.298,-25.188 -25.188,-25.188 z"
           id="path970" />
        <path
           d="m 142.733,184.714 c -23.146,0 -41.979,-18.833 -41.979,-41.979 0,-23.146 18.833,-41.979 41.979,-41.979 23.146,0 41.979,18.833 41.979,41.979 0,23.146 -18.833,41.979 -41.979,41.979 z m 0,-67.167 c -13.889,0 -25.188,11.298 -25.188,25.188 0,13.89 11.298,25.188 25.188,25.188 13.889,0 25.188,-11.298 25.188,-25.188 0,-13.89 -11.298,-25.188 -25.188,-25.188 z"
           id="path972" />
        <path
           d="m 344.235,386.211 c -23.146,0 -41.979,-18.833 -41.979,-41.979 0,-23.146 18.833,-41.979 41.979,-41.979 23.146,0 41.979,18.833 41.979,41.979 0,23.146 -18.833,41.979 -41.979,41.979 z m 0,-67.167 c -13.889,0 -25.188,11.298 -25.188,25.188 0,13.89 11.298,25.188 25.188,25.188 13.889,0 25.188,-11.298 25.188,-25.188 0,-13.89 -11.299,-25.188 -25.188,-25.188 z"
           id="path974" />
        <g
           id="g1054">
          <path
             id="path938"
             d="m 377.818,142.734 c 0,18.547 -15.037,33.584 -33.584,33.584 -18.547,0 -33.584,-15.037 -33.584,-33.584 0,-18.547 15.037,-33.584 33.584,-33.584 18.547,0 33.584,15.037 33.584,33.584"
             style="fill:#ff8800" />
          <path
             id="path940"
             d="m 352.631,142.734 c 0,18.547 -9.395,33.584 -20.99,33.584 -11.595,0 -20.99,-15.037 -20.99,-33.584 0,-18.547 9.395,-33.584 20.99,-33.584 11.595,0 20.99,15.037 20.99,33.584"
             style="fill:#ffa800" />
          <path
             id="path976"
             d="m 344.235,184.714 c -23.146,0 -41.979,-18.833 -41.979,-41.979 0,-23.146 18.833,-41.979 41.979,-41.979 23.146,0 41.979,18.833 41.979,41.979 0,23.146 -18.833,41.979 -41.979,41.979 z m 0,-67.167 c -13.889,0 -25.188,11.298 -25.188,25.188 0,13.89 11.298,25.188 25.188,25.188 13.889,0 25.188,-11.298 25.188,-25.188 0,-13.89 -11.299,-25.188 -25.188,-25.188 z" />
        </g>
        <path
           d="M 361.027,444.982 H 62.968 c -11.573,0 -20.99,-9.413 -20.99,-20.99 v -256.07 c 0,-4.637 3.759,-8.396 8.396,-8.396 4.637,0 8.396,3.759 8.396,8.396 v 256.071 c 0,2.312 1.882,4.198 4.198,4.198 h 298.058 c 4.641,0 8.396,3.755 8.396,8.396 0,4.641 -3.755,8.395 -8.395,8.395 z"
           id="path978" />
        <path
           d="M 423.996,444.991 H 394.61 c -4.641,0 -8.396,-3.755 -8.396,-8.396 0,-4.641 3.755,-8.396 8.396,-8.396 h 29.386 c 2.312,0 4.198,-1.886 4.198,-4.198 V 62.973 c 0,-2.316 -1.886,-4.198 -4.198,-4.198 H 62.972 c -2.316,0 -4.198,1.882 -4.198,4.198 v 37.782 c 0,4.637 -3.759,8.396 -8.396,8.396 -4.637,0 -8.396,-3.759 -8.396,-8.396 V 62.973 c 0,-11.573 9.417,-20.99 20.99,-20.99 h 361.023 c 11.577,0 20.99,9.417 20.99,20.99 v 361.028 c 10e-4,11.577 -9.412,20.99 -20.989,20.99 z"
           id="path980" />
        <path
           d="m 58.774,134.338 c 0,-4.635 -3.761,-8.396 -8.396,-8.396 -4.635,0 -8.396,3.761 -8.396,8.396 0,4.635 3.761,8.396 8.396,8.396 4.635,0 8.396,-3.762 8.396,-8.396"
           id="path982" />
        <g
           transform="translate(-101.67559)"
           id="g1062">
          <path
             style="fill:#ff8800"
             d="m 377.818,142.734 c 0,18.547 -15.037,33.584 -33.584,33.584 -18.547,0 -33.584,-15.037 -33.584,-33.584 0,-18.547 15.037,-33.584 33.584,-33.584 18.547,0 33.584,15.037 33.584,33.584"
             id="path1056" />
          <path
             style="fill:#ffa800"
             d="m 352.631,142.734 c 0,18.547 -9.395,33.584 -20.99,33.584 -11.595,0 -20.99,-15.037 -20.99,-33.584 0,-18.547 9.395,-33.584 20.99,-33.584 11.595,0 20.99,15.037 20.99,33.584"
             id="path1058" />
          <path
             d="m 344.235,184.714 c -23.146,0 -41.979,-18.833 -41.979,-41.979 0,-23.146 18.833,-41.979 41.979,-41.979 23.146,0 41.979,18.833 41.979,41.979 0,23.146 -18.833,41.979 -41.979,41.979 z m 0,-67.167 c -13.889,0 -25.188,11.298 -25.188,25.188 0,13.89 11.298,25.188 25.188,25.188 13.889,0 25.188,-11.298 25.188,-25.188 0,-13.89 -11.299,-25.188 -25.188,-25.188 z"
             id="path1060" />
        </g>
        <g
           transform="translate(-101.67559,201.497)"
           id="g1078">
          <path
             style="fill:#ff8800"
             d="m 377.818,142.734 c 0,18.547 -15.037,33.584 -33.584,33.584 -18.547,0 -33.584,-15.037 -33.584,-33.584 0,-18.547 15.037,-33.584 33.584,-33.584 18.547,0 33.584,15.037 33.584,33.584"
             id="path1072" />
          <path
             style="fill:#ffa800"
             d="m 352.631,142.734 c 0,18.547 -9.395,33.584 -20.99,33.584 -11.595,0 -20.99,-15.037 -20.99,-33.584 0,-18.547 9.395,-33.584 20.99,-33.584 11.595,0 20.99,15.037 20.99,33.584"
             id="path1074" />
          <path
             d="m 344.235,184.714 c -23.146,0 -41.979,-18.833 -41.979,-41.979 0,-23.146 18.833,-41.979 41.979,-41.979 23.146,0 41.979,18.833 41.979,41.979 0,23.146 -18.833,41.979 -41.979,41.979 z m 0,-67.167 c -13.889,0 -25.188,11.298 -25.188,25.188 0,13.89 11.298,25.188 25.188,25.188 13.889,0 25.188,-11.298 25.188,-25.188 0,-13.89 -11.299,-25.188 -25.188,-25.188 z"
             id="path1076" />
        </g>
      </g>
      <g
         id="g986">
</g>
      <g
         id="g988">
</g>
      <g
         id="g990">
</g>
      <g
         id="g992">
</g>
      <g
         id="g994">
</g>
      <g
         id="g996">
</g>
      <g
         id="g998">
</g>
      <g
         id="g1000">
</g>
      <g
         id="g1002">
</g>
      <g
         id="g1004">
</g>
      <g
         id="g1006">
</g>
      <g
         id="g1008">
</g>
      <g
         id="g1010">
</g>
      <g
         id="g1012">
</g>
      <g
         id="g1014">
</g>
    </g>
    <g
       transform="matrix(0.11804881,-0.10830878,0.10830878,0.11804881,22.244283,121.61447)"
       id="g987">
      <g
         id="g979">
        <path
           id="path884"
           fill="#c5d3dd"
           d="m 477.494,355.19 c -1.942,-35.403 -3.296,-70.835 -4.039,-106.282 V 8.067 c -63.297,-10.663 -63.793,218.278 -63.535,251.356 0.017,2.196 1.801,3.959 3.997,3.959 h 13.592 c -0.785,30.618 -2.022,61.224 -3.699,91.808 z" />
        <path
           id="path886"
           fill="#b6c4cf"
           d="M 473.456,248.908 V 8.067 c -11.339,-1.91 -20.661,3.876 -28.326,14.841 v 226 c 0.742,35.447 2.097,70.879 4.039,106.282 h 28.326 c -1.942,-35.403 -3.297,-70.835 -4.039,-106.282 z" />
        <path
           id="path900"
           fill="#596c76"
           d="m 416.204,467.702 c -1.432,19.994 14.403,37.004 34.448,37.004 20.046,0 35.881,-17.01 34.449,-37.004 -4.56,-63.666 -6.814,-92.151 -9.043,-140.839 h -50.812 c -2.229,48.715 -4.487,77.253 -9.042,140.839 z" />
        <path
           id="path914"
           fill="#465a61"
           d="m 485.101,467.702 c -4.56,-63.666 -6.814,-92.151 -9.043,-140.839 h -28.326 c 2.229,48.688 4.482,77.173 9.043,140.839 1.071,14.948 -7.511,28.224 -20.286,33.975 4.313,1.942 9.103,3.028 14.163,3.028 20.046,0.001 35.881,-17.008 34.449,-37.003 z" />
      </g>
      <path
         d="M 492.748,467.321 C 483.722,341.309 484.706,357.126 481.089,248.778 V 85.807 c 0,-4.142 -3.357,-7.5 -7.5,-7.5 -4.143,0 -7.5,3.358 -7.5,7.5 v 163.095 c 0,0.083 10e-4,0.167 0.004,0.25 l 2.346,70.263 h -35.321 l 1.987,-55.761 c 0.072,-2.034 -0.685,-4.01 -2.099,-5.475 -2.85,-2.955 -5.452,-2.292 -15.518,-2.292 -0.242,-63.989 5.074,-113.197 5.074,-113.197 7.614,-77.001 23.37,-122.837 43.526,-127.305 v 35.422 c 0,4.142 3.357,7.5 7.5,7.5 4.143,0 7.5,-3.358 7.5,-7.5 V 7.887 c 0,-3.661 -2.644,-6.787 -6.253,-7.396 -49.257,-8.306 -62.259,90.723 -67.204,140.75 -4.517,45.697 -5.538,96.595 -5.079,122.276 0.072,4.09 3.408,7.369 7.499,7.369 h 9.785 c -3.222,90.398 -2.661,80.062 -10.997,196.434 -1.742,24.325 17.565,45.066 41.954,45.066 24.387,10e-4 43.697,-20.74 41.955,-45.065 z m -41.954,30.066 c -15.736,0 -28.115,-13.314 -26.993,-28.995 4.534,-63.296 6.572,-89.162 8.725,-133.977 h 36.536 c 2.162,44.946 4.206,70.887 8.726,133.977 1.122,15.696 -11.274,28.995 -26.994,28.995 z"
         id="path918" />
    </g>
  </g>
</svg>
