<?xml version="1.0" encoding="UTF-8" standalone="no"?>
<svg
   xmlns:dc="http://purl.org/dc/elements/1.1/"
   xmlns:cc="http://creativecommons.org/ns#"
   xmlns:rdf="http://www.w3.org/1999/02/22-rdf-syntax-ns#"
   xmlns:svg="http://www.w3.org/2000/svg"
   xmlns="http://www.w3.org/2000/svg"
   xmlns:sodipodi="http://sodipodi.sourceforge.net/DTD/sodipodi-0.dtd"
   xmlns:inkscape="http://www.inkscape.org/namespaces/inkscape"
   sodipodi:docname="graph.svg"
   inkscape:version="1.0 (4035a4fb49, 2020-05-01)"
   id="svg8"
   version="1.1"
   viewBox="0 0 500 500"
   height="1889.7638"
   width="1889.7638">
  <defs
     id="defs2" />
  <sodipodi:namedview
     inkscape:snap-global="true"
     inkscape:window-maximized="1"
     inkscape:window-y="-9"
     inkscape:window-x="-9"
     inkscape:window-height="1001"
     inkscape:window-width="1920"
     units="px"
     showgrid="false"
     inkscape:document-rotation="0"
     inkscape:current-layer="layer1"
     inkscape:document-units="px"
     inkscape:cy="900.59414"
     inkscape:cx="984.28571"
     inkscape:zoom="0.35"
     inkscape:pageshadow="2"
     inkscape:pageopacity="0.0"
     borderopacity="1.0"
     bordercolor="#666666"
     pagecolor="#ffffff"
     id="base" />
  <metadata
     id="metadata5">
    <rdf:RDF>
      <cc:Work
         rdf:about="">
        <dc:format>image/svg+xml</dc:format>
        <dc:type
           rdf:resource="http://purl.org/dc/dcmitype/StillImage" />
        <dc:title></dc:title>
      </cc:Work>
    </rdf:RDF>
  </metadata>
  <g
     id="layer1"
     inkscape:groupmode="layer"
     inkscape:label="Layer 1">
    <g
       transform="matrix(0.15178268,0,0,0.15178268,3.6080109,42.842083)"
       id="g1397">
      <path
         d="m 467.995,348.985 c 0,85.611 -58.768,155.013 -131.262,155.013 -72.494,0 -131.262,-69.402 -131.262,-155.013 0,-85.611 58.768,-138.524 131.262,-138.524 72.494,0 131.262,52.913 131.262,138.524 z"
         fill="#c991ff"
         id="path1345" />
      <path
         d="m 407.995,230.347 c 22.738,23.854 36.721,57.833 36.721,99.592 0,30.401 -7.411,58.758 -20.215,82.689 -8.03,15.008 -22.55,25.402 -39.248,28.702 -0.27,0.053 -0.528,0.106 -0.774,0.158 -11.227,2.376 -20.301,-0.303 -29.65,6.352 -10.106,7.193 -0.184,33.749 -46.146,37.008 l -0.024,0.002 c -20.878,-0.886 -40.513,-7.529 -57.801,-18.627 23.018,23.535 53.039,37.775 85.876,37.775 72.494,0 131.262,-69.402 131.262,-155.013 -10e-4,-54.586 -23.893,-95.878 -60.001,-118.638 z"
         fill="#d3b3ff"
         id="path1347" />
      <path
         d="m 205.471,348.985 c 0,52.818 22.369,99.465 56.529,127.453 71.03,-19.922 123.865,-95.326 123.865,-185.303 0,-28.665 -5.363,-54.347 -14.968,-76.542 -10.893,-2.725 -22.346,-4.131 -34.164,-4.131 -72.494,-10e-4 -131.262,52.912 -131.262,138.523 z"
         fill="#b173ff"
         id="path1349" />
      <path
         d="M 68.882,24.317 C 92.573,133.676 204.239,41.449 204.239,41.449 155.186,-22.01 68.882,24.317 68.882,24.317 Z"
         fill="#a8ffa9"
         id="path1351" />
      <path
         d="m 69.193,24.153 c 11.061,11.464 27.603,18.744 46.088,18.744 23.352,0 43.603,-11.619 53.619,-28.612 -44.58,-17.786 -95.287,7.578 -99.707,9.868 z"
         fill="#c9ffd2"
         id="path1353" />
      <path
         d="M 302.079,28.997 C 284.355,110.811 200.815,41.814 200.815,41.814 237.513,-5.661 302.079,28.997 302.079,28.997 Z"
         fill="#69da61"
         id="path1355" />
      <path
         d="m 231.344,60.859 c 19.304,9.007 43.421,14.192 58.775,-4.429 -5.567,-7.68 -16.076,-12.859 -28.123,-12.859 -14.24,0 -26.332,7.237 -30.652,17.288 z"
         fill="#5ab161"
         id="path1357" />
      <path
         d="m 366.538,271.807 c 0,105.184 -72.204,190.453 -161.272,190.453 -89.068,0 -161.271,-85.269 -161.271,-190.453 0,-105.184 72.204,-170.194 161.272,-170.194 89.068,0 161.271,65.01 161.271,170.194 z"
         fill="#c991ff"
         id="path1359" />
      <path
         d="m 253.753,453.501 c 65.375,-24.307 112.784,-96.462 112.784,-181.693 0,-93.161 -56.641,-154.807 -131.472,-167.683 -2.576,6.462 3.743,14.05 10.522,19.144 27.229,20.465 53.468,44.478 67.779,76.052 11.855,26.155 14.113,57.787 0.717,83.188 -8.714,16.524 -24.034,31.723 -22.172,50.311 0.863,8.614 5.45,16.367 7.808,24.698 6.474,22.88 -4.542,47.229 -19.225,65.932 -8.267,10.531 -17.771,20.098 -26.741,30.051 z"
         fill="#d3b3ff"
         id="path1361" />
      <path
         d="m 93.22,271.807 c 0,-95.301 59.273,-157.623 136.659,-168.493 -8.025,-1.127 -16.244,-1.701 -24.613,-1.701 -89.068,0 -161.272,65.01 -161.272,170.194 0,105.184 72.204,190.453 161.272,190.453 8.368,0 16.588,-0.753 24.613,-2.204 C 152.493,446.061 93.22,367.109 93.22,271.807 Z"
         fill="#b173ff"
         id="path1363" />
      <path
         d="m 298.561,263.925 c -2.857,4.065 -7.958,7.995 -13.497,7.88 -6.161,-0.128 -9.521,-5.108 -10.338,-9.836 -1.149,-6.645 2.299,-41.583 19.76,-39.801 7.066,0.721 7.836,13.928 8.523,18.451 1.158,7.621 0.779,15.861 -4.448,23.306 z"
         fill="#d3b3ff"
         id="path1365" />
      <path
         d="m 408.207,417.943 c 2.558,-1.916 5.172,-4.432 5.222,-7.628 0.057,-3.61 -3.484,-6.535 -7.084,-6.813 -3.6,-0.278 -7.067,1.493 -9.892,3.742 -3.923,3.124 -11.942,11.486 -7.515,17.032 4.415,5.531 15.262,-3.331 19.269,-6.333 z"
         fill="#d3b3ff"
         id="path1367" />
      <g
         fill="#231f20"
         id="g1373">
        <path
           d="m 140.344,354.168 c -1.712,-4.115 -6.42,-6.011 -10.45,-4.33 -4.789,1.997 -6.323,7.776 -3.59,11.83 2.444,3.713 7.488,4.638 11.09,2.21 3.116,-2.054 4.434,-6.152 2.95,-9.71 z"
           id="path1369" />
        <path
           d="m 442.442,249.875 c -19.99,-23.744 -47.052,-39.216 -78.502,-44.963 -22.618,-66 -80.397,-108.378 -151.338,-111.145 2.762,-10.536 2.927,-22.555 2.26,-32.615 45.689,27.009 83.892,20.977 95.036,-30.46 0.755,-3.488 -0.891,-7.055 -4.035,-8.743 -0.712,-0.382 -17.683,-9.39 -39.609,-12.277 -25.452,-3.351 -47.12,2.866 -63.39,18.034 C 181.381,5.729 151.988,-3.438 117.121,1.154 88.295,4.951 66.032,16.767 65.099,17.268 c -3.145,1.688 -4.791,5.255 -4.035,8.743 16.058,74.124 74.53,73.548 137.252,29.845 1.256,11.896 1.59,27.628 -2.503,38.002 -88.491,4.461 -159.818,71.387 -159.818,177.95 0,52.763 17.448,102.425 49.13,139.84 41.923,49.509 100.316,67.669 154.76,54.503 26.087,29.604 60.288,45.848 96.848,45.848 122.856,-0.001 180.906,-172.808 105.709,-262.124 z M 292.704,33.463 C 283.247,65.823 260.435,66.979 230.35,51.459 223.186,47.764 216.925,43.686 212.533,40.596 233.672,19.67 265.287,21.87 292.704,33.463 Z M 107.462,67.57 C 93.673,62.783 83.841,49.737 78.185,28.748 117.347,11.429 163.132,8.5 192.691,40.19 170.414,56.355 133.454,76.594 107.462,67.57 Z m 229.271,428.428 c -29.619,0 -57.592,-12.363 -79.867,-35.06 56.635,-21.17 96.779,-75.069 111.24,-134.739 1.041,-4.294 -1.597,-8.619 -5.891,-9.659 -4.296,-1.04 -8.619,1.597 -9.659,5.891 -14.061,58.022 -54.352,110.795 -112.041,126.976 -0.129,0.036 -0.249,0.089 -0.375,0.131 -95.985,26.504 -188.145,-60.251 -188.145,-177.731 0,-89.215 53.784,-147.859 125.594,-159.91 -41.369,45.813 -68.002,119.333 -56.83,213.361 0.483,4.067 3.938,7.057 7.934,7.057 4.828,0 8.517,-4.21 7.955,-8.945 -9.333,-78.546 9.672,-132.878 27.258,-164.626 15.72,-28.38 33.14,-44.304 38.882,-49.103 88.586,-1.27 155.75,63.241 155.75,162.166 0,4.418 3.582,8 8,8 4.418,0 8,-3.582 8,-8 0,-16.546 -1.741,-33.294 -5.57,-49.461 24.378,6.062 45.37,18.99 61.235,37.833 66.273,78.718 16.305,235.819 -93.47,235.819 z"
           id="path1371" />
      </g>
    </g>
    <g
       style="fill:none"
       transform="matrix(1.2952071,0,0,1.2952071,20.555913,381.17998)"
       fill-rule="nonzero"
       id="036---Final-Destination">
      <path
         fill="#cfd8dc"
         d="m 59.63,27.65 c -1.172715,0.880009 -2.413257,1.665797 -3.71,2.35 -1.328587,0.708982 -2.705304,1.323826 -4.12,1.84 -0.07844,0.03115 -0.158563,0.05785 -0.24,0.08 -0.36,0.14 -0.72,0.26 -1.09,0.38 -0.92,0.31 -1.86,0.58 -2.81,0.83 -0.32,0.09 -0.64,0.17 -0.97,0.25 -0.15,0.04 -0.3,0.08 -0.45,0.11 -0.4,0.1 -0.8,0.19 -1.21,0.28 -0.07218,0.0214 -0.145663,0.0381 -0.22,0.05 -0.4,0.09 -0.8,0.17 -1.2,0.25 -0.34,0.07 -0.67,0.14 -1,0.2 -0.47,0.09 -0.95,0.18 -1.42,0.27 -0.31,0.06 -0.63,0.12 -0.94,0.17 -0.09,0.02 -0.18,0.03 -0.26,0.05 -0.09,0.02 -0.17,0.03 -0.26,0.05 -0.02,0 -0.05,0.01 -0.07,0.01 -1.19,0.21 -2.37,0.41 -3.56,0.62 h -0.02 c -0.25,0.05 -0.49,0.09 -0.73,0.13 -0.13,0.03 -0.27,0.05 -0.4,0.08 l -0.33,0.06 c -0.49,0.09 -0.98,0.18 -1.46,0.27 h -0.02 c -0.19,0.04 -0.39,0.08 -0.58,0.12 -0.03904,0.01151 -0.07934,0.01822 -0.12,0.02 -0.43,0.09 -0.85,0.18 -1.27,0.27 -0.3,0.06 -0.6,0.13 -0.89,0.2 -0.41,0.09 -0.82,0.19 -1.22,0.29 -0.07105,0.01192 -0.141207,0.02862 -0.21,0.05 -0.48,0.12 -0.95,0.24 -1.42,0.37 -1.18,0.33 -2.34,0.7 -3.48,1.12 -2.512106,0.907252 -4.895454,2.137584 -7.09,3.66 -0.44,0.31 -0.87,0.63 -1.3,0.97 -0.02,-0.06 -0.05,-0.12 -0.07,-0.18 -1.12,-2.88 -3.14,-5.3 -4.22,-8.2 -1.1,-2.96 -2.1966667,-5.92 -3.29,-8.88 -1.1,-2.96 -1.19,-6.42 -2.29,-9.38 0.43,-0.34 0.86,-0.66 1.3,-0.97 2.1925601,-1.523125 4.576455,-2.750377 7.09,-3.65 0.56,-0.21 1.11,-0.4 1.68,-0.58 0.55,-0.18 1.1,-0.34 1.65,-0.5 0.01535,-0.0081 0.03272,-0.01156 0.05,-0.01 0.57,-0.17 1.15,-0.32 1.73,-0.46 0.1,-0.03 0.21,-0.05 0.32,-0.08 0.47,-0.11 0.94,-0.22 1.42,-0.33 0.23,-0.05 0.47,-0.1 0.71,-0.15 0.35,-0.07 0.69,-0.14 1.04,-0.21 0.13,-0.03 0.26,-0.06 0.39,-0.08 0.03,-0.01 0.07,-0.01 0.1,-0.02 0.03265,-0.00827 0.06635,-0.011639 0.1,-0.01 0.13,-0.03 0.27,-0.06 0.4,-0.08 0.02178,-0.011227 0.04557,-0.018025 0.07,-0.02 1.69,-0.32 3.4,-0.61 5.1,-0.91 C 29.7,8.2 30.57,8.04 31.43,7.88 31.86,7.81 32.3,7.72 32.73,7.64 33.35,7.52 33.97,7.4 34.58,7.26 35.1,7.15 35.62,7.04 36.13,6.91 36.47,6.83 36.8,6.75 37.13,6.67 37.61,6.55 38.08,6.42 38.55,6.29 39.1,6.14 39.65,5.97 40.19,5.8 40.67,5.65 41.15,5.48 41.62,5.31 43.148683,4.7609656 44.63586,4.1025974 46.07,3.34 46.268606,3.2431828 46.462187,3.1363796 46.65,3.02 47.565441,2.5123282 48.450296,1.9513636 49.3,1.34 49.540839,1.1638319 49.850012,1.1099453 50.136249,1.1942479 50.422486,1.2785505 50.653096,1.4914145 50.76,1.77 c 0.95,2.56 1.9,5.13 2.84,7.69 1.1,2.96 2.196667,5.916667 3.29,8.87 1.02,2.74 2.03,5.48 3.05,8.22 0.147002,0.39506 0.02166,0.839834 -0.31,1.1 z"
         id="Shape" />
      <path
         fill="#f5f5f5"
         d="m 56.63,29.49 c -0.23,0.18 -0.47,0.35 -0.71,0.51 -1.328587,0.708982 -2.705304,1.323826 -4.12,1.84 -0.07844,0.03115 -0.158563,0.05785 -0.24,0.08 -0.36,0.14 -0.72,0.26 -1.09,0.38 -0.92,0.31 -1.86,0.58 -2.81,0.83 -0.32,0.09 -0.64,0.17 -0.97,0.25 -0.15,0.04 -0.3,0.08 -0.45,0.11 -0.4,0.1 -0.8,0.19 -1.21,0.28 -0.07218,0.0214 -0.145663,0.0381 -0.22,0.05 -0.4,0.09 -0.8,0.17 -1.2,0.25 -0.34,0.07 -0.67,0.14 -1,0.2 -0.47,0.09 -0.95,0.18 -1.42,0.27 -0.31,0.06 -0.63,0.12 -0.94,0.17 -0.09,0.02 -0.18,0.03 -0.26,0.05 -0.09,0.02 -0.17,0.03 -0.26,0.05 -0.02,0 -0.05,0.01 -0.07,0.01 -1.19,0.21 -2.37,0.41 -3.56,0.62 h -0.02 c -0.25,0.05 -0.49,0.09 -0.73,0.13 -0.13,0.03 -0.27,0.05 -0.4,0.08 l -0.33,0.06 c -0.49,0.09 -0.98,0.18 -1.46,0.27 h -0.02 c -0.19,0.04 -0.39,0.08 -0.58,0.12 -0.03904,0.01151 -0.07934,0.01822 -0.12,0.02 -0.43,0.09 -0.85,0.18 -1.27,0.27 -0.3,0.06 -0.6,0.13 -0.89,0.2 -0.41,0.09 -0.82,0.19 -1.22,0.29 -0.07105,0.01192 -0.141207,0.02862 -0.21,0.05 -0.48,0.12 -0.95,0.24 -1.42,0.37 -1.18,0.33 -2.34,0.7 -3.48,1.12 -2.512106,0.907252 -4.895454,2.137584 -7.09,3.66 -0.46,0.25 -0.92,0.51 -1.37,0.79 -1.12,-2.88 -3.14,-5.3 -4.22,-8.2 -1.1,-2.96 -2.1966667,-5.92 -3.29,-8.88 -1.1,-2.96 -1.19,-6.42 -2.29,-9.38 0.43,-0.34 0.86,-0.66 1.3,-0.97 1.3208794,-0.695035 2.6873436,-1.299754 4.09,-1.81 0.56,-0.21 1.11,-0.4 1.68,-0.58 0.55,-0.18 1.1,-0.34 1.65,-0.5 0.01535,-0.0081 0.03272,-0.01156 0.05,-0.01 0.57,-0.17 1.15,-0.32 1.73,-0.46 0.1,-0.03 0.21,-0.05 0.32,-0.08 0.47,-0.11 0.94,-0.22 1.42,-0.33 0.23,-0.05 0.47,-0.1 0.71,-0.15 0.35,-0.07 0.69,-0.14 1.04,-0.21 0.13,-0.03 0.26,-0.06 0.39,-0.08 0.03,-0.01 0.07,-0.01 0.1,-0.02 0.03265,-0.0083 0.06635,-0.01164 0.1,-0.01 0.13,-0.03 0.27,-0.06 0.4,-0.08 0.02178,-0.01123 0.04557,-0.01802 0.07,-0.02 1.69,-0.32 3.4,-0.61 5.1,-0.91 0.86,-0.15 1.73,-0.31 2.59,-0.47 0.43,-0.07 0.87,-0.16 1.3,-0.24 0.62,-0.12 1.24,-0.24 1.85,-0.38 0.52,-0.11 1.04,-0.22 1.55,-0.35 0.34,-0.08 0.67,-0.16 1,-0.24 0.48,-0.12 0.95,-0.25 1.42,-0.38 0.55,-0.15 1.1,-0.32 1.64,-0.49 0.48,-0.15 0.96,-0.32 1.43,-0.49 2.643869,-0.928031 5.149953,-2.2096661 7.45,-3.81 0.08,-0.05 0.15,-0.11 0.23,-0.16 0.105252,-0.075414 0.224104,-0.1297462 0.35,-0.16 0.465287,-0.1071056 0.938486,0.1444144 1.11,0.59 0.95,2.56 1.9,5.13 2.84,7.69 1.1,2.96 2.196667,5.916667 3.29,8.87 1.02,2.74 2.03,5.48 3.05,8.22 0.147002,0.39506 0.02166,0.839834 -0.31,1.1 z"
         id="path1443" />
      <g
         id="g1457"
         fill="#607d8b">
        <path
           d="m 26.56,18.24 c -3.125656,0.552678 -6.199678,1.365504 -9.19,2.43 -1.1,-2.96 -2.196667,-5.92 -3.29,-8.88 0.56,-0.21 1.11,-0.4 1.68,-0.58 0.55,-0.18 1.1,-0.34 1.65,-0.5 0.01535,-0.0081 0.03272,-0.01156 0.05,-0.01 0.57,-0.17 1.15,-0.32 1.73,-0.46 0.1,-0.03 0.21,-0.05 0.32,-0.08 0.47,-0.11 0.94,-0.22 1.42,-0.33 0.23,-0.05 0.47,-0.1 0.71,-0.15 0.35,-0.07 0.69,-0.14 1.04,-0.21 0.13,-0.03 0.26,-0.06 0.39,-0.08 0.03,-0.01 0.07,-0.01 0.1,-0.02 0.03265,-0.00827 0.06635,-0.011639 0.1,-0.01 1.1,2.96 2.196667,5.92 3.29,8.88 z"
           id="path1445" />
        <path
           d="m 33.14,35.98 c -0.19,0.04 -0.39,0.08 -0.58,0.12 -0.03904,0.01151 -0.07934,0.01822 -0.12,0.02 -0.43,0.09 -0.85,0.18 -1.27,0.27 -0.3,0.06 -0.6,0.13 -0.89,0.2 -0.41,0.09 -0.82,0.19 -1.22,0.29 -0.07105,0.01192 -0.141207,0.02862 -0.21,0.05 -0.48,0.12 -0.95,0.24 -1.42,0.37 -1.18,0.33 -2.34,0.7 -3.48,1.12 -1.1,-2.95 -2.196667,-5.906667 -3.29,-8.87 2.991871,-1.06193 6.065402,-1.877971 9.19,-2.44 1.1,2.96 2.196667,5.916667 3.29,8.87 z"
           id="path1447" />
        <path
           d="m 45.22,14.08 c -2.994899,1.063173 -6.071854,1.879235 -9.2,2.44 -1.09,-2.96 -2.186667,-5.92 -3.29,-8.88 0.62,-0.12 1.24,-0.24 1.85,-0.38 0.52,-0.11 1.04,-0.22 1.55,-0.35 0.34,-0.08 0.67,-0.16 1,-0.24 0.48,-0.12 0.95,-0.25 1.42,-0.38 0.55,-0.15 1.1,-0.32 1.64,-0.49 0.48,-0.15 0.96,-0.32 1.43,-0.49 0.105381,-0.030618 0.20889,-0.067347 0.31,-0.11 1.1,2.96 2.196667,5.92 3.29,8.88 z"
           id="path1449" />
        <path
           d="m 51.8,31.84 c -0.07844,0.03115 -0.158563,0.05785 -0.24,0.08 -0.36,0.14 -0.72,0.26 -1.09,0.38 -0.92,0.31 -1.86,0.58 -2.81,0.83 -0.32,0.09 -0.64,0.17 -0.97,0.25 -0.15,0.04 -0.3,0.08 -0.45,0.11 -0.4,0.1 -0.8,0.19 -1.21,0.28 -0.07218,0.0214 -0.145663,0.0381 -0.22,0.05 -0.4,0.09 -0.8,0.17 -1.2,0.25 -0.34,0.07 -0.67,0.14 -1,0.2 -1.1,-2.96 -2.196667,-5.92 -3.29,-8.88 3.124598,-0.562029 6.198129,-1.37807 9.19,-2.44 1.09,2.96 2.186667,5.923333 3.29,8.89 z"
           id="path1451" />
        <path
           d="m 20.66,29.55 c -3.027354,1.077823 -5.860565,2.637947 -8.39,4.62 -1.1,-2.96 -2.196667,-5.92 -3.29,-8.88 2.529435,-1.982053 5.362646,-3.542177 8.39,-4.62 1.1,2.96 2.196667,5.92 3.29,8.88 z"
           id="path1453" />
        <path
           d="m 39.32,25.39 c -3.14,0.61 -6.33,1.1 -9.47,1.72 -1.1,-2.96 -2.196667,-5.916667 -3.29,-8.87 3.14,-0.62 6.32,-1.11 9.46,-1.72 1.1,2.96 2.2,5.916667 3.3,8.87 z"
           id="path1455" />
      </g>
      <path
         fill="#37474f"
         d="m 56.89,18.33 c -1.767742,1.403609 -3.698356,2.588838 -5.75,3.53 -0.86,0.4 -1.74,0.76 -2.63,1.09 -1.07,-2.87 -2.12,-5.73 -3.19,-8.6 -0.03,-0.09 -0.07,-0.18 -0.1,-0.27 0.91,-0.34 1.81,-0.71 2.69,-1.13 1.008598,-0.467923 1.990141,-0.992081 2.94,-1.57 0.954533,-0.583979 1.872876,-1.225149 2.75,-1.92 1.1,2.96 2.196667,5.916667 3.29,8.87 z"
         id="path1459" />
      <path
         fill="#607d8b"
         d="m 54,19.87 c -0.908996,0.724887 -1.864362,1.389635 -2.86,1.99 -0.86,0.4 -1.74,0.76 -2.63,1.09 -1.07,-2.87 -2.12,-5.73 -3.19,-8.6 0.88,-0.42 1.74,-0.89 2.59,-1.4 0.973401,-0.590487 1.908591,-1.24178 2.8,-1.95 0.05,0.13 0.09,0.25 0.14,0.38 1.05,2.83 2.11,5.67 3.15,8.49 z"
         id="path1461" />
      <path
         fill="#ff9801"
         d="m 19.065,58.2568 -0.6887,0.2552 c -1.035526,0.383636 -2.186014,-0.144603 -2.57,-1.18 L 2.0332,20.1649 C 1.8913945,19.781964 2.0110225,19.351255 2.33,19.0963 L 5.6908,16.41 20.2454,55.6865 c 0.383794,1.035727 -0.144684,2.186478 -1.1804,2.5703 z"
         id="path1463" />
      <path
         fill="#000000"
         d="M 15.5615,44.0464 C 15.14324,44.046632 14.769114,43.78628 14.624,43.394 L 4.7529,16.7573 C 4.6024619,16.3518 4.7297603,15.895544 5.0684,15.6265 11.77,10.3037 19.9346,8.8823 27.8311,7.5083 35.4268,6.186 42.6016,4.9375 48.7148,0.5332 c 0.498627,-0.36417023 1.139875,-0.4716626 1.73,-0.29 0.57902,0.17415741 1.042175,0.6108936 1.25,1.1787 l 9.1836,24.7837 c 0.297916,0.80842 0.03438,1.71662 -0.65,2.24 -6.5859,4.9551 -14.5146,6.335 -22.1826,7.67 -8.001,1.3926 -15.5595,2.708 -21.8613,7.7144 -0.177178,0.140585 -0.396823,0.216879 -0.623,0.2164 z m -8.6777,-27.2949 9.1484,24.687 c 6.4854,-4.6514 14.1973,-5.9932 21.67,-7.294 7.7627,-1.351 15.0967,-2.6274 21.29,-7.2724 L 49.8193,2.1167 c -6.4218,4.7124 -14.1611,6.0591 -21.6455,7.3618 -7.7617,1.3506 -15.1054,2.6289 -21.29,7.273 z"
         id="path1465" />
      <path
         fill="#000000"
         d="m 23.9473,39.4253 c -0.418271,-1.22e-4 -0.792277,-0.26055 -0.9375,-0.6528 L 13.1387,12.1357 C 13.0462,11.886995 13.05642,11.611713 13.1671,11.370548 13.277775,11.129384 13.479825,10.94214 13.7287,10.8501 18.318607,9.3127404 23.038318,8.1942385 27.83,7.5083 32.501882,6.8403391 37.104153,5.7531856 41.5811,4.26 c 0.517792,-0.1918841 1.093108,0.072248 1.2851,0.59 l 9.8711,26.6367 c 0.0925,0.248705 0.08228,0.523987 -0.0284,0.765152 -0.110678,0.241164 -0.312727,0.428408 -0.561602,0.520448 -4.590634,1.537678 -9.311122,2.656349 -14.1036,3.3423 -4.671137,0.667927 -9.272693,1.754844 -13.749,3.2476 -0.111215,0.0412 -0.2288,0.06256 -0.3474,0.0631 z M 15.3662,12.3911 24.542,37.1519 c 4.301088,-1.34462 8.700966,-2.35 13.1592,-3.0069 4.338298,-0.639464 8.62066,-1.613399 12.8088,-2.9131 L 41.334,6.4717 c -4.301722,1.3446403 -8.702236,2.3499867 -13.1611,3.0068 -4.337507,0.639775 -8.619134,1.613536 -12.8067,2.9126 z"
         id="path1467" />
      <path
         fill="#000000"
         d="m 33.1406,36.9858 c -0.417841,-2.59e-4 -0.791408,-0.260459 -0.9365,-0.6523 L 22.333,9.6968 C 22.230772,9.4216522 22.25467,9.1154752 22.398351,8.8595211 22.542033,8.603567 22.79097,8.4237174 23.0791,8.3677 c 1.5742,-0.3062 3.1582,-0.5821 4.7432,-0.8579 1.5771,-0.2744 3.1543,-0.5494 4.7207,-0.854 0.480735,-0.093698 0.958588,0.1745837 1.1289,0.6338 l 9.8711,26.6372 c 0.102009,0.275154 0.07801,0.581226 -0.06564,0.837119 -0.143647,0.255892 -0.392443,0.435773 -0.680464,0.491981 -1.5772,0.3066 -3.1641,0.583 -4.752,0.8593 -1.5742,0.274 -3.1494,0.5479 -4.7119,0.8521 -0.06338,0.0124 -0.127818,0.0186 -0.1924,0.0185 z m -8.5215,-26.875 9.1661,24.7339 c 1.3017,-0.2446 2.6093,-0.4721 3.9169,-0.7 1.1866,-0.2065 2.3731,-0.4131 3.5547,-0.6323 L 32.0908,8.7783 C 30.7861,9.0239 29.4756,9.252 28.165,9.48 26.9814,9.686 25.7979,9.8921 24.6191,10.1108 Z"
         id="path1469" />
      <path
         fill="#000000"
         d="m 12.2715,35.1675 c -0.418278,2.9e-4 -0.792434,-0.260083 -0.9375,-0.6524 L 8.043,25.6362 c -0.1504604,-0.405478 -0.023204,-0.86173 0.3154,-1.1308 6.7012,-5.3228 14.8662,-6.7437 22.7627,-8.1182 8.0019,-1.3926 15.56,-2.708 21.8613,-7.7148 0.250963,-0.1994876 0.582355,-0.2665572 0.891138,-0.1803553 0.308783,0.086202 0.557516,0.3152231 0.668862,0.6158553 l 3.29,8.8789 c 0.150509,0.405507 0.02325,0.861815 -0.3154,1.1309 -6.7,5.3232 -14.8662,6.7441 -22.7627,8.1186 -8.001,1.3926 -15.5586,2.708 -21.86,7.7144 -0.177087,0.140658 -0.396649,0.217088 -0.6228,0.2168 z m -2.0977,-9.5375 2.5684,6.93 c 6.4844,-4.6509 14.1973,-5.9932 21.6689,-7.2935 7.7618,-1.3511 15.1055,-2.6294 21.29,-7.2734 l -2.5674,-6.9292 c -6.4844,4.6513 -14.1973,5.9936 -21.67,7.2939 -7.7616,1.3507 -15.1053,2.6285 -21.2899,7.2722 z"
         id="path1471" />
      <path
         fill="#000000"
         d="m 17.68,59.6382 c -1.254114,-0.0024 -2.37488,-0.783342 -2.8115,-1.959 L 1.0957,20.5127 c -0.29282965,-0.787574 -0.046805,-1.67415 0.61,-2.1982 l 3.36,-2.6861 C 5.3164481,15.428191 5.6480394,15.360468 5.9572119,15.446319 6.2663843,15.532171 6.5155815,15.761169 6.6272,16.062 l 14.5554,39.2769 c 0.574168,1.553347 -0.217745,3.278286 -1.77,3.8554 l -0.6895,0.2559 c -0.333843,0.123873 -0.687017,0.187526 -1.0431,0.188 z M 5.2334,18.0552 2.9541,19.8774 16.7432,56.9839 c 0.191931,0.517825 0.767095,0.782246 1.2851,0.5908 l 0.6895,-0.2554 c 0.517144,-0.192648 0.780991,-0.767342 0.59,-1.2851 z"
         id="path1473" />
    </g>
    <g
       id="g1533"
       transform="matrix(0.09796212,0,0,0.09796212,110.28997,-12.640248)">
	<path
   id="path1521"
   d="M 45.78,646.161 326.89,411.903 h 305.368 c 6.563,0 11.903,-5.34 11.903,-11.903 v -1 h 27.807 v 1 c 0,6.563 5.34,11.903 11.903,11.903 h 91.322 v 234.258 z"
   fill="#ed1f34" />

	<path
   id="path1523"
   d="m 683.871,412.903 c -7.126,0 -12.903,-5.777 -12.903,-12.903 h -25.807 c 0,7.126 -5.777,12.903 -12.903,12.903 H 327.252 L 48.542,645.161 H 774.193 V 412.903 Z"
   fill="#ed1f34" />

	<path
   id="path1525"
   d="m 683.871,387.097 h 90.322 V 154.839 H 48.542 l 278.71,232.258 h 305.006 c 7.126,0 12.903,5.777 12.903,12.903 h 25.807 c 0,-7.126 5.777,-12.903 12.903,-12.903 z"
   fill="#ffffff" />

	<polygon
   id="polygon1527"
   points="24.807,167.35 303.988,400 24.807,632.65 "
   fill="#103b9b" />

	<polygon
   id="polygon1529"
   points="302.426,400 25.807,169.485 25.807,630.516 "
   fill="#103b9b" />

	<path
   id="path1531"
   d="M 787.097,129.032 H 12.903 c -0.14,0 -0.273,0.017 -0.411,0.021 -0.274,0.009 -0.549,0.016 -0.821,0.042 -0.224,0.021 -0.444,0.06 -0.664,0.093 -0.193,0.029 -0.385,0.052 -0.576,0.088 -0.241,0.046 -0.473,0.108 -0.709,0.168 -0.17,0.043 -0.342,0.081 -0.511,0.131 -0.229,0.069 -0.449,0.149 -0.672,0.23 -0.174,0.062 -0.349,0.121 -0.521,0.191 -0.201,0.083 -0.396,0.177 -0.592,0.269 -0.188,0.087 -0.376,0.172 -0.561,0.27 -0.172,0.091 -0.337,0.194 -0.506,0.292 -0.196,0.115 -0.393,0.227 -0.583,0.354 -0.155,0.103 -0.301,0.217 -0.451,0.325 -0.189,0.138 -0.378,0.272 -0.561,0.419 -0.16,0.131 -0.311,0.274 -0.464,0.412 -0.157,0.141 -0.316,0.275 -0.468,0.426 -0.208,0.205 -0.401,0.425 -0.594,0.644 -0.081,0.091 -0.168,0.174 -0.246,0.267 -0.007,0.007 -0.012,0.016 -0.017,0.024 -0.273,0.33 -0.533,0.672 -0.774,1.03 -0.024,0.036 -0.043,0.074 -0.067,0.11 -0.208,0.316 -0.408,0.638 -0.588,0.974 -0.089,0.165 -0.162,0.337 -0.244,0.506 -0.102,0.21 -0.21,0.418 -0.301,0.635 -0.084,0.203 -0.151,0.41 -0.225,0.616 -0.069,0.19 -0.145,0.376 -0.205,0.573 -0.076,0.244 -0.131,0.492 -0.191,0.74 -0.04,0.162 -0.088,0.32 -0.122,0.483 -0.079,0.394 -0.139,0.79 -0.181,1.186 -0.001,0.022 -0.009,0.044 -0.01,0.068 -0.043,0.429 -0.063,0.859 -0.065,1.289 0.002,0.008 0,0.017 0,0.027 v 516.129 c 0,0.011 0.002,0.019 0.002,0.027 0,0.431 0.021,0.86 0.065,1.289 0.003,0.027 0.009,0.053 0.012,0.079 0.043,0.394 0.1,0.786 0.179,1.175 0.032,0.165 0.083,0.325 0.122,0.488 0.06,0.246 0.115,0.492 0.189,0.735 0.061,0.195 0.138,0.385 0.207,0.576 0.074,0.204 0.139,0.409 0.224,0.61 0.091,0.219 0.201,0.429 0.305,0.642 0.081,0.167 0.151,0.336 0.239,0.499 0.184,0.341 0.385,0.67 0.599,0.991 0.021,0.031 0.036,0.062 0.057,0.093 0.241,0.356 0.5,0.7 0.774,1.03 0.007,0.007 0.012,0.016 0.018,0.024 0.044,0.054 0.095,0.098 0.139,0.149 0.244,0.284 0.497,0.56 0.766,0.821 0.131,0.127 0.267,0.244 0.401,0.364 0.198,0.178 0.396,0.352 0.604,0.517 0.16,0.127 0.323,0.246 0.487,0.364 0.2,0.143 0.402,0.28 0.609,0.413 0.17,0.108 0.339,0.213 0.513,0.312 0.224,0.127 0.453,0.246 0.685,0.359 0.163,0.081 0.323,0.163 0.49,0.235 0.265,0.117 0.537,0.221 0.81,0.32 0.141,0.052 0.279,0.108 0.421,0.155 0.32,0.103 0.647,0.188 0.978,0.268 0.103,0.024 0.207,0.058 0.31,0.079 0.382,0.081 0.772,0.142 1.167,0.188 0.057,0.007 0.112,0.019 0.168,0.025 0.451,0.047 0.905,0.072 1.366,0.072 h 774.193 c 7.126,0 12.903,-5.777 12.903,-12.903 V 141.936 C 800,134.81 794.223,129.032 787.097,129.032 Z M 302.426,400 25.807,630.516 V 169.485 Z M 48.542,645.161 327.252,412.903 h 305.006 c 7.126,0 12.903,-5.777 12.903,-12.903 0,-7.126 -5.777,-12.903 -12.903,-12.903 H 327.252 L 48.542,154.839 h 725.651 v 232.258 h -90.322 c -7.126,0 -12.903,5.777 -12.903,12.903 0,7.126 5.777,12.903 12.903,12.903 h 90.322 v 232.258 z" />

</g>
    <g
       id="g1549"
       transform="matrix(0.09796212,0,0,0.09796212,260.85942,3.748386)">
	<path
   id="path1535"
   d="m 644.161,487.021 v -1 c 0,-6.563 -5.34,-11.903 -11.903,-11.903 H 24.807 V 325.882 h 750.387 v 148.236 h -91.322 c -6.563,0 -11.903,5.34 -11.903,11.903 v 1 z"
   fill="#ed1f34" />

	<path
   id="path1537"
   d="m 683.871,473.118 h 90.322 V 326.882 H 25.807 v 146.236 h 606.451 c 7.128,0 12.903,5.777 12.903,12.903 h 25.807 c 0,-7.125 5.775,-12.903 12.903,-12.903 z"
   fill="#ed1f34" />

	<path
   id="path1539"
   d="M 24.807,646.161 V 497.925 h 607.451 c 6.563,0 11.903,-5.34 11.903,-11.903 v -1 h 27.807 v 1 c 0,6.563 5.34,11.903 11.903,11.903 h 91.322 v 148.236 z"
   fill="#ffe000" />

	<path
   id="path1541"
   d="m 683.871,498.925 c -7.128,0 -12.903,-5.777 -12.903,-12.903 h -25.807 c 0,7.126 -5.775,12.903 -12.903,12.903 H 25.807 V 645.161 H 774.194 V 498.925 Z"
   fill="#ffe000" />

	<rect
   id="rect1543"
   height="148.23599"
   width="750.38702"
   fill="#333333"
   y="153.839"
   x="24.806999" />

	<rect
   id="rect1545"
   height="146.23599"
   width="748.38702"
   fill="#333333"
   y="154.839"
   x="25.806999" />

	<path
   id="path1547"
   d="M 787.097,129.032 H 12.903 C 5.777,129.032 0,134.81 0,141.936 v 516.129 c 0,7.126 5.777,12.903 12.903,12.903 h 774.193 c 7.128,0 12.903,-5.777 12.903,-12.903 V 141.936 C 800,134.81 794.225,129.032 787.097,129.032 Z m -12.904,25.807 V 301.075 H 25.807 V 154.839 Z M 25.807,645.161 V 498.925 h 606.451 c 7.128,0 12.903,-5.777 12.903,-12.903 0,-7.126 -5.775,-12.903 -12.903,-12.903 H 25.807 V 326.882 h 748.387 v 146.236 h -90.322 c -7.128,0 -12.903,5.777 -12.903,12.903 0,7.126 5.775,12.903 12.903,12.903 h 90.322 V 645.16 H 25.807 Z" />

</g>
    <g
       id="g1563"
       transform="matrix(0.09796212,0,0,0.09796212,407.28101,20.712743)">
	<path
   id="path1551"
   d="M 632.258,326.882 H 25.807 V 473.118 H 774.194 V 326.882 h -90.322 c -7.128,0 -12.903,-5.777 -12.903,-12.903 h -25.807 c -0.001,7.125 -5.776,12.903 -12.904,12.903 z"
   fill="#ffffff" />

	<path
   id="path1553"
   d="m 644.161,314.979 v -1 c 0,-6.563 -5.34,-11.903 -11.903,-11.903 H 24.807 V 153.839 h 750.387 v 148.236 h -91.322 c -6.563,0 -11.903,5.34 -11.903,11.903 v 1 h -27.808 z"
   fill="#b21727" />

	<path
   id="path1555"
   d="m 632.258,301.075 c 7.128,0 12.903,5.777 12.903,12.903 h 25.807 c 0,-7.126 5.775,-12.903 12.903,-12.903 h 90.322 V 154.839 H 25.807 v 146.236 z"
   fill="#b21727" />

	<rect
   id="rect1557"
   height="148.23599"
   width="750.38702"
   fill="#103b9b"
   y="497.92499"
   x="24.806999" />

	<rect
   id="rect1559"
   height="146.23599"
   width="748.38702"
   fill="#103b9b"
   y="498.92499"
   x="25.806999" />

	<path
   id="path1561"
   d="M 787.097,129.032 H 12.903 C 5.777,129.032 0,134.81 0,141.936 v 516.129 c 0,7.126 5.777,12.903 12.903,12.903 h 774.193 c 7.128,0 12.903,-5.777 12.903,-12.903 V 141.936 C 800,134.81 794.225,129.032 787.097,129.032 Z m -12.904,25.807 v 146.236 h -90.322 c -7.128,0 -12.903,5.777 -12.903,12.903 0,7.126 5.775,12.903 12.903,12.903 h 90.322 V 473.117 H 25.807 V 326.882 h 606.451 c 7.128,0 12.903,-5.777 12.903,-12.903 0,-7.126 -5.775,-12.903 -12.903,-12.903 H 25.807 V 154.839 Z M 25.807,645.161 V 498.925 h 748.387 v 146.236 z" />

</g>
    <g
       id="g1579"
       transform="matrix(0.09796212,0,0,0.09796212,394.31669,132.26282)">
	<path
   id="path1565"
   d="m 644.161,487.021 v -1 c 0,-6.563 -5.34,-11.903 -11.903,-11.903 H 24.807 V 325.882 h 750.387 v 148.236 h -91.322 c -6.563,0 -11.903,5.34 -11.903,11.903 v 1 z"
   fill="#ed1f34" />

	<path
   id="path1567"
   d="m 683.871,473.118 h 90.322 V 326.882 H 25.807 v 146.236 h 606.451 c 7.128,0 12.903,5.777 12.903,12.903 h 25.807 c 0,-7.125 5.775,-12.903 12.903,-12.903 z"
   fill="#ed1f34" />

	<path
   id="path1569"
   d="M 24.807,646.161 V 497.925 h 607.451 c 6.563,0 11.903,-5.34 11.903,-11.903 v -1 h 27.807 v 1 c 0,6.563 5.34,11.903 11.903,11.903 h 91.322 v 148.236 z"
   fill="#ffe000" />

	<path
   id="path1571"
   d="m 683.871,498.925 c -7.128,0 -12.903,-5.777 -12.903,-12.903 h -25.807 c 0,7.126 -5.775,12.903 -12.903,12.903 H 25.807 V 645.161 H 774.194 V 498.925 Z"
   fill="#ffe000" />

	<rect
   id="rect1573"
   height="148.23599"
   width="750.38702"
   fill="#333333"
   y="153.839"
   x="24.806999" />

	<rect
   id="rect1575"
   height="146.23599"
   width="748.38702"
   fill="#333333"
   y="154.839"
   x="25.806999" />

	<path
   id="path1577"
   d="M 787.097,129.032 H 12.903 C 5.777,129.032 0,134.81 0,141.936 v 516.129 c 0,7.126 5.777,12.903 12.903,12.903 h 774.193 c 7.128,0 12.903,-5.777 12.903,-12.903 V 141.936 C 800,134.81 794.225,129.032 787.097,129.032 Z m -12.904,25.807 V 301.075 H 25.807 V 154.839 Z M 25.807,645.161 V 498.925 h 606.451 c 7.128,0 12.903,-5.777 12.903,-12.903 0,-7.126 -5.775,-12.903 -12.903,-12.903 H 25.807 V 326.882 h 748.387 v 146.236 h -90.322 c -7.128,0 -12.903,5.777 -12.903,12.903 0,7.126 5.775,12.903 12.903,12.903 h 90.322 V 645.16 H 25.807 Z" />

</g>
    <g
       id="g1643"
       transform="matrix(0.09796212,0,0,0.09796212,226.35684,140.21199)">
	<polygon
   id="polygon1581"
   points="24.807,331.323 24.807,232.411 173.175,331.323 "
   fill="#103b9b" />

	<polygon
   id="polygon1583"
   points="25.807,234.279 25.807,330.323 169.872,330.323 "
   fill="#103b9b" />

	<polygon
   id="polygon1585"
   points="154.567,153.839 331.322,153.839 331.322,271.675 "
   fill="#103b9b" />

	<polygon
   id="polygon1587"
   points="330.322,154.839 157.87,154.839 330.322,269.807 "
   fill="#103b9b" />

	<polygon
   id="polygon1589"
   points="24.807,468.678 173.175,468.678 24.807,567.589 "
   fill="#103b9b" />

	<polygon
   id="polygon1591"
   points="25.807,469.678 25.807,565.721 169.872,469.678 "
   fill="#103b9b" />

	<polygon
   id="polygon1593"
   points="468.678,153.839 645.433,153.839 468.678,271.675 "
   fill="#103b9b" />

	<polygon
   id="polygon1595"
   points="642.13,154.839 469.678,154.839 469.678,269.807 "
   fill="#103b9b" />

	<polygon
   id="polygon1597"
   points="626.825,331.323 775.193,232.411 775.193,331.323 "
   fill="#103b9b" />

	<polygon
   id="polygon1599"
   points="774.193,330.323 774.193,234.279 630.128,330.323 "
   fill="#103b9b" />

	<polygon
   id="polygon1601"
   points="154.567,646.161 331.322,528.323 331.322,646.161 "
   fill="#103b9b" />

	<polygon
   id="polygon1603"
   points="157.87,645.161 330.322,645.161 330.322,530.191 "
   fill="#103b9b" />

	<polygon
   id="polygon1605"
   points="626.825,468.678 775.193,468.678 775.193,567.589 "
   fill="#103b9b" />

	<polygon
   id="polygon1607"
   points="774.193,565.721 774.193,469.678 630.128,469.678 "
   fill="#103b9b" />

	<polygon
   id="polygon1609"
   points="468.678,646.161 468.678,528.323 645.433,646.161 "
   fill="#103b9b" />

	<polygon
   id="polygon1611"
   points="469.678,645.161 642.13,645.161 469.678,530.191 "
   fill="#103b9b" />

	<polygon
   id="polygon1613"
   points="660.743,154.839 642.13,154.839 469.678,269.807 469.678,154.839 450.322,154.839 450.322,349.677 774.193,349.677 774.193,330.323 630.128,330.323 774.193,234.279 774.193,166.045 527.778,330.323 481.254,330.323 469.678,330.323 469.678,313.244 469.678,282.228 "
   fill="#ffffff" />

	<polygon
   id="polygon1615"
   points="139.262,645.161 157.87,645.161 330.322,530.191 330.322,645.161 349.678,645.161 349.678,450.322 25.807,450.322 25.807,469.678 169.872,469.678 25.807,565.721 25.807,633.954 272.222,469.678 318.746,469.678 330.322,469.678 330.322,486.77 330.322,517.786 "
   fill="#ffffff" />

	<polygon
   id="polygon1617"
   points="52.217,646.161 318.443,468.678 331.322,468.678 331.322,487.305 93.041,646.161 "
   fill="#ed1f34" />

	<polygon
   id="polygon1619"
   points="318.746,469.678 55.52,645.161 92.738,645.161 330.322,486.77 330.322,469.678 "
   fill="#ed1f34" />

	<polygon
   id="polygon1621"
   points="275.525,331.323 234.126,331.323 24.807,191.44 24.807,164.177 "
   fill="#ed1f34" />

	<polygon
   id="polygon1623"
   points="272.222,330.323 25.807,166.045 25.807,190.906 234.429,330.323 "
   fill="#ed1f34" />

	<polygon
   id="polygon1625"
   points="775.193,635.822 524.476,468.678 564.026,468.678 775.193,609.788 "
   fill="#ed1f34" />

	<polygon
   id="polygon1627"
   points="527.778,469.678 774.193,633.954 774.193,610.322 563.723,469.678 "
   fill="#ed1f34" />

	<polygon
   id="polygon1629"
   points="468.678,331.323 468.678,312.708 706.959,153.839 747.783,153.839 481.557,331.323 "
   fill="#ed1f34" />

	<polygon
   id="polygon1631"
   points="481.254,330.323 744.48,154.839 707.262,154.839 469.678,313.244 469.678,330.323 "
   fill="#ed1f34" />

	<path
   id="path1633"
   d="m 800,657.979 v -54.572 c 0,-0.021 0,-0.041 0,-0.062 V 142.02 c 0,-0.014 0,-0.025 0,-0.039 v -0.045 c 0,-0.076 -0.011,-0.15 -0.012,-0.226 -0.006,-0.348 -0.02,-0.693 -0.054,-1.041 -0.014,-0.148 -0.041,-0.291 -0.061,-0.436 -0.036,-0.272 -0.07,-0.545 -0.125,-0.815 -0.038,-0.189 -0.09,-0.374 -0.136,-0.561 -0.054,-0.22 -0.104,-0.44 -0.169,-0.659 -0.069,-0.227 -0.153,-0.446 -0.232,-0.666 -0.063,-0.172 -0.118,-0.346 -0.189,-0.516 -0.111,-0.27 -0.239,-0.53 -0.368,-0.79 -0.059,-0.119 -0.108,-0.237 -0.17,-0.354 -0.178,-0.33 -0.37,-0.65 -0.573,-0.963 -0.027,-0.043 -0.05,-0.088 -0.077,-0.131 -0.002,-0.003 -0.005,-0.007 -0.009,-0.01 -0.241,-0.359 -0.497,-0.708 -0.772,-1.042 -0.125,-0.153 -0.265,-0.289 -0.396,-0.435 -0.146,-0.162 -0.287,-0.331 -0.442,-0.485 -0.217,-0.217 -0.447,-0.417 -0.678,-0.616 -0.084,-0.072 -0.162,-0.153 -0.249,-0.224 -0.221,-0.181 -0.451,-0.344 -0.682,-0.509 -0.11,-0.08 -0.217,-0.167 -0.33,-0.243 -0.2,-0.134 -0.408,-0.251 -0.614,-0.374 -0.158,-0.094 -0.313,-0.194 -0.475,-0.28 -0.164,-0.088 -0.334,-0.162 -0.503,-0.243 -0.215,-0.103 -0.427,-0.21 -0.646,-0.303 -0.126,-0.052 -0.255,-0.093 -0.382,-0.14 -0.267,-0.1 -0.532,-0.201 -0.806,-0.285 -0.1,-0.031 -0.201,-0.05 -0.303,-0.078 -0.301,-0.083 -0.602,-0.167 -0.91,-0.227 -0.138,-0.027 -0.276,-0.04 -0.414,-0.063 -0.298,-0.05 -0.596,-0.1 -0.9,-0.127 -0.398,-0.038 -0.8,-0.06 -1.202,-0.06 -0.009,-0.002 -0.018,-0.002 -0.024,-0.002 h -83.654 c -0.016,0 -0.029,0 -0.045,0 H 12.903 c -0.007,0 -0.014,0 -0.021,0 -0.403,0.002 -0.805,0.022 -1.206,0.06 -0.351,0.033 -0.695,0.088 -1.038,0.148 -0.091,0.016 -0.183,0.024 -0.272,0.042 -0.337,0.067 -0.666,0.155 -0.993,0.248 -0.072,0.021 -0.146,0.035 -0.218,0.057 -0.296,0.089 -0.583,0.198 -0.871,0.308 -0.105,0.04 -0.213,0.072 -0.316,0.117 -0.241,0.1 -0.473,0.215 -0.706,0.33 -0.146,0.072 -0.298,0.136 -0.442,0.213 -0.184,0.098 -0.359,0.21 -0.538,0.318 -0.184,0.11 -0.372,0.215 -0.552,0.335 -0.136,0.091 -0.262,0.193 -0.394,0.288 -0.208,0.151 -0.42,0.299 -0.621,0.464 -0.108,0.088 -0.207,0.188 -0.312,0.279 -0.208,0.182 -0.42,0.363 -0.618,0.561 -0.189,0.188 -0.361,0.391 -0.539,0.59 -0.1,0.114 -0.207,0.217 -0.303,0.333 -0.275,0.334 -0.532,0.682 -0.772,1.041 -0.003,0.005 -0.007,0.009 -0.01,0.014 -0.033,0.05 -0.059,0.104 -0.091,0.153 -0.198,0.306 -0.389,0.618 -0.561,0.939 -0.065,0.12 -0.117,0.246 -0.177,0.368 -0.126,0.256 -0.253,0.511 -0.361,0.776 -0.072,0.174 -0.129,0.351 -0.193,0.526 -0.079,0.218 -0.162,0.434 -0.23,0.657 -0.067,0.22 -0.115,0.44 -0.17,0.663 -0.046,0.186 -0.098,0.368 -0.134,0.557 -0.053,0.272 -0.089,0.545 -0.125,0.819 -0.019,0.145 -0.046,0.288 -0.06,0.434 -0.035,0.348 -0.046,0.695 -0.053,1.041 C 0.01,141.786 0,141.86 0,141.936 v 0.045 c 0,0.014 0,0.025 0,0.039 v 55.811 c 0,0.016 0,0.029 0,0.044 v 460.104 c 0,0.014 0,0.025 0,0.04 v 0.044 c 0,0.076 0.01,0.15 0.012,0.226 0.005,0.348 0.019,0.693 0.053,1.041 0.014,0.146 0.041,0.289 0.06,0.436 0.036,0.273 0.071,0.545 0.125,0.817 0.038,0.188 0.09,0.373 0.136,0.561 0.053,0.22 0.103,0.44 0.168,0.659 0.069,0.225 0.151,0.441 0.232,0.662 0.063,0.174 0.119,0.35 0.191,0.521 0.11,0.268 0.239,0.526 0.366,0.784 0.059,0.119 0.108,0.239 0.172,0.357 0.177,0.331 0.37,0.65 0.573,0.964 0.027,0.043 0.05,0.088 0.078,0.131 10e-4,0.003 0.005,0.007 0.007,0.01 0.278,0.417 0.585,0.811 0.908,1.191 0.1,0.118 0.207,0.227 0.31,0.342 0.224,0.246 0.458,0.481 0.699,0.709 0.134,0.126 0.268,0.249 0.406,0.368 0.256,0.22 0.523,0.427 0.797,0.628 0.115,0.084 0.224,0.176 0.34,0.255 0.389,0.265 0.792,0.507 1.209,0.73 0.1,0.054 0.203,0.097 0.305,0.146 0.335,0.167 0.676,0.322 1.027,0.461 0.133,0.052 0.265,0.099 0.397,0.146 0.332,0.119 0.669,0.222 1.012,0.313 0.136,0.036 0.272,0.073 0.41,0.104 0.354,0.081 0.714,0.145 1.079,0.196 0.125,0.018 0.25,0.043 0.375,0.057 0.459,0.052 0.926,0.083 1.399,0.084 0.022,0 0.044,0.004 0.068,0.004 0.005,0 0.012,0 0.018,0 h 83.623 c 0.017,0 0.036,0 0.053,0 h 690.458 c 0.005,0 0.013,0.002 0.018,0.002 0.022,0 0.045,-0.004 0.067,-0.004 0.473,-0.002 0.938,-0.032 1.398,-0.084 0.124,-0.014 0.246,-0.04 0.369,-0.057 0.367,-0.052 0.73,-0.115 1.086,-0.198 0.135,-0.031 0.269,-0.067 0.402,-0.104 0.348,-0.093 0.688,-0.197 1.022,-0.316 0.131,-0.046 0.26,-0.091 0.389,-0.143 0.356,-0.14 0.702,-0.298 1.041,-0.466 0.097,-0.049 0.196,-0.09 0.292,-0.142 0.42,-0.224 0.824,-0.468 1.215,-0.732 0.113,-0.078 0.221,-0.167 0.33,-0.248 0.277,-0.201 0.548,-0.411 0.806,-0.635 0.138,-0.119 0.271,-0.241 0.402,-0.365 0.244,-0.229 0.477,-0.466 0.704,-0.712 0.103,-0.113 0.208,-0.222 0.308,-0.339 0.323,-0.38 0.63,-0.775 0.908,-1.19 0.002,-0.004 0.005,-0.007 0.007,-0.011 0.029,-0.043 0.05,-0.087 0.078,-0.13 0.203,-0.313 0.396,-0.632 0.572,-0.964 0.063,-0.117 0.112,-0.237 0.171,-0.354 0.129,-0.26 0.256,-0.52 0.368,-0.79 0.07,-0.17 0.125,-0.344 0.188,-0.516 0.081,-0.221 0.164,-0.44 0.232,-0.666 0.065,-0.219 0.115,-0.438 0.169,-0.657 0.047,-0.188 0.098,-0.371 0.136,-0.563 0.054,-0.27 0.09,-0.544 0.124,-0.815 0.019,-0.146 0.047,-0.289 0.062,-0.437 0.035,-0.346 0.047,-0.693 0.054,-1.039 0.002,-0.076 0.012,-0.15 0.012,-0.226 V 658.02 C 800,658.006 800,657.992 800,657.979 Z M 469.678,313.244 707.262,154.839 h 37.219 L 481.254,330.323 h 46.524 L 774.193,166.046 v 68.234 96.043 19.354 H 450.322 V 154.839 h 19.355 172.453 18.613 L 469.678,282.228 Z m -120,36.433 H 25.807 V 330.323 234.28 221.945 l 162.176,108.378 h 46.446 L 25.807,190.906 v -24.86 l 246.416,164.277 h 46.524 L 55.52,154.839 h 102.352 172.45 19.355 V 349.677 Z M 330.322,486.77 92.738,645.161 H 55.52 L 318.746,469.678 H 272.222 L 25.807,633.954 V 565.721 469.678 450.323 H 349.678 V 645.162 H 330.323 157.87 139.262 L 330.323,517.787 V 486.77 Z m 120,-36.448 h 233.549 c 7.128,0 12.903,-5.777 12.903,-12.903 v 0 c 0,-7.126 -5.775,-12.902 -12.903,-12.902 H 437.419 c -7.127,0 -12.903,5.776 -12.903,12.902 V 645.161 H 375.485 V 437.419 c 0,-7.126 -5.776,-12.902 -12.903,-12.902 H 25.807 v -49.033 h 336.774 c 7.127,0 12.903,-5.777 12.903,-12.903 V 154.839 h 49.031 v 207.742 c 0,7.126 5.776,12.903 12.903,12.903 h 336.774 v 49.033 h -38.709 c -7.128,0 -12.903,5.776 -12.903,12.902 v 0 c 0,7.126 5.775,12.903 12.903,12.903 h 38.709 v 19.355 96.043 13.565 L 610.171,469.678 h -46.448 l 210.471,140.645 v 23.631 L 527.778,469.678 H 481.254 L 744.48,645.161 H 642.13 469.678 450.323 V 450.322 Z" />

	<polygon
   id="polygon1635"
   points="330.322,269.807 157.87,154.839 55.52,154.839 318.746,330.323 272.222,330.323 234.429,330.323 187.983,330.323 25.807,221.944 25.807,234.279 169.872,330.323 25.807,330.323 25.807,349.677 349.678,349.677 349.678,154.839 330.322,154.839 "
   fill="#ffffff" />

	<path
   id="path1637"
   d="M 469.678,530.191 642.13,645.161 H 744.48 L 481.254,469.678 h 46.524 35.946 46.448 L 774.193,579.286 V 565.721 L 630.128,469.678 h 144.065 v -19.355 h -38.709 c -7.128,0 -12.903,-5.777 -12.903,-12.903 h -25.807 c 0,7.126 -5.775,12.903 -12.903,12.903 H 450.322 v 194.839 h 19.355 V 530.191 Z"
   fill="#ffffff" />

	<path
   id="path1639"
   d="M 374.484,646.161 V 437.419 c 0,-6.563 -5.34,-11.902 -11.903,-11.902 H 24.807 v -51.033 h 337.774 c 6.563,0 11.903,-5.34 11.903,-11.903 V 153.839 h 51.031 v 208.742 c 0,6.563 5.34,11.903 11.903,11.903 h 337.774 v 51.033 h -39.709 c -6.563,0 -11.903,5.339 -11.903,11.902 v 1 h -27.807 v -1 c 0,-6.563 -5.34,-11.902 -11.903,-11.902 H 437.419 c -6.563,0 -11.903,5.339 -11.903,11.902 v 208.742 z"
   fill="#ed1f34" />

	<path
   id="path1641"
   d="m 722.581,437.419 c 0,-7.126 5.775,-12.902 12.903,-12.902 h 38.709 V 375.484 H 437.419 c -7.127,0 -12.903,-5.777 -12.903,-12.903 V 154.839 h -49.031 v 207.742 c 0,7.126 -5.776,12.903 -12.903,12.903 H 25.807 v 49.033 h 336.774 c 7.127,0 12.903,5.776 12.903,12.902 v 207.742 h 49.031 V 437.419 c 0,-7.126 5.776,-12.902 12.903,-12.902 H 683.87 c 7.128,0 12.903,5.776 12.903,12.902 v 0 z"
   fill="#ed1f34" />

</g>
    <g
       id="g1693"
       transform="matrix(0.09796212,0,0,0.09796212,71.052208,156.54171)">
	<path
   id="path1667"
   d="M 24.807,474.118 V 325.882 h 125.941 v 98.443 c 0,16.91 3.354,33.191 9.969,48.394 l 0.609,1.399 z"
   fill="#164fce" />

	<path
   id="path1669"
   d="M 25.807,326.882 V 473.118 H 159.8 c -6.63,-15.237 -10.052,-31.644 -10.052,-48.793 v -97.443 z"
   fill="#164fce" />

	<path
   id="path1671"
   d="m 644.161,487.021 v -1 c 0,-6.563 -5.34,-11.903 -11.903,-11.903 H 377.659 l 0.608,-1.399 c 6.614,-15.203 9.968,-31.485 9.968,-48.394 v -98.443 h 386.958 v 148.236 h -91.322 c -6.563,0 -11.903,5.34 -11.903,11.903 v 1 z"
   fill="#164fce" />

	<path
   id="path1673"
   d="m 683.871,473.118 h 90.322 V 326.882 H 389.235 v 97.443 c 0,17.149 -3.422,33.556 -10.051,48.793 h 253.073 c 7.128,0 12.903,5.777 12.903,12.903 h 25.807 c 10e-4,-7.125 5.776,-12.903 12.904,-12.903 z"
   fill="#164fce" />

	<path
   id="path1675"
   d="M 24.807,646.161 V 497.925 h 150.661 l 0.3,0.396 c 3.946,5.204 8.348,10.207 13.082,14.869 19.655,19.37 47.05,35.146 77.136,44.422 1.136,0.351 2.316,0.528 3.507,0.528 1.191,0 2.371,-0.178 3.508,-0.528 30.088,-9.277 57.482,-25.053 77.136,-44.421 4.725,-4.653 9.126,-9.656 13.082,-14.87 l 0.3,-0.396 h 268.739 c 6.563,0 11.903,-5.34 11.903,-11.903 v -1 h 27.807 v 1 c 0,6.563 5.34,11.903 11.903,11.903 h 91.322 v 148.236 z"
   fill="#ed1f34" />

	<path
   id="path1677"
   d="m 683.871,498.925 c -7.128,0 -12.903,-5.777 -12.903,-12.903 h -25.807 c 0,7.126 -5.775,12.903 -12.903,12.903 H 364.016 c -3.95,5.206 -8.337,10.211 -13.177,14.978 -19.768,19.48 -47.307,35.342 -77.543,44.665 -1.239,0.382 -2.521,0.572 -3.802,0.572 -1.281,0 -2.563,-0.19 -3.802,-0.572 -30.237,-9.322 -57.776,-25.185 -77.543,-44.665 -4.839,-4.767 -9.229,-9.771 -13.177,-14.978 H 25.807 V 645.161 H 774.194 V 498.925 Z"
   fill="#ed1f34" />

	<path
   id="path1679"
   d="m 149.748,301.075 v -47.312 c 0,-7.126 5.775,-12.903 12.903,-12.903 h 213.681 c 7.128,0 12.903,5.777 12.903,12.903 v 47.312 H 774.193 V 154.839 H 25.807 v 146.236 z"
   fill="#ffffff" />

	<path
   id="path1681"
   d="M 787.097,129.032 H 12.903 C 5.775,129.032 0,134.81 0,141.936 v 516.129 c 0,7.126 5.775,12.903 12.903,12.903 h 774.193 c 7.128,0 12.903,-5.777 12.903,-12.903 V 141.936 C 800,134.81 794.225,129.032 787.097,129.032 Z m -12.904,25.807 V 301.075 H 389.235 v -47.312 c 0,-7.126 -5.775,-12.903 -12.903,-12.903 H 162.651 c -7.128,0 -12.903,5.777 -12.903,12.903 v 47.312 H 25.807 V 154.839 Z M 363.429,424.325 c 0,14.234 -2.79,26.796 -7.456,37.848 -18.297,43.327 -65.445,63.476 -86.479,70.512 -21.037,-7.036 -68.186,-27.185 -86.48,-70.512 -4.668,-11.052 -7.457,-23.611 -7.457,-37.848 V 266.667 h 187.875 v 157.659 h -0.003 z M 159.8,473.118 H 25.807 V 326.882 h 123.941 v 97.443 c 0,17.15 3.422,33.556 10.052,48.793 z M 25.807,645.161 V 498.925 H 174.97 c 3.95,5.206 8.339,10.211 13.177,14.978 19.768,19.48 47.307,35.342 77.543,44.665 1.239,0.382 2.521,0.572 3.802,0.572 1.281,0 2.563,-0.19 3.802,-0.572 30.236,-9.322 57.775,-25.185 77.543,-44.665 4.84,-4.767 9.227,-9.771 13.177,-14.978 h 268.244 c 7.128,0 12.903,-5.777 12.903,-12.903 0,-7.126 -5.775,-12.903 -12.903,-12.903 H 379.185 c 6.629,-15.237 10.051,-31.644 10.051,-48.793 v -97.443 h 384.958 v 146.236 h -90.322 c -7.128,0 -12.903,5.777 -12.903,12.903 0,7.126 5.775,12.903 12.903,12.903 h 90.322 v 146.236 z" />

	<path
   id="path1683"
   d="m 205.613,467.33 c -7.182,-2.762 -14.731,-4.162 -22.437,-4.162 l -0.165,0.005 h -0.663 l -0.258,-0.611 c -5,-11.843 -7.535,-24.707 -7.535,-38.236 V 265.667 H 364.43 v 158.659 c 0,13.532 -2.535,26.396 -7.535,38.236 l -0.258,0.611 h -0.686 c 0,0 -0.113,-0.004 -0.116,-0.004 -7.739,0 -15.284,1.4 -22.463,4.161 l -0.766,0.294 -0.438,-0.693 c -11.195,-17.709 -29.419,-29.904 -49.999,-33.458 l -0.906,-0.156 0.08,-0.916 c 0.03,-0.346 0.053,-0.692 0.053,-1.046 v -39.876 h 27.143 c 6.563,0 11.903,-5.34 11.903,-11.903 0,-6.563 -5.34,-11.903 -11.903,-11.903 H 281.396 V 342.99 h 12.134 c 6.563,0 11.903,-5.34 11.903,-11.903 0,-6.563 -5.34,-11.903 -11.903,-11.903 h -12.134 v -19.025 c 0,-6.563 -5.34,-11.903 -11.903,-11.903 -6.563,0 -11.903,5.34 -11.903,11.903 v 19.025 h -12.135 c -6.563,0 -11.903,5.34 -11.903,11.903 0,6.563 5.339,11.903 11.903,11.903 h 12.135 v 24.682 h -27.144 c -6.563,0 -11.903,5.34 -11.903,11.903 0,6.563 5.34,11.903 11.903,11.903 h 27.144 v 39.876 c 0,0.354 0.022,0.7 0.053,1.046 l 0.08,0.916 -0.906,0.156 c -20.578,3.552 -38.801,15.747 -49.998,33.458 l -0.438,0.693 z"
   fill="#ed1f34" />

	<path
   id="path1685"
   d="M 363.429,266.667 H 175.554 v 157.659 c 0,14.234 2.791,26.796 7.457,37.848 0.055,0 0.11,-0.005 0.165,-0.005 8.038,0 15.718,1.507 22.796,4.229 11.126,-17.6 29.366,-30.231 50.673,-33.909 -0.033,-0.374 -0.057,-0.75 -0.057,-1.133 V 392.48 h -26.144 c -7.128,0 -12.903,-5.777 -12.903,-12.903 0,-7.126 5.775,-12.903 12.903,-12.903 h 26.144 V 343.99 h -11.135 c -7.127,0 -12.903,-5.777 -12.903,-12.903 0,-7.126 5.775,-12.903 12.903,-12.903 h 11.135 v -18.025 c 0,-7.126 5.775,-12.903 12.903,-12.903 7.127,0 12.903,5.777 12.903,12.903 v 18.025 h 11.134 c 7.128,0 12.903,5.777 12.903,12.903 0,7.126 -5.775,12.903 -12.903,12.903 h -11.134 v 22.682 h 26.143 c 7.128,0 12.903,5.777 12.903,12.903 0,7.126 -5.775,12.903 -12.903,12.903 h -26.143 v 38.876 c 0,0.383 -0.024,0.759 -0.057,1.133 21.308,3.68 39.548,16.31 50.674,33.909 7.079,-2.722 14.76,-4.229 22.797,-4.229 0.056,0 0.108,0.005 0.164,0.005 4.667,-11.052 7.456,-23.611 7.456,-37.848 V 266.667 Z"
   fill="#ed1f34" />

	<path
   id="path1687"
   d="m 282.338,432.487 c 0.033,-0.374 0.057,-0.751 0.057,-1.133 v -38.876 h 26.143 c 7.128,0 12.903,-5.777 12.903,-12.903 0,-7.126 -5.775,-12.903 -12.903,-12.903 H 282.395 V 343.99 h 11.134 c 7.128,0 12.903,-5.777 12.903,-12.903 0,-7.126 -5.775,-12.903 -12.903,-12.903 h -11.134 v -18.025 c 0,-7.126 -5.776,-12.903 -12.903,-12.903 -7.128,0 -12.903,5.777 -12.903,12.903 v 18.025 h -11.135 c -7.127,0 -12.903,5.777 -12.903,12.903 0,7.126 5.775,12.903 12.903,12.903 h 11.135 v 22.682 h -26.144 c -7.128,0 -12.903,5.777 -12.903,12.903 0,7.126 5.775,12.903 12.903,12.903 h 26.144 v 38.876 c 0,0.382 0.024,0.759 0.057,1.133 4.177,-0.722 8.461,-1.133 12.847,-1.133 4.386,0 8.668,0.411 12.845,1.133 z"
   fill="#ffffff" />

	<path
   id="path1689"
   d="m 269.174,533.633 c -19.982,-6.684 -68.469,-26.989 -87.085,-71.071 l -0.586,-1.389 h 1.508 l 0.165,-0.005 c 7.68,0 15.208,1.348 22.391,4.007 11.531,-17.814 30.04,-30.069 50.908,-33.673 4.407,-0.762 8.787,-1.147 13.017,-1.147 4.23,0 8.61,0.386 13.017,1.147 20.869,3.602 39.378,15.855 50.909,33.673 7.182,-2.659 14.71,-4.007 22.39,-4.007 l 1.562,0.068 -0.477,1.325 c -18.614,44.082 -67.101,64.388 -87.083,71.071 l -0.317,0.106 z"
   fill="#164fce" />

	<path
   id="path1691"
   d="m 333.012,466.396 c -11.126,-17.602 -29.364,-30.231 -50.674,-33.909 -4.177,-0.722 -8.461,-1.133 -12.846,-1.133 -4.385,0 -8.669,0.411 -12.847,1.133 -21.307,3.68 -39.547,16.31 -50.673,33.909 -7.078,-2.722 -14.76,-4.229 -22.796,-4.229 -0.055,0 -0.11,0.005 -0.165,0.005 18.297,43.327 65.445,63.476 86.481,70.512 21.036,-7.036 68.184,-27.185 86.479,-70.512 -0.055,0 -0.108,-0.005 -0.163,-0.005 -8.037,0.001 -15.718,1.508 -22.796,4.229 z"
   fill="#164fce" />

</g>
    <g
       transform="matrix(0.09796212,0,0,0.09796212,31.113786,263.78356)"
       id="g1757">
	<polygon
   fill="#103b9b"
   points="173.175,331.323 24.807,331.323 24.807,232.411 "
   id="polygon1695" />

	<polygon
   fill="#103b9b"
   points="169.872,330.323 25.807,234.279 25.807,330.323 "
   id="polygon1697" />

	<polygon
   fill="#103b9b"
   points="331.322,271.675 154.567,153.839 331.322,153.839 "
   id="polygon1699" />

	<polygon
   fill="#103b9b"
   points="330.322,269.807 330.322,154.839 157.87,154.839 "
   id="polygon1701" />

	<polygon
   fill="#103b9b"
   points="24.807,567.589 24.807,468.678 173.175,468.678 "
   id="polygon1703" />

	<polygon
   fill="#103b9b"
   points="169.872,469.678 25.807,469.678 25.807,565.721 "
   id="polygon1705" />

	<polygon
   fill="#103b9b"
   points="468.678,271.675 468.678,153.839 645.433,153.839 "
   id="polygon1707" />

	<polygon
   fill="#103b9b"
   points="469.678,269.807 642.13,154.839 469.678,154.839 "
   id="polygon1709" />

	<polygon
   fill="#103b9b"
   points="775.193,331.323 626.825,331.323 775.193,232.411 "
   id="polygon1711" />

	<polygon
   fill="#103b9b"
   points="630.128,330.323 774.193,330.323 774.193,234.279 "
   id="polygon1713" />

	<polygon
   fill="#103b9b"
   points="331.322,646.161 154.567,646.161 331.322,528.323 "
   id="polygon1715" />

	<polygon
   fill="#103b9b"
   points="330.322,530.191 157.87,645.161 330.322,645.161 "
   id="polygon1717" />

	<polygon
   fill="#103b9b"
   points="775.193,567.589 626.825,468.678 775.193,468.678 "
   id="polygon1719" />

	<polygon
   fill="#103b9b"
   points="630.128,469.678 774.193,565.721 774.193,469.678 "
   id="polygon1721" />

	<polygon
   fill="#103b9b"
   points="645.433,646.161 468.678,646.161 468.678,528.323 "
   id="polygon1723" />

	<polygon
   fill="#103b9b"
   points="469.678,530.191 469.678,645.161 642.13,645.161 "
   id="polygon1725" />

	<polygon
   fill="#ffffff"
   points="469.678,269.807 469.678,154.839 450.322,154.839 450.322,349.677 774.193,349.677 774.193,330.323 630.128,330.323 774.193,234.279 774.193,166.045 527.778,330.323 481.254,330.323 469.678,330.323 469.678,313.244 469.678,282.228 660.743,154.839 642.13,154.839 "
   id="polygon1727" />

	<polygon
   fill="#ffffff"
   points="330.322,530.191 330.322,645.161 349.678,645.161 349.678,450.322 25.807,450.322 25.807,469.678 169.872,469.678 25.807,565.721 25.807,633.954 272.222,469.678 318.746,469.678 330.322,469.678 330.322,486.77 330.322,517.786 139.262,645.161 157.87,645.161 "
   id="polygon1729" />

	<polygon
   fill="#ed1f34"
   points="331.322,468.678 331.322,487.305 93.041,646.161 52.217,646.161 318.443,468.678 "
   id="polygon1731" />

	<polygon
   fill="#ed1f34"
   points="92.738,645.161 330.322,486.77 330.322,469.678 318.746,469.678 55.52,645.161 "
   id="polygon1733" />

	<polygon
   fill="#ed1f34"
   points="24.807,191.44 24.807,164.177 275.525,331.323 234.126,331.323 "
   id="polygon1735" />

	<polygon
   fill="#ed1f34"
   points="25.807,190.906 234.429,330.323 272.222,330.323 25.807,166.045 "
   id="polygon1737" />

	<polygon
   fill="#ed1f34"
   points="564.026,468.678 775.193,609.788 775.193,635.822 524.476,468.678 "
   id="polygon1739" />

	<polygon
   fill="#ed1f34"
   points="774.193,610.322 563.723,469.678 527.778,469.678 774.193,633.954 "
   id="polygon1741" />

	<polygon
   fill="#ed1f34"
   points="706.959,153.839 747.783,153.839 481.557,331.323 468.678,331.323 468.678,312.708 "
   id="polygon1743" />

	<polygon
   fill="#ed1f34"
   points="707.262,154.839 469.678,313.244 469.678,330.323 481.254,330.323 744.48,154.839 "
   id="polygon1745" />

	<path
   d="m 800,657.979 v -54.572 c 0,-0.021 0,-0.041 0,-0.062 V 142.02 c 0,-0.014 0,-0.025 0,-0.039 v -0.045 c 0,-0.076 -0.011,-0.15 -0.012,-0.226 -0.006,-0.348 -0.02,-0.693 -0.054,-1.041 -0.014,-0.148 -0.041,-0.291 -0.061,-0.436 -0.036,-0.272 -0.07,-0.545 -0.125,-0.815 -0.038,-0.189 -0.09,-0.374 -0.136,-0.561 -0.054,-0.22 -0.104,-0.44 -0.169,-0.659 -0.069,-0.227 -0.153,-0.446 -0.232,-0.666 -0.063,-0.172 -0.118,-0.346 -0.189,-0.516 -0.111,-0.27 -0.239,-0.53 -0.368,-0.79 -0.059,-0.119 -0.108,-0.237 -0.17,-0.354 -0.178,-0.33 -0.37,-0.65 -0.573,-0.963 -0.027,-0.043 -0.05,-0.088 -0.077,-0.131 -0.002,-0.003 -0.005,-0.007 -0.009,-0.01 -0.241,-0.359 -0.497,-0.708 -0.772,-1.042 -0.125,-0.153 -0.265,-0.289 -0.396,-0.435 -0.146,-0.162 -0.287,-0.331 -0.442,-0.485 -0.217,-0.217 -0.447,-0.417 -0.678,-0.616 -0.084,-0.072 -0.162,-0.153 -0.249,-0.224 -0.221,-0.181 -0.451,-0.344 -0.682,-0.509 -0.11,-0.08 -0.217,-0.167 -0.33,-0.243 -0.2,-0.134 -0.408,-0.251 -0.614,-0.374 -0.158,-0.094 -0.313,-0.194 -0.475,-0.28 -0.164,-0.088 -0.334,-0.162 -0.503,-0.243 -0.215,-0.103 -0.427,-0.21 -0.646,-0.303 -0.126,-0.052 -0.255,-0.093 -0.382,-0.14 -0.267,-0.1 -0.532,-0.201 -0.806,-0.285 -0.1,-0.031 -0.201,-0.05 -0.303,-0.078 -0.301,-0.083 -0.602,-0.167 -0.91,-0.227 -0.138,-0.027 -0.276,-0.04 -0.414,-0.063 -0.298,-0.05 -0.596,-0.1 -0.9,-0.127 -0.398,-0.038 -0.8,-0.06 -1.202,-0.06 -0.009,-0.002 -0.018,-0.002 -0.024,-0.002 h -83.654 c -0.016,0 -0.029,0 -0.045,0 H 12.903 c -0.007,0 -0.014,0 -0.021,0 -0.403,0.002 -0.805,0.022 -1.206,0.06 -0.351,0.033 -0.695,0.088 -1.038,0.148 -0.091,0.016 -0.183,0.024 -0.272,0.042 -0.337,0.067 -0.666,0.155 -0.993,0.248 -0.072,0.021 -0.146,0.035 -0.218,0.057 -0.296,0.089 -0.583,0.198 -0.871,0.308 -0.105,0.04 -0.213,0.072 -0.316,0.117 -0.241,0.1 -0.473,0.215 -0.706,0.33 -0.146,0.072 -0.298,0.136 -0.442,0.213 -0.184,0.098 -0.359,0.21 -0.538,0.318 -0.184,0.11 -0.372,0.215 -0.552,0.335 -0.136,0.091 -0.262,0.193 -0.394,0.288 -0.208,0.151 -0.42,0.299 -0.621,0.464 -0.108,0.088 -0.207,0.188 -0.312,0.279 -0.208,0.182 -0.42,0.363 -0.618,0.561 -0.189,0.188 -0.361,0.391 -0.539,0.59 -0.1,0.114 -0.207,0.217 -0.303,0.333 -0.275,0.334 -0.532,0.682 -0.772,1.041 -0.003,0.005 -0.007,0.009 -0.01,0.014 -0.033,0.05 -0.059,0.104 -0.091,0.153 -0.198,0.306 -0.389,0.618 -0.561,0.939 -0.065,0.12 -0.117,0.246 -0.177,0.368 -0.126,0.256 -0.253,0.511 -0.361,0.776 -0.072,0.174 -0.129,0.351 -0.193,0.526 -0.079,0.218 -0.162,0.434 -0.23,0.657 -0.067,0.22 -0.115,0.44 -0.17,0.663 -0.046,0.186 -0.098,0.368 -0.134,0.557 -0.053,0.272 -0.089,0.545 -0.125,0.819 -0.019,0.145 -0.046,0.288 -0.06,0.434 -0.035,0.348 -0.046,0.695 -0.053,1.041 C 0.01,141.786 0,141.86 0,141.936 v 0.045 c 0,0.014 0,0.025 0,0.039 v 55.811 c 0,0.016 0,0.029 0,0.044 v 460.104 c 0,0.014 0,0.025 0,0.04 v 0.044 c 0,0.076 0.01,0.15 0.012,0.226 0.005,0.348 0.019,0.693 0.053,1.041 0.014,0.146 0.041,0.289 0.06,0.436 0.036,0.273 0.071,0.545 0.125,0.817 0.038,0.188 0.09,0.373 0.136,0.561 0.053,0.22 0.103,0.44 0.168,0.659 0.069,0.225 0.151,0.441 0.232,0.662 0.063,0.174 0.119,0.35 0.191,0.521 0.11,0.268 0.239,0.526 0.366,0.784 0.059,0.119 0.108,0.239 0.172,0.357 0.177,0.331 0.37,0.65 0.573,0.964 0.027,0.043 0.05,0.088 0.078,0.131 10e-4,0.003 0.005,0.007 0.007,0.01 0.278,0.417 0.585,0.811 0.908,1.191 0.1,0.118 0.207,0.227 0.31,0.342 0.224,0.246 0.458,0.481 0.699,0.709 0.134,0.126 0.268,0.249 0.406,0.368 0.256,0.22 0.523,0.427 0.797,0.628 0.115,0.084 0.224,0.176 0.34,0.255 0.389,0.265 0.792,0.507 1.209,0.73 0.1,0.054 0.203,0.097 0.305,0.146 0.335,0.167 0.676,0.322 1.027,0.461 0.133,0.052 0.265,0.099 0.397,0.146 0.332,0.119 0.669,0.222 1.012,0.313 0.136,0.036 0.272,0.073 0.41,0.104 0.354,0.081 0.714,0.145 1.079,0.196 0.125,0.018 0.25,0.043 0.375,0.057 0.459,0.052 0.926,0.083 1.399,0.084 0.022,0 0.044,0.004 0.068,0.004 0.005,0 0.012,0 0.018,0 h 83.623 c 0.017,0 0.036,0 0.053,0 h 690.458 c 0.005,0 0.013,0.002 0.018,0.002 0.022,0 0.045,-0.004 0.067,-0.004 0.473,-0.002 0.938,-0.032 1.398,-0.084 0.124,-0.014 0.246,-0.04 0.369,-0.057 0.367,-0.052 0.73,-0.115 1.086,-0.198 0.135,-0.031 0.269,-0.067 0.402,-0.104 0.348,-0.093 0.688,-0.197 1.022,-0.316 0.131,-0.046 0.26,-0.091 0.389,-0.143 0.356,-0.14 0.702,-0.298 1.041,-0.466 0.097,-0.049 0.196,-0.09 0.292,-0.142 0.42,-0.224 0.824,-0.468 1.215,-0.732 0.113,-0.078 0.221,-0.167 0.33,-0.248 0.277,-0.201 0.548,-0.411 0.806,-0.635 0.138,-0.119 0.271,-0.241 0.402,-0.365 0.244,-0.229 0.477,-0.466 0.704,-0.712 0.103,-0.113 0.208,-0.222 0.308,-0.339 0.323,-0.38 0.63,-0.775 0.908,-1.19 0.002,-0.004 0.005,-0.007 0.007,-0.011 0.029,-0.043 0.05,-0.087 0.078,-0.13 0.203,-0.313 0.396,-0.632 0.572,-0.964 0.063,-0.117 0.112,-0.237 0.171,-0.354 0.129,-0.26 0.256,-0.52 0.368,-0.79 0.07,-0.17 0.125,-0.344 0.188,-0.516 0.081,-0.221 0.164,-0.44 0.232,-0.666 0.065,-0.219 0.115,-0.438 0.169,-0.657 0.047,-0.188 0.098,-0.371 0.136,-0.563 0.054,-0.27 0.09,-0.544 0.124,-0.815 0.019,-0.146 0.047,-0.289 0.062,-0.437 0.035,-0.346 0.047,-0.693 0.054,-1.039 0.002,-0.076 0.012,-0.15 0.012,-0.226 V 658.02 C 800,658.006 800,657.992 800,657.979 Z M 469.678,313.244 707.262,154.839 h 37.219 L 481.254,330.323 h 46.524 L 774.193,166.046 v 68.234 96.043 19.354 H 450.322 V 154.839 h 19.355 172.453 18.613 L 469.678,282.228 Z m -120,36.433 H 25.807 V 330.323 234.28 221.945 l 162.176,108.378 h 46.446 L 25.807,190.906 v -24.86 l 246.416,164.277 h 46.524 L 55.52,154.839 h 102.352 172.45 19.355 V 349.677 Z M 330.322,486.77 92.738,645.161 H 55.52 L 318.746,469.678 H 272.222 L 25.807,633.954 V 565.721 469.678 450.323 H 349.678 V 645.162 H 330.323 157.87 139.262 L 330.323,517.787 V 486.77 Z m 120,-36.448 h 233.549 c 7.128,0 12.903,-5.777 12.903,-12.903 v 0 c 0,-7.126 -5.775,-12.902 -12.903,-12.902 H 437.419 c -7.127,0 -12.903,5.776 -12.903,12.902 V 645.161 H 375.485 V 437.419 c 0,-7.126 -5.776,-12.902 -12.903,-12.902 H 25.807 v -49.033 h 336.774 c 7.127,0 12.903,-5.777 12.903,-12.903 V 154.839 h 49.031 v 207.742 c 0,7.126 5.776,12.903 12.903,12.903 h 336.774 v 49.033 h -38.709 c -7.128,0 -12.903,5.776 -12.903,12.902 v 0 c 0,7.126 5.775,12.903 12.903,12.903 h 38.709 v 19.355 96.043 13.565 L 610.171,469.678 h -46.448 l 210.471,140.645 v 23.631 L 527.778,469.678 H 481.254 L 744.48,645.161 H 642.13 469.678 450.323 V 450.322 Z"
   id="path1747" />

	<polygon
   fill="#ffffff"
   points="55.52,154.839 318.746,330.323 272.222,330.323 234.429,330.323 187.983,330.323 25.807,221.944 25.807,234.279 169.872,330.323 25.807,330.323 25.807,349.677 349.678,349.677 349.678,154.839 330.322,154.839 330.322,269.807 157.87,154.839 "
   id="polygon1749" />

	<path
   fill="#ffffff"
   d="M 469.678,530.191 642.13,645.161 H 744.48 L 481.254,469.678 h 46.524 35.946 46.448 L 774.193,579.286 V 565.721 L 630.128,469.678 h 144.065 v -19.355 h -38.709 c -7.128,0 -12.903,-5.777 -12.903,-12.903 h -25.807 c 0,7.126 -5.775,12.903 -12.903,12.903 H 450.322 v 194.839 h 19.355 V 530.191 Z"
   id="path1751" />

	<path
   fill="#ed1f34"
   d="M 374.484,646.161 V 437.419 c 0,-6.563 -5.34,-11.902 -11.903,-11.902 H 24.807 v -51.033 h 337.774 c 6.563,0 11.903,-5.34 11.903,-11.903 V 153.839 h 51.031 v 208.742 c 0,6.563 5.34,11.903 11.903,11.903 h 337.774 v 51.033 h -39.709 c -6.563,0 -11.903,5.339 -11.903,11.902 v 1 h -27.807 v -1 c 0,-6.563 -5.34,-11.902 -11.903,-11.902 H 437.419 c -6.563,0 -11.903,5.339 -11.903,11.902 v 208.742 z"
   id="path1753" />

	<path
   fill="#ed1f34"
   d="m 722.581,437.419 c 0,-7.126 5.775,-12.902 12.903,-12.902 h 38.709 V 375.484 H 437.419 c -7.127,0 -12.903,-5.777 -12.903,-12.903 V 154.839 h -49.031 v 207.742 c 0,7.126 -5.776,12.903 -12.903,12.903 H 25.807 v 49.033 h 336.774 c 7.127,0 12.903,5.776 12.903,12.902 v 207.742 h 49.031 V 437.419 c 0,-7.126 5.776,-12.902 12.903,-12.902 H 683.87 c 7.128,0 12.903,5.776 12.903,12.902 v 0 z"
   id="path1755" />

</g>
    <g
       transform="matrix(0.09796212,0,0,0.09796212,406.34304,378.97052)"
       id="g1785">
	<path
   fill="#164fce"
   d="M 24.807,474.118 V 325.882 h 125.941 v 98.443 c 0,16.91 3.354,33.191 9.969,48.394 l 0.609,1.399 z"
   id="path1759" />

	<path
   fill="#164fce"
   d="M 25.807,326.882 V 473.118 H 159.8 c -6.63,-15.237 -10.052,-31.644 -10.052,-48.793 v -97.443 z"
   id="path1761" />

	<path
   fill="#164fce"
   d="m 644.161,487.021 v -1 c 0,-6.563 -5.34,-11.903 -11.903,-11.903 H 377.659 l 0.608,-1.399 c 6.614,-15.203 9.968,-31.485 9.968,-48.394 v -98.443 h 386.958 v 148.236 h -91.322 c -6.563,0 -11.903,5.34 -11.903,11.903 v 1 z"
   id="path1763" />

	<path
   fill="#164fce"
   d="m 683.871,473.118 h 90.322 V 326.882 H 389.235 v 97.443 c 0,17.149 -3.422,33.556 -10.051,48.793 h 253.073 c 7.128,0 12.903,5.777 12.903,12.903 h 25.807 c 10e-4,-7.125 5.776,-12.903 12.904,-12.903 z"
   id="path1765" />

	<path
   fill="#ed1f34"
   d="M 24.807,646.161 V 497.925 h 150.661 l 0.3,0.396 c 3.946,5.204 8.348,10.207 13.082,14.869 19.655,19.37 47.05,35.146 77.136,44.422 1.136,0.351 2.316,0.528 3.507,0.528 1.191,0 2.371,-0.178 3.508,-0.528 30.088,-9.277 57.482,-25.053 77.136,-44.421 4.725,-4.653 9.126,-9.656 13.082,-14.87 l 0.3,-0.396 h 268.739 c 6.563,0 11.903,-5.34 11.903,-11.903 v -1 h 27.807 v 1 c 0,6.563 5.34,11.903 11.903,11.903 h 91.322 v 148.236 z"
   id="path1767" />

	<path
   fill="#ed1f34"
   d="m 683.871,498.925 c -7.128,0 -12.903,-5.777 -12.903,-12.903 h -25.807 c 0,7.126 -5.775,12.903 -12.903,12.903 H 364.016 c -3.95,5.206 -8.337,10.211 -13.177,14.978 -19.768,19.48 -47.307,35.342 -77.543,44.665 -1.239,0.382 -2.521,0.572 -3.802,0.572 -1.281,0 -2.563,-0.19 -3.802,-0.572 -30.237,-9.322 -57.776,-25.185 -77.543,-44.665 -4.839,-4.767 -9.229,-9.771 -13.177,-14.978 H 25.807 V 645.161 H 774.194 V 498.925 Z"
   id="path1769" />

	<path
   fill="#ffffff"
   d="m 149.748,301.075 v -47.312 c 0,-7.126 5.775,-12.903 12.903,-12.903 h 213.681 c 7.128,0 12.903,5.777 12.903,12.903 v 47.312 H 774.193 V 154.839 H 25.807 v 146.236 z"
   id="path1771" />

	<path
   d="M 787.097,129.032 H 12.903 C 5.775,129.032 0,134.81 0,141.936 v 516.129 c 0,7.126 5.775,12.903 12.903,12.903 h 774.193 c 7.128,0 12.903,-5.777 12.903,-12.903 V 141.936 C 800,134.81 794.225,129.032 787.097,129.032 Z m -12.904,25.807 V 301.075 H 389.235 v -47.312 c 0,-7.126 -5.775,-12.903 -12.903,-12.903 H 162.651 c -7.128,0 -12.903,5.777 -12.903,12.903 v 47.312 H 25.807 V 154.839 Z M 363.429,424.325 c 0,14.234 -2.79,26.796 -7.456,37.848 -18.297,43.327 -65.445,63.476 -86.479,70.512 -21.037,-7.036 -68.186,-27.185 -86.48,-70.512 -4.668,-11.052 -7.457,-23.611 -7.457,-37.848 V 266.667 h 187.875 v 157.659 h -0.003 z M 159.8,473.118 H 25.807 V 326.882 h 123.941 v 97.443 c 0,17.15 3.422,33.556 10.052,48.793 z M 25.807,645.161 V 498.925 H 174.97 c 3.95,5.206 8.339,10.211 13.177,14.978 19.768,19.48 47.307,35.342 77.543,44.665 1.239,0.382 2.521,0.572 3.802,0.572 1.281,0 2.563,-0.19 3.802,-0.572 30.236,-9.322 57.775,-25.185 77.543,-44.665 4.84,-4.767 9.227,-9.771 13.177,-14.978 h 268.244 c 7.128,0 12.903,-5.777 12.903,-12.903 0,-7.126 -5.775,-12.903 -12.903,-12.903 H 379.185 c 6.629,-15.237 10.051,-31.644 10.051,-48.793 v -97.443 h 384.958 v 146.236 h -90.322 c -7.128,0 -12.903,5.777 -12.903,12.903 0,7.126 5.775,12.903 12.903,12.903 h 90.322 v 146.236 z"
   id="path1773" />

	<path
   fill="#ed1f34"
   d="m 205.613,467.33 c -7.182,-2.762 -14.731,-4.162 -22.437,-4.162 l -0.165,0.005 h -0.663 l -0.258,-0.611 c -5,-11.843 -7.535,-24.707 -7.535,-38.236 V 265.667 H 364.43 v 158.659 c 0,13.532 -2.535,26.396 -7.535,38.236 l -0.258,0.611 h -0.686 c 0,0 -0.113,-0.004 -0.116,-0.004 -7.739,0 -15.284,1.4 -22.463,4.161 l -0.766,0.294 -0.438,-0.693 c -11.195,-17.709 -29.419,-29.904 -49.999,-33.458 l -0.906,-0.156 0.08,-0.916 c 0.03,-0.346 0.053,-0.692 0.053,-1.046 v -39.876 h 27.143 c 6.563,0 11.903,-5.34 11.903,-11.903 0,-6.563 -5.34,-11.903 -11.903,-11.903 H 281.396 V 342.99 h 12.134 c 6.563,0 11.903,-5.34 11.903,-11.903 0,-6.563 -5.34,-11.903 -11.903,-11.903 h -12.134 v -19.025 c 0,-6.563 -5.34,-11.903 -11.903,-11.903 -6.563,0 -11.903,5.34 -11.903,11.903 v 19.025 h -12.135 c -6.563,0 -11.903,5.34 -11.903,11.903 0,6.563 5.339,11.903 11.903,11.903 h 12.135 v 24.682 h -27.144 c -6.563,0 -11.903,5.34 -11.903,11.903 0,6.563 5.34,11.903 11.903,11.903 h 27.144 v 39.876 c 0,0.354 0.022,0.7 0.053,1.046 l 0.08,0.916 -0.906,0.156 c -20.578,3.552 -38.801,15.747 -49.998,33.458 l -0.438,0.693 z"
   id="path1775" />

	<path
   fill="#ed1f34"
   d="M 363.429,266.667 H 175.554 v 157.659 c 0,14.234 2.791,26.796 7.457,37.848 0.055,0 0.11,-0.005 0.165,-0.005 8.038,0 15.718,1.507 22.796,4.229 11.126,-17.6 29.366,-30.231 50.673,-33.909 -0.033,-0.374 -0.057,-0.75 -0.057,-1.133 V 392.48 h -26.144 c -7.128,0 -12.903,-5.777 -12.903,-12.903 0,-7.126 5.775,-12.903 12.903,-12.903 h 26.144 V 343.99 h -11.135 c -7.127,0 -12.903,-5.777 -12.903,-12.903 0,-7.126 5.775,-12.903 12.903,-12.903 h 11.135 v -18.025 c 0,-7.126 5.775,-12.903 12.903,-12.903 7.127,0 12.903,5.777 12.903,12.903 v 18.025 h 11.134 c 7.128,0 12.903,5.777 12.903,12.903 0,7.126 -5.775,12.903 -12.903,12.903 h -11.134 v 22.682 h 26.143 c 7.128,0 12.903,5.777 12.903,12.903 0,7.126 -5.775,12.903 -12.903,12.903 h -26.143 v 38.876 c 0,0.383 -0.024,0.759 -0.057,1.133 21.308,3.68 39.548,16.31 50.674,33.909 7.079,-2.722 14.76,-4.229 22.797,-4.229 0.056,0 0.108,0.005 0.164,0.005 4.667,-11.052 7.456,-23.611 7.456,-37.848 V 266.667 Z"
   id="path1777" />

	<path
   fill="#ffffff"
   d="m 282.338,432.487 c 0.033,-0.374 0.057,-0.751 0.057,-1.133 v -38.876 h 26.143 c 7.128,0 12.903,-5.777 12.903,-12.903 0,-7.126 -5.775,-12.903 -12.903,-12.903 H 282.395 V 343.99 h 11.134 c 7.128,0 12.903,-5.777 12.903,-12.903 0,-7.126 -5.775,-12.903 -12.903,-12.903 h -11.134 v -18.025 c 0,-7.126 -5.776,-12.903 -12.903,-12.903 -7.128,0 -12.903,5.777 -12.903,12.903 v 18.025 h -11.135 c -7.127,0 -12.903,5.777 -12.903,12.903 0,7.126 5.775,12.903 12.903,12.903 h 11.135 v 22.682 h -26.144 c -7.128,0 -12.903,5.777 -12.903,12.903 0,7.126 5.775,12.903 12.903,12.903 h 26.144 v 38.876 c 0,0.382 0.024,0.759 0.057,1.133 4.177,-0.722 8.461,-1.133 12.847,-1.133 4.386,0 8.668,0.411 12.845,1.133 z"
   id="path1779" />

	<path
   fill="#164fce"
   d="m 269.174,533.633 c -19.982,-6.684 -68.469,-26.989 -87.085,-71.071 l -0.586,-1.389 h 1.508 l 0.165,-0.005 c 7.68,0 15.208,1.348 22.391,4.007 11.531,-17.814 30.04,-30.069 50.908,-33.673 4.407,-0.762 8.787,-1.147 13.017,-1.147 4.23,0 8.61,0.386 13.017,1.147 20.869,3.602 39.378,15.855 50.909,33.673 7.182,-2.659 14.71,-4.007 22.39,-4.007 l 1.562,0.068 -0.477,1.325 c -18.614,44.082 -67.101,64.388 -87.083,71.071 l -0.317,0.106 z"
   id="path1781" />

	<path
   fill="#164fce"
   d="m 333.012,466.396 c -11.126,-17.602 -29.364,-30.231 -50.674,-33.909 -4.177,-0.722 -8.461,-1.133 -12.846,-1.133 -4.385,0 -8.669,0.411 -12.847,1.133 -21.307,3.68 -39.547,16.31 -50.673,33.909 -7.078,-2.722 -14.76,-4.229 -22.796,-4.229 -0.055,0 -0.11,0.005 -0.165,0.005 18.297,43.327 65.445,63.476 86.481,70.512 21.036,-7.036 68.184,-27.185 86.479,-70.512 -0.055,0 -0.108,-0.005 -0.163,-0.005 -8.037,0.001 -15.718,1.508 -22.796,4.229 z"
   id="path1783" />

</g>
    <g
       id="g1799"
       transform="matrix(0.09796212,0,0,0.09796212,346.31904,272.79873)">
	<path
   id="path1787"
   d="M 632.258,326.882 H 25.807 V 473.118 H 774.194 V 326.882 h -90.322 c -7.128,0 -12.903,-5.777 -12.903,-12.903 h -25.807 c -0.001,7.125 -5.776,12.903 -12.904,12.903 z"
   fill="#ffffff" />

	<path
   id="path1789"
   d="m 644.161,314.979 v -1 c 0,-6.563 -5.34,-11.903 -11.903,-11.903 H 24.807 V 153.839 h 750.387 v 148.236 h -91.322 c -6.563,0 -11.903,5.34 -11.903,11.903 v 1 h -27.808 z"
   fill="#b21727" />

	<path
   id="path1791"
   d="m 632.258,301.075 c 7.128,0 12.903,5.777 12.903,12.903 h 25.807 c 0,-7.126 5.775,-12.903 12.903,-12.903 h 90.322 V 154.839 H 25.807 v 146.236 z"
   fill="#b21727" />

	<rect
   id="rect1793"
   height="148.23599"
   width="750.38702"
   fill="#103b9b"
   y="497.92499"
   x="24.806999" />

	<rect
   id="rect1795"
   height="146.23599"
   width="748.38702"
   fill="#103b9b"
   y="498.92499"
   x="25.806999" />

	<path
   id="path1797"
   d="M 787.097,129.032 H 12.903 C 5.777,129.032 0,134.81 0,141.936 v 516.129 c 0,7.126 5.777,12.903 12.903,12.903 h 774.193 c 7.128,0 12.903,-5.777 12.903,-12.903 V 141.936 C 800,134.81 794.225,129.032 787.097,129.032 Z m -12.904,25.807 v 146.236 h -90.322 c -7.128,0 -12.903,5.777 -12.903,12.903 0,7.126 5.775,12.903 12.903,12.903 h 90.322 V 473.117 H 25.807 V 326.882 h 606.451 c 7.128,0 12.903,-5.777 12.903,-12.903 0,-7.126 -5.775,-12.903 -12.903,-12.903 H 25.807 V 154.839 Z M 25.807,645.161 V 498.925 h 748.387 v 146.236 z" />

</g>
    <g
       id="g1827"
       transform="matrix(0.09796212,0,0,0.09796212,202.03805,280.93708)">
	<path
   id="path1801"
   d="M 24.807,474.118 V 325.882 h 125.941 v 98.443 c 0,16.91 3.354,33.191 9.969,48.394 l 0.609,1.399 z"
   fill="#164fce" />

	<path
   id="path1803"
   d="M 25.807,326.882 V 473.118 H 159.8 c -6.63,-15.237 -10.052,-31.644 -10.052,-48.793 v -97.443 z"
   fill="#164fce" />

	<path
   id="path1805"
   d="m 644.161,487.021 v -1 c 0,-6.563 -5.34,-11.903 -11.903,-11.903 H 377.659 l 0.608,-1.399 c 6.614,-15.203 9.968,-31.485 9.968,-48.394 v -98.443 h 386.958 v 148.236 h -91.322 c -6.563,0 -11.903,5.34 -11.903,11.903 v 1 z"
   fill="#164fce" />

	<path
   id="path1807"
   d="m 683.871,473.118 h 90.322 V 326.882 H 389.235 v 97.443 c 0,17.149 -3.422,33.556 -10.051,48.793 h 253.073 c 7.128,0 12.903,5.777 12.903,12.903 h 25.807 c 10e-4,-7.125 5.776,-12.903 12.904,-12.903 z"
   fill="#164fce" />

	<path
   id="path1809"
   d="M 24.807,646.161 V 497.925 h 150.661 l 0.3,0.396 c 3.946,5.204 8.348,10.207 13.082,14.869 19.655,19.37 47.05,35.146 77.136,44.422 1.136,0.351 2.316,0.528 3.507,0.528 1.191,0 2.371,-0.178 3.508,-0.528 30.088,-9.277 57.482,-25.053 77.136,-44.421 4.725,-4.653 9.126,-9.656 13.082,-14.87 l 0.3,-0.396 h 268.739 c 6.563,0 11.903,-5.34 11.903,-11.903 v -1 h 27.807 v 1 c 0,6.563 5.34,11.903 11.903,11.903 h 91.322 v 148.236 z"
   fill="#ed1f34" />

	<path
   id="path1811"
   d="m 683.871,498.925 c -7.128,0 -12.903,-5.777 -12.903,-12.903 h -25.807 c 0,7.126 -5.775,12.903 -12.903,12.903 H 364.016 c -3.95,5.206 -8.337,10.211 -13.177,14.978 -19.768,19.48 -47.307,35.342 -77.543,44.665 -1.239,0.382 -2.521,0.572 -3.802,0.572 -1.281,0 -2.563,-0.19 -3.802,-0.572 -30.237,-9.322 -57.776,-25.185 -77.543,-44.665 -4.839,-4.767 -9.229,-9.771 -13.177,-14.978 H 25.807 V 645.161 H 774.194 V 498.925 Z"
   fill="#ed1f34" />

	<path
   id="path1813"
   d="m 149.748,301.075 v -47.312 c 0,-7.126 5.775,-12.903 12.903,-12.903 h 213.681 c 7.128,0 12.903,5.777 12.903,12.903 v 47.312 H 774.193 V 154.839 H 25.807 v 146.236 z"
   fill="#ffffff" />

	<path
   id="path1815"
   d="M 787.097,129.032 H 12.903 C 5.775,129.032 0,134.81 0,141.936 v 516.129 c 0,7.126 5.775,12.903 12.903,12.903 h 774.193 c 7.128,0 12.903,-5.777 12.903,-12.903 V 141.936 C 800,134.81 794.225,129.032 787.097,129.032 Z m -12.904,25.807 V 301.075 H 389.235 v -47.312 c 0,-7.126 -5.775,-12.903 -12.903,-12.903 H 162.651 c -7.128,0 -12.903,5.777 -12.903,12.903 v 47.312 H 25.807 V 154.839 Z M 363.429,424.325 c 0,14.234 -2.79,26.796 -7.456,37.848 -18.297,43.327 -65.445,63.476 -86.479,70.512 -21.037,-7.036 -68.186,-27.185 -86.48,-70.512 -4.668,-11.052 -7.457,-23.611 -7.457,-37.848 V 266.667 h 187.875 v 157.659 h -0.003 z M 159.8,473.118 H 25.807 V 326.882 h 123.941 v 97.443 c 0,17.15 3.422,33.556 10.052,48.793 z M 25.807,645.161 V 498.925 H 174.97 c 3.95,5.206 8.339,10.211 13.177,14.978 19.768,19.48 47.307,35.342 77.543,44.665 1.239,0.382 2.521,0.572 3.802,0.572 1.281,0 2.563,-0.19 3.802,-0.572 30.236,-9.322 57.775,-25.185 77.543,-44.665 4.84,-4.767 9.227,-9.771 13.177,-14.978 h 268.244 c 7.128,0 12.903,-5.777 12.903,-12.903 0,-7.126 -5.775,-12.903 -12.903,-12.903 H 379.185 c 6.629,-15.237 10.051,-31.644 10.051,-48.793 v -97.443 h 384.958 v 146.236 h -90.322 c -7.128,0 -12.903,5.777 -12.903,12.903 0,7.126 5.775,12.903 12.903,12.903 h 90.322 v 146.236 z" />

	<path
   id="path1817"
   d="m 205.613,467.33 c -7.182,-2.762 -14.731,-4.162 -22.437,-4.162 l -0.165,0.005 h -0.663 l -0.258,-0.611 c -5,-11.843 -7.535,-24.707 -7.535,-38.236 V 265.667 H 364.43 v 158.659 c 0,13.532 -2.535,26.396 -7.535,38.236 l -0.258,0.611 h -0.686 c 0,0 -0.113,-0.004 -0.116,-0.004 -7.739,0 -15.284,1.4 -22.463,4.161 l -0.766,0.294 -0.438,-0.693 c -11.195,-17.709 -29.419,-29.904 -49.999,-33.458 l -0.906,-0.156 0.08,-0.916 c 0.03,-0.346 0.053,-0.692 0.053,-1.046 v -39.876 h 27.143 c 6.563,0 11.903,-5.34 11.903,-11.903 0,-6.563 -5.34,-11.903 -11.903,-11.903 H 281.396 V 342.99 h 12.134 c 6.563,0 11.903,-5.34 11.903,-11.903 0,-6.563 -5.34,-11.903 -11.903,-11.903 h -12.134 v -19.025 c 0,-6.563 -5.34,-11.903 -11.903,-11.903 -6.563,0 -11.903,5.34 -11.903,11.903 v 19.025 h -12.135 c -6.563,0 -11.903,5.34 -11.903,11.903 0,6.563 5.339,11.903 11.903,11.903 h 12.135 v 24.682 h -27.144 c -6.563,0 -11.903,5.34 -11.903,11.903 0,6.563 5.34,11.903 11.903,11.903 h 27.144 v 39.876 c 0,0.354 0.022,0.7 0.053,1.046 l 0.08,0.916 -0.906,0.156 c -20.578,3.552 -38.801,15.747 -49.998,33.458 l -0.438,0.693 z"
   fill="#ed1f34" />

	<path
   id="path1819"
   d="M 363.429,266.667 H 175.554 v 157.659 c 0,14.234 2.791,26.796 7.457,37.848 0.055,0 0.11,-0.005 0.165,-0.005 8.038,0 15.718,1.507 22.796,4.229 11.126,-17.6 29.366,-30.231 50.673,-33.909 -0.033,-0.374 -0.057,-0.75 -0.057,-1.133 V 392.48 h -26.144 c -7.128,0 -12.903,-5.777 -12.903,-12.903 0,-7.126 5.775,-12.903 12.903,-12.903 h 26.144 V 343.99 h -11.135 c -7.127,0 -12.903,-5.777 -12.903,-12.903 0,-7.126 5.775,-12.903 12.903,-12.903 h 11.135 v -18.025 c 0,-7.126 5.775,-12.903 12.903,-12.903 7.127,0 12.903,5.777 12.903,12.903 v 18.025 h 11.134 c 7.128,0 12.903,5.777 12.903,12.903 0,7.126 -5.775,12.903 -12.903,12.903 h -11.134 v 22.682 h 26.143 c 7.128,0 12.903,5.777 12.903,12.903 0,7.126 -5.775,12.903 -12.903,12.903 h -26.143 v 38.876 c 0,0.383 -0.024,0.759 -0.057,1.133 21.308,3.68 39.548,16.31 50.674,33.909 7.079,-2.722 14.76,-4.229 22.797,-4.229 0.056,0 0.108,0.005 0.164,0.005 4.667,-11.052 7.456,-23.611 7.456,-37.848 V 266.667 Z"
   fill="#ed1f34" />

	<path
   id="path1821"
   d="m 282.338,432.487 c 0.033,-0.374 0.057,-0.751 0.057,-1.133 v -38.876 h 26.143 c 7.128,0 12.903,-5.777 12.903,-12.903 0,-7.126 -5.775,-12.903 -12.903,-12.903 H 282.395 V 343.99 h 11.134 c 7.128,0 12.903,-5.777 12.903,-12.903 0,-7.126 -5.775,-12.903 -12.903,-12.903 h -11.134 v -18.025 c 0,-7.126 -5.776,-12.903 -12.903,-12.903 -7.128,0 -12.903,5.777 -12.903,12.903 v 18.025 h -11.135 c -7.127,0 -12.903,5.777 -12.903,12.903 0,7.126 5.775,12.903 12.903,12.903 h 11.135 v 22.682 h -26.144 c -7.128,0 -12.903,5.777 -12.903,12.903 0,7.126 5.775,12.903 12.903,12.903 h 26.144 v 38.876 c 0,0.382 0.024,0.759 0.057,1.133 4.177,-0.722 8.461,-1.133 12.847,-1.133 4.386,0 8.668,0.411 12.845,1.133 z"
   fill="#ffffff" />

	<path
   id="path1823"
   d="m 269.174,533.633 c -19.982,-6.684 -68.469,-26.989 -87.085,-71.071 l -0.586,-1.389 h 1.508 l 0.165,-0.005 c 7.68,0 15.208,1.348 22.391,4.007 11.531,-17.814 30.04,-30.069 50.908,-33.673 4.407,-0.762 8.787,-1.147 13.017,-1.147 4.23,0 8.61,0.386 13.017,1.147 20.869,3.602 39.378,15.855 50.909,33.673 7.182,-2.659 14.71,-4.007 22.39,-4.007 l 1.562,0.068 -0.477,1.325 c -18.614,44.082 -67.101,64.388 -87.083,71.071 l -0.317,0.106 z"
   fill="#164fce" />

	<path
   id="path1825"
   d="m 333.012,466.396 c -11.126,-17.602 -29.364,-30.231 -50.674,-33.909 -4.177,-0.722 -8.461,-1.133 -12.846,-1.133 -4.385,0 -8.669,0.411 -12.847,1.133 -21.307,3.68 -39.547,16.31 -50.673,33.909 -7.078,-2.722 -14.76,-4.229 -22.796,-4.229 -0.055,0 -0.11,0.005 -0.165,0.005 18.297,43.327 65.445,63.476 86.481,70.512 21.036,-7.036 68.184,-27.185 86.479,-70.512 -0.055,0 -0.108,-0.005 -0.163,-0.005 -8.037,0.001 -15.718,1.508 -22.796,4.229 z"
   fill="#164fce" />

</g>
    <g
       id="g1843"
       transform="matrix(0.09796212,0,0,0.09796212,283.10231,433.77742)">
	<path
   id="path1829"
   d="m 644.161,487.021 v -1 c 0,-6.563 -5.34,-11.903 -11.903,-11.903 H 24.807 V 325.882 h 750.387 v 148.236 h -91.322 c -6.563,0 -11.903,5.34 -11.903,11.903 v 1 z"
   fill="#ed1f34" />

	<path
   id="path1831"
   d="m 683.871,473.118 h 90.322 V 326.882 H 25.807 v 146.236 h 606.451 c 7.128,0 12.903,5.777 12.903,12.903 h 25.807 c 0,-7.125 5.775,-12.903 12.903,-12.903 z"
   fill="#ed1f34" />

	<path
   id="path1833"
   d="M 24.807,646.161 V 497.925 h 607.451 c 6.563,0 11.903,-5.34 11.903,-11.903 v -1 h 27.807 v 1 c 0,6.563 5.34,11.903 11.903,11.903 h 91.322 v 148.236 z"
   fill="#ffe000" />

	<path
   id="path1835"
   d="m 683.871,498.925 c -7.128,0 -12.903,-5.777 -12.903,-12.903 h -25.807 c 0,7.126 -5.775,12.903 -12.903,12.903 H 25.807 V 645.161 H 774.194 V 498.925 Z"
   fill="#ffe000" />

	<rect
   id="rect1837"
   height="148.23599"
   width="750.38702"
   fill="#333333"
   y="153.839"
   x="24.806999" />

	<rect
   id="rect1839"
   height="146.23599"
   width="748.38702"
   fill="#333333"
   y="154.839"
   x="25.806999" />

	<path
   id="path1841"
   d="M 787.097,129.032 H 12.903 C 5.777,129.032 0,134.81 0,141.936 v 516.129 c 0,7.126 5.777,12.903 12.903,12.903 h 774.193 c 7.128,0 12.903,-5.777 12.903,-12.903 V 141.936 C 800,134.81 794.225,129.032 787.097,129.032 Z m -12.904,25.807 V 301.075 H 25.807 V 154.839 Z M 25.807,645.161 V 498.925 h 606.451 c 7.128,0 12.903,-5.777 12.903,-12.903 0,-7.126 -5.775,-12.903 -12.903,-12.903 H 25.807 V 326.882 h 748.387 v 146.236 h -90.322 c -7.128,0 -12.903,5.777 -12.903,12.903 0,7.126 5.775,12.903 12.903,12.903 h 90.322 V 645.16 H 25.807 Z" />

</g>
    <g
       id="g1907"
       transform="matrix(0.09796212,0,0,0.09796212,134.88049,426.13742)">
	<polygon
   id="polygon1845"
   points="24.807,331.323 24.807,232.411 173.175,331.323 "
   fill="#103b9b" />

	<polygon
   id="polygon1847"
   points="25.807,234.279 25.807,330.323 169.872,330.323 "
   fill="#103b9b" />

	<polygon
   id="polygon1849"
   points="154.567,153.839 331.322,153.839 331.322,271.675 "
   fill="#103b9b" />

	<polygon
   id="polygon1851"
   points="330.322,154.839 157.87,154.839 330.322,269.807 "
   fill="#103b9b" />

	<polygon
   id="polygon1853"
   points="24.807,468.678 173.175,468.678 24.807,567.589 "
   fill="#103b9b" />

	<polygon
   id="polygon1855"
   points="25.807,469.678 25.807,565.721 169.872,469.678 "
   fill="#103b9b" />

	<polygon
   id="polygon1857"
   points="468.678,153.839 645.433,153.839 468.678,271.675 "
   fill="#103b9b" />

	<polygon
   id="polygon1859"
   points="642.13,154.839 469.678,154.839 469.678,269.807 "
   fill="#103b9b" />

	<polygon
   id="polygon1861"
   points="626.825,331.323 775.193,232.411 775.193,331.323 "
   fill="#103b9b" />

	<polygon
   id="polygon1863"
   points="774.193,330.323 774.193,234.279 630.128,330.323 "
   fill="#103b9b" />

	<polygon
   id="polygon1865"
   points="154.567,646.161 331.322,528.323 331.322,646.161 "
   fill="#103b9b" />

	<polygon
   id="polygon1867"
   points="157.87,645.161 330.322,645.161 330.322,530.191 "
   fill="#103b9b" />

	<polygon
   id="polygon1869"
   points="626.825,468.678 775.193,468.678 775.193,567.589 "
   fill="#103b9b" />

	<polygon
   id="polygon1871"
   points="774.193,565.721 774.193,469.678 630.128,469.678 "
   fill="#103b9b" />

	<polygon
   id="polygon1873"
   points="468.678,646.161 468.678,528.323 645.433,646.161 "
   fill="#103b9b" />

	<polygon
   id="polygon1875"
   points="469.678,645.161 642.13,645.161 469.678,530.191 "
   fill="#103b9b" />

	<polygon
   id="polygon1877"
   points="660.743,154.839 642.13,154.839 469.678,269.807 469.678,154.839 450.322,154.839 450.322,349.677 774.193,349.677 774.193,330.323 630.128,330.323 774.193,234.279 774.193,166.045 527.778,330.323 481.254,330.323 469.678,330.323 469.678,313.244 469.678,282.228 "
   fill="#ffffff" />

	<polygon
   id="polygon1879"
   points="139.262,645.161 157.87,645.161 330.322,530.191 330.322,645.161 349.678,645.161 349.678,450.322 25.807,450.322 25.807,469.678 169.872,469.678 25.807,565.721 25.807,633.954 272.222,469.678 318.746,469.678 330.322,469.678 330.322,486.77 330.322,517.786 "
   fill="#ffffff" />

	<polygon
   id="polygon1881"
   points="52.217,646.161 318.443,468.678 331.322,468.678 331.322,487.305 93.041,646.161 "
   fill="#ed1f34" />

	<polygon
   id="polygon1883"
   points="318.746,469.678 55.52,645.161 92.738,645.161 330.322,486.77 330.322,469.678 "
   fill="#ed1f34" />

	<polygon
   id="polygon1885"
   points="275.525,331.323 234.126,331.323 24.807,191.44 24.807,164.177 "
   fill="#ed1f34" />

	<polygon
   id="polygon1887"
   points="272.222,330.323 25.807,166.045 25.807,190.906 234.429,330.323 "
   fill="#ed1f34" />

	<polygon
   id="polygon1889"
   points="775.193,635.822 524.476,468.678 564.026,468.678 775.193,609.788 "
   fill="#ed1f34" />

	<polygon
   id="polygon1891"
   points="527.778,469.678 774.193,633.954 774.193,610.322 563.723,469.678 "
   fill="#ed1f34" />

	<polygon
   id="polygon1893"
   points="468.678,331.323 468.678,312.708 706.959,153.839 747.783,153.839 481.557,331.323 "
   fill="#ed1f34" />

	<polygon
   id="polygon1895"
   points="481.254,330.323 744.48,154.839 707.262,154.839 469.678,313.244 469.678,330.323 "
   fill="#ed1f34" />

	<path
   id="path1897"
   d="m 800,657.979 v -54.572 c 0,-0.021 0,-0.041 0,-0.062 V 142.02 c 0,-0.014 0,-0.025 0,-0.039 v -0.045 c 0,-0.076 -0.011,-0.15 -0.012,-0.226 -0.006,-0.348 -0.02,-0.693 -0.054,-1.041 -0.014,-0.148 -0.041,-0.291 -0.061,-0.436 -0.036,-0.272 -0.07,-0.545 -0.125,-0.815 -0.038,-0.189 -0.09,-0.374 -0.136,-0.561 -0.054,-0.22 -0.104,-0.44 -0.169,-0.659 -0.069,-0.227 -0.153,-0.446 -0.232,-0.666 -0.063,-0.172 -0.118,-0.346 -0.189,-0.516 -0.111,-0.27 -0.239,-0.53 -0.368,-0.79 -0.059,-0.119 -0.108,-0.237 -0.17,-0.354 -0.178,-0.33 -0.37,-0.65 -0.573,-0.963 -0.027,-0.043 -0.05,-0.088 -0.077,-0.131 -0.002,-0.003 -0.005,-0.007 -0.009,-0.01 -0.241,-0.359 -0.497,-0.708 -0.772,-1.042 -0.125,-0.153 -0.265,-0.289 -0.396,-0.435 -0.146,-0.162 -0.287,-0.331 -0.442,-0.485 -0.217,-0.217 -0.447,-0.417 -0.678,-0.616 -0.084,-0.072 -0.162,-0.153 -0.249,-0.224 -0.221,-0.181 -0.451,-0.344 -0.682,-0.509 -0.11,-0.08 -0.217,-0.167 -0.33,-0.243 -0.2,-0.134 -0.408,-0.251 -0.614,-0.374 -0.158,-0.094 -0.313,-0.194 -0.475,-0.28 -0.164,-0.088 -0.334,-0.162 -0.503,-0.243 -0.215,-0.103 -0.427,-0.21 -0.646,-0.303 -0.126,-0.052 -0.255,-0.093 -0.382,-0.14 -0.267,-0.1 -0.532,-0.201 -0.806,-0.285 -0.1,-0.031 -0.201,-0.05 -0.303,-0.078 -0.301,-0.083 -0.602,-0.167 -0.91,-0.227 -0.138,-0.027 -0.276,-0.04 -0.414,-0.063 -0.298,-0.05 -0.596,-0.1 -0.9,-0.127 -0.398,-0.038 -0.8,-0.06 -1.202,-0.06 -0.009,-0.002 -0.018,-0.002 -0.024,-0.002 h -83.654 c -0.016,0 -0.029,0 -0.045,0 H 12.903 c -0.007,0 -0.014,0 -0.021,0 -0.403,0.002 -0.805,0.022 -1.206,0.06 -0.351,0.033 -0.695,0.088 -1.038,0.148 -0.091,0.016 -0.183,0.024 -0.272,0.042 -0.337,0.067 -0.666,0.155 -0.993,0.248 -0.072,0.021 -0.146,0.035 -0.218,0.057 -0.296,0.089 -0.583,0.198 -0.871,0.308 -0.105,0.04 -0.213,0.072 -0.316,0.117 -0.241,0.1 -0.473,0.215 -0.706,0.33 -0.146,0.072 -0.298,0.136 -0.442,0.213 -0.184,0.098 -0.359,0.21 -0.538,0.318 -0.184,0.11 -0.372,0.215 -0.552,0.335 -0.136,0.091 -0.262,0.193 -0.394,0.288 -0.208,0.151 -0.42,0.299 -0.621,0.464 -0.108,0.088 -0.207,0.188 -0.312,0.279 -0.208,0.182 -0.42,0.363 -0.618,0.561 -0.189,0.188 -0.361,0.391 -0.539,0.59 -0.1,0.114 -0.207,0.217 -0.303,0.333 -0.275,0.334 -0.532,0.682 -0.772,1.041 -0.003,0.005 -0.007,0.009 -0.01,0.014 -0.033,0.05 -0.059,0.104 -0.091,0.153 -0.198,0.306 -0.389,0.618 -0.561,0.939 -0.065,0.12 -0.117,0.246 -0.177,0.368 -0.126,0.256 -0.253,0.511 -0.361,0.776 -0.072,0.174 -0.129,0.351 -0.193,0.526 -0.079,0.218 -0.162,0.434 -0.23,0.657 -0.067,0.22 -0.115,0.44 -0.17,0.663 -0.046,0.186 -0.098,0.368 -0.134,0.557 -0.053,0.272 -0.089,0.545 -0.125,0.819 -0.019,0.145 -0.046,0.288 -0.06,0.434 -0.035,0.348 -0.046,0.695 -0.053,1.041 C 0.01,141.786 0,141.86 0,141.936 v 0.045 c 0,0.014 0,0.025 0,0.039 v 55.811 c 0,0.016 0,0.029 0,0.044 v 460.104 c 0,0.014 0,0.025 0,0.04 v 0.044 c 0,0.076 0.01,0.15 0.012,0.226 0.005,0.348 0.019,0.693 0.053,1.041 0.014,0.146 0.041,0.289 0.06,0.436 0.036,0.273 0.071,0.545 0.125,0.817 0.038,0.188 0.09,0.373 0.136,0.561 0.053,0.22 0.103,0.44 0.168,0.659 0.069,0.225 0.151,0.441 0.232,0.662 0.063,0.174 0.119,0.35 0.191,0.521 0.11,0.268 0.239,0.526 0.366,0.784 0.059,0.119 0.108,0.239 0.172,0.357 0.177,0.331 0.37,0.65 0.573,0.964 0.027,0.043 0.05,0.088 0.078,0.131 10e-4,0.003 0.005,0.007 0.007,0.01 0.278,0.417 0.585,0.811 0.908,1.191 0.1,0.118 0.207,0.227 0.31,0.342 0.224,0.246 0.458,0.481 0.699,0.709 0.134,0.126 0.268,0.249 0.406,0.368 0.256,0.22 0.523,0.427 0.797,0.628 0.115,0.084 0.224,0.176 0.34,0.255 0.389,0.265 0.792,0.507 1.209,0.73 0.1,0.054 0.203,0.097 0.305,0.146 0.335,0.167 0.676,0.322 1.027,0.461 0.133,0.052 0.265,0.099 0.397,0.146 0.332,0.119 0.669,0.222 1.012,0.313 0.136,0.036 0.272,0.073 0.41,0.104 0.354,0.081 0.714,0.145 1.079,0.196 0.125,0.018 0.25,0.043 0.375,0.057 0.459,0.052 0.926,0.083 1.399,0.084 0.022,0 0.044,0.004 0.068,0.004 0.005,0 0.012,0 0.018,0 h 83.623 c 0.017,0 0.036,0 0.053,0 h 690.458 c 0.005,0 0.013,0.002 0.018,0.002 0.022,0 0.045,-0.004 0.067,-0.004 0.473,-0.002 0.938,-0.032 1.398,-0.084 0.124,-0.014 0.246,-0.04 0.369,-0.057 0.367,-0.052 0.73,-0.115 1.086,-0.198 0.135,-0.031 0.269,-0.067 0.402,-0.104 0.348,-0.093 0.688,-0.197 1.022,-0.316 0.131,-0.046 0.26,-0.091 0.389,-0.143 0.356,-0.14 0.702,-0.298 1.041,-0.466 0.097,-0.049 0.196,-0.09 0.292,-0.142 0.42,-0.224 0.824,-0.468 1.215,-0.732 0.113,-0.078 0.221,-0.167 0.33,-0.248 0.277,-0.201 0.548,-0.411 0.806,-0.635 0.138,-0.119 0.271,-0.241 0.402,-0.365 0.244,-0.229 0.477,-0.466 0.704,-0.712 0.103,-0.113 0.208,-0.222 0.308,-0.339 0.323,-0.38 0.63,-0.775 0.908,-1.19 0.002,-0.004 0.005,-0.007 0.007,-0.011 0.029,-0.043 0.05,-0.087 0.078,-0.13 0.203,-0.313 0.396,-0.632 0.572,-0.964 0.063,-0.117 0.112,-0.237 0.171,-0.354 0.129,-0.26 0.256,-0.52 0.368,-0.79 0.07,-0.17 0.125,-0.344 0.188,-0.516 0.081,-0.221 0.164,-0.44 0.232,-0.666 0.065,-0.219 0.115,-0.438 0.169,-0.657 0.047,-0.188 0.098,-0.371 0.136,-0.563 0.054,-0.27 0.09,-0.544 0.124,-0.815 0.019,-0.146 0.047,-0.289 0.062,-0.437 0.035,-0.346 0.047,-0.693 0.054,-1.039 0.002,-0.076 0.012,-0.15 0.012,-0.226 V 658.02 C 800,658.006 800,657.992 800,657.979 Z M 469.678,313.244 707.262,154.839 h 37.219 L 481.254,330.323 h 46.524 L 774.193,166.046 v 68.234 96.043 19.354 H 450.322 V 154.839 h 19.355 172.453 18.613 L 469.678,282.228 Z m -120,36.433 H 25.807 V 330.323 234.28 221.945 l 162.176,108.378 h 46.446 L 25.807,190.906 v -24.86 l 246.416,164.277 h 46.524 L 55.52,154.839 h 102.352 172.45 19.355 V 349.677 Z M 330.322,486.77 92.738,645.161 H 55.52 L 318.746,469.678 H 272.222 L 25.807,633.954 V 565.721 469.678 450.323 H 349.678 V 645.162 H 330.323 157.87 139.262 L 330.323,517.787 V 486.77 Z m 120,-36.448 h 233.549 c 7.128,0 12.903,-5.777 12.903,-12.903 v 0 c 0,-7.126 -5.775,-12.902 -12.903,-12.902 H 437.419 c -7.127,0 -12.903,5.776 -12.903,12.902 V 645.161 H 375.485 V 437.419 c 0,-7.126 -5.776,-12.902 -12.903,-12.902 H 25.807 v -49.033 h 336.774 c 7.127,0 12.903,-5.777 12.903,-12.903 V 154.839 h 49.031 v 207.742 c 0,7.126 5.776,12.903 12.903,12.903 h 336.774 v 49.033 h -38.709 c -7.128,0 -12.903,5.776 -12.903,12.902 v 0 c 0,7.126 5.775,12.903 12.903,12.903 h 38.709 v 19.355 96.043 13.565 L 610.171,469.678 h -46.448 l 210.471,140.645 v 23.631 L 527.778,469.678 H 481.254 L 744.48,645.161 H 642.13 469.678 450.323 V 450.322 Z" />

	<polygon
   id="polygon1899"
   points="330.322,269.807 157.87,154.839 55.52,154.839 318.746,330.323 272.222,330.323 234.429,330.323 187.983,330.323 25.807,221.944 25.807,234.279 169.872,330.323 25.807,330.323 25.807,349.677 349.678,349.677 349.678,154.839 330.322,154.839 "
   fill="#ffffff" />

	<path
   id="path1901"
   d="M 469.678,530.191 642.13,645.161 H 744.48 L 481.254,469.678 h 46.524 35.946 46.448 L 774.193,579.286 V 565.721 L 630.128,469.678 h 144.065 v -19.355 h -38.709 c -7.128,0 -12.903,-5.777 -12.903,-12.903 h -25.807 c 0,7.126 -5.775,12.903 -12.903,12.903 H 450.322 v 194.839 h 19.355 V 530.191 Z"
   fill="#ffffff" />

	<path
   id="path1903"
   d="M 374.484,646.161 V 437.419 c 0,-6.563 -5.34,-11.902 -11.903,-11.902 H 24.807 v -51.033 h 337.774 c 6.563,0 11.903,-5.34 11.903,-11.903 V 153.839 h 51.031 v 208.742 c 0,6.563 5.34,11.903 11.903,11.903 h 337.774 v 51.033 h -39.709 c -6.563,0 -11.903,5.339 -11.903,11.902 v 1 h -27.807 v -1 c 0,-6.563 -5.34,-11.902 -11.903,-11.902 H 437.419 c -6.563,0 -11.903,5.339 -11.903,11.902 v 208.742 z"
   fill="#ed1f34" />

	<path
   id="path1905"
   d="m 722.581,437.419 c 0,-7.126 5.775,-12.902 12.903,-12.902 h 38.709 V 375.484 H 437.419 c -7.127,0 -12.903,-5.777 -12.903,-12.903 V 154.839 h -49.031 v 207.742 c 0,7.126 -5.776,12.903 -12.903,12.903 H 25.807 v 49.033 h 336.774 c 7.127,0 12.903,5.776 12.903,12.902 v 207.742 h 49.031 V 437.419 c 0,-7.126 5.776,-12.902 12.903,-12.902 H 683.87 c 7.128,0 12.903,5.776 12.903,12.902 v 0 z"
   fill="#ed1f34" />

</g>
    <path
       id="path1921"
       d="M 67.92023,55.693667 C 75.105478,43.75339 87.15646,35.098407 100.87265,35.098407"
       style="fill:none;stroke:#000000;stroke-width:2.59501;stroke-linecap:butt;stroke-linejoin:miter;stroke-miterlimit:4;stroke-dasharray:none;stroke-opacity:1" />
    <path
       id="path1923"
       d="m 198.90607,30.155544 c 1.45778,3.30291 55.99326,18.895916 56.01912,18.947637"
       style="fill:none;stroke:#000000;stroke-width:2.59501;stroke-linecap:butt;stroke-linejoin:miter;stroke-miterlimit:4;stroke-dasharray:7.78501, 2.59501;stroke-dashoffset:0;stroke-opacity:1" />
    <path
       id="path1927"
       d="m 348.01576,54.046045 c 8.13899,0.073 51.90005,4.50143 51.90005,9.885727"
       style="fill:none;stroke:#000000;stroke-width:2.59501;stroke-linecap:butt;stroke-linejoin:miter;stroke-miterlimit:4;stroke-dasharray:none;stroke-opacity:1" />
    <path
       id="path1929"
       d="m 449.34444,97.708 c -4.32615,6.79779 4.90013,27.22849 -1.64762,33.77622 -1.89462,1.89463 -3.93823,2.93364 -4.94285,4.94287"
       style="fill:none;stroke:#000000;stroke-width:2.59501;stroke-linecap:butt;stroke-linejoin:miter;stroke-miterlimit:4;stroke-dasharray:7.78501, 2.59501;stroke-dashoffset:0;stroke-opacity:1" />
    <path
       id="path1931"
       d="m 380.14437,175.96998 c -19.96324,7.80196 -40.07103,6.59049 -60.96198,6.59049"
       style="fill:none;stroke:#000000;stroke-width:2.59501;stroke-linecap:butt;stroke-linejoin:miter;stroke-miterlimit:4;stroke-dasharray:none;stroke-opacity:1" />
    <path
       id="path1933"
       d="m 208.7918,183.38427 c -17.90423,2.38752 -33.01904,9.50715 -46.95718,16.47622"
       style="fill:none;stroke:#000000;stroke-width:2.59501;stroke-linecap:butt;stroke-linejoin:miter;stroke-miterlimit:4;stroke-dasharray:7.78501, 2.59501;stroke-dashoffset:0;stroke-opacity:1" />
    <path
       id="path1935"
       d="m 53.915451,200.68429 c -9.531194,-0.91332 -14.244261,3.53473 -19.771449,9.06192 -13.099544,13.09954 7.246351,32.67252 14.82859,45.30957 2.486617,4.14437 5.944635,13.68186 9.885723,15.65241"
       style="fill:none;stroke:#000000;stroke-width:2.59501;stroke-linecap:butt;stroke-linejoin:miter;stroke-miterlimit:4;stroke-dasharray:none;stroke-opacity:1" />
    <path
       id="path1937"
       d="m 120.64409,307.77966 c 20.3549,2.78937 33.28798,11.37058 51.07625,17.30003 5.99553,1.99849 15.69778,0 22.24289,0"
       style="fill:none;stroke:#000000;stroke-width:2.59501;stroke-linecap:butt;stroke-linejoin:miter;stroke-miterlimit:4;stroke-dasharray:7.78501, 2.59501;stroke-dashoffset:0;stroke-opacity:1" />
    <path
       id="path1939"
       d="m 291.17285,325.07969 c 18.49179,12.89583 33.53122,-4.94289 51.07623,-4.94289"
       style="fill:none;stroke:#000000;stroke-width:2.59501;stroke-linecap:butt;stroke-linejoin:miter;stroke-miterlimit:4;stroke-dasharray:none;stroke-opacity:1" />
    <path
       id="path1941"
       d="m 436.98731,316.84156 c 61.0707,-14.25552 16.47618,42.70106 16.47618,66.72865"
       style="fill:none;stroke:#000000;stroke-width:2.59501;stroke-linecap:butt;stroke-linejoin:miter;stroke-miterlimit:4;stroke-dasharray:7.78501, 2.59501;stroke-dashoffset:0;stroke-opacity:1" />
    <path
       id="path1943"
       d="m 445.2254,456.06553 c -3.57209,5.6713 -4.43659,7.54312 -5.76668,11.53335 -2.86643,8.5993 -57.46899,14.8286 -67.55246,14.8286"
       style="fill:none;stroke:#000000;stroke-width:2.59501;stroke-linecap:butt;stroke-linejoin:miter;stroke-miterlimit:4;stroke-dasharray:none;stroke-opacity:1" />
    <path
       id="path1945"
       d="m 272.22521,475.83697 c -14.67538,-1.97684 -36.76067,3.45067 -48.60482,-2.47142"
       style="fill:none;stroke:#000000;stroke-width:2.59501;stroke-linecap:butt;stroke-linejoin:miter;stroke-miterlimit:4;stroke-dasharray:7.78501, 2.59501;stroke-dashoffset:0;stroke-opacity:1" />
    <path
       id="path1947"
       d="M 123.11552,467.59888 C 94.466436,470.26724 79.106173,463.95625 63.801178,448.65124"
       style="fill:none;stroke:#000000;stroke-width:2.59501;stroke-linecap:butt;stroke-linejoin:miter;stroke-miterlimit:4;stroke-dasharray:none;stroke-opacity:1" />
  </g>
</svg>
